<?xml version="1.0" encoding="UTF-8" standalone="no"?>
<!DOCTYPE svg PUBLIC "-//W3C//DTD SVG 1.1//EN"
 "http://www.w3.org/Graphics/SVG/1.1/DTD/svg11.dtd">
<!-- Generated by graphviz version 3.0.0 (20220226.1711)
 -->
<!-- Title: actor.cpp Pages: 1 -->
<svg width="214pt" height="257pt"
 viewBox="0.00 0.00 213.58 257.00" xmlns="http://www.w3.org/2000/svg" xmlns:xlink="http://www.w3.org/1999/xlink">
<g id="graph0" class="graph" transform="scale(1 1) rotate(0) translate(4 253)">
<title>actor.cpp</title>
<!-- Node1 -->
<g id="node1" class="node">
<title>Node1</title>
<g id="a_node1"><a xlink:title=" ">
<polygon fill="#bfbfbf" stroke="black" points="0,-228.5 0,-248.5 57.13,-248.5 57.13,-228.5 0,-228.5"/>
<text text-anchor="middle" x="28.57" y="-235.5" font-family="Helvetica,sans-Serif" font-size="10.00">actor.cpp</text>
</a>
</g>
</g>
<!-- Node2 -->
<g id="node2" class="node">
<title>Node2</title>
<g id="a_node2"><a xlink:title=" ">
<polygon fill="none" stroke="#bfbfbf" points="17.45,-0.5 17.45,-20.5 65.68,-20.5 65.68,-0.5 17.45,-0.5"/>
<text text-anchor="middle" x="41.57" y="-7.5" font-family="Helvetica,sans-Serif" font-size="10.00">raylib.h</text>
</a>
</g>
</g>
<!-- Node1&#45;&gt;Node2 -->
<g id="edge1" class="edge">
<title>Node1&#45;&gt;Node2</title>
<path fill="none" stroke="midnightblue" d="M27.02,-228.47C25.54,-219.31 23.4,-204.72 22.57,-192 18.71,-133.22 30.62,-64.02 37.32,-30.98"/>
<polygon fill="midnightblue" stroke="midnightblue" points="40.82,-31.38 39.44,-20.87 33.97,-29.94 40.82,-31.38"/>
</g>
<!-- Node3 -->
<g id="node3" class="node">
<title>Node3</title>
<g id="a_node3"><a xlink:href="actor_8h.html" target="_top" xlink:title=" ">
<polygon fill="none" stroke="black" points="31.28,-171.5 31.28,-191.5 77.85,-191.5 77.85,-171.5 31.28,-171.5"/>
<text text-anchor="middle" x="54.57" y="-178.5" font-family="Helvetica,sans-Serif" font-size="10.00">actor.h</text>
</a>
</g>
</g>
<!-- Node1&#45;&gt;Node3 -->
<g id="edge2" class="edge">
<title>Node1&#45;&gt;Node3</title>
<path fill="none" stroke="midnightblue" d="M32.86,-228.42C36.38,-220.98 41.47,-210.21 45.83,-200.97"/>
<polygon fill="midnightblue" stroke="midnightblue" points="49.07,-202.32 50.18,-191.78 42.74,-199.32 49.07,-202.32"/>
</g>
<!-- Node4 -->
<g id="node4" class="node">
<title>Node4</title>
<g id="a_node4"><a xlink:href="sprite_8h.html" target="_top" xlink:title=" ">
<polygon fill="none" stroke="black" points="51.17,-114.5 51.17,-134.5 99.96,-134.5 99.96,-114.5 51.17,-114.5"/>
<text text-anchor="middle" x="75.57" y="-121.5" font-family="Helvetica,sans-Serif" font-size="10.00">sprite.h</text>
</a>
</g>
</g>
<!-- Node3&#45;&gt;Node4 -->
<g id="edge3" class="edge">
<title>Node3&#45;&gt;Node4</title>
<path fill="none" stroke="midnightblue" d="M58.03,-171.42C60.84,-164.06 64.9,-153.44 68.4,-144.27"/>
<polygon fill="midnightblue" stroke="midnightblue" points="71.73,-145.37 72.02,-134.78 65.19,-142.87 71.73,-145.37"/>
</g>
<!-- Node4&#45;&gt;Node2 -->
<g id="edge5" class="edge">
<title>Node4&#45;&gt;Node2</title>
<path fill="none" stroke="midnightblue" d="M72.47,-114.47C69.36,-105.31 64.48,-90.72 60.57,-78 55.66,-62.04 50.48,-43.8 46.77,-30.46"/>
<polygon fill="midnightblue" stroke="midnightblue" points="50.07,-29.28 44.03,-20.57 43.32,-31.14 50.07,-29.28"/>
</g>
<!-- Node5 -->
<g id="node5" class="node">
<title>Node5</title>
<g id="a_node5"><a xlink:title=" ">
<polygon fill="none" stroke="#bfbfbf" points="69.51,-57.5 69.51,-77.5 121.62,-77.5 121.62,-57.5 69.51,-57.5"/>
<text text-anchor="middle" x="95.57" y="-64.5" font-family="Helvetica,sans-Serif" font-size="10.00">memory</text>
</a>
</g>
</g>
<!-- Node4&#45;&gt;Node5 -->
<g id="edge4" class="edge">
<title>Node4&#45;&gt;Node5</title>
<path fill="none" stroke="midnightblue" d="M78.87,-114.42C81.55,-107.06 85.41,-96.44 88.74,-87.27"/>
<polygon fill="midnightblue" stroke="midnightblue" points="92.06,-88.37 92.19,-77.78 85.49,-85.98 92.06,-88.37"/>
</g>
<!-- Node6 -->
<g id="node6" class="node">
<title>Node6</title>
<g id="a_node6"><a xlink:href="texture2d_8h.html" target="_top" xlink:title=" ">
<polygon fill="none" stroke="black" points="139.55,-57.5 139.55,-77.5 205.58,-77.5 205.58,-57.5 139.55,-57.5"/>
<text text-anchor="middle" x="172.57" y="-64.5" font-family="Helvetica,sans-Serif" font-size="10.00">texture2d.h</text>
</a>
</g>
</g>
<!-- Node4&#45;&gt;Node6 -->
<g id="edge6" class="edge">
<title>Node4&#45;&gt;Node6</title>
<path fill="none" stroke="midnightblue" d="M91.58,-114.42C106.75,-105.82 129.75,-92.78 147.37,-82.78"/>
<polygon fill="midnightblue" stroke="midnightblue" points="149.55,-85.57 156.53,-77.6 146.1,-79.48 149.55,-85.57"/>
</g>
<!-- Node6&#45;&gt;Node2 -->
<g id="edge7" class="edge">
<title>Node6&#45;&gt;Node2</title>
<path fill="none" stroke="midnightblue" d="M150.93,-57.42C129.6,-48.46 96.78,-34.68 72.65,-24.55"/>
<polygon fill="midnightblue" stroke="midnightblue" points="73.81,-21.24 63.23,-20.6 71.1,-27.69 73.81,-21.24"/>
</g>
</g>
</svg>
