<?xml version="1.0" encoding="UTF-8" standalone="no"?>
<!DOCTYPE svg PUBLIC "-//W3C//DTD SVG 1.1//EN"
 "http://www.w3.org/Graphics/SVG/1.1/DTD/svg11.dtd">
<!-- Generated by graphviz version 3.0.0 (20220226.1711)
 -->
<!-- Title: actor.h Pages: 1 -->
<svg width="723pt" height="257pt"
 viewBox="0.00 0.00 722.83 257.00" xmlns="http://www.w3.org/2000/svg" xmlns:xlink="http://www.w3.org/1999/xlink">
<g id="graph0" class="graph" transform="scale(1 1) rotate(0) translate(4 253)">
<title>actor.h</title>
<!-- Node1 -->
<g id="node1" class="node">
<title>Node1</title>
<g id="a_node1"><a xlink:title=" ">
<polygon fill="#bfbfbf" stroke="black" points="226.51,-228.5 226.51,-248.5 273.09,-248.5 273.09,-228.5 226.51,-228.5"/>
<text text-anchor="middle" x="249.8" y="-235.5" font-family="Helvetica,sans-Serif" font-size="10.00">actor.h</text>
</a>
</g>
</g>
<!-- Node2 -->
<g id="node2" class="node">
<title>Node2</title>
<g id="a_node2"><a xlink:href="actor_8cpp.html" target="_top" xlink:title=" ">
<polygon fill="none" stroke="black" points="137.23,-171.5 137.23,-191.5 194.37,-191.5 194.37,-171.5 137.23,-171.5"/>
<text text-anchor="middle" x="165.8" y="-178.5" font-family="Helvetica,sans-Serif" font-size="10.00">actor.cpp</text>
</a>
</g>
</g>
<!-- Node1&#45;&gt;Node2 -->
<g id="edge1" class="edge">
<title>Node1&#45;&gt;Node2</title>
<path fill="none" stroke="midnightblue" d="M227.16,-222.67C212.02,-212.76 192.59,-200.04 179.69,-191.6"/>
<polygon fill="midnightblue" stroke="midnightblue" points="225.65,-225.87 235.93,-228.42 229.48,-220.01 225.65,-225.87"/>
</g>
<!-- Node3 -->
<g id="node3" class="node">
<title>Node3</title>
<g id="a_node3"><a xlink:href="game__scene_8h.html" target="_top" xlink:title=" ">
<polygon fill="none" stroke="black" points="0,-114.5 0,-134.5 81.6,-134.5 81.6,-114.5 0,-114.5"/>
<text text-anchor="middle" x="40.8" y="-121.5" font-family="Helvetica,sans-Serif" font-size="10.00">game_scene.h</text>
</a>
</g>
</g>
<!-- Node1&#45;&gt;Node3 -->
<g id="edge2" class="edge">
<title>Node1&#45;&gt;Node3</title>
<path fill="none" stroke="midnightblue" d="M241.42,-218.87C233.71,-203.81 220.89,-183.18 203.8,-171 184.24,-157.07 123.17,-142.37 81.6,-133.57"/>
<polygon fill="midnightblue" stroke="midnightblue" points="238.43,-220.74 245.92,-228.23 244.74,-217.71 238.43,-220.74"/>
</g>
<!-- Node9 -->
<g id="node9" class="node">
<title>Node9</title>
<g id="a_node9"><a xlink:href="scene_8h.html" target="_top" xlink:title=" ">
<polygon fill="none" stroke="black" points="251.29,-171.5 251.29,-191.5 302.31,-191.5 302.31,-171.5 251.29,-171.5"/>
<text text-anchor="middle" x="276.8" y="-178.5" font-family="Helvetica,sans-Serif" font-size="10.00">scene.h</text>
</a>
</g>
</g>
<!-- Node1&#45;&gt;Node9 -->
<g id="edge8" class="edge">
<title>Node1&#45;&gt;Node9</title>
<path fill="none" stroke="midnightblue" d="M258.75,-219.27C263.27,-210.06 268.56,-199.28 272.24,-191.78"/>
<polygon fill="midnightblue" stroke="midnightblue" points="255.52,-217.9 254.26,-228.42 261.81,-220.98 255.52,-217.9"/>
</g>
<!-- Node18 -->
<g id="node18" class="node">
<title>Node18</title>
<g id="a_node18"><a xlink:href="store_8h.html" target="_top" xlink:title=" ">
<polygon fill="none" stroke="black" points="486.51,-57.5 486.51,-77.5 533.09,-77.5 533.09,-57.5 486.51,-57.5"/>
<text text-anchor="middle" x="509.8" y="-64.5" font-family="Helvetica,sans-Serif" font-size="10.00">store.h</text>
</a>
</g>
</g>
<!-- Node1&#45;&gt;Node18 -->
<g id="edge31" class="edge">
<title>Node1&#45;&gt;Node18</title>
<path fill="none" stroke="midnightblue" d="M283.28,-230.01C331.5,-217.69 420.83,-188.97 476.8,-135 493.69,-118.72 503.24,-91.98 507.36,-77.88"/>
<polygon fill="midnightblue" stroke="midnightblue" points="282.23,-226.66 273.36,-232.46 283.91,-233.46 282.23,-226.66"/>
</g>
<!-- Node4 -->
<g id="node4" class="node">
<title>Node4</title>
<g id="a_node4"><a xlink:href="scenes_8h.html" target="_top" xlink:title=" ">
<polygon fill="none" stroke="black" points="138.79,-57.5 138.79,-77.5 194.81,-77.5 194.81,-57.5 138.79,-57.5"/>
<text text-anchor="middle" x="166.8" y="-64.5" font-family="Helvetica,sans-Serif" font-size="10.00">scenes.h</text>
</a>
</g>
</g>
<!-- Node3&#45;&gt;Node4 -->
<g id="edge3" class="edge">
<title>Node3&#45;&gt;Node4</title>
<path fill="none" stroke="midnightblue" d="M70.98,-110.33C94.14,-100.22 125.52,-86.52 145.96,-77.6"/>
<polygon fill="midnightblue" stroke="midnightblue" points="69.37,-107.21 61.61,-114.42 72.17,-113.62 69.37,-107.21"/>
</g>
<!-- Node5 -->
<g id="node5" class="node">
<title>Node5</title>
<g id="a_node5"><a xlink:href="game__scene_8cpp.html" target="_top" xlink:title=" ">
<polygon fill="none" stroke="black" points="198.72,-0.5 198.72,-20.5 290.88,-20.5 290.88,-0.5 198.72,-0.5"/>
<text text-anchor="middle" x="244.8" y="-7.5" font-family="Helvetica,sans-Serif" font-size="10.00">game_scene.cpp</text>
</a>
</g>
</g>
<!-- Node4&#45;&gt;Node5 -->
<g id="edge4" class="edge">
<title>Node4&#45;&gt;Node5</title>
<path fill="none" stroke="midnightblue" d="M188.23,-51.39C202.22,-41.52 220.04,-28.96 231.9,-20.6"/>
<polygon fill="midnightblue" stroke="midnightblue" points="185.84,-48.79 179.68,-57.42 189.87,-54.52 185.84,-48.79"/>
</g>
<!-- Node6 -->
<g id="node6" class="node">
<title>Node6</title>
<g id="a_node6"><a xlink:href="main_8cpp.html" target="_top" xlink:title=" ">
<polygon fill="none" stroke="black" points="124.51,-0.5 124.51,-20.5 181.09,-20.5 181.09,-0.5 124.51,-0.5"/>
<text text-anchor="middle" x="152.8" y="-7.5" font-family="Helvetica,sans-Serif" font-size="10.00">main.cpp</text>
</a>
</g>
</g>
<!-- Node4&#45;&gt;Node6 -->
<g id="edge5" class="edge">
<title>Node4&#45;&gt;Node6</title>
<path fill="none" stroke="midnightblue" d="M162.01,-47.68C159.7,-38.6 157.03,-28.12 155.16,-20.78"/>
<polygon fill="midnightblue" stroke="midnightblue" points="158.63,-48.59 164.49,-57.42 165.41,-46.86 158.63,-48.59"/>
</g>
<!-- Node7 -->
<g id="node7" class="node">
<title>Node7</title>
<g id="a_node7"><a xlink:href="menu__scene_8cpp.html" target="_top" xlink:title=" ">
<polygon fill="none" stroke="black" points="308.72,-0.5 308.72,-20.5 400.88,-20.5 400.88,-0.5 308.72,-0.5"/>
<text text-anchor="middle" x="354.8" y="-7.5" font-family="Helvetica,sans-Serif" font-size="10.00">menu_scene.cpp</text>
</a>
</g>
</g>
<!-- Node4&#45;&gt;Node7 -->
<g id="edge6" class="edge">
<title>Node4&#45;&gt;Node7</title>
<path fill="none" stroke="midnightblue" d="M204.82,-55.38C239.91,-45.11 291.36,-30.06 323.96,-20.52"/>
<polygon fill="midnightblue" stroke="midnightblue" points="203.56,-52.1 194.95,-58.27 205.53,-58.82 203.56,-52.1"/>
</g>
<!-- Node8 -->
<g id="node8" class="node">
<title>Node8</title>
<g id="a_node8"><a xlink:href="pause__scene_8cpp.html" target="_top" xlink:title=" ">
<polygon fill="none" stroke="black" points="418.6,-0.5 418.6,-20.5 513,-20.5 513,-0.5 418.6,-0.5"/>
<text text-anchor="middle" x="465.8" y="-7.5" font-family="Helvetica,sans-Serif" font-size="10.00">pause_scene.cpp</text>
</a>
</g>
</g>
<!-- Node4&#45;&gt;Node8 -->
<g id="edge7" class="edge">
<title>Node4&#45;&gt;Node8</title>
<path fill="none" stroke="midnightblue" d="M205.13,-56.99C242.27,-49.93 353.65,-30.75 418.34,-19.64"/>
<polygon fill="midnightblue" stroke="midnightblue" points="204.15,-53.62 195.03,-59.01 205.52,-60.48 204.15,-53.62"/>
</g>
<!-- Node9&#45;&gt;Node3 -->
<g id="edge12" class="edge">
<title>Node9&#45;&gt;Node3</title>
<path fill="none" stroke="midnightblue" d="M241.17,-172.03C239.7,-171.68 238.23,-171.34 236.8,-171 182.39,-158.22 119.43,-143.64 79.86,-134.51"/>
<polygon fill="midnightblue" stroke="midnightblue" points="240.45,-175.45 250.98,-174.35 242.06,-168.64 240.45,-175.45"/>
</g>
<!-- Node10 -->
<g id="node10" class="node">
<title>Node10</title>
<g id="a_node10"><a xlink:href="game_8h.html" target="_top" xlink:title=" ">
<polygon fill="none" stroke="black" points="213.12,-57.5 213.12,-77.5 262.48,-77.5 262.48,-57.5 213.12,-57.5"/>
<text text-anchor="middle" x="237.8" y="-64.5" font-family="Helvetica,sans-Serif" font-size="10.00">game.h</text>
</a>
</g>
</g>
<!-- Node9&#45;&gt;Node10 -->
<g id="edge9" class="edge">
<title>Node9&#45;&gt;Node10</title>
<path fill="none" stroke="midnightblue" d="M287.59,-162.12C294.17,-148.38 300.04,-129.39 292.8,-114 285.15,-97.74 268.52,-85.3 255.54,-77.57"/>
<polygon fill="midnightblue" stroke="midnightblue" points="284.44,-160.59 282.86,-171.07 290.63,-163.87 284.44,-160.59"/>
</g>
<!-- Node12 -->
<g id="node12" class="node">
<title>Node12</title>
<g id="a_node12"><a xlink:href="menu__scene_8h.html" target="_top" xlink:title=" ">
<polygon fill="none" stroke="black" points="100,-114.5 100,-134.5 181.6,-134.5 181.6,-114.5 100,-114.5"/>
<text text-anchor="middle" x="140.8" y="-121.5" font-family="Helvetica,sans-Serif" font-size="10.00">menu_scene.h</text>
</a>
</g>
</g>
<!-- Node9&#45;&gt;Node12 -->
<g id="edge13" class="edge">
<title>Node9&#45;&gt;Node12</title>
<path fill="none" stroke="midnightblue" d="M244.9,-167.6C219.83,-157.46 185.55,-143.6 163.29,-134.6"/>
<polygon fill="midnightblue" stroke="midnightblue" points="243.76,-170.91 254.34,-171.42 246.38,-164.42 243.76,-170.91"/>
</g>
<!-- Node13 -->
<g id="node13" class="node">
<title>Node13</title>
<g id="a_node13"><a xlink:href="pause__scene_8h.html" target="_top" xlink:title=" ">
<polygon fill="none" stroke="black" points="199.88,-114.5 199.88,-134.5 283.72,-134.5 283.72,-114.5 199.88,-114.5"/>
<text text-anchor="middle" x="241.8" y="-121.5" font-family="Helvetica,sans-Serif" font-size="10.00">pause_scene.h</text>
</a>
</g>
</g>
<!-- Node9&#45;&gt;Node13 -->
<g id="edge15" class="edge">
<title>Node9&#45;&gt;Node13</title>
<path fill="none" stroke="midnightblue" d="M265.57,-162.86C259.63,-153.52 252.58,-142.44 247.71,-134.78"/>
<polygon fill="midnightblue" stroke="midnightblue" points="262.7,-164.86 271.02,-171.42 268.6,-161.1 262.7,-164.86"/>
</g>
<!-- Node14 -->
<g id="node14" class="node">
<title>Node14</title>
<g id="a_node14"><a xlink:href="renderer_8h.html" target="_top" xlink:title=" ">
<polygon fill="none" stroke="black" points="339.73,-114.5 339.73,-134.5 401.87,-134.5 401.87,-114.5 339.73,-114.5"/>
<text text-anchor="middle" x="370.8" y="-121.5" font-family="Helvetica,sans-Serif" font-size="10.00">renderer.h</text>
</a>
</g>
</g>
<!-- Node9&#45;&gt;Node14 -->
<g id="edge17" class="edge">
<title>Node9&#45;&gt;Node14</title>
<path fill="none" stroke="midnightblue" d="M301.19,-166.23C318.26,-156.24 340.55,-143.2 355.26,-134.6"/>
<polygon fill="midnightblue" stroke="midnightblue" points="299.19,-163.35 292.32,-171.42 302.72,-169.39 299.19,-163.35"/>
</g>
<!-- Node17 -->
<g id="node17" class="node">
<title>Node17</title>
<g id="a_node17"><a xlink:href="stage_8h.html" target="_top" xlink:title=" ">
<polygon fill="none" stroke="black" points="419.4,-114.5 419.4,-134.5 468.2,-134.5 468.2,-114.5 419.4,-114.5"/>
<text text-anchor="middle" x="443.8" y="-121.5" font-family="Helvetica,sans-Serif" font-size="10.00">stage.h</text>
</a>
</g>
</g>
<!-- Node9&#45;&gt;Node17 -->
<g id="edge21" class="edge">
<title>Node9&#45;&gt;Node17</title>
<path fill="none" stroke="midnightblue" d="M312.41,-168.77C344.53,-158.19 390.93,-142.91 419.13,-133.62"/>
<polygon fill="midnightblue" stroke="midnightblue" points="310.93,-165.57 302.53,-172.03 313.12,-172.22 310.93,-165.57"/>
</g>
<!-- Node10&#45;&gt;Node6 -->
<g id="edge11" class="edge">
<title>Node10&#45;&gt;Node6</title>
<path fill="none" stroke="midnightblue" d="M215.32,-51.95C199.94,-42 180.03,-29.12 166.86,-20.6"/>
<polygon fill="midnightblue" stroke="midnightblue" points="213.47,-54.92 223.76,-57.42 217.27,-49.05 213.47,-54.92"/>
</g>
<!-- Node11 -->
<g id="node11" class="node">
<title>Node11</title>
<g id="a_node11"><a xlink:href="game_8cpp.html" target="_top" xlink:title=" ">
<polygon fill="none" stroke="black" points="530.84,-0.5 530.84,-20.5 590.76,-20.5 590.76,-0.5 530.84,-0.5"/>
<text text-anchor="middle" x="560.8" y="-7.5" font-family="Helvetica,sans-Serif" font-size="10.00">game.cpp</text>
</a>
</g>
</g>
<!-- Node10&#45;&gt;Node11 -->
<g id="edge10" class="edge">
<title>Node10&#45;&gt;Node11</title>
<path fill="none" stroke="midnightblue" d="M272.64,-61.84C326.35,-54.44 432.54,-38.99 521.8,-21 524.67,-20.42 527.65,-19.78 530.62,-19.1"/>
<polygon fill="midnightblue" stroke="midnightblue" points="272.05,-58.38 262.61,-63.21 272.99,-65.32 272.05,-58.38"/>
</g>
<!-- Node12&#45;&gt;Node4 -->
<g id="edge14" class="edge">
<title>Node12&#45;&gt;Node4</title>
<path fill="none" stroke="midnightblue" d="M149.42,-105.27C153.77,-96.06 158.87,-85.28 162.41,-77.78"/>
<polygon fill="midnightblue" stroke="midnightblue" points="146.2,-103.88 145.09,-114.42 152.53,-106.87 146.2,-103.88"/>
</g>
<!-- Node13&#45;&gt;Node4 -->
<g id="edge16" class="edge">
<title>Node13&#45;&gt;Node4</title>
<path fill="none" stroke="midnightblue" d="M221.2,-108.39C207.74,-98.52 190.61,-85.96 179.2,-77.6"/>
<polygon fill="midnightblue" stroke="midnightblue" points="219.28,-111.33 229.42,-114.42 223.42,-105.68 219.28,-111.33"/>
</g>
<!-- Node14&#45;&gt;Node5 -->
<g id="edge18" class="edge">
<title>Node14&#45;&gt;Node5</title>
<path fill="none" stroke="midnightblue" d="M348.79,-108.35C336.9,-99.86 322.16,-88.82 309.8,-78 287.93,-58.86 264.68,-33.76 252.8,-20.54"/>
<polygon fill="midnightblue" stroke="midnightblue" points="347.06,-111.41 357.25,-114.31 351.09,-105.69 347.06,-111.41"/>
</g>
<!-- Node15 -->
<g id="node15" class="node">
<title>Node15</title>
<g id="a_node15"><a xlink:href="renderer_8cpp.html" target="_top" xlink:title=" ">
<polygon fill="none" stroke="black" points="318.45,-57.5 318.45,-77.5 391.15,-77.5 391.15,-57.5 318.45,-57.5"/>
<text text-anchor="middle" x="354.8" y="-64.5" font-family="Helvetica,sans-Serif" font-size="10.00">renderer.cpp</text>
</a>
</g>
</g>
<!-- Node14&#45;&gt;Node15 -->
<g id="edge19" class="edge">
<title>Node14&#45;&gt;Node15</title>
<path fill="none" stroke="midnightblue" d="M365.33,-104.68C362.68,-95.6 359.63,-85.12 357.5,-77.78"/>
<polygon fill="midnightblue" stroke="midnightblue" points="362,-105.79 368.16,-114.42 368.73,-103.84 362,-105.79"/>
</g>
<!-- Node16 -->
<g id="node16" class="node">
<title>Node16</title>
<g id="a_node16"><a xlink:href="stage_8cpp.html" target="_top" xlink:title=" ">
<polygon fill="none" stroke="black" points="409.12,-57.5 409.12,-77.5 468.48,-77.5 468.48,-57.5 409.12,-57.5"/>
<text text-anchor="middle" x="438.8" y="-64.5" font-family="Helvetica,sans-Serif" font-size="10.00">stage.cpp</text>
</a>
</g>
</g>
<!-- Node14&#45;&gt;Node16 -->
<g id="edge20" class="edge">
<title>Node14&#45;&gt;Node16</title>
<path fill="none" stroke="midnightblue" d="M390.13,-107.87C402.14,-98.15 417.17,-85.99 427.33,-77.78"/>
<polygon fill="midnightblue" stroke="midnightblue" points="387.6,-105.41 382.03,-114.42 392.01,-110.85 387.6,-105.41"/>
</g>
<!-- Node17&#45;&gt;Node11 -->
<g id="edge22" class="edge">
<title>Node17&#45;&gt;Node11</title>
<path fill="none" stroke="midnightblue" d="M477.91,-115.47C499.12,-108.79 525.39,-97.2 541.8,-78 556,-61.39 559.61,-34.78 560.51,-20.79"/>
<polygon fill="midnightblue" stroke="midnightblue" points="476.9,-112.12 468.28,-118.28 478.86,-118.84 476.9,-112.12"/>
</g>
<!-- Node17&#45;&gt;Node15 -->
<g id="edge23" class="edge">
<title>Node17&#45;&gt;Node15</title>
<path fill="none" stroke="midnightblue" d="M420.26,-108.95C404.16,-99 383.31,-86.12 369.52,-77.6"/>
<polygon fill="midnightblue" stroke="midnightblue" points="418.76,-112.14 429.1,-114.42 422.44,-106.18 418.76,-112.14"/>
</g>
<!-- Node17&#45;&gt;Node16 -->
<g id="edge24" class="edge">
<title>Node17&#45;&gt;Node16</title>
<path fill="none" stroke="midnightblue" d="M442.06,-104.38C441.24,-95.37 440.3,-85.04 439.64,-77.78"/>
<polygon fill="midnightblue" stroke="midnightblue" points="438.58,-104.78 442.97,-114.42 445.55,-104.14 438.58,-104.78"/>
</g>
<!-- Node17&#45;&gt;Node18 -->
<g id="edge25" class="edge">
<title>Node17&#45;&gt;Node18</title>
<path fill="none" stroke="midnightblue" d="M462.56,-107.87C474.22,-98.15 488.81,-85.99 498.66,-77.78"/>
<polygon fill="midnightblue" stroke="midnightblue" points="460.14,-105.33 454.7,-114.42 464.62,-110.7 460.14,-105.33"/>
</g>
<!-- Node18&#45;&gt;Node5 -->
<g id="edge27" class="edge">
<title>Node18&#45;&gt;Node5</title>
<path fill="none" stroke="midnightblue" d="M476.57,-56.91C429.95,-46 344.36,-29.86 290.98,-19.97"/>
<polygon fill="midnightblue" stroke="midnightblue" points="475.91,-60.35 486.45,-59.29 477.55,-53.54 475.91,-60.35"/>
</g>
<!-- Node18&#45;&gt;Node7 -->
<g id="edge28" class="edge">
<title>Node18&#45;&gt;Node7</title>
<path fill="none" stroke="midnightblue" d="M476.63,-54.73C447.82,-44.51 406.69,-29.91 380.37,-20.57"/>
<polygon fill="midnightblue" stroke="midnightblue" points="475.66,-58.1 486.26,-58.15 478.01,-51.5 475.66,-58.1"/>
</g>
<!-- Node18&#45;&gt;Node8 -->
<g id="edge29" class="edge">
<title>Node18&#45;&gt;Node8</title>
<path fill="none" stroke="midnightblue" d="M496.15,-49.44C488.59,-39.98 479.48,-28.6 473.22,-20.78"/>
<polygon fill="midnightblue" stroke="midnightblue" points="493.55,-51.8 502.53,-57.42 499.02,-47.42 493.55,-51.8"/>
</g>
<!-- Node18&#45;&gt;Node11 -->
<g id="edge26" class="edge">
<title>Node18&#45;&gt;Node11</title>
<path fill="none" stroke="midnightblue" d="M525.09,-50.01C533.96,-40.45 544.8,-28.76 552.2,-20.78"/>
<polygon fill="midnightblue" stroke="midnightblue" points="522.45,-47.71 518.22,-57.42 527.59,-52.46 522.45,-47.71"/>
</g>
<!-- Node19 -->
<g id="node19" class="node">
<title>Node19</title>
<g id="a_node19"><a xlink:href="sprite__animated_8cpp.html" target="_top" xlink:title=" ">
<polygon fill="none" stroke="black" points="608.77,-0.5 608.77,-20.5 714.83,-20.5 714.83,-0.5 608.77,-0.5"/>
<text text-anchor="middle" x="661.8" y="-7.5" font-family="Helvetica,sans-Serif" font-size="10.00">sprite_animated.cpp</text>
</a>
</g>
</g>
<!-- Node18&#45;&gt;Node19 -->
<g id="edge30" class="edge">
<title>Node18&#45;&gt;Node19</title>
<path fill="none" stroke="midnightblue" d="M542.68,-54.6C570.96,-44.37 611.14,-29.83 636.84,-20.53"/>
<polygon fill="midnightblue" stroke="midnightblue" points="541.43,-51.33 533.22,-58.03 543.81,-57.92 541.43,-51.33"/>
</g>
</g>
</svg>
