<?xml version="1.0" encoding="UTF-8" standalone="no"?>
<!DOCTYPE svg PUBLIC "-//W3C//DTD SVG 1.1//EN"
 "http://www.w3.org/Graphics/SVG/1.1/DTD/svg11.dtd">
<!-- Generated by graphviz version 3.0.0 (20220226.1711)
 -->
<!-- Title: game::core::Scene Pages: 1 -->
<svg width="461pt" height="238pt"
 viewBox="0.00 0.00 460.96 238.00" xmlns="http://www.w3.org/2000/svg" xmlns:xlink="http://www.w3.org/1999/xlink">
<g id="graph0" class="graph" transform="scale(1 1) rotate(0) translate(4 234)">
<title>game::core::Scene</title>
<!-- Node1 -->
<g id="node1" class="node">
<title>Node1</title>
<g id="a_node1"><a xlink:title="Scene base class. Scenes are managed by the Stage object.">
<polygon fill="#bfbfbf" stroke="black" points="175.73,-133.5 175.73,-229.5 275.67,-229.5 275.67,-133.5 175.73,-133.5"/>
<text text-anchor="middle" x="225.7" y="-216.5" font-family="Helvetica,sans-Serif" font-size="10.00">game::core::Scene</text>
<polyline fill="none" stroke="black" points="175.73,-209.5 275.67,-209.5 "/>
<text text-anchor="start" x="183.73" y="-196.5" font-family="Helvetica,sans-Serif" font-size="10.00">+ actors</text>
<polyline fill="none" stroke="black" points="175.73,-189.5 275.67,-189.5 "/>
<text text-anchor="start" x="183.73" y="-176.5" font-family="Helvetica,sans-Serif" font-size="10.00">+ Scene()</text>
<text text-anchor="start" x="183.73" y="-164.5" font-family="Helvetica,sans-Serif" font-size="10.00">+ ~Scene()</text>
<text text-anchor="start" x="183.73" y="-152.5" font-family="Helvetica,sans-Serif" font-size="10.00">+ Update()</text>
<text text-anchor="start" x="183.73" y="-140.5" font-family="Helvetica,sans-Serif" font-size="10.00">+ Draw()</text>
</a>
</g>
</g>
<!-- Node2 -->
<g id="node2" class="node">
<title>Node2</title>
<g id="a_node2"><a xlink:href="classgame_1_1scenes_1_1_game_scene.html" target="_top" xlink:title=" ">
<polygon fill="none" stroke="black" points="0,-0.5 0,-96.5 139.4,-96.5 139.4,-0.5 0,-0.5"/>
<text text-anchor="middle" x="69.7" y="-83.5" font-family="Helvetica,sans-Serif" font-size="10.00">game::scenes::GameScene</text>
<polyline fill="none" stroke="black" points="0,-76.5 139.4,-76.5 "/>
<text text-anchor="middle" x="69.7" y="-63.5" font-family="Helvetica,sans-Serif" font-size="10.00"> </text>
<polyline fill="none" stroke="black" points="0,-56.5 139.4,-56.5 "/>
<text text-anchor="start" x="8" y="-43.5" font-family="Helvetica,sans-Serif" font-size="10.00">+ GameScene()</text>
<text text-anchor="start" x="8" y="-31.5" font-family="Helvetica,sans-Serif" font-size="10.00">+ ~GameScene()</text>
<text text-anchor="start" x="8" y="-19.5" font-family="Helvetica,sans-Serif" font-size="10.00">+ Update()</text>
<text text-anchor="start" x="8" y="-7.5" font-family="Helvetica,sans-Serif" font-size="10.00">+ Draw()</text>
</a>
</g>
</g>
<!-- Node1&#45;&gt;Node2 -->
<g id="edge1" class="edge">
<title>Node1&#45;&gt;Node2</title>
<path fill="none" stroke="midnightblue" d="M167.55,-131.67C153.88,-120.19 139.35,-107.99 125.77,-96.59"/>
<polygon fill="none" stroke="midnightblue" points="165.57,-134.58 175.48,-138.33 170.07,-129.22 165.57,-134.58"/>
</g>
<!-- Node3 -->
<g id="node3" class="node">
<title>Node3</title>
<g id="a_node3"><a xlink:href="classgame_1_1scenes_1_1_menu_scene.html" target="_top" xlink:title=" ">
<polygon fill="none" stroke="black" points="157.11,-0.5 157.11,-96.5 294.29,-96.5 294.29,-0.5 157.11,-0.5"/>
<text text-anchor="middle" x="225.7" y="-83.5" font-family="Helvetica,sans-Serif" font-size="10.00">game::scenes::MenuScene</text>
<polyline fill="none" stroke="black" points="157.11,-76.5 294.29,-76.5 "/>
<text text-anchor="middle" x="225.7" y="-63.5" font-family="Helvetica,sans-Serif" font-size="10.00"> </text>
<polyline fill="none" stroke="black" points="157.11,-56.5 294.29,-56.5 "/>
<text text-anchor="start" x="165.11" y="-43.5" font-family="Helvetica,sans-Serif" font-size="10.00">+ MenuScene()</text>
<text text-anchor="start" x="165.11" y="-31.5" font-family="Helvetica,sans-Serif" font-size="10.00">+ ~MenuScene()</text>
<text text-anchor="start" x="165.11" y="-19.5" font-family="Helvetica,sans-Serif" font-size="10.00">+ Update()</text>
<text text-anchor="start" x="165.11" y="-7.5" font-family="Helvetica,sans-Serif" font-size="10.00">+ Draw()</text>
</a>
</g>
</g>
<!-- Node1&#45;&gt;Node3 -->
<g id="edge2" class="edge">
<title>Node1&#45;&gt;Node3</title>
<path fill="none" stroke="midnightblue" d="M225.7,-123.02C225.7,-114.24 225.7,-105.26 225.7,-96.72"/>
<polygon fill="none" stroke="midnightblue" points="222.2,-123.21 225.7,-133.21 229.2,-123.21 222.2,-123.21"/>
</g>
<!-- Node4 -->
<g id="node4" class="node">
<title>Node4</title>
<g id="a_node4"><a xlink:href="classgame_1_1scenes_1_1_pause_scene.html" target="_top" xlink:title=" ">
<polygon fill="none" stroke="black" points="312.44,-0.5 312.44,-96.5 452.96,-96.5 452.96,-0.5 312.44,-0.5"/>
<text text-anchor="middle" x="382.7" y="-83.5" font-family="Helvetica,sans-Serif" font-size="10.00">game::scenes::PauseScene</text>
<polyline fill="none" stroke="black" points="312.44,-76.5 452.96,-76.5 "/>
<text text-anchor="middle" x="382.7" y="-63.5" font-family="Helvetica,sans-Serif" font-size="10.00"> </text>
<polyline fill="none" stroke="black" points="312.44,-56.5 452.96,-56.5 "/>
<text text-anchor="start" x="320.44" y="-43.5" font-family="Helvetica,sans-Serif" font-size="10.00">+ PauseScene()</text>
<text text-anchor="start" x="320.44" y="-31.5" font-family="Helvetica,sans-Serif" font-size="10.00">+ ~PauseScene()</text>
<text text-anchor="start" x="320.44" y="-19.5" font-family="Helvetica,sans-Serif" font-size="10.00">+ Update()</text>
<text text-anchor="start" x="320.44" y="-7.5" font-family="Helvetica,sans-Serif" font-size="10.00">+ Draw()</text>
</a>
</g>
</g>
<!-- Node1&#45;&gt;Node4 -->
<g id="edge3" class="edge">
<title>Node1&#45;&gt;Node4</title>
<path fill="none" stroke="midnightblue" d="M283.85,-131.98C297.7,-120.42 312.47,-108.1 326.25,-96.6"/>
<polygon fill="none" stroke="midnightblue" points="281.24,-129.6 275.81,-138.69 285.73,-134.97 281.24,-129.6"/>
</g>
</g>
</svg>
