<?xml version="1.0" encoding="UTF-8" standalone="no"?>
<!DOCTYPE svg PUBLIC "-//W3C//DTD SVG 1.1//EN"
 "http://www.w3.org/Graphics/SVG/1.1/DTD/svg11.dtd">
<!-- Generated by graphviz version 3.0.0 (20220226.1711)
 -->
<!-- Title: game::core::Texture2D Pages: 1 -->
<svg width="187pt" height="153pt"
 viewBox="0.00 0.00 186.51 153.00" xmlns="http://www.w3.org/2000/svg" xmlns:xlink="http://www.w3.org/1999/xlink">
<g id="graph0" class="graph" transform="scale(1 1) rotate(0) translate(4 149)">
<title>game::core::Texture2D</title>
<!-- Node1 -->
<g id="node1" class="node">
<title>Node1</title>
<g id="a_node1"><a xlink:title="The class Texture2D encapsulates the Raylib structure Texture2D and takes care of the correct loading...">
<polygon fill="#bfbfbf" stroke="black" points="0,-0.5 0,-144.5 118.27,-144.5 118.27,-0.5 0,-0.5"/>
<text text-anchor="middle" x="59.13" y="-131.5" font-family="Helvetica,sans-Serif" font-size="10.00">game::core::Texture2D</text>
<polyline fill="none" stroke="black" points="0,-124.5 118.27,-124.5 "/>
<text text-anchor="middle" x="59.13" y="-111.5" font-family="Helvetica,sans-Serif" font-size="10.00"> </text>
<polyline fill="none" stroke="black" points="0,-104.5 118.27,-104.5 "/>
<text text-anchor="start" x="8" y="-91.5" font-family="Helvetica,sans-Serif" font-size="10.00">+ Texture2D()</text>
<text text-anchor="start" x="8" y="-79.5" font-family="Helvetica,sans-Serif" font-size="10.00">+ Texture2D()</text>
<text text-anchor="start" x="8" y="-67.5" font-family="Helvetica,sans-Serif" font-size="10.00">+ Texture2D()</text>
<text text-anchor="start" x="8" y="-55.5" font-family="Helvetica,sans-Serif" font-size="10.00">+ operator=()</text>
<text text-anchor="start" x="8" y="-43.5" font-family="Helvetica,sans-Serif" font-size="10.00">+ ~Texture2D()</text>
<text text-anchor="start" x="8" y="-31.5" font-family="Helvetica,sans-Serif" font-size="10.00">+ texture()</text>
<text text-anchor="start" x="8" y="-19.5" font-family="Helvetica,sans-Serif" font-size="10.00">+ width()</text>
<text text-anchor="start" x="8" y="-7.5" font-family="Helvetica,sans-Serif" font-size="10.00">+ height()</text>
</a>
</g>
</g>
<!-- Node1&#45;&gt;Node1 -->
<g id="edge1" class="edge">
<title>Node1&#45;&gt;Node1</title>
<path fill="none" stroke="#404040" d="M118.31,-97.92C128.88,-94.61 136.27,-86.14 136.27,-72.5 136.27,-64.19 133.52,-57.79 128.99,-53.32"/>
<polygon fill="none" stroke="#404040" points="128.68,-53.14 121.48,-53.56 118.31,-47.08 125.51,-46.66 128.68,-53.14"/>
<text text-anchor="middle" x="157.39" y="-69.5" font-family="Helvetica,sans-Serif" font-size="10.00"> &#45;texture_</text>
</g>
</g>
</svg>
