<?xml version="1.0" encoding="UTF-8" standalone="no"?>
<!DOCTYPE svg PUBLIC "-//W3C//DTD SVG 1.1//EN"
 "http://www.w3.org/Graphics/SVG/1.1/DTD/svg11.dtd">
<!-- Generated by graphviz version 3.0.0 (20220226.1711)
 -->
<!-- Title: game::core::SpriteAnimated Pages: 1 -->
<svg width="693pt" height="551pt"
 viewBox="0.00 0.00 693.03 551.00" xmlns="http://www.w3.org/2000/svg" xmlns:xlink="http://www.w3.org/1999/xlink">
<g id="graph0" class="graph" transform="scale(1 1) rotate(0) translate(4 547)">
<title>game::core::SpriteAnimated</title>
<!-- Node1 -->
<g id="node1" class="node">
<title>Node1</title>
<g id="a_node1"><a xlink:title="The SpriteAnimated class enables frame&#45;by&#45;frame animations by displaying only a certain section of a ...">
<polygon fill="#bfbfbf" stroke="black" points="381.48,-0.5 381.48,-156.5 521.43,-156.5 521.43,-0.5 381.48,-0.5"/>
<text text-anchor="middle" x="451.45" y="-143.5" font-family="Helvetica,sans-Serif" font-size="10.00">game::core::SpriteAnimated</text>
<polyline fill="none" stroke="black" points="381.48,-136.5 521.43,-136.5 "/>
<text text-anchor="middle" x="451.45" y="-123.5" font-family="Helvetica,sans-Serif" font-size="10.00"> </text>
<polyline fill="none" stroke="black" points="381.48,-116.5 521.43,-116.5 "/>
<text text-anchor="start" x="389.48" y="-103.5" font-family="Helvetica,sans-Serif" font-size="10.00">+ SpriteAnimated()</text>
<text text-anchor="start" x="389.48" y="-91.5" font-family="Helvetica,sans-Serif" font-size="10.00">+ SpriteAnimated()</text>
<text text-anchor="start" x="389.48" y="-79.5" font-family="Helvetica,sans-Serif" font-size="10.00">+ SpriteAnimated()</text>
<text text-anchor="start" x="389.48" y="-67.5" font-family="Helvetica,sans-Serif" font-size="10.00">+ SpriteAnimated()</text>
<text text-anchor="start" x="389.48" y="-55.5" font-family="Helvetica,sans-Serif" font-size="10.00">+ state()</text>
<text text-anchor="start" x="389.48" y="-43.5" font-family="Helvetica,sans-Serif" font-size="10.00">+ Update()</text>
<text text-anchor="start" x="389.48" y="-31.5" font-family="Helvetica,sans-Serif" font-size="10.00">+ AddState()</text>
<text text-anchor="start" x="389.48" y="-19.5" font-family="Helvetica,sans-Serif" font-size="10.00">+ nextState()</text>
<text text-anchor="start" x="389.48" y="-7.5" font-family="Helvetica,sans-Serif" font-size="10.00">&#45; SwitchState()</text>
</a>
</g>
</g>
<!-- Node2 -->
<g id="node2" class="node">
<title>Node2</title>
<g id="a_node2"><a xlink:href="classgame_1_1core_1_1_sprite.html" target="_top" xlink:title="The Sprite class specifies position and degree of rotation on the screen for an associated VRAM textu...">
<polygon fill="none" stroke="black" points="219.6,-205.5 219.6,-409.5 317.31,-409.5 317.31,-205.5 219.6,-205.5"/>
<text text-anchor="middle" x="268.45" y="-396.5" font-family="Helvetica,sans-Serif" font-size="10.00">game::core::Sprite</text>
<polyline fill="none" stroke="black" points="219.6,-389.5 317.31,-389.5 "/>
<text text-anchor="middle" x="268.45" y="-376.5" font-family="Helvetica,sans-Serif" font-size="10.00"> </text>
<polyline fill="none" stroke="black" points="219.6,-369.5 317.31,-369.5 "/>
<text text-anchor="start" x="227.6" y="-356.5" font-family="Helvetica,sans-Serif" font-size="10.00">+ Sprite()</text>
<text text-anchor="start" x="227.6" y="-344.5" font-family="Helvetica,sans-Serif" font-size="10.00">+ Sprite()</text>
<text text-anchor="start" x="227.6" y="-332.5" font-family="Helvetica,sans-Serif" font-size="10.00">+ Sprite()</text>
<text text-anchor="start" x="227.6" y="-320.5" font-family="Helvetica,sans-Serif" font-size="10.00">+ Sprite()</text>
<text text-anchor="start" x="227.6" y="-308.5" font-family="Helvetica,sans-Serif" font-size="10.00">+ Sprite()</text>
<text text-anchor="start" x="227.6" y="-296.5" font-family="Helvetica,sans-Serif" font-size="10.00">+ ~Sprite()</text>
<text text-anchor="start" x="227.6" y="-284.5" font-family="Helvetica,sans-Serif" font-size="10.00">+ texture()</text>
<text text-anchor="start" x="227.6" y="-272.5" font-family="Helvetica,sans-Serif" font-size="10.00">+ texture_object()</text>
<text text-anchor="start" x="227.6" y="-260.5" font-family="Helvetica,sans-Serif" font-size="10.00">+ texture()</text>
<text text-anchor="start" x="227.6" y="-248.5" font-family="Helvetica,sans-Serif" font-size="10.00">+ position()</text>
<text text-anchor="start" x="227.6" y="-236.5" font-family="Helvetica,sans-Serif" font-size="10.00">+ frame()</text>
<text text-anchor="start" x="227.6" y="-224.5" font-family="Helvetica,sans-Serif" font-size="10.00">+ frame()</text>
<text text-anchor="start" x="227.6" y="-212.5" font-family="Helvetica,sans-Serif" font-size="10.00">+ Update()</text>
</a>
</g>
</g>
<!-- Node2&#45;&gt;Node1 -->
<g id="edge1" class="edge">
<title>Node2&#45;&gt;Node1</title>
<path fill="none" stroke="midnightblue" d="M323.79,-237.85C344.41,-212.28 367.95,-183.09 389.15,-156.79"/>
<polygon fill="none" stroke="midnightblue" points="321.05,-235.69 317.49,-245.67 326.49,-240.08 321.05,-235.69"/>
</g>
<!-- Node3 -->
<g id="node3" class="node">
<title>Node3</title>
<g id="a_node3"><a xlink:title=" ">
<polygon fill="none" stroke="black" points="242.23,-470.5 242.23,-542.5 364.68,-542.5 364.68,-470.5 242.23,-470.5"/>
<text text-anchor="start" x="250.23" y="-529.5" font-family="Helvetica,sans-Serif" font-size="10.00">shared_ptr&lt; game::core</text>
<text text-anchor="middle" x="303.45" y="-517.5" font-family="Helvetica,sans-Serif" font-size="10.00">::Texture2D &gt;</text>
<polyline fill="none" stroke="black" points="242.23,-510.5 364.68,-510.5 "/>
<text text-anchor="middle" x="303.45" y="-497.5" font-family="Helvetica,sans-Serif" font-size="10.00"> </text>
<polyline fill="none" stroke="black" points="242.23,-490.5 364.68,-490.5 "/>
<text text-anchor="middle" x="303.45" y="-477.5" font-family="Helvetica,sans-Serif" font-size="10.00"> </text>
</a>
</g>
</g>
<!-- Node3&#45;&gt;Node2 -->
<g id="edge2" class="edge">
<title>Node3&#45;&gt;Node2</title>
<path fill="none" stroke="#404040" d="M297.2,-470.28C294.71,-456.28 291.69,-439.31 288.57,-421.71"/>
<polygon fill="none" stroke="#404040" points="288.54,-421.57 283.55,-416.36 286.44,-409.76 291.43,-414.96 288.54,-421.57"/>
<text text-anchor="middle" x="315.69" y="-437" font-family="Helvetica,sans-Serif" font-size="10.00"> #texture_</text>
</g>
<!-- Node4 -->
<g id="node4" class="node">
<title>Node4</title>
<g id="a_node4"><a xlink:title=" ">
<polygon fill="none" stroke="black" points="382.94,-476.5 382.94,-536.5 443.97,-536.5 443.97,-476.5 382.94,-476.5"/>
<text text-anchor="middle" x="413.45" y="-523.5" font-family="Helvetica,sans-Serif" font-size="10.00">Rectangle</text>
<polyline fill="none" stroke="black" points="382.94,-516.5 443.97,-516.5 "/>
<text text-anchor="middle" x="413.45" y="-503.5" font-family="Helvetica,sans-Serif" font-size="10.00"> </text>
<polyline fill="none" stroke="black" points="382.94,-496.5 443.97,-496.5 "/>
<text text-anchor="middle" x="413.45" y="-483.5" font-family="Helvetica,sans-Serif" font-size="10.00"> </text>
</a>
</g>
</g>
<!-- Node4&#45;&gt;Node2 -->
<g id="edge3" class="edge">
<title>Node4&#45;&gt;Node2</title>
<path fill="none" stroke="#404040" d="M389.82,-476.27C383.62,-468.45 376.98,-459.96 370.99,-452 355.64,-431.63 339.42,-409.32 324.53,-388.49"/>
<polygon fill="none" stroke="#404040" points="324.53,-388.49 317.79,-385.92 317.56,-378.72 324.3,-381.28 324.53,-388.49"/>
<text text-anchor="middle" x="391.18" y="-437" font-family="Helvetica,sans-Serif" font-size="10.00"> #frame_</text>
</g>
<!-- Node5 -->
<g id="node5" class="node">
<title>Node5</title>
<g id="a_node5"><a xlink:title=" ">
<polygon fill="none" stroke="black" points="0,-476.5 0,-536.5 34.91,-536.5 34.91,-476.5 0,-476.5"/>
<text text-anchor="middle" x="17.45" y="-523.5" font-family="Helvetica,sans-Serif" font-size="10.00">bool</text>
<polyline fill="none" stroke="black" points="0,-516.5 34.91,-516.5 "/>
<text text-anchor="middle" x="17.45" y="-503.5" font-family="Helvetica,sans-Serif" font-size="10.00"> </text>
<polyline fill="none" stroke="black" points="0,-496.5 34.91,-496.5 "/>
<text text-anchor="middle" x="17.45" y="-483.5" font-family="Helvetica,sans-Serif" font-size="10.00"> </text>
</a>
</g>
</g>
<!-- Node5&#45;&gt;Node1 -->
<g id="edge9" class="edge">
<title>Node5&#45;&gt;Node1</title>
<path fill="none" stroke="#404040" d="M19.2,-476.43C24.28,-417.31 43.98,-282.15 119.55,-205 186.63,-136.53 294.77,-104.93 369.28,-90.68"/>
<polygon fill="none" stroke="#404040" points="369.6,-90.62 374.78,-85.6 381.4,-88.45 376.22,-93.47 369.6,-90.62"/>
<text text-anchor="middle" x="165.9" y="-304.5" font-family="Helvetica,sans-Serif" font-size="10.00"> +update_if_invisible</text>
</g>
<!-- Node5&#45;&gt;Node2 -->
<g id="edge4" class="edge">
<title>Node5&#45;&gt;Node2</title>
<path fill="none" stroke="#404040" d="M29.35,-476.46C37.05,-460.53 48.39,-441.35 63.05,-428 76.99,-415.31 84.84,-418.91 101.45,-410 137.99,-390.41 177.69,-366.4 209.22,-346.65"/>
<polygon fill="none" stroke="#404040" points="209.42,-346.52 212.37,-339.94 219.58,-340.12 216.63,-346.71 209.42,-346.52"/>
<text text-anchor="middle" x="81.66" y="-437" font-family="Helvetica,sans-Serif" font-size="10.00"> +visible</text>
</g>
<!-- Node6 -->
<g id="node6" class="node">
<title>Node6</title>
<g id="a_node6"><a xlink:title=" ">
<polygon fill="none" stroke="black" points="61.5,-476.5 61.5,-536.5 101.4,-536.5 101.4,-476.5 61.5,-476.5"/>
<text text-anchor="middle" x="81.45" y="-523.5" font-family="Helvetica,sans-Serif" font-size="10.00">Color</text>
<polyline fill="none" stroke="black" points="61.5,-516.5 101.4,-516.5 "/>
<text text-anchor="middle" x="81.45" y="-503.5" font-family="Helvetica,sans-Serif" font-size="10.00"> </text>
<polyline fill="none" stroke="black" points="61.5,-496.5 101.4,-496.5 "/>
<text text-anchor="middle" x="81.45" y="-483.5" font-family="Helvetica,sans-Serif" font-size="10.00"> </text>
</a>
</g>
</g>
<!-- Node6&#45;&gt;Node2 -->
<g id="edge5" class="edge">
<title>Node6&#45;&gt;Node2</title>
<path fill="none" stroke="#404040" d="M91.23,-476.45C97.28,-461.08 106.09,-442.44 117.5,-428 142.99,-395.71 178.86,-366.84 209.25,-345.57"/>
<polygon fill="none" stroke="#404040" points="209.42,-345.45 212.1,-338.76 219.31,-338.66 216.63,-345.35 209.42,-345.45"/>
<text text-anchor="middle" x="129.43" y="-437" font-family="Helvetica,sans-Serif" font-size="10.00"> +tint</text>
</g>
<!-- Node7 -->
<g id="node7" class="node">
<title>Node7</title>
<g id="a_node7"><a xlink:title=" ">
<polygon fill="none" stroke="black" points="119.22,-476.5 119.22,-536.5 169.68,-536.5 169.68,-476.5 119.22,-476.5"/>
<text text-anchor="middle" x="144.45" y="-523.5" font-family="Helvetica,sans-Serif" font-size="10.00">Vector2</text>
<polyline fill="none" stroke="black" points="119.22,-516.5 169.68,-516.5 "/>
<text text-anchor="middle" x="144.45" y="-503.5" font-family="Helvetica,sans-Serif" font-size="10.00"> </text>
<polyline fill="none" stroke="black" points="119.22,-496.5 169.68,-496.5 "/>
<text text-anchor="middle" x="144.45" y="-483.5" font-family="Helvetica,sans-Serif" font-size="10.00"> </text>
</a>
</g>
</g>
<!-- Node7&#45;&gt;Node2 -->
<g id="edge6" class="edge">
<title>Node7&#45;&gt;Node2</title>
<path fill="none" stroke="#404040" d="M141.57,-476.35C141.24,-461.3 142.7,-442.99 149.46,-428 162.86,-398.32 187.08,-371.87 210.19,-351.44"/>
<polygon fill="none" stroke="#404040" points="210.19,-351.44 212.14,-344.5 219.3,-343.64 217.35,-350.58 210.19,-351.44"/>
<text text-anchor="middle" x="186.45" y="-437" font-family="Helvetica,sans-Serif" font-size="10.00"> +rotation_origin</text>
</g>
<!-- Node8 -->
<g id="node8" class="node">
<title>Node8</title>
<g id="a_node8"><a xlink:title=" ">
<polygon fill="none" stroke="black" points="189,-476.5 189,-536.5 223.9,-536.5 223.9,-476.5 189,-476.5"/>
<text text-anchor="middle" x="206.45" y="-523.5" font-family="Helvetica,sans-Serif" font-size="10.00">float</text>
<polyline fill="none" stroke="black" points="189,-516.5 223.9,-516.5 "/>
<text text-anchor="middle" x="206.45" y="-503.5" font-family="Helvetica,sans-Serif" font-size="10.00"> </text>
<polyline fill="none" stroke="black" points="189,-496.5 223.9,-496.5 "/>
<text text-anchor="middle" x="206.45" y="-483.5" font-family="Helvetica,sans-Serif" font-size="10.00"> </text>
</a>
</g>
</g>
<!-- Node8&#45;&gt;Node2 -->
<g id="edge7" class="edge">
<title>Node8&#45;&gt;Node2</title>
<path fill="none" stroke="#404040" d="M215.6,-476.43C220.35,-461.33 226.5,-441.8 232.91,-421.43"/>
<polygon fill="none" stroke="#404040" points="233,-421.15 230.99,-414.23 236.6,-409.71 238.62,-416.63 233,-421.15"/>
<text text-anchor="middle" x="251.44" y="-437" font-family="Helvetica,sans-Serif" font-size="10.00"> +rotation</text>
</g>
<!-- Node9 -->
<g id="node9" class="node">
<title>Node9</title>
<g id="a_node9"><a xlink:title=" ">
<polygon fill="none" stroke="black" points="464.95,-476.5 464.95,-536.5 493.95,-536.5 493.95,-476.5 464.95,-476.5"/>
<text text-anchor="middle" x="479.23" y="-523.5" font-family="Helvetica,sans-Serif" font-size="10.00">int</text>
<polyline fill="none" stroke="black" points="464.95,-516.5 493.51,-516.5 "/>
<text text-anchor="middle" x="479.23" y="-503.5" font-family="Helvetica,sans-Serif" font-size="10.00"> </text>
<polyline fill="none" stroke="black" points="464.95,-496.5 493.51,-496.5 "/>
<text text-anchor="middle" x="479.23" y="-483.5" font-family="Helvetica,sans-Serif" font-size="10.00"> </text>
</a>
</g>
</g>
<!-- Node9&#45;&gt;Node1 -->
<g id="edge10" class="edge">
<title>Node9&#45;&gt;Node1</title>
<path fill="none" stroke="#404040" d="M477.53,-476.22C473.42,-413.76 463.66,-265.27 457.32,-168.73"/>
<polygon fill="none" stroke="#404040" points="457.31,-168.61 452.93,-162.89 456.52,-156.64 460.91,-162.36 457.31,-168.61"/>
<text text-anchor="middle" x="507.08" y="-316.5" font-family="Helvetica,sans-Serif" font-size="10.00"> &#45;current_step_</text>
<text text-anchor="middle" x="507.08" y="-304.5" font-family="Helvetica,sans-Serif" font-size="10.00">&#45;next_state_</text>
<text text-anchor="middle" x="507.08" y="-292.5" font-family="Helvetica,sans-Serif" font-size="10.00">&#45;state_</text>
</g>
<!-- Node9&#45;&gt;Node2 -->
<g id="edge8" class="edge">
<title>Node9&#45;&gt;Node2</title>
<path fill="none" stroke="#404040" d="M464.77,-483.89C461.24,-479.16 457.36,-474.29 453.45,-470 445.33,-461.08 441.81,-460.39 433.15,-452 422.6,-441.79 421.13,-438.08 410.45,-428 383.95,-402.99 353.14,-376.75 327.01,-355.25"/>
<polygon fill="none" stroke="#404040" points="326.9,-355.16 319.72,-354.45 317.61,-347.56 324.79,-348.26 326.9,-355.16"/>
<text text-anchor="middle" x="451.1" y="-443" font-family="Helvetica,sans-Serif" font-size="10.00"> +pos_x</text>
<text text-anchor="middle" x="451.1" y="-431" font-family="Helvetica,sans-Serif" font-size="10.00">+pos_y</text>
</g>
<!-- Node10 -->
<g id="node10" class="node">
<title>Node10</title>
<g id="a_node10"><a xlink:title=" ">
<polygon fill="none" stroke="black" points="567.87,-265.5 567.87,-349.5 685.03,-349.5 685.03,-265.5 567.87,-265.5"/>
<text text-anchor="start" x="575.87" y="-336.5" font-family="Helvetica,sans-Serif" font-size="10.00">vector&lt; game::core</text>
<text text-anchor="start" x="575.87" y="-324.5" font-family="Helvetica,sans-Serif" font-size="10.00">::SpriteAnimated::anim</text>
<text text-anchor="middle" x="626.45" y="-312.5" font-family="Helvetica,sans-Serif" font-size="10.00">_state &gt;</text>
<polyline fill="none" stroke="black" points="567.87,-305.5 685.03,-305.5 "/>
<text text-anchor="middle" x="626.45" y="-292.5" font-family="Helvetica,sans-Serif" font-size="10.00"> </text>
<polyline fill="none" stroke="black" points="567.87,-285.5 685.03,-285.5 "/>
<text text-anchor="middle" x="626.45" y="-272.5" font-family="Helvetica,sans-Serif" font-size="10.00"> </text>
</a>
</g>
</g>
<!-- Node10&#45;&gt;Node1 -->
<g id="edge11" class="edge">
<title>Node10&#45;&gt;Node1</title>
<path fill="none" stroke="#404040" d="M597.52,-265.11C584.32,-246.54 568.36,-224.48 553.45,-205 543.71,-192.26 533.23,-178.95 522.84,-165.97"/>
<polygon fill="none" stroke="#404040" points="522.81,-165.94 515.93,-163.77 515.29,-156.59 522.17,-158.76 522.81,-165.94"/>
<text text-anchor="middle" x="556.63" y="-178" font-family="Helvetica,sans-Serif" font-size="10.00"> &#45;states_</text>
</g>
</g>
</svg>
