<?xml version="1.0" encoding="UTF-8" standalone="no"?>
<!DOCTYPE svg PUBLIC "-//W3C//DTD SVG 1.1//EN"
 "http://www.w3.org/Graphics/SVG/1.1/DTD/svg11.dtd">
<!-- Generated by graphviz version 3.0.0 (20220226.1711)
 -->
<!-- Title: game::core::Sprite Pages: 1 -->
<svg width="526pt" height="346pt"
 viewBox="0.00 0.00 525.53 346.00" xmlns="http://www.w3.org/2000/svg" xmlns:xlink="http://www.w3.org/1999/xlink">
<g id="graph0" class="graph" transform="scale(1 1) rotate(0) translate(4 342)">
<title>game::core::Sprite</title>
<!-- Node1 -->
<g id="node1" class="node">
<title>Node1</title>
<g id="a_node1"><a xlink:title="The Sprite class specifies position and degree of rotation on the screen for an associated VRAM textu...">
<polygon fill="#bfbfbf" stroke="black" points="246.37,-0.5 246.37,-204.5 344.08,-204.5 344.08,-0.5 246.37,-0.5"/>
<text text-anchor="middle" x="295.23" y="-191.5" font-family="Helvetica,sans-Serif" font-size="10.00">game::core::Sprite</text>
<polyline fill="none" stroke="black" points="246.37,-184.5 344.08,-184.5 "/>
<text text-anchor="middle" x="295.23" y="-171.5" font-family="Helvetica,sans-Serif" font-size="10.00"> </text>
<polyline fill="none" stroke="black" points="246.37,-164.5 344.08,-164.5 "/>
<text text-anchor="start" x="254.37" y="-151.5" font-family="Helvetica,sans-Serif" font-size="10.00">+ Sprite()</text>
<text text-anchor="start" x="254.37" y="-139.5" font-family="Helvetica,sans-Serif" font-size="10.00">+ Sprite()</text>
<text text-anchor="start" x="254.37" y="-127.5" font-family="Helvetica,sans-Serif" font-size="10.00">+ Sprite()</text>
<text text-anchor="start" x="254.37" y="-115.5" font-family="Helvetica,sans-Serif" font-size="10.00">+ Sprite()</text>
<text text-anchor="start" x="254.37" y="-103.5" font-family="Helvetica,sans-Serif" font-size="10.00">+ Sprite()</text>
<text text-anchor="start" x="254.37" y="-91.5" font-family="Helvetica,sans-Serif" font-size="10.00">+ ~Sprite()</text>
<text text-anchor="start" x="254.37" y="-79.5" font-family="Helvetica,sans-Serif" font-size="10.00">+ texture()</text>
<text text-anchor="start" x="254.37" y="-67.5" font-family="Helvetica,sans-Serif" font-size="10.00">+ texture_object()</text>
<text text-anchor="start" x="254.37" y="-55.5" font-family="Helvetica,sans-Serif" font-size="10.00">+ texture()</text>
<text text-anchor="start" x="254.37" y="-43.5" font-family="Helvetica,sans-Serif" font-size="10.00">+ position()</text>
<text text-anchor="start" x="254.37" y="-31.5" font-family="Helvetica,sans-Serif" font-size="10.00">+ frame()</text>
<text text-anchor="start" x="254.37" y="-19.5" font-family="Helvetica,sans-Serif" font-size="10.00">+ frame()</text>
<text text-anchor="start" x="254.37" y="-7.5" font-family="Helvetica,sans-Serif" font-size="10.00">+ Update()</text>
</a>
</g>
</g>
<!-- Node2 -->
<g id="node2" class="node">
<title>Node2</title>
<g id="a_node2"><a xlink:title=" ">
<polygon fill="none" stroke="black" points="0,-265.5 0,-337.5 122.45,-337.5 122.45,-265.5 0,-265.5"/>
<text text-anchor="start" x="8" y="-324.5" font-family="Helvetica,sans-Serif" font-size="10.00">shared_ptr&lt; game::core</text>
<text text-anchor="middle" x="61.23" y="-312.5" font-family="Helvetica,sans-Serif" font-size="10.00">::Texture2D &gt;</text>
<polyline fill="none" stroke="black" points="0,-305.5 122.45,-305.5 "/>
<text text-anchor="middle" x="61.23" y="-292.5" font-family="Helvetica,sans-Serif" font-size="10.00"> </text>
<polyline fill="none" stroke="black" points="0,-285.5 122.45,-285.5 "/>
<text text-anchor="middle" x="61.23" y="-272.5" font-family="Helvetica,sans-Serif" font-size="10.00"> </text>
</a>
</g>
</g>
<!-- Node2&#45;&gt;Node1 -->
<g id="edge1" class="edge">
<title>Node2&#45;&gt;Node1</title>
<path fill="none" stroke="#404040" d="M96.66,-265.41C110.73,-251.85 127.23,-236.4 142.75,-223 172.81,-197.04 207.57,-169.61 236.31,-147.58"/>
<polygon fill="none" stroke="#404040" points="236.67,-147.31 239.01,-140.49 246.21,-140.02 243.87,-146.84 236.67,-147.31"/>
<text text-anchor="middle" x="164.46" y="-232" font-family="Helvetica,sans-Serif" font-size="10.00"> #texture_</text>
</g>
<!-- Node3 -->
<g id="node3" class="node">
<title>Node3</title>
<g id="a_node3"><a xlink:title=" ">
<polygon fill="none" stroke="black" points="140.71,-271.5 140.71,-331.5 201.74,-331.5 201.74,-271.5 140.71,-271.5"/>
<text text-anchor="middle" x="171.23" y="-318.5" font-family="Helvetica,sans-Serif" font-size="10.00">Rectangle</text>
<polyline fill="none" stroke="black" points="140.71,-311.5 201.74,-311.5 "/>
<text text-anchor="middle" x="171.23" y="-298.5" font-family="Helvetica,sans-Serif" font-size="10.00"> </text>
<polyline fill="none" stroke="black" points="140.71,-291.5 201.74,-291.5 "/>
<text text-anchor="middle" x="171.23" y="-278.5" font-family="Helvetica,sans-Serif" font-size="10.00"> </text>
</a>
</g>
</g>
<!-- Node3&#45;&gt;Node1 -->
<g id="edge2" class="edge">
<title>Node3&#45;&gt;Node1</title>
<path fill="none" stroke="#404040" d="M181.44,-271.32C187.15,-256.42 194.91,-238.28 203.76,-223 214,-205.33 226.52,-187.32 238.96,-170.81"/>
<polygon fill="none" stroke="#404040" points="238.96,-170.8 239.44,-163.61 246.26,-161.28 245.79,-168.47 238.96,-170.8"/>
<text text-anchor="middle" x="222.96" y="-232" font-family="Helvetica,sans-Serif" font-size="10.00"> #frame_</text>
</g>
<!-- Node4 -->
<g id="node4" class="node">
<title>Node4</title>
<g id="a_node4"><a xlink:title=" ">
<polygon fill="none" stroke="black" points="219.77,-271.5 219.77,-331.5 254.68,-331.5 254.68,-271.5 219.77,-271.5"/>
<text text-anchor="middle" x="237.23" y="-318.5" font-family="Helvetica,sans-Serif" font-size="10.00">bool</text>
<polyline fill="none" stroke="black" points="219.77,-311.5 254.68,-311.5 "/>
<text text-anchor="middle" x="237.23" y="-298.5" font-family="Helvetica,sans-Serif" font-size="10.00"> </text>
<polyline fill="none" stroke="black" points="219.77,-291.5 254.68,-291.5 "/>
<text text-anchor="middle" x="237.23" y="-278.5" font-family="Helvetica,sans-Serif" font-size="10.00"> </text>
</a>
</g>
</g>
<!-- Node4&#45;&gt;Node1 -->
<g id="edge3" class="edge">
<title>Node4&#45;&gt;Node1</title>
<path fill="none" stroke="#404040" d="M242.61,-271.22C245.52,-256.63 249.42,-238.77 253.82,-223 254.45,-220.74 255.1,-218.46 255.77,-216.17"/>
<polygon fill="none" stroke="#404040" points="255.79,-216.1 253.68,-209.21 259.23,-204.61 261.34,-211.5 255.79,-216.1"/>
<text text-anchor="middle" x="271.43" y="-232" font-family="Helvetica,sans-Serif" font-size="10.00"> +visible</text>
</g>
<!-- Node5 -->
<g id="node5" class="node">
<title>Node5</title>
<g id="a_node5"><a xlink:title=" ">
<polygon fill="none" stroke="black" points="274.28,-271.5 274.28,-331.5 314.17,-331.5 314.17,-271.5 274.28,-271.5"/>
<text text-anchor="middle" x="294.23" y="-318.5" font-family="Helvetica,sans-Serif" font-size="10.00">Color</text>
<polyline fill="none" stroke="black" points="274.28,-311.5 314.17,-311.5 "/>
<text text-anchor="middle" x="294.23" y="-298.5" font-family="Helvetica,sans-Serif" font-size="10.00"> </text>
<polyline fill="none" stroke="black" points="274.28,-291.5 314.17,-291.5 "/>
<text text-anchor="middle" x="294.23" y="-278.5" font-family="Helvetica,sans-Serif" font-size="10.00"> </text>
</a>
</g>
</g>
<!-- Node5&#45;&gt;Node1 -->
<g id="edge4" class="edge">
<title>Node5&#45;&gt;Node1</title>
<path fill="none" stroke="#404040" d="M294.37,-271.43C294.45,-256.4 294.55,-236.98 294.65,-216.71"/>
<polygon fill="none" stroke="#404040" points="294.65,-216.7 290.68,-210.68 294.71,-204.71 298.68,-210.73 294.65,-216.7"/>
<text text-anchor="middle" x="305.2" y="-232" font-family="Helvetica,sans-Serif" font-size="10.00"> +tint</text>
</g>
<!-- Node6 -->
<g id="node6" class="node">
<title>Node6</title>
<g id="a_node6"><a xlink:title=" ">
<polygon fill="none" stroke="black" points="331.99,-271.5 331.99,-331.5 382.46,-331.5 382.46,-271.5 331.99,-271.5"/>
<text text-anchor="middle" x="357.23" y="-318.5" font-family="Helvetica,sans-Serif" font-size="10.00">Vector2</text>
<polyline fill="none" stroke="black" points="331.99,-311.5 382.46,-311.5 "/>
<text text-anchor="middle" x="357.23" y="-298.5" font-family="Helvetica,sans-Serif" font-size="10.00"> </text>
<polyline fill="none" stroke="black" points="331.99,-291.5 382.46,-291.5 "/>
<text text-anchor="middle" x="357.23" y="-278.5" font-family="Helvetica,sans-Serif" font-size="10.00"> </text>
</a>
</g>
</g>
<!-- Node6&#45;&gt;Node1 -->
<g id="edge5" class="edge">
<title>Node6&#45;&gt;Node1</title>
<path fill="none" stroke="#404040" d="M348.08,-271.43C343.32,-256.33 337.18,-236.8 330.77,-216.43"/>
<polygon fill="none" stroke="#404040" points="330.68,-216.15 325.06,-211.63 327.08,-204.71 332.69,-209.23 330.68,-216.15"/>
<text text-anchor="middle" x="374.22" y="-232" font-family="Helvetica,sans-Serif" font-size="10.00"> +rotation_origin</text>
</g>
<!-- Node7 -->
<g id="node7" class="node">
<title>Node7</title>
<g id="a_node7"><a xlink:title=" ">
<polygon fill="none" stroke="black" points="417.77,-271.5 417.77,-331.5 452.68,-331.5 452.68,-271.5 417.77,-271.5"/>
<text text-anchor="middle" x="435.23" y="-318.5" font-family="Helvetica,sans-Serif" font-size="10.00">float</text>
<polyline fill="none" stroke="black" points="417.77,-311.5 452.68,-311.5 "/>
<text text-anchor="middle" x="435.23" y="-298.5" font-family="Helvetica,sans-Serif" font-size="10.00"> </text>
<polyline fill="none" stroke="black" points="417.77,-291.5 452.68,-291.5 "/>
<text text-anchor="middle" x="435.23" y="-278.5" font-family="Helvetica,sans-Serif" font-size="10.00"> </text>
</a>
</g>
</g>
<!-- Node7&#45;&gt;Node1 -->
<g id="edge6" class="edge">
<title>Node7&#45;&gt;Node1</title>
<path fill="none" stroke="#404040" d="M430.52,-271.14C427.22,-256.03 421.82,-237.74 413.23,-223 397.68,-196.33 374.81,-171.28 353.33,-151.07"/>
<polygon fill="none" stroke="#404040" points="353.07,-150.84 345.95,-149.72 344.24,-142.72 351.36,-143.83 353.07,-150.84"/>
<text text-anchor="middle" x="443.21" y="-232" font-family="Helvetica,sans-Serif" font-size="10.00"> +rotation</text>
</g>
<!-- Node8 -->
<g id="node8" class="node">
<title>Node8</title>
<g id="a_node8"><a xlink:title=" ">
<polygon fill="none" stroke="black" points="485.73,-271.5 485.73,-331.5 514.73,-331.5 514.73,-271.5 485.73,-271.5"/>
<text text-anchor="middle" x="500.01" y="-318.5" font-family="Helvetica,sans-Serif" font-size="10.00">int</text>
<polyline fill="none" stroke="black" points="485.73,-311.5 514.29,-311.5 "/>
<text text-anchor="middle" x="500.01" y="-298.5" font-family="Helvetica,sans-Serif" font-size="10.00"> </text>
<polyline fill="none" stroke="black" points="485.73,-291.5 514.29,-291.5 "/>
<text text-anchor="middle" x="500.01" y="-278.5" font-family="Helvetica,sans-Serif" font-size="10.00"> </text>
</a>
</g>
</g>
<!-- Node8&#45;&gt;Node1 -->
<g id="edge7" class="edge">
<title>Node8&#45;&gt;Node1</title>
<path fill="none" stroke="#404040" d="M492.52,-271.14C487.42,-255.67 479.56,-237.05 468.23,-223 437.56,-184.99 391.69,-154.07 354.89,-133.21"/>
<polygon fill="none" stroke="#404040" points="354.78,-133.15 347.59,-133.74 344.28,-127.33 351.47,-126.74 354.78,-133.15"/>
<text text-anchor="middle" x="499.88" y="-238" font-family="Helvetica,sans-Serif" font-size="10.00"> +pos_x</text>
<text text-anchor="middle" x="499.88" y="-226" font-family="Helvetica,sans-Serif" font-size="10.00">+pos_y</text>
</g>
</g>
</svg>
