<?xml version="1.0" encoding="UTF-8" standalone="no"?>
<!DOCTYPE svg PUBLIC "-//W3C//DTD SVG 1.1//EN"
 "http://www.w3.org/Graphics/SVG/1.1/DTD/svg11.dtd">
<!-- Generated by graphviz version 3.0.0 (20220226.1711)
 -->
<!-- Title: game::core::Scene Pages: 1 -->
<svg width="136pt" height="238pt"
 viewBox="0.00 0.00 136.01 238.00" xmlns="http://www.w3.org/2000/svg" xmlns:xlink="http://www.w3.org/1999/xlink">
<g id="graph0" class="graph" transform="scale(1 1) rotate(0) translate(4 234)">
<title>game::core::Scene</title>
<!-- Node1 -->
<g id="node1" class="node">
<title>Node1</title>
<g id="a_node1"><a xlink:title="Scene base class. Scenes are managed by the Stage object.">
<polygon fill="#bfbfbf" stroke="black" points="14.04,-0.5 14.04,-96.5 113.97,-96.5 113.97,-0.5 14.04,-0.5"/>
<text text-anchor="middle" x="64" y="-83.5" font-family="Helvetica,sans-Serif" font-size="10.00">game::core::Scene</text>
<polyline fill="none" stroke="black" points="14.04,-76.5 113.97,-76.5 "/>
<text text-anchor="middle" x="64" y="-63.5" font-family="Helvetica,sans-Serif" font-size="10.00"> </text>
<polyline fill="none" stroke="black" points="14.04,-56.5 113.97,-56.5 "/>
<text text-anchor="start" x="22.04" y="-43.5" font-family="Helvetica,sans-Serif" font-size="10.00">+ Scene()</text>
<text text-anchor="start" x="22.04" y="-31.5" font-family="Helvetica,sans-Serif" font-size="10.00">+ ~Scene()</text>
<text text-anchor="start" x="22.04" y="-19.5" font-family="Helvetica,sans-Serif" font-size="10.00">+ Update()</text>
<text text-anchor="start" x="22.04" y="-7.5" font-family="Helvetica,sans-Serif" font-size="10.00">+ Draw()</text>
</a>
</g>
</g>
<!-- Node2 -->
<g id="node2" class="node">
<title>Node2</title>
<g id="a_node2"><a xlink:title=" ">
<polygon fill="none" stroke="black" points="0,-145.5 0,-229.5 128.01,-229.5 128.01,-145.5 0,-145.5"/>
<text text-anchor="start" x="8" y="-216.5" font-family="Helvetica,sans-Serif" font-size="10.00">map&lt; std::string, std</text>
<text text-anchor="start" x="8" y="-204.5" font-family="Helvetica,sans-Serif" font-size="10.00">::shared_ptr&lt; game::core</text>
<text text-anchor="middle" x="64" y="-192.5" font-family="Helvetica,sans-Serif" font-size="10.00">::Actor &gt; &gt;</text>
<polyline fill="none" stroke="black" points="0,-185.5 128.01,-185.5 "/>
<text text-anchor="middle" x="64" y="-172.5" font-family="Helvetica,sans-Serif" font-size="10.00"> </text>
<polyline fill="none" stroke="black" points="0,-165.5 128.01,-165.5 "/>
<text text-anchor="middle" x="64" y="-152.5" font-family="Helvetica,sans-Serif" font-size="10.00"> </text>
</a>
</g>
</g>
<!-- Node2&#45;&gt;Node1 -->
<g id="edge1" class="edge">
<title>Node2&#45;&gt;Node1</title>
<path fill="none" stroke="#404040" d="M64,-145.4C64,-133.93 64,-121.23 64,-108.94"/>
<polygon fill="none" stroke="#404040" points="64,-108.83 60,-102.83 64,-96.83 68,-102.83 64,-108.83"/>
<text text-anchor="middle" x="81.93" y="-118" font-family="Helvetica,sans-Serif" font-size="10.00"> +actors</text>
</g>
</g>
</svg>
