<?xml version="1.0" encoding="UTF-8" standalone="no"?>
<!DOCTYPE svg PUBLIC "-//W3C//DTD SVG 1.1//EN"
 "http://www.w3.org/Graphics/SVG/1.1/DTD/svg11.dtd">
<!-- Generated by graphviz version 3.0.0 (20220226.1711)
 -->
<!-- Title: game::scenes::PauseScene Pages: 1 -->
<svg width="149pt" height="238pt"
 viewBox="0.00 0.00 148.52 238.00" xmlns="http://www.w3.org/2000/svg" xmlns:xlink="http://www.w3.org/1999/xlink">
<g id="graph0" class="graph" transform="scale(1 1) rotate(0) translate(4 234)">
<title>game::scenes::PauseScene</title>
<!-- Node1 -->
<g id="node1" class="node">
<title>Node1</title>
<g id="a_node1"><a xlink:title=" ">
<polygon fill="#bfbfbf" stroke="black" points="0,-0.5 0,-96.5 140.52,-96.5 140.52,-0.5 0,-0.5"/>
<text text-anchor="middle" x="70.26" y="-83.5" font-family="Helvetica,sans-Serif" font-size="10.00">game::scenes::PauseScene</text>
<polyline fill="none" stroke="black" points="0,-76.5 140.52,-76.5 "/>
<text text-anchor="middle" x="70.26" y="-63.5" font-family="Helvetica,sans-Serif" font-size="10.00"> </text>
<polyline fill="none" stroke="black" points="0,-56.5 140.52,-56.5 "/>
<text text-anchor="start" x="8" y="-43.5" font-family="Helvetica,sans-Serif" font-size="10.00">+ PauseScene()</text>
<text text-anchor="start" x="8" y="-31.5" font-family="Helvetica,sans-Serif" font-size="10.00">+ ~PauseScene()</text>
<text text-anchor="start" x="8" y="-19.5" font-family="Helvetica,sans-Serif" font-size="10.00">+ Update()</text>
<text text-anchor="start" x="8" y="-7.5" font-family="Helvetica,sans-Serif" font-size="10.00">+ Draw()</text>
</a>
</g>
</g>
<!-- Node2 -->
<g id="node2" class="node">
<title>Node2</title>
<g id="a_node2"><a xlink:href="classgame_1_1core_1_1_scene.html" target="_top" xlink:title="Scene base class. Scenes are managed by the Stage object.">
<polygon fill="none" stroke="black" points="20.29,-133.5 20.29,-229.5 120.23,-229.5 120.23,-133.5 20.29,-133.5"/>
<text text-anchor="middle" x="70.26" y="-216.5" font-family="Helvetica,sans-Serif" font-size="10.00">game::core::Scene</text>
<polyline fill="none" stroke="black" points="20.29,-209.5 120.23,-209.5 "/>
<text text-anchor="start" x="28.29" y="-196.5" font-family="Helvetica,sans-Serif" font-size="10.00">+ actors</text>
<polyline fill="none" stroke="black" points="20.29,-189.5 120.23,-189.5 "/>
<text text-anchor="start" x="28.29" y="-176.5" font-family="Helvetica,sans-Serif" font-size="10.00">+ Scene()</text>
<text text-anchor="start" x="28.29" y="-164.5" font-family="Helvetica,sans-Serif" font-size="10.00">+ ~Scene()</text>
<text text-anchor="start" x="28.29" y="-152.5" font-family="Helvetica,sans-Serif" font-size="10.00">+ Update()</text>
<text text-anchor="start" x="28.29" y="-140.5" font-family="Helvetica,sans-Serif" font-size="10.00">+ Draw()</text>
</a>
</g>
</g>
<!-- Node2&#45;&gt;Node1 -->
<g id="edge1" class="edge">
<title>Node2&#45;&gt;Node1</title>
<path fill="none" stroke="midnightblue" d="M70.26,-123.02C70.26,-114.24 70.26,-105.26 70.26,-96.72"/>
<polygon fill="none" stroke="midnightblue" points="66.76,-123.21 70.26,-133.21 73.76,-123.21 66.76,-123.21"/>
</g>
</g>
</svg>
