<?xml version="1.0" encoding="UTF-8" standalone="no"?>
<!DOCTYPE svg PUBLIC "-//W3C//DTD SVG 1.1//EN"
 "http://www.w3.org/Graphics/SVG/1.1/DTD/svg11.dtd">
<!-- Generated by graphviz version 3.0.0 (20220226.1711)
 -->
<!-- Title: game::scenes::GameScene Pages: 1 -->
<svg width="147pt" height="372pt"
 viewBox="0.00 0.00 147.40 372.00" xmlns="http://www.w3.org/2000/svg" xmlns:xlink="http://www.w3.org/1999/xlink">
<g id="graph0" class="graph" transform="scale(1 1) rotate(0) translate(4 368)">
<title>game::scenes::GameScene</title>
<!-- Node1 -->
<g id="node1" class="node">
<title>Node1</title>
<g id="a_node1"><a xlink:title=" ">
<polygon fill="#bfbfbf" stroke="black" points="0,-0.5 0,-96.5 139.4,-96.5 139.4,-0.5 0,-0.5"/>
<text text-anchor="middle" x="69.7" y="-83.5" font-family="Helvetica,sans-Serif" font-size="10.00">game::scenes::GameScene</text>
<polyline fill="none" stroke="black" points="0,-76.5 139.4,-76.5 "/>
<text text-anchor="middle" x="69.7" y="-63.5" font-family="Helvetica,sans-Serif" font-size="10.00"> </text>
<polyline fill="none" stroke="black" points="0,-56.5 139.4,-56.5 "/>
<text text-anchor="start" x="8" y="-43.5" font-family="Helvetica,sans-Serif" font-size="10.00">+ GameScene()</text>
<text text-anchor="start" x="8" y="-31.5" font-family="Helvetica,sans-Serif" font-size="10.00">+ ~GameScene()</text>
<text text-anchor="start" x="8" y="-19.5" font-family="Helvetica,sans-Serif" font-size="10.00">+ Update()</text>
<text text-anchor="start" x="8" y="-7.5" font-family="Helvetica,sans-Serif" font-size="10.00">+ Draw()</text>
</a>
</g>
</g>
<!-- Node2 -->
<g id="node2" class="node">
<title>Node2</title>
<g id="a_node2"><a xlink:href="classgame_1_1core_1_1_scene.html" target="_top" xlink:title="Scene base class. Scenes are managed by the Stage object.">
<polygon fill="none" stroke="black" points="19.73,-134.5 19.73,-230.5 119.67,-230.5 119.67,-134.5 19.73,-134.5"/>
<text text-anchor="middle" x="69.7" y="-217.5" font-family="Helvetica,sans-Serif" font-size="10.00">game::core::Scene</text>
<polyline fill="none" stroke="black" points="19.73,-210.5 119.67,-210.5 "/>
<text text-anchor="middle" x="69.7" y="-197.5" font-family="Helvetica,sans-Serif" font-size="10.00"> </text>
<polyline fill="none" stroke="black" points="19.73,-190.5 119.67,-190.5 "/>
<text text-anchor="start" x="27.73" y="-177.5" font-family="Helvetica,sans-Serif" font-size="10.00">+ Scene()</text>
<text text-anchor="start" x="27.73" y="-165.5" font-family="Helvetica,sans-Serif" font-size="10.00">+ ~Scene()</text>
<text text-anchor="start" x="27.73" y="-153.5" font-family="Helvetica,sans-Serif" font-size="10.00">+ Update()</text>
<text text-anchor="start" x="27.73" y="-141.5" font-family="Helvetica,sans-Serif" font-size="10.00">+ Draw()</text>
</a>
</g>
</g>
<!-- Node2&#45;&gt;Node1 -->
<g id="edge1" class="edge">
<title>Node2&#45;&gt;Node1</title>
<path fill="none" stroke="midnightblue" d="M69.7,-124.1C69.7,-115.02 69.7,-105.71 69.7,-96.9"/>
<polygon fill="none" stroke="midnightblue" points="66.2,-124.22 69.7,-134.22 73.2,-124.22 66.2,-124.22"/>
</g>
<!-- Node3 -->
<g id="node3" class="node">
<title>Node3</title>
<g id="a_node3"><a xlink:title=" ">
<polygon fill="none" stroke="black" points="5.7,-279.5 5.7,-363.5 133.7,-363.5 133.7,-279.5 5.7,-279.5"/>
<text text-anchor="start" x="13.7" y="-350.5" font-family="Helvetica,sans-Serif" font-size="10.00">map&lt; std::string, std</text>
<text text-anchor="start" x="13.7" y="-338.5" font-family="Helvetica,sans-Serif" font-size="10.00">::shared_ptr&lt; game::core</text>
<text text-anchor="middle" x="69.7" y="-326.5" font-family="Helvetica,sans-Serif" font-size="10.00">::Actor &gt; &gt;</text>
<polyline fill="none" stroke="black" points="5.7,-319.5 133.7,-319.5 "/>
<text text-anchor="middle" x="69.7" y="-306.5" font-family="Helvetica,sans-Serif" font-size="10.00"> </text>
<polyline fill="none" stroke="black" points="5.7,-299.5 133.7,-299.5 "/>
<text text-anchor="middle" x="69.7" y="-286.5" font-family="Helvetica,sans-Serif" font-size="10.00"> </text>
</a>
</g>
</g>
<!-- Node3&#45;&gt;Node2 -->
<g id="edge2" class="edge">
<title>Node3&#45;&gt;Node2</title>
<path fill="none" stroke="#404040" d="M69.7,-279.4C69.7,-267.93 69.7,-255.23 69.7,-242.94"/>
<polygon fill="none" stroke="#404040" points="69.7,-242.83 65.7,-236.83 69.7,-230.83 73.7,-236.83 69.7,-242.83"/>
<text text-anchor="middle" x="87.62" y="-252" font-family="Helvetica,sans-Serif" font-size="10.00"> +actors</text>
</g>
</g>
</svg>
