<?xml version="1.0" encoding="UTF-8" standalone="no"?>
<!DOCTYPE svg PUBLIC "-//W3C//DTD SVG 1.1//EN"
 "http://www.w3.org/Graphics/SVG/1.1/DTD/svg11.dtd">
<!-- Generated by graphviz version 3.0.0 (20220226.1711)
 -->
<!-- Title: game::core::Actor Pages: 1 -->
<svg width="130pt" height="262pt"
 viewBox="0.00 0.00 130.45 262.00" xmlns="http://www.w3.org/2000/svg" xmlns:xlink="http://www.w3.org/1999/xlink">
<g id="graph0" class="graph" transform="scale(1 1) rotate(0) translate(4 258)">
<title>game::core::Actor</title>
<!-- Node1 -->
<g id="node1" class="node">
<title>Node1</title>
<g id="a_node1"><a xlink:title="Actor base class. Actors represent all game objects, such as players, enemies and other obstacles.">
<polygon fill="#bfbfbf" stroke="black" points="13.76,-0.5 13.76,-132.5 108.69,-132.5 108.69,-0.5 13.76,-0.5"/>
<text text-anchor="middle" x="61.23" y="-119.5" font-family="Helvetica,sans-Serif" font-size="10.00">game::core::Actor</text>
<polyline fill="none" stroke="black" points="13.76,-112.5 108.69,-112.5 "/>
<text text-anchor="middle" x="61.23" y="-99.5" font-family="Helvetica,sans-Serif" font-size="10.00"> </text>
<polyline fill="none" stroke="black" points="13.76,-92.5 108.69,-92.5 "/>
<text text-anchor="start" x="21.76" y="-79.5" font-family="Helvetica,sans-Serif" font-size="10.00">+ Actor()</text>
<text text-anchor="start" x="21.76" y="-67.5" font-family="Helvetica,sans-Serif" font-size="10.00">+ Actor()</text>
<text text-anchor="start" x="21.76" y="-55.5" font-family="Helvetica,sans-Serif" font-size="10.00">+ Actor()</text>
<text text-anchor="start" x="21.76" y="-43.5" font-family="Helvetica,sans-Serif" font-size="10.00">+ operator=()</text>
<text text-anchor="start" x="21.76" y="-31.5" font-family="Helvetica,sans-Serif" font-size="10.00">+ ~Actor()</text>
<text text-anchor="start" x="21.76" y="-19.5" font-family="Helvetica,sans-Serif" font-size="10.00">+ sprite()</text>
<text text-anchor="start" x="21.76" y="-7.5" font-family="Helvetica,sans-Serif" font-size="10.00">+ sprite()</text>
</a>
</g>
</g>
<!-- Node2 -->
<g id="node2" class="node">
<title>Node2</title>
<g id="a_node2"><a xlink:title=" ">
<polygon fill="none" stroke="black" points="0,-181.5 0,-253.5 122.45,-253.5 122.45,-181.5 0,-181.5"/>
<text text-anchor="start" x="8" y="-240.5" font-family="Helvetica,sans-Serif" font-size="10.00">shared_ptr&lt; game::core</text>
<text text-anchor="middle" x="61.23" y="-228.5" font-family="Helvetica,sans-Serif" font-size="10.00">::Sprite &gt;</text>
<polyline fill="none" stroke="black" points="0,-221.5 122.45,-221.5 "/>
<text text-anchor="middle" x="61.23" y="-208.5" font-family="Helvetica,sans-Serif" font-size="10.00"> </text>
<polyline fill="none" stroke="black" points="0,-201.5 122.45,-201.5 "/>
<text text-anchor="middle" x="61.23" y="-188.5" font-family="Helvetica,sans-Serif" font-size="10.00"> </text>
</a>
</g>
</g>
<!-- Node2&#45;&gt;Node1 -->
<g id="edge1" class="edge">
<title>Node2&#45;&gt;Node1</title>
<path fill="none" stroke="#404040" d="M61.23,-181.19C61.23,-170.17 61.23,-157.55 61.23,-144.82"/>
<polygon fill="none" stroke="#404040" points="61.23,-144.62 57.23,-138.62 61.23,-132.62 65.23,-138.62 61.23,-144.62"/>
<text text-anchor="middle" x="79.29" y="-154" font-family="Helvetica,sans-Serif" font-size="10.00"> &#45;sprite_</text>
</g>
</g>
</svg>
