<?xml version="1.0" encoding="UTF-8" standalone="no"?>
<!DOCTYPE svg PUBLIC "-//W3C//DTD SVG 1.1//EN"
 "http://www.w3.org/Graphics/SVG/1.1/DTD/svg11.dtd">
<!-- Generated by graphviz version 3.0.0 (20220226.1711)
 -->
<!-- Title: game::core::Stage Pages: 1 -->
<svg width="276pt" height="358pt"
 viewBox="0.00 0.00 276.23 358.00" xmlns="http://www.w3.org/2000/svg" xmlns:xlink="http://www.w3.org/1999/xlink">
<g id="graph0" class="graph" transform="scale(1 1) rotate(0) translate(4 354)">
<title>game::core::Stage</title>
<!-- Node1 -->
<g id="node1" class="node">
<title>Node1</title>
<g id="a_node1"><a xlink:title="Stage is used to manage scenes. The Stage automatically draws all Actor objects of a scene if they ar...">
<polygon fill="#bfbfbf" stroke="black" points="58.5,-0.5 58.5,-204.5 205.95,-204.5 205.95,-0.5 58.5,-0.5"/>
<text text-anchor="middle" x="132.23" y="-191.5" font-family="Helvetica,sans-Serif" font-size="10.00">game::core::Stage</text>
<polyline fill="none" stroke="black" points="58.5,-184.5 205.95,-184.5 "/>
<text text-anchor="middle" x="132.23" y="-171.5" font-family="Helvetica,sans-Serif" font-size="10.00"> </text>
<polyline fill="none" stroke="black" points="58.5,-164.5 205.95,-164.5 "/>
<text text-anchor="start" x="66.5" y="-151.5" font-family="Helvetica,sans-Serif" font-size="10.00">+ Stage()</text>
<text text-anchor="start" x="66.5" y="-139.5" font-family="Helvetica,sans-Serif" font-size="10.00">+ Stage()</text>
<text text-anchor="start" x="66.5" y="-127.5" font-family="Helvetica,sans-Serif" font-size="10.00">+ Stage()</text>
<text text-anchor="start" x="66.5" y="-115.5" font-family="Helvetica,sans-Serif" font-size="10.00">+ operator=()</text>
<text text-anchor="start" x="66.5" y="-103.5" font-family="Helvetica,sans-Serif" font-size="10.00">+ ~Stage()</text>
<text text-anchor="start" x="66.5" y="-91.5" font-family="Helvetica,sans-Serif" font-size="10.00">+ scene()</text>
<text text-anchor="start" x="66.5" y="-79.5" font-family="Helvetica,sans-Serif" font-size="10.00">+ scenes()</text>
<text text-anchor="start" x="66.5" y="-67.5" font-family="Helvetica,sans-Serif" font-size="10.00">+ replaceWithNewScene()</text>
<text text-anchor="start" x="66.5" y="-55.5" font-family="Helvetica,sans-Serif" font-size="10.00">+ replaceWithExistingScene()</text>
<text text-anchor="start" x="66.5" y="-43.5" font-family="Helvetica,sans-Serif" font-size="10.00">+ switchToNewScene()</text>
<text text-anchor="start" x="66.5" y="-31.5" font-family="Helvetica,sans-Serif" font-size="10.00">+ switchToScene()</text>
<text text-anchor="start" x="66.5" y="-19.5" font-family="Helvetica,sans-Serif" font-size="10.00">+ Update()</text>
<text text-anchor="start" x="66.5" y="-7.5" font-family="Helvetica,sans-Serif" font-size="10.00">+ Draw()</text>
</a>
</g>
</g>
<!-- Node2 -->
<g id="node2" class="node">
<title>Node2</title>
<g id="a_node2"><a xlink:title=" ">
<polygon fill="none" stroke="black" points="0,-271.5 0,-343.5 122.45,-343.5 122.45,-271.5 0,-271.5"/>
<text text-anchor="start" x="8" y="-330.5" font-family="Helvetica,sans-Serif" font-size="10.00">shared_ptr&lt; game::core</text>
<text text-anchor="middle" x="61.23" y="-318.5" font-family="Helvetica,sans-Serif" font-size="10.00">::Scene &gt;</text>
<polyline fill="none" stroke="black" points="0,-311.5 122.45,-311.5 "/>
<text text-anchor="middle" x="61.23" y="-298.5" font-family="Helvetica,sans-Serif" font-size="10.00"> </text>
<polyline fill="none" stroke="black" points="0,-291.5 122.45,-291.5 "/>
<text text-anchor="middle" x="61.23" y="-278.5" font-family="Helvetica,sans-Serif" font-size="10.00"> </text>
</a>
</g>
</g>
<!-- Node2&#45;&gt;Node1 -->
<g id="edge1" class="edge">
<title>Node2&#45;&gt;Node1</title>
<path fill="none" stroke="#404040" d="M73.59,-271.14C79.06,-255.49 85.84,-236.13 92.81,-216.19"/>
<polygon fill="none" stroke="#404040" points="92.85,-216.07 91.06,-209.08 96.82,-204.74 98.61,-211.72 92.85,-216.07"/>
<text text-anchor="middle" x="122.63" y="-238" font-family="Helvetica,sans-Serif" font-size="10.00"> &#45;next_scene_</text>
<text text-anchor="middle" x="122.63" y="-226" font-family="Helvetica,sans-Serif" font-size="10.00">&#45;scene_</text>
</g>
<!-- Node3 -->
<g id="node3" class="node">
<title>Node3</title>
<g id="a_node3"><a xlink:title=" ">
<polygon fill="none" stroke="black" points="140.22,-265.5 140.22,-349.5 268.23,-349.5 268.23,-265.5 140.22,-265.5"/>
<text text-anchor="start" x="148.22" y="-336.5" font-family="Helvetica,sans-Serif" font-size="10.00">map&lt; std::string, std</text>
<text text-anchor="start" x="148.22" y="-324.5" font-family="Helvetica,sans-Serif" font-size="10.00">::shared_ptr&lt; game::core</text>
<text text-anchor="middle" x="204.23" y="-312.5" font-family="Helvetica,sans-Serif" font-size="10.00">::Scene &gt; &gt;</text>
<polyline fill="none" stroke="black" points="140.22,-305.5 268.23,-305.5 "/>
<text text-anchor="middle" x="204.23" y="-292.5" font-family="Helvetica,sans-Serif" font-size="10.00"> </text>
<polyline fill="none" stroke="black" points="140.22,-285.5 268.23,-285.5 "/>
<text text-anchor="middle" x="204.23" y="-272.5" font-family="Helvetica,sans-Serif" font-size="10.00"> </text>
</a>
</g>
</g>
<!-- Node3&#45;&gt;Node1 -->
<g id="edge2" class="edge">
<title>Node3&#45;&gt;Node1</title>
<path fill="none" stroke="#404040" d="M189.65,-265.42C184.47,-250.81 178.36,-233.57 172.09,-215.89"/>
<polygon fill="none" stroke="#404040" points="172.07,-215.85 166.3,-211.53 168.06,-204.54 173.84,-208.86 172.07,-215.85"/>
<text text-anchor="middle" x="203.9" y="-232" font-family="Helvetica,sans-Serif" font-size="10.00"> &#45;scenes_</text>
</g>
</g>
</svg>
