<?xml version="1.0" encoding="UTF-8" standalone="no"?>
<!DOCTYPE svg PUBLIC "-//W3C//DTD SVG 1.1//EN"
 "http://www.w3.org/Graphics/SVG/1.1/DTD/svg11.dtd">
<!-- Generated by graphviz version 3.0.0 (20220226.1711)
 -->
<!-- Title: game::scenes::PauseScene Pages: 1 -->
<svg width="149pt" height="372pt"
 viewBox="0.00 0.00 148.52 372.00" xmlns="http://www.w3.org/2000/svg" xmlns:xlink="http://www.w3.org/1999/xlink">
<g id="graph0" class="graph" transform="scale(1 1) rotate(0) translate(4 368)">
<title>game::scenes::PauseScene</title>
<!-- Node1 -->
<g id="node1" class="node">
<title>Node1</title>
<g id="a_node1"><a xlink:title=" ">
<polygon fill="#bfbfbf" stroke="black" points="0,-0.5 0,-96.5 140.52,-96.5 140.52,-0.5 0,-0.5"/>
<text text-anchor="middle" x="70.26" y="-83.5" font-family="Helvetica,sans-Serif" font-size="10.00">game::scenes::PauseScene</text>
<polyline fill="none" stroke="black" points="0,-76.5 140.52,-76.5 "/>
<text text-anchor="middle" x="70.26" y="-63.5" font-family="Helvetica,sans-Serif" font-size="10.00"> </text>
<polyline fill="none" stroke="black" points="0,-56.5 140.52,-56.5 "/>
<text text-anchor="start" x="8" y="-43.5" font-family="Helvetica,sans-Serif" font-size="10.00">+ PauseScene()</text>
<text text-anchor="start" x="8" y="-31.5" font-family="Helvetica,sans-Serif" font-size="10.00">+ ~PauseScene()</text>
<text text-anchor="start" x="8" y="-19.5" font-family="Helvetica,sans-Serif" font-size="10.00">+ Update()</text>
<text text-anchor="start" x="8" y="-7.5" font-family="Helvetica,sans-Serif" font-size="10.00">+ Draw()</text>
</a>
</g>
</g>
<!-- Node2 -->
<g id="node2" class="node">
<title>Node2</title>
<g id="a_node2"><a xlink:href="classgame_1_1core_1_1_scene.html" target="_top" xlink:title="Scene base class. Scenes are managed by the Stage object.">
<polygon fill="none" stroke="black" points="20.29,-134.5 20.29,-230.5 120.23,-230.5 120.23,-134.5 20.29,-134.5"/>
<text text-anchor="middle" x="70.26" y="-217.5" font-family="Helvetica,sans-Serif" font-size="10.00">game::core::Scene</text>
<polyline fill="none" stroke="black" points="20.29,-210.5 120.23,-210.5 "/>
<text text-anchor="middle" x="70.26" y="-197.5" font-family="Helvetica,sans-Serif" font-size="10.00"> </text>
<polyline fill="none" stroke="black" points="20.29,-190.5 120.23,-190.5 "/>
<text text-anchor="start" x="28.29" y="-177.5" font-family="Helvetica,sans-Serif" font-size="10.00">+ Scene()</text>
<text text-anchor="start" x="28.29" y="-165.5" font-family="Helvetica,sans-Serif" font-size="10.00">+ ~Scene()</text>
<text text-anchor="start" x="28.29" y="-153.5" font-family="Helvetica,sans-Serif" font-size="10.00">+ Update()</text>
<text text-anchor="start" x="28.29" y="-141.5" font-family="Helvetica,sans-Serif" font-size="10.00">+ Draw()</text>
</a>
</g>
</g>
<!-- Node2&#45;&gt;Node1 -->
<g id="edge1" class="edge">
<title>Node2&#45;&gt;Node1</title>
<path fill="none" stroke="midnightblue" d="M70.26,-124.1C70.26,-115.02 70.26,-105.71 70.26,-96.9"/>
<polygon fill="none" stroke="midnightblue" points="66.76,-124.22 70.26,-134.22 73.76,-124.22 66.76,-124.22"/>
</g>
<!-- Node3 -->
<g id="node3" class="node">
<title>Node3</title>
<g id="a_node3"><a xlink:title=" ">
<polygon fill="none" stroke="black" points="6.26,-279.5 6.26,-363.5 134.26,-363.5 134.26,-279.5 6.26,-279.5"/>
<text text-anchor="start" x="14.26" y="-350.5" font-family="Helvetica,sans-Serif" font-size="10.00">map&lt; std::string, std</text>
<text text-anchor="start" x="14.26" y="-338.5" font-family="Helvetica,sans-Serif" font-size="10.00">::shared_ptr&lt; game::core</text>
<text text-anchor="middle" x="70.26" y="-326.5" font-family="Helvetica,sans-Serif" font-size="10.00">::Actor &gt; &gt;</text>
<polyline fill="none" stroke="black" points="6.26,-319.5 134.26,-319.5 "/>
<text text-anchor="middle" x="70.26" y="-306.5" font-family="Helvetica,sans-Serif" font-size="10.00"> </text>
<polyline fill="none" stroke="black" points="6.26,-299.5 134.26,-299.5 "/>
<text text-anchor="middle" x="70.26" y="-286.5" font-family="Helvetica,sans-Serif" font-size="10.00"> </text>
</a>
</g>
</g>
<!-- Node3&#45;&gt;Node2 -->
<g id="edge2" class="edge">
<title>Node3&#45;&gt;Node2</title>
<path fill="none" stroke="#404040" d="M70.26,-279.4C70.26,-267.93 70.26,-255.23 70.26,-242.94"/>
<polygon fill="none" stroke="#404040" points="70.26,-242.83 66.26,-236.83 70.26,-230.83 74.26,-236.83 70.26,-242.83"/>
<text text-anchor="middle" x="88.19" y="-252" font-family="Helvetica,sans-Serif" font-size="10.00"> +actors</text>
</g>
</g>
</svg>
