<?xml version="1.0" encoding="UTF-8" standalone="no"?>
<!DOCTYPE svg PUBLIC "-//W3C//DTD SVG 1.1//EN"
 "http://www.w3.org/Graphics/SVG/1.1/DTD/svg11.dtd">
<!-- Generated by graphviz version 3.0.0 (20220226.1711)
 -->
<!-- Title: game::scenes::MenuScene Pages: 1 -->
<svg width="145pt" height="238pt"
 viewBox="0.00 0.00 145.18 238.00" xmlns="http://www.w3.org/2000/svg" xmlns:xlink="http://www.w3.org/1999/xlink">
<g id="graph0" class="graph" transform="scale(1 1) rotate(0) translate(4 234)">
<title>game::scenes::MenuScene</title>
<!-- Node1 -->
<g id="node1" class="node">
<title>Node1</title>
<g id="a_node1"><a xlink:title=" ">
<polygon fill="#bfbfbf" stroke="black" points="0,-0.5 0,-96.5 137.18,-96.5 137.18,-0.5 0,-0.5"/>
<text text-anchor="middle" x="68.59" y="-83.5" font-family="Helvetica,sans-Serif" font-size="10.00">game::scenes::MenuScene</text>
<polyline fill="none" stroke="black" points="0,-76.5 137.18,-76.5 "/>
<text text-anchor="middle" x="68.59" y="-63.5" font-family="Helvetica,sans-Serif" font-size="10.00"> </text>
<polyline fill="none" stroke="black" points="0,-56.5 137.18,-56.5 "/>
<text text-anchor="start" x="8" y="-43.5" font-family="Helvetica,sans-Serif" font-size="10.00">+ MenuScene()</text>
<text text-anchor="start" x="8" y="-31.5" font-family="Helvetica,sans-Serif" font-size="10.00">+ ~MenuScene()</text>
<text text-anchor="start" x="8" y="-19.5" font-family="Helvetica,sans-Serif" font-size="10.00">+ Update()</text>
<text text-anchor="start" x="8" y="-7.5" font-family="Helvetica,sans-Serif" font-size="10.00">+ Draw()</text>
</a>
</g>
</g>
<!-- Node2 -->
<g id="node2" class="node">
<title>Node2</title>
<g id="a_node2"><a xlink:href="classgame_1_1core_1_1_scene.html" target="_top" xlink:title="Scene base class. Scenes are managed by the Stage object.">
<polygon fill="none" stroke="black" points="18.62,-133.5 18.62,-229.5 118.56,-229.5 118.56,-133.5 18.62,-133.5"/>
<text text-anchor="middle" x="68.59" y="-216.5" font-family="Helvetica,sans-Serif" font-size="10.00">game::core::Scene</text>
<polyline fill="none" stroke="black" points="18.62,-209.5 118.56,-209.5 "/>
<text text-anchor="start" x="26.62" y="-196.5" font-family="Helvetica,sans-Serif" font-size="10.00">+ actors</text>
<polyline fill="none" stroke="black" points="18.62,-189.5 118.56,-189.5 "/>
<text text-anchor="start" x="26.62" y="-176.5" font-family="Helvetica,sans-Serif" font-size="10.00">+ Scene()</text>
<text text-anchor="start" x="26.62" y="-164.5" font-family="Helvetica,sans-Serif" font-size="10.00">+ ~Scene()</text>
<text text-anchor="start" x="26.62" y="-152.5" font-family="Helvetica,sans-Serif" font-size="10.00">+ Update()</text>
<text text-anchor="start" x="26.62" y="-140.5" font-family="Helvetica,sans-Serif" font-size="10.00">+ Draw()</text>
</a>
</g>
</g>
<!-- Node2&#45;&gt;Node1 -->
<g id="edge1" class="edge">
<title>Node2&#45;&gt;Node1</title>
<path fill="none" stroke="midnightblue" d="M68.59,-123.02C68.59,-114.24 68.59,-105.26 68.59,-96.72"/>
<polygon fill="none" stroke="midnightblue" points="65.09,-123.21 68.59,-133.21 72.09,-123.21 65.09,-123.21"/>
</g>
</g>
</svg>
