<?xml version="1.0" encoding="UTF-8" standalone="no"?>
<!DOCTYPE svg PUBLIC "-//W3C//DTD SVG 1.1//EN"
 "http://www.w3.org/Graphics/SVG/1.1/DTD/svg11.dtd">
<!-- Generated by graphviz version 3.0.0 (20220226.1711)
 -->
<!-- Title: game::core::Game Pages: 1 -->
<svg width="245pt" height="286pt"
 viewBox="0.00 0.00 245.24 286.00" xmlns="http://www.w3.org/2000/svg" xmlns:xlink="http://www.w3.org/1999/xlink">
<g id="graph0" class="graph" transform="scale(1 1) rotate(0) translate(4 282)">
<title>game::core::Game</title>
<!-- Node1 -->
<g id="node1" class="node">
<title>Node1</title>
<g id="a_node1"><a xlink:title="The entry point into the game. The constructor is used to specify the basic settings such as the size...">
<polygon fill="#bfbfbf" stroke="black" points="43.2,-0.5 43.2,-156.5 169.8,-156.5 169.8,-0.5 43.2,-0.5"/>
<text text-anchor="middle" x="106.5" y="-143.5" font-family="Helvetica,sans-Serif" font-size="10.00">game::core::Game</text>
<polyline fill="none" stroke="black" points="43.2,-136.5 169.8,-136.5 "/>
<text text-anchor="middle" x="106.5" y="-123.5" font-family="Helvetica,sans-Serif" font-size="10.00"> </text>
<polyline fill="none" stroke="black" points="43.2,-116.5 169.8,-116.5 "/>
<text text-anchor="start" x="51.2" y="-103.5" font-family="Helvetica,sans-Serif" font-size="10.00">+ Game()</text>
<text text-anchor="start" x="51.2" y="-91.5" font-family="Helvetica,sans-Serif" font-size="10.00">+ Game()</text>
<text text-anchor="start" x="51.2" y="-79.5" font-family="Helvetica,sans-Serif" font-size="10.00">+ Game()</text>
<text text-anchor="start" x="51.2" y="-67.5" font-family="Helvetica,sans-Serif" font-size="10.00">+ operator=()</text>
<text text-anchor="start" x="51.2" y="-55.5" font-family="Helvetica,sans-Serif" font-size="10.00">+ ~Game()</text>
<text text-anchor="start" x="51.2" y="-43.5" font-family="Helvetica,sans-Serif" font-size="10.00">+ Run()</text>
<text text-anchor="start" x="51.2" y="-31.5" font-family="Helvetica,sans-Serif" font-size="10.00">&#45; UpdateMousePosition()</text>
<text text-anchor="start" x="51.2" y="-19.5" font-family="Helvetica,sans-Serif" font-size="10.00">&#45; DrawRenderTexture()</text>
<text text-anchor="start" x="51.2" y="-7.5" font-family="Helvetica,sans-Serif" font-size="10.00">&#45; ClampValue()</text>
</a>
</g>
</g>
<!-- Node2 -->
<g id="node2" class="node">
<title>Node2</title>
<g id="a_node2"><a xlink:title=" ">
<polygon fill="none" stroke="black" points="0,-217.5 0,-277.5 29,-277.5 29,-217.5 0,-217.5"/>
<text text-anchor="middle" x="14.28" y="-264.5" font-family="Helvetica,sans-Serif" font-size="10.00">int</text>
<polyline fill="none" stroke="black" points="0,-257.5 28.56,-257.5 "/>
<text text-anchor="middle" x="14.28" y="-244.5" font-family="Helvetica,sans-Serif" font-size="10.00"> </text>
<polyline fill="none" stroke="black" points="0,-237.5 28.56,-237.5 "/>
<text text-anchor="middle" x="14.28" y="-224.5" font-family="Helvetica,sans-Serif" font-size="10.00"> </text>
</a>
</g>
</g>
<!-- Node2&#45;&gt;Node1 -->
<g id="edge1" class="edge">
<title>Node2&#45;&gt;Node1</title>
<path fill="none" stroke="#404040" d="M19.55,-217.39C22.54,-204.04 27.05,-188.26 33.56,-175 34.84,-172.39 36.2,-169.79 37.62,-167.19"/>
<polygon fill="none" stroke="#404040" points="37.76,-166.95 37.32,-159.75 43.79,-156.58 44.23,-163.78 37.76,-166.95"/>
<text text-anchor="middle" x="68.97" y="-190" font-family="Helvetica,sans-Serif" font-size="10.00"> &#45;stage_height_</text>
<text text-anchor="middle" x="68.97" y="-178" font-family="Helvetica,sans-Serif" font-size="10.00">&#45;stage_width_</text>
</g>
<!-- Node3 -->
<g id="node3" class="node">
<title>Node3</title>
<g id="a_node3"><a xlink:title=" ">
<polygon fill="none" stroke="black" points="89.05,-217.5 89.05,-277.5 123.95,-277.5 123.95,-217.5 89.05,-217.5"/>
<text text-anchor="middle" x="106.5" y="-264.5" font-family="Helvetica,sans-Serif" font-size="10.00">bool</text>
<polyline fill="none" stroke="black" points="89.05,-257.5 123.95,-257.5 "/>
<text text-anchor="middle" x="106.5" y="-244.5" font-family="Helvetica,sans-Serif" font-size="10.00"> </text>
<polyline fill="none" stroke="black" points="89.05,-237.5 123.95,-237.5 "/>
<text text-anchor="middle" x="106.5" y="-224.5" font-family="Helvetica,sans-Serif" font-size="10.00"> </text>
</a>
</g>
</g>
<!-- Node3&#45;&gt;Node1 -->
<g id="edge2" class="edge">
<title>Node3&#45;&gt;Node1</title>
<path fill="none" stroke="#404040" d="M106.5,-217.41C106.5,-203.67 106.5,-186.44 106.5,-168.87"/>
<polygon fill="none" stroke="#404040" points="106.5,-168.68 102.5,-162.68 106.5,-156.68 110.5,-162.68 106.5,-168.68"/>
<text text-anchor="middle" x="125.95" y="-190" font-family="Helvetica,sans-Serif" font-size="10.00"> &#45;audio_</text>
<text text-anchor="middle" x="125.95" y="-178" font-family="Helvetica,sans-Serif" font-size="10.00">&#45;mouse_</text>
</g>
<!-- Node4 -->
<g id="node4" class="node">
<title>Node4</title>
<g id="a_node4"><a xlink:title=" ">
<polygon fill="none" stroke="black" points="141.76,-217.5 141.76,-277.5 237.24,-277.5 237.24,-217.5 141.76,-217.5"/>
<text text-anchor="middle" x="189.5" y="-264.5" font-family="Helvetica,sans-Serif" font-size="10.00">RenderTexture2D</text>
<polyline fill="none" stroke="black" points="141.76,-257.5 237.24,-257.5 "/>
<text text-anchor="middle" x="189.5" y="-244.5" font-family="Helvetica,sans-Serif" font-size="10.00"> </text>
<polyline fill="none" stroke="black" points="141.76,-237.5 237.24,-237.5 "/>
<text text-anchor="middle" x="189.5" y="-224.5" font-family="Helvetica,sans-Serif" font-size="10.00"> </text>
</a>
</g>
</g>
<!-- Node4&#45;&gt;Node1 -->
<g id="edge3" class="edge">
<title>Node4&#45;&gt;Node1</title>
<path fill="none" stroke="#404040" d="M175.04,-217.41C168.05,-203.34 159.24,-185.61 150.29,-167.6"/>
<polygon fill="none" stroke="#404040" points="150.2,-167.43 143.95,-163.84 144.86,-156.68 151.11,-160.28 150.2,-167.43"/>
<text text-anchor="middle" x="200.35" y="-184" font-family="Helvetica,sans-Serif" font-size="10.00"> &#45;render_target_</text>
</g>
</g>
</svg>
