<?xml version="1.0" encoding="UTF-8" standalone="no"?>
<!DOCTYPE svg PUBLIC "-//W3C//DTD SVG 1.1//EN"
 "http://www.w3.org/Graphics/SVG/1.1/DTD/svg11.dtd">
<!-- Generated by graphviz version 3.0.0 (20220226.1711)
 -->
<!-- Title: game.cpp Pages: 1 -->
<svg width="460pt" height="428pt"
 viewBox="0.00 0.00 460.23 428.00" xmlns="http://www.w3.org/2000/svg" xmlns:xlink="http://www.w3.org/1999/xlink">
<g id="graph0" class="graph" transform="scale(1 1) rotate(0) translate(4 424)">
<title>game.cpp</title>
<!-- Node1 -->
<g id="node1" class="node">
<title>Node1</title>
<g id="a_node1"><a xlink:title=" ">
<polygon fill="#bfbfbf" stroke="black" points="263.27,-399.5 263.27,-419.5 323.18,-419.5 323.18,-399.5 263.27,-399.5"/>
<text text-anchor="middle" x="293.23" y="-406.5" font-family="Helvetica,sans-Serif" font-size="10.00">game.cpp</text>
</a>
</g>
</g>
<!-- Node2 -->
<g id="node2" class="node">
<title>Node2</title>
<g id="a_node2"><a xlink:title=" ">
<polygon fill="none" stroke="#bfbfbf" points="222.11,-0.5 222.11,-20.5 270.34,-20.5 270.34,-0.5 222.11,-0.5"/>
<text text-anchor="middle" x="246.23" y="-7.5" font-family="Helvetica,sans-Serif" font-size="10.00">raylib.h</text>
</a>
</g>
</g>
<!-- Node1&#45;&gt;Node2 -->
<g id="edge1" class="edge">
<title>Node1&#45;&gt;Node2</title>
<path fill="none" stroke="midnightblue" d="M323.51,-401.75C369.64,-389.47 452.23,-358.8 452.23,-296.5 452.23,-296.5 452.23,-296.5 452.23,-123.5 452.23,-46.31 339.21,-22.02 280.6,-14.62"/>
<polygon fill="midnightblue" stroke="midnightblue" points="281,-11.14 270.67,-13.46 280.19,-18.09 281,-11.14"/>
</g>
<!-- Node3 -->
<g id="node3" class="node">
<title>Node3</title>
<g id="a_node3"><a xlink:href="game_8h.html" target="_top" xlink:title=" ">
<polygon fill="none" stroke="black" points="89.55,-285.5 89.55,-305.5 138.9,-305.5 138.9,-285.5 89.55,-285.5"/>
<text text-anchor="middle" x="114.23" y="-292.5" font-family="Helvetica,sans-Serif" font-size="10.00">game.h</text>
</a>
</g>
</g>
<!-- Node1&#45;&gt;Node3 -->
<g id="edge2" class="edge">
<title>Node1&#45;&gt;Node3</title>
<path fill="none" stroke="midnightblue" d="M278.58,-399.33C247.56,-379.93 175.02,-334.54 137.55,-311.09"/>
<polygon fill="midnightblue" stroke="midnightblue" points="139.16,-307.97 128.83,-305.63 135.45,-313.91 139.16,-307.97"/>
</g>
<!-- Node11 -->
<g id="node11" class="node">
<title>Node11</title>
<g id="a_node11"><a xlink:href="store_8h.html" target="_top" xlink:title=" ">
<polygon fill="none" stroke="black" points="314.94,-342.5 314.94,-362.5 361.51,-362.5 361.51,-342.5 314.94,-342.5"/>
<text text-anchor="middle" x="338.23" y="-349.5" font-family="Helvetica,sans-Serif" font-size="10.00">store.h</text>
</a>
</g>
</g>
<!-- Node1&#45;&gt;Node11 -->
<g id="edge14" class="edge">
<title>Node1&#45;&gt;Node11</title>
<path fill="none" stroke="midnightblue" d="M300.66,-399.42C307,-391.66 316.31,-380.29 324.07,-370.8"/>
<polygon fill="midnightblue" stroke="midnightblue" points="327.01,-372.74 330.63,-362.78 321.59,-368.3 327.01,-372.74"/>
</g>
<!-- Node12 -->
<g id="node12" class="node">
<title>Node12</title>
<g id="a_node12"><a xlink:href="stage_8h.html" target="_top" xlink:title=" ">
<polygon fill="none" stroke="black" points="218.83,-285.5 218.83,-305.5 267.63,-305.5 267.63,-285.5 218.83,-285.5"/>
<text text-anchor="middle" x="243.23" y="-292.5" font-family="Helvetica,sans-Serif" font-size="10.00">stage.h</text>
</a>
</g>
</g>
<!-- Node1&#45;&gt;Node12 -->
<g id="edge25" class="edge">
<title>Node1&#45;&gt;Node12</title>
<path fill="none" stroke="midnightblue" d="M289.13,-399.33C280.93,-380.96 262.33,-339.29 251.49,-315.01"/>
<polygon fill="midnightblue" stroke="midnightblue" points="254.65,-313.5 247.37,-305.79 248.26,-316.35 254.65,-313.5"/>
</g>
<!-- Node4 -->
<g id="node4" class="node">
<title>Node4</title>
<g id="a_node4"><a xlink:title=" ">
<polygon fill="none" stroke="#bfbfbf" points="0,-171.5 0,-191.5 40.45,-191.5 40.45,-171.5 0,-171.5"/>
<text text-anchor="middle" x="20.23" y="-178.5" font-family="Helvetica,sans-Serif" font-size="10.00">string</text>
</a>
</g>
</g>
<!-- Node3&#45;&gt;Node4 -->
<g id="edge3" class="edge">
<title>Node3&#45;&gt;Node4</title>
<path fill="none" stroke="midnightblue" d="M94.55,-285.47C79.51,-277.69 59.22,-265.17 46.23,-249 35.08,-235.12 28.25,-215.89 24.41,-201.67"/>
<polygon fill="midnightblue" stroke="midnightblue" points="27.71,-200.44 21.95,-191.55 20.91,-202.09 27.71,-200.44"/>
</g>
<!-- Node5 -->
<g id="node5" class="node">
<title>Node5</title>
<g id="a_node5"><a xlink:href="scene_8h.html" target="_top" xlink:title=" ">
<polygon fill="none" stroke="black" points="88.71,-228.5 88.71,-248.5 139.74,-248.5 139.74,-228.5 88.71,-228.5"/>
<text text-anchor="middle" x="114.23" y="-235.5" font-family="Helvetica,sans-Serif" font-size="10.00">scene.h</text>
</a>
</g>
</g>
<!-- Node3&#45;&gt;Node5 -->
<g id="edge4" class="edge">
<title>Node3&#45;&gt;Node5</title>
<path fill="none" stroke="midnightblue" d="M114.23,-285.42C114.23,-278.22 114.23,-267.9 114.23,-258.86"/>
<polygon fill="midnightblue" stroke="midnightblue" points="117.73,-258.78 114.23,-248.78 110.73,-258.78 117.73,-258.78"/>
</g>
<!-- Node5&#45;&gt;Node2 -->
<g id="edge7" class="edge">
<title>Node5&#45;&gt;Node2</title>
<path fill="none" stroke="midnightblue" d="M106.82,-228.42C100.21,-219.69 91.02,-205.82 87.23,-192 77.2,-155.46 37.63,-124.44 89.23,-57 104.13,-37.52 170.48,-23.6 212.01,-16.62"/>
<polygon fill="midnightblue" stroke="midnightblue" points="212.69,-20.05 221.99,-14.99 211.56,-13.15 212.69,-20.05"/>
</g>
<!-- Node5&#45;&gt;Node4 -->
<g id="edge6" class="edge">
<title>Node5&#45;&gt;Node4</title>
<path fill="none" stroke="midnightblue" d="M98.7,-228.42C84.01,-219.82 61.72,-206.78 44.64,-196.78"/>
<polygon fill="midnightblue" stroke="midnightblue" points="46.17,-193.62 35.77,-191.6 42.64,-199.67 46.17,-193.62"/>
</g>
<!-- Node6 -->
<g id="node6" class="node">
<title>Node6</title>
<g id="a_node6"><a xlink:title=" ">
<polygon fill="none" stroke="#bfbfbf" points="96.5,-171.5 96.5,-191.5 131.95,-191.5 131.95,-171.5 96.5,-171.5"/>
<text text-anchor="middle" x="114.23" y="-178.5" font-family="Helvetica,sans-Serif" font-size="10.00">map</text>
</a>
</g>
</g>
<!-- Node5&#45;&gt;Node6 -->
<g id="edge5" class="edge">
<title>Node5&#45;&gt;Node6</title>
<path fill="none" stroke="midnightblue" d="M114.23,-228.42C114.23,-221.22 114.23,-210.9 114.23,-201.86"/>
<polygon fill="midnightblue" stroke="midnightblue" points="117.73,-201.78 114.23,-191.78 110.73,-201.78 117.73,-201.78"/>
</g>
<!-- Node7 -->
<g id="node7" class="node">
<title>Node7</title>
<g id="a_node7"><a xlink:href="actor_8h.html" target="_top" xlink:title=" ">
<polygon fill="none" stroke="black" points="149.94,-171.5 149.94,-191.5 196.51,-191.5 196.51,-171.5 149.94,-171.5"/>
<text text-anchor="middle" x="173.23" y="-178.5" font-family="Helvetica,sans-Serif" font-size="10.00">actor.h</text>
</a>
</g>
</g>
<!-- Node5&#45;&gt;Node7 -->
<g id="edge8" class="edge">
<title>Node5&#45;&gt;Node7</title>
<path fill="none" stroke="midnightblue" d="M123.97,-228.42C132.63,-220.35 145.49,-208.36 155.9,-198.65"/>
<polygon fill="midnightblue" stroke="midnightblue" points="158.34,-201.16 163.27,-191.78 153.57,-196.04 158.34,-201.16"/>
</g>
<!-- Node8 -->
<g id="node8" class="node">
<title>Node8</title>
<g id="a_node8"><a xlink:href="sprite_8h.html" target="_top" xlink:title=" ">
<polygon fill="none" stroke="black" points="167.83,-114.5 167.83,-134.5 216.62,-134.5 216.62,-114.5 167.83,-114.5"/>
<text text-anchor="middle" x="192.23" y="-121.5" font-family="Helvetica,sans-Serif" font-size="10.00">sprite.h</text>
</a>
</g>
</g>
<!-- Node7&#45;&gt;Node8 -->
<g id="edge9" class="edge">
<title>Node7&#45;&gt;Node8</title>
<path fill="none" stroke="midnightblue" d="M176.36,-171.42C178.91,-164.06 182.57,-153.44 185.74,-144.27"/>
<polygon fill="midnightblue" stroke="midnightblue" points="189.06,-145.37 189.02,-134.78 182.45,-143.09 189.06,-145.37"/>
</g>
<!-- Node8&#45;&gt;Node2 -->
<g id="edge11" class="edge">
<title>Node8&#45;&gt;Node2</title>
<path fill="none" stroke="midnightblue" d="M193.68,-114.5C196.06,-101.34 201.5,-76.3 211.23,-57 216.42,-46.7 224.08,-36.41 230.9,-28.22"/>
<polygon fill="midnightblue" stroke="midnightblue" points="233.66,-30.39 237.58,-20.55 228.38,-25.8 233.66,-30.39"/>
</g>
<!-- Node9 -->
<g id="node9" class="node">
<title>Node9</title>
<g id="a_node9"><a xlink:title=" ">
<polygon fill="none" stroke="#bfbfbf" points="220.17,-57.5 220.17,-77.5 272.28,-77.5 272.28,-57.5 220.17,-57.5"/>
<text text-anchor="middle" x="246.23" y="-64.5" font-family="Helvetica,sans-Serif" font-size="10.00">memory</text>
</a>
</g>
</g>
<!-- Node8&#45;&gt;Node9 -->
<g id="edge10" class="edge">
<title>Node8&#45;&gt;Node9</title>
<path fill="none" stroke="midnightblue" d="M201.14,-114.42C208.99,-106.42 220.61,-94.59 230.09,-84.94"/>
<polygon fill="midnightblue" stroke="midnightblue" points="232.61,-87.37 237.12,-77.78 227.61,-82.46 232.61,-87.37"/>
</g>
<!-- Node10 -->
<g id="node10" class="node">
<title>Node10</title>
<g id="a_node10"><a xlink:href="texture2d_8h.html" target="_top" xlink:title=" ">
<polygon fill="none" stroke="black" points="98.21,-57.5 98.21,-77.5 164.24,-77.5 164.24,-57.5 98.21,-57.5"/>
<text text-anchor="middle" x="131.23" y="-64.5" font-family="Helvetica,sans-Serif" font-size="10.00">texture2d.h</text>
</a>
</g>
</g>
<!-- Node8&#45;&gt;Node10 -->
<g id="edge12" class="edge">
<title>Node8&#45;&gt;Node10</title>
<path fill="none" stroke="midnightblue" d="M182.15,-114.42C173.2,-106.35 159.9,-94.36 149.14,-84.65"/>
<polygon fill="midnightblue" stroke="midnightblue" points="151.29,-81.88 141.52,-77.78 146.6,-87.08 151.29,-81.88"/>
</g>
<!-- Node10&#45;&gt;Node2 -->
<g id="edge13" class="edge">
<title>Node10&#45;&gt;Node2</title>
<path fill="none" stroke="midnightblue" d="M150.22,-57.42C168.69,-48.58 196.99,-35.05 218.08,-24.96"/>
<polygon fill="midnightblue" stroke="midnightblue" points="219.7,-28.07 227.21,-20.6 216.68,-21.75 219.7,-28.07"/>
</g>
<!-- Node11&#45;&gt;Node2 -->
<g id="edge16" class="edge">
<title>Node11&#45;&gt;Node2</title>
<path fill="none" stroke="midnightblue" d="M350.1,-342.46C371.48,-325.06 414.23,-284.62 414.23,-239.5 414.23,-239.5 414.23,-239.5 414.23,-123.5 414.23,-59.85 329.7,-30.14 280.56,-18.25"/>
<polygon fill="midnightblue" stroke="midnightblue" points="281.18,-14.81 270.66,-15.98 279.62,-21.63 281.18,-14.81"/>
</g>
<!-- Node11&#45;&gt;Node6 -->
<g id="edge15" class="edge">
<title>Node11&#45;&gt;Node6</title>
<path fill="none" stroke="midnightblue" d="M330.77,-342.3C319.66,-328.89 297.75,-303.54 276.23,-285 233.08,-247.83 175.24,-214.56 141.62,-196.58"/>
<polygon fill="midnightblue" stroke="midnightblue" points="142.89,-193.29 132.41,-191.71 139.62,-199.48 142.89,-193.29"/>
</g>
<!-- Node11&#45;&gt;Node7 -->
<g id="edge24" class="edge">
<title>Node11&#45;&gt;Node7</title>
<path fill="none" stroke="midnightblue" d="M343.24,-342.26C354.56,-319.97 379.12,-262.58 352.23,-228 334.52,-205.23 253.31,-191.99 206.59,-186.14"/>
<polygon fill="midnightblue" stroke="midnightblue" points="206.97,-182.66 196.62,-184.93 206.13,-189.61 206.97,-182.66"/>
</g>
<!-- Node11&#45;&gt;Node12 -->
<g id="edge17" class="edge">
<title>Node11&#45;&gt;Node12</title>
<path fill="none" stroke="midnightblue" d="M322.54,-342.42C307.69,-333.82 285.16,-320.78 267.9,-310.78"/>
<polygon fill="midnightblue" stroke="midnightblue" points="269.35,-307.58 258.94,-305.6 265.84,-313.64 269.35,-307.58"/>
</g>
<!-- Node12&#45;&gt;Node2 -->
<g id="edge20" class="edge">
<title>Node12&#45;&gt;Node2</title>
<path fill="none" stroke="midnightblue" d="M251.64,-285.42C267.49,-267.32 300.23,-224.83 300.23,-182.5 300.23,-182.5 300.23,-182.5 300.23,-123.5 300.23,-92.76 295.07,-84.45 281.23,-57 276.03,-46.7 268.38,-36.41 261.55,-28.22"/>
<polygon fill="midnightblue" stroke="midnightblue" points="264.08,-25.8 254.87,-20.55 258.8,-30.39 264.08,-25.8"/>
</g>
<!-- Node12&#45;&gt;Node4 -->
<g id="edge19" class="edge">
<title>Node12&#45;&gt;Node4</title>
<path fill="none" stroke="midnightblue" d="M218.69,-292.08C185.01,-287.84 123.6,-276.69 79.23,-249 59.27,-236.55 42.17,-215.36 31.59,-200.25"/>
<polygon fill="midnightblue" stroke="midnightblue" points="34.37,-198.1 25.88,-191.75 28.56,-202.01 34.37,-198.1"/>
</g>
<!-- Node12&#45;&gt;Node5 -->
<g id="edge22" class="edge">
<title>Node12&#45;&gt;Node5</title>
<path fill="none" stroke="midnightblue" d="M221.92,-285.42C200.92,-276.46 168.6,-262.68 144.84,-252.55"/>
<polygon fill="midnightblue" stroke="midnightblue" points="146.13,-249.3 135.56,-248.6 143.39,-255.74 146.13,-249.3"/>
</g>
<!-- Node12&#45;&gt;Node6 -->
<g id="edge21" class="edge">
<title>Node12&#45;&gt;Node6</title>
<path fill="none" stroke="midnightblue" d="M232.67,-285.33C210.75,-266.3 160.06,-222.29 132.63,-198.48"/>
<polygon fill="midnightblue" stroke="midnightblue" points="134.77,-195.71 124.93,-191.79 130.19,-200.99 134.77,-195.71"/>
</g>
<!-- Node12&#45;&gt;Node8 -->
<g id="edge23" class="edge">
<title>Node12&#45;&gt;Node8</title>
<path fill="none" stroke="midnightblue" d="M240.48,-285.41C232.46,-258.82 208.9,-180.74 197.95,-144.45"/>
<polygon fill="midnightblue" stroke="midnightblue" points="201.22,-143.19 194.98,-134.63 194.52,-145.22 201.22,-143.19"/>
</g>
<!-- Node12&#45;&gt;Node9 -->
<g id="edge18" class="edge">
<title>Node12&#45;&gt;Node9</title>
<path fill="none" stroke="midnightblue" d="M243.35,-285.36C243.79,-251.71 245.35,-134.27 245.97,-87.72"/>
<polygon fill="midnightblue" stroke="midnightblue" points="249.47,-87.55 246.11,-77.51 242.47,-87.46 249.47,-87.55"/>
</g>
</g>
</svg>
