<?xml version="1.0" encoding="UTF-8" standalone="no"?>
<!DOCTYPE svg PUBLIC "-//W3C//DTD SVG 1.1//EN"
 "http://www.w3.org/Graphics/SVG/1.1/DTD/svg11.dtd">
<!-- Generated by graphviz version 3.0.0 (20220226.1711)
 -->
<!-- Title: game_scene.h Pages: 1 -->
<svg width="388pt" height="314pt"
 viewBox="0.00 0.00 387.78 314.00" xmlns="http://www.w3.org/2000/svg" xmlns:xlink="http://www.w3.org/1999/xlink">
<g id="graph0" class="graph" transform="scale(1 1) rotate(0) translate(4 310)">
<title>game_scene.h</title>
<!-- Node1 -->
<g id="node1" class="node">
<title>Node1</title>
<g id="a_node1"><a xlink:title=" ">
<polygon fill="#bfbfbf" stroke="black" points="52.26,-285.5 52.26,-305.5 133.86,-305.5 133.86,-285.5 52.26,-285.5"/>
<text text-anchor="middle" x="93.06" y="-292.5" font-family="Helvetica,sans-Serif" font-size="10.00">game_scene.h</text>
</a>
</g>
</g>
<!-- Node2 -->
<g id="node2" class="node">
<title>Node2</title>
<g id="a_node2"><a xlink:title=" ">
<polygon fill="none" stroke="#bfbfbf" points="0,-57.5 0,-77.5 52.11,-77.5 52.11,-57.5 0,-57.5"/>
<text text-anchor="middle" x="26.06" y="-64.5" font-family="Helvetica,sans-Serif" font-size="10.00">memory</text>
</a>
</g>
</g>
<!-- Node1&#45;&gt;Node2 -->
<g id="edge1" class="edge">
<title>Node1&#45;&gt;Node2</title>
<path fill="none" stroke="midnightblue" d="M84.64,-285.5C77.02,-276.82 66.08,-262.98 60.06,-249 36.24,-193.73 29.06,-121.84 26.93,-87.88"/>
<polygon fill="midnightblue" stroke="midnightblue" points="30.41,-87.34 26.37,-77.54 23.42,-87.72 30.41,-87.34"/>
</g>
<!-- Node3 -->
<g id="node3" class="node">
<title>Node3</title>
<g id="a_node3"><a xlink:href="actor_8h.html" target="_top" xlink:title=" ">
<polygon fill="none" stroke="black" points="69.77,-171.5 69.77,-191.5 116.34,-191.5 116.34,-171.5 69.77,-171.5"/>
<text text-anchor="middle" x="93.06" y="-178.5" font-family="Helvetica,sans-Serif" font-size="10.00">actor.h</text>
</a>
</g>
</g>
<!-- Node1&#45;&gt;Node3 -->
<g id="edge2" class="edge">
<title>Node1&#45;&gt;Node3</title>
<path fill="none" stroke="midnightblue" d="M93.06,-285.33C93.06,-267.2 93.06,-226.41 93.06,-202"/>
<polygon fill="midnightblue" stroke="midnightblue" points="96.56,-201.79 93.06,-191.79 89.56,-201.79 96.56,-201.79"/>
</g>
<!-- Node4 -->
<g id="node4" class="node">
<title>Node4</title>
<g id="a_node4"><a xlink:href="sprite_8h.html" target="_top" xlink:title=" ">
<polygon fill="none" stroke="black" points="55.66,-114.5 55.66,-134.5 104.45,-134.5 104.45,-114.5 55.66,-114.5"/>
<text text-anchor="middle" x="80.06" y="-121.5" font-family="Helvetica,sans-Serif" font-size="10.00">sprite.h</text>
</a>
</g>
</g>
<!-- Node1&#45;&gt;Node4 -->
<g id="edge13" class="edge">
<title>Node1&#45;&gt;Node4</title>
<path fill="none" stroke="midnightblue" d="M87.72,-285.29C76.54,-264.87 52.4,-214.22 61.06,-171 62.93,-161.68 66.75,-151.88 70.48,-143.77"/>
<polygon fill="midnightblue" stroke="midnightblue" points="73.73,-145.09 75,-134.57 67.45,-142 73.73,-145.09"/>
</g>
<!-- Node7 -->
<g id="node7" class="node">
<title>Node7</title>
<g id="a_node7"><a xlink:href="scene_8h.html" target="_top" xlink:title=" ">
<polygon fill="none" stroke="black" points="242.54,-228.5 242.54,-248.5 293.57,-248.5 293.57,-228.5 242.54,-228.5"/>
<text text-anchor="middle" x="268.06" y="-235.5" font-family="Helvetica,sans-Serif" font-size="10.00">scene.h</text>
</a>
</g>
</g>
<!-- Node1&#45;&gt;Node7 -->
<g id="edge8" class="edge">
<title>Node1&#45;&gt;Node7</title>
<path fill="none" stroke="midnightblue" d="M121.95,-285.42C152.39,-275.85 200.35,-260.78 232.95,-250.53"/>
<polygon fill="midnightblue" stroke="midnightblue" points="234.04,-253.86 242.53,-247.52 231.94,-247.18 234.04,-253.86"/>
</g>
<!-- Node10 -->
<g id="node10" class="node">
<title>Node10</title>
<g id="a_node10"><a xlink:href="sprite__animated_8h.html" target="_top" xlink:title=" ">
<polygon fill="none" stroke="black" points="134.31,-171.5 134.31,-191.5 229.8,-191.5 229.8,-171.5 134.31,-171.5"/>
<text text-anchor="middle" x="182.06" y="-178.5" font-family="Helvetica,sans-Serif" font-size="10.00">sprite_animated.h</text>
</a>
</g>
</g>
<!-- Node1&#45;&gt;Node10 -->
<g id="edge14" class="edge">
<title>Node1&#45;&gt;Node10</title>
<path fill="none" stroke="midnightblue" d="M100.34,-285.33C115.2,-266.63 149.24,-223.8 168.36,-199.73"/>
<polygon fill="midnightblue" stroke="midnightblue" points="171.19,-201.8 174.67,-191.79 165.71,-197.44 171.19,-201.8"/>
</g>
<!-- Node3&#45;&gt;Node4 -->
<g id="edge3" class="edge">
<title>Node3&#45;&gt;Node4</title>
<path fill="none" stroke="midnightblue" d="M90.91,-171.42C89.19,-164.14 86.71,-153.67 84.56,-144.57"/>
<polygon fill="midnightblue" stroke="midnightblue" points="87.96,-143.71 82.25,-134.78 81.14,-145.32 87.96,-143.71"/>
</g>
<!-- Node4&#45;&gt;Node2 -->
<g id="edge4" class="edge">
<title>Node4&#45;&gt;Node2</title>
<path fill="none" stroke="midnightblue" d="M71.14,-114.42C63.29,-106.42 51.67,-94.59 42.2,-84.94"/>
<polygon fill="midnightblue" stroke="midnightblue" points="44.67,-82.46 35.17,-77.78 39.68,-87.37 44.67,-82.46"/>
</g>
<!-- Node5 -->
<g id="node5" class="node">
<title>Node5</title>
<g id="a_node5"><a xlink:title=" ">
<polygon fill="none" stroke="#bfbfbf" points="176.94,-0.5 176.94,-20.5 225.17,-20.5 225.17,-0.5 176.94,-0.5"/>
<text text-anchor="middle" x="201.06" y="-7.5" font-family="Helvetica,sans-Serif" font-size="10.00">raylib.h</text>
</a>
</g>
</g>
<!-- Node4&#45;&gt;Node5 -->
<g id="edge5" class="edge">
<title>Node4&#45;&gt;Node5</title>
<path fill="none" stroke="midnightblue" d="M85.45,-114.05C93.61,-100.32 110.16,-74.59 129.06,-57 142.46,-44.52 159.75,-33.46 174.03,-25.38"/>
<polygon fill="midnightblue" stroke="midnightblue" points="175.82,-28.39 182.9,-20.51 172.45,-22.25 175.82,-28.39"/>
</g>
<!-- Node6 -->
<g id="node6" class="node">
<title>Node6</title>
<g id="a_node6"><a xlink:href="texture2d_8h.html" target="_top" xlink:title=" ">
<polygon fill="none" stroke="black" points="138.04,-57.5 138.04,-77.5 204.07,-77.5 204.07,-57.5 138.04,-57.5"/>
<text text-anchor="middle" x="171.06" y="-64.5" font-family="Helvetica,sans-Serif" font-size="10.00">texture2d.h</text>
</a>
</g>
</g>
<!-- Node4&#45;&gt;Node6 -->
<g id="edge6" class="edge">
<title>Node4&#45;&gt;Node6</title>
<path fill="none" stroke="midnightblue" d="M95.08,-114.42C109.31,-105.82 130.89,-92.78 147.42,-82.78"/>
<polygon fill="midnightblue" stroke="midnightblue" points="149.26,-85.76 156.01,-77.6 145.64,-79.77 149.26,-85.76"/>
</g>
<!-- Node6&#45;&gt;Node5 -->
<g id="edge7" class="edge">
<title>Node6&#45;&gt;Node5</title>
<path fill="none" stroke="midnightblue" d="M176.01,-57.42C180.11,-49.9 186.07,-38.98 191.14,-29.68"/>
<polygon fill="midnightblue" stroke="midnightblue" points="194.28,-31.23 196,-20.78 188.13,-27.88 194.28,-31.23"/>
</g>
<!-- Node7&#45;&gt;Node3 -->
<g id="edge12" class="edge">
<title>Node7&#45;&gt;Node3</title>
<path fill="none" stroke="midnightblue" d="M242.23,-229.38C211.47,-219.72 160.02,-203.55 126.31,-192.95"/>
<polygon fill="midnightblue" stroke="midnightblue" points="127.05,-189.52 116.46,-189.86 124.95,-196.19 127.05,-189.52"/>
</g>
<!-- Node7&#45;&gt;Node5 -->
<g id="edge11" class="edge">
<title>Node7&#45;&gt;Node5</title>
<path fill="none" stroke="midnightblue" d="M276.28,-228.18C283.34,-219.5 293.02,-205.85 297.06,-192 299.67,-183.04 299.55,-179.99 297.06,-171 281.14,-113.68 238.48,-56.32 215.76,-28.62"/>
<polygon fill="midnightblue" stroke="midnightblue" points="218.24,-26.13 209.15,-20.71 212.87,-30.62 218.24,-26.13"/>
</g>
<!-- Node8 -->
<g id="node8" class="node">
<title>Node8</title>
<g id="a_node8"><a xlink:title=" ">
<polygon fill="none" stroke="#bfbfbf" points="344.33,-171.5 344.33,-191.5 379.78,-191.5 379.78,-171.5 344.33,-171.5"/>
<text text-anchor="middle" x="362.06" y="-178.5" font-family="Helvetica,sans-Serif" font-size="10.00">map</text>
</a>
</g>
</g>
<!-- Node7&#45;&gt;Node8 -->
<g id="edge9" class="edge">
<title>Node7&#45;&gt;Node8</title>
<path fill="none" stroke="midnightblue" d="M283.58,-228.42C298.27,-219.82 320.57,-206.78 337.64,-196.78"/>
<polygon fill="midnightblue" stroke="midnightblue" points="339.65,-199.67 346.51,-191.6 336.11,-193.62 339.65,-199.67"/>
</g>
<!-- Node9 -->
<g id="node9" class="node">
<title>Node9</title>
<g id="a_node9"><a xlink:title=" ">
<polygon fill="none" stroke="#bfbfbf" points="247.83,-171.5 247.83,-191.5 288.28,-191.5 288.28,-171.5 247.83,-171.5"/>
<text text-anchor="middle" x="268.06" y="-178.5" font-family="Helvetica,sans-Serif" font-size="10.00">string</text>
</a>
</g>
</g>
<!-- Node7&#45;&gt;Node9 -->
<g id="edge10" class="edge">
<title>Node7&#45;&gt;Node9</title>
<path fill="none" stroke="midnightblue" d="M268.06,-228.42C268.06,-221.22 268.06,-210.9 268.06,-201.86"/>
<polygon fill="midnightblue" stroke="midnightblue" points="271.56,-201.78 268.06,-191.78 264.56,-201.78 271.56,-201.78"/>
</g>
<!-- Node10&#45;&gt;Node4 -->
<g id="edge18" class="edge">
<title>Node10&#45;&gt;Node4</title>
<path fill="none" stroke="midnightblue" d="M165.21,-171.42C149.05,-162.7 124.4,-149.41 105.78,-139.37"/>
<polygon fill="midnightblue" stroke="midnightblue" points="107.39,-136.26 96.92,-134.6 104.07,-142.42 107.39,-136.26"/>
</g>
<!-- Node10&#45;&gt;Node5 -->
<g id="edge16" class="edge">
<title>Node10&#45;&gt;Node5</title>
<path fill="none" stroke="midnightblue" d="M186.82,-171.35C196.84,-151.05 218.71,-100.63 213.06,-57 211.9,-48.1 209.53,-38.46 207.2,-30.35"/>
<polygon fill="midnightblue" stroke="midnightblue" points="210.54,-29.3 204.26,-20.77 203.84,-31.36 210.54,-29.3"/>
</g>
<!-- Node10&#45;&gt;Node6 -->
<g id="edge17" class="edge">
<title>Node10&#45;&gt;Node6</title>
<path fill="none" stroke="midnightblue" d="M181.16,-171.33C179.38,-153.2 175.37,-112.41 172.97,-88"/>
<polygon fill="midnightblue" stroke="midnightblue" points="176.43,-87.4 171.97,-77.79 169.46,-88.09 176.43,-87.4"/>
</g>
<!-- Node11 -->
<g id="node11" class="node">
<title>Node11</title>
<g id="a_node11"><a xlink:title=" ">
<polygon fill="none" stroke="#bfbfbf" points="122.44,-114.5 122.44,-134.5 165.67,-134.5 165.67,-114.5 122.44,-114.5"/>
<text text-anchor="middle" x="144.06" y="-121.5" font-family="Helvetica,sans-Serif" font-size="10.00">vector</text>
</a>
</g>
</g>
<!-- Node10&#45;&gt;Node11 -->
<g id="edge15" class="edge">
<title>Node10&#45;&gt;Node11</title>
<path fill="none" stroke="midnightblue" d="M175.78,-171.42C170.48,-163.74 162.73,-152.52 156.21,-143.09"/>
<polygon fill="midnightblue" stroke="midnightblue" points="159.03,-141.02 150.47,-134.78 153.27,-145 159.03,-141.02"/>
</g>
</g>
</svg>
