<?xml version="1.0" encoding="UTF-8" standalone="no"?>
<!DOCTYPE svg PUBLIC "-//W3C//DTD SVG 1.1//EN"
 "http://www.w3.org/Graphics/SVG/1.1/DTD/svg11.dtd">
<!-- Generated by graphviz version 3.0.0 (20220226.1711)
 -->
<!-- Title: game.h Pages: 1 -->
<svg width="142pt" height="86pt"
 viewBox="0.00 0.00 142.25 86.00" xmlns="http://www.w3.org/2000/svg" xmlns:xlink="http://www.w3.org/1999/xlink">
<g id="graph0" class="graph" transform="scale(1 1) rotate(0) translate(4 82)">
<title>game.h</title>
<!-- Node1 -->
<g id="node1" class="node">
<title>Node1</title>
<g id="a_node1"><a xlink:title=" ">
<polygon fill="#bfbfbf" stroke="black" points="43.28,-57.5 43.28,-77.5 92.64,-77.5 92.64,-57.5 43.28,-57.5"/>
<text text-anchor="middle" x="67.96" y="-64.5" font-family="Helvetica,sans-Serif" font-size="10.00">game.h</text>
</a>
</g>
</g>
<!-- Node2 -->
<g id="node2" class="node">
<title>Node2</title>
<g id="a_node2"><a xlink:href="game_8cpp.html" target="_top" xlink:title=" ">
<polygon fill="none" stroke="black" points="0,-0.5 0,-20.5 59.92,-20.5 59.92,-0.5 0,-0.5"/>
<text text-anchor="middle" x="29.96" y="-7.5" font-family="Helvetica,sans-Serif" font-size="10.00">game.cpp</text>
</a>
</g>
</g>
<!-- Node1&#45;&gt;Node2 -->
<g id="edge1" class="edge">
<title>Node1&#45;&gt;Node2</title>
<path fill="none" stroke="midnightblue" d="M55.97,-49.15C49.48,-39.75 41.71,-28.52 36.37,-20.78"/>
<polygon fill="midnightblue" stroke="midnightblue" points="53.12,-51.18 61.68,-57.42 58.88,-47.2 53.12,-51.18"/>
</g>
<!-- Node3 -->
<g id="node3" class="node">
<title>Node3</title>
<g id="a_node3"><a xlink:href="main_8cpp.html" target="_top" xlink:title=" ">
<polygon fill="none" stroke="black" points="77.67,-0.5 77.67,-20.5 134.25,-20.5 134.25,-0.5 77.67,-0.5"/>
<text text-anchor="middle" x="105.96" y="-7.5" font-family="Helvetica,sans-Serif" font-size="10.00">main.cpp</text>
</a>
</g>
</g>
<!-- Node1&#45;&gt;Node3 -->
<g id="edge2" class="edge">
<title>Node1&#45;&gt;Node3</title>
<path fill="none" stroke="midnightblue" d="M79.95,-49.15C86.44,-39.75 94.2,-28.52 99.55,-20.78"/>
<polygon fill="midnightblue" stroke="midnightblue" points="77.04,-47.2 74.23,-57.42 82.8,-51.18 77.04,-47.2"/>
</g>
</g>
</svg>
