<?xml version="1.0" encoding="UTF-8" standalone="no"?>
<!DOCTYPE svg PUBLIC "-//W3C//DTD SVG 1.1//EN"
 "http://www.w3.org/Graphics/SVG/1.1/DTD/svg11.dtd">
<!-- Generated by graphviz version 3.0.0 (20220226.1711)
 -->
<!-- Title: game.h Pages: 1 -->
<svg width="332pt" height="314pt"
 viewBox="0.00 0.00 332.24 314.00" xmlns="http://www.w3.org/2000/svg" xmlns:xlink="http://www.w3.org/1999/xlink">
<g id="graph0" class="graph" transform="scale(1 1) rotate(0) translate(4 310)">
<title>game.h</title>
<!-- Node1 -->
<g id="node1" class="node">
<title>Node1</title>
<g id="a_node1"><a xlink:title=" ">
<polygon fill="#bfbfbf" stroke="black" points="23.55,-285.5 23.55,-305.5 72.9,-305.5 72.9,-285.5 23.55,-285.5"/>
<text text-anchor="middle" x="48.23" y="-292.5" font-family="Helvetica,sans-Serif" font-size="10.00">game.h</text>
</a>
</g>
</g>
<!-- Node2 -->
<g id="node2" class="node">
<title>Node2</title>
<g id="a_node2"><a xlink:title=" ">
<polygon fill="none" stroke="#bfbfbf" points="0,-171.5 0,-191.5 40.45,-191.5 40.45,-171.5 0,-171.5"/>
<text text-anchor="middle" x="20.23" y="-178.5" font-family="Helvetica,sans-Serif" font-size="10.00">string</text>
</a>
</g>
</g>
<!-- Node1&#45;&gt;Node2 -->
<g id="edge1" class="edge">
<title>Node1&#45;&gt;Node2</title>
<path fill="none" stroke="midnightblue" d="M45.94,-285.33C41.38,-267.12 31.11,-226.04 25.02,-201.67"/>
<polygon fill="midnightblue" stroke="midnightblue" points="28.37,-200.64 22.55,-191.79 21.58,-202.34 28.37,-200.64"/>
</g>
<!-- Node3 -->
<g id="node3" class="node">
<title>Node3</title>
<g id="a_node3"><a xlink:href="scene_8h.html" target="_top" xlink:title=" ">
<polygon fill="none" stroke="black" points="50.71,-228.5 50.71,-248.5 101.74,-248.5 101.74,-228.5 50.71,-228.5"/>
<text text-anchor="middle" x="76.23" y="-235.5" font-family="Helvetica,sans-Serif" font-size="10.00">scene.h</text>
</a>
</g>
</g>
<!-- Node1&#45;&gt;Node3 -->
<g id="edge2" class="edge">
<title>Node1&#45;&gt;Node3</title>
<path fill="none" stroke="midnightblue" d="M52.85,-285.42C56.64,-277.98 62.12,-267.21 66.82,-257.97"/>
<polygon fill="midnightblue" stroke="midnightblue" points="70.08,-259.28 71.5,-248.78 63.85,-256.1 70.08,-259.28"/>
</g>
<!-- Node3&#45;&gt;Node2 -->
<g id="edge4" class="edge">
<title>Node3&#45;&gt;Node2</title>
<path fill="none" stroke="midnightblue" d="M66.98,-228.42C58.84,-220.42 46.79,-208.59 36.96,-198.94"/>
<polygon fill="midnightblue" stroke="midnightblue" points="39.26,-196.29 29.67,-191.78 34.36,-201.28 39.26,-196.29"/>
</g>
<!-- Node4 -->
<g id="node4" class="node">
<title>Node4</title>
<g id="a_node4"><a xlink:title=" ">
<polygon fill="none" stroke="#bfbfbf" points="58.5,-171.5 58.5,-191.5 93.95,-191.5 93.95,-171.5 58.5,-171.5"/>
<text text-anchor="middle" x="76.23" y="-178.5" font-family="Helvetica,sans-Serif" font-size="10.00">map</text>
</a>
</g>
</g>
<!-- Node3&#45;&gt;Node4 -->
<g id="edge3" class="edge">
<title>Node3&#45;&gt;Node4</title>
<path fill="none" stroke="midnightblue" d="M76.23,-228.42C76.23,-221.22 76.23,-210.9 76.23,-201.86"/>
<polygon fill="midnightblue" stroke="midnightblue" points="79.73,-201.78 76.23,-191.78 72.73,-201.78 79.73,-201.78"/>
</g>
<!-- Node5 -->
<g id="node5" class="node">
<title>Node5</title>
<g id="a_node5"><a xlink:title=" ">
<polygon fill="none" stroke="#bfbfbf" points="136.11,-0.5 136.11,-20.5 184.34,-20.5 184.34,-0.5 136.11,-0.5"/>
<text text-anchor="middle" x="160.23" y="-7.5" font-family="Helvetica,sans-Serif" font-size="10.00">raylib.h</text>
</a>
</g>
</g>
<!-- Node3&#45;&gt;Node5 -->
<g id="edge5" class="edge">
<title>Node3&#45;&gt;Node5</title>
<path fill="none" stroke="midnightblue" d="M82.46,-228.43C88.4,-219.47 97.3,-205.25 103.23,-192 128.55,-135.41 147.51,-64.19 155.73,-30.64"/>
<polygon fill="midnightblue" stroke="midnightblue" points="159.16,-31.33 158.1,-20.79 152.36,-29.69 159.16,-31.33"/>
</g>
<!-- Node6 -->
<g id="node6" class="node">
<title>Node6</title>
<g id="a_node6"><a xlink:href="actor_8h.html" target="_top" xlink:title=" ">
<polygon fill="none" stroke="black" points="160.94,-171.5 160.94,-191.5 207.51,-191.5 207.51,-171.5 160.94,-171.5"/>
<text text-anchor="middle" x="184.23" y="-178.5" font-family="Helvetica,sans-Serif" font-size="10.00">actor.h</text>
</a>
</g>
</g>
<!-- Node3&#45;&gt;Node6 -->
<g id="edge6" class="edge">
<title>Node3&#45;&gt;Node6</title>
<path fill="none" stroke="midnightblue" d="M94.06,-228.42C111.26,-219.66 137.51,-206.29 157.26,-196.23"/>
<polygon fill="midnightblue" stroke="midnightblue" points="159.04,-199.25 166.37,-191.6 155.87,-193.01 159.04,-199.25"/>
</g>
<!-- Node7 -->
<g id="node7" class="node">
<title>Node7</title>
<g id="a_node7"><a xlink:href="sprite_8h.html" target="_top" xlink:title=" ">
<polygon fill="none" stroke="black" points="169.83,-114.5 169.83,-134.5 218.62,-134.5 218.62,-114.5 169.83,-114.5"/>
<text text-anchor="middle" x="194.23" y="-121.5" font-family="Helvetica,sans-Serif" font-size="10.00">sprite.h</text>
</a>
</g>
</g>
<!-- Node6&#45;&gt;Node7 -->
<g id="edge7" class="edge">
<title>Node6&#45;&gt;Node7</title>
<path fill="none" stroke="midnightblue" d="M185.88,-171.42C187.19,-164.22 189.06,-153.9 190.71,-144.86"/>
<polygon fill="midnightblue" stroke="midnightblue" points="194.19,-145.24 192.54,-134.78 187.31,-143.99 194.19,-145.24"/>
</g>
<!-- Node7&#45;&gt;Node5 -->
<g id="edge9" class="edge">
<title>Node7&#45;&gt;Node5</title>
<path fill="none" stroke="midnightblue" d="M191.13,-114.47C188.02,-105.31 183.14,-90.72 179.23,-78 174.32,-62.04 169.14,-43.8 165.43,-30.46"/>
<polygon fill="midnightblue" stroke="midnightblue" points="168.73,-29.28 162.69,-20.57 161.98,-31.14 168.73,-29.28"/>
</g>
<!-- Node8 -->
<g id="node8" class="node">
<title>Node8</title>
<g id="a_node8"><a xlink:title=" ">
<polygon fill="none" stroke="#bfbfbf" points="188.17,-57.5 188.17,-77.5 240.28,-77.5 240.28,-57.5 188.17,-57.5"/>
<text text-anchor="middle" x="214.23" y="-64.5" font-family="Helvetica,sans-Serif" font-size="10.00">memory</text>
</a>
</g>
</g>
<!-- Node7&#45;&gt;Node8 -->
<g id="edge8" class="edge">
<title>Node7&#45;&gt;Node8</title>
<path fill="none" stroke="midnightblue" d="M197.53,-114.42C200.21,-107.06 204.07,-96.44 207.4,-87.27"/>
<polygon fill="midnightblue" stroke="midnightblue" points="210.72,-88.37 210.85,-77.78 204.15,-85.98 210.72,-88.37"/>
</g>
<!-- Node9 -->
<g id="node9" class="node">
<title>Node9</title>
<g id="a_node9"><a xlink:href="texture2d_8h.html" target="_top" xlink:title=" ">
<polygon fill="none" stroke="black" points="258.21,-57.5 258.21,-77.5 324.24,-77.5 324.24,-57.5 258.21,-57.5"/>
<text text-anchor="middle" x="291.23" y="-64.5" font-family="Helvetica,sans-Serif" font-size="10.00">texture2d.h</text>
</a>
</g>
</g>
<!-- Node7&#45;&gt;Node9 -->
<g id="edge10" class="edge">
<title>Node7&#45;&gt;Node9</title>
<path fill="none" stroke="midnightblue" d="M210.24,-114.42C225.41,-105.82 248.41,-92.78 266.03,-82.78"/>
<polygon fill="midnightblue" stroke="midnightblue" points="268.21,-85.57 275.19,-77.6 264.76,-79.48 268.21,-85.57"/>
</g>
<!-- Node9&#45;&gt;Node5 -->
<g id="edge11" class="edge">
<title>Node9&#45;&gt;Node5</title>
<path fill="none" stroke="midnightblue" d="M269.59,-57.42C248.26,-48.46 215.44,-34.68 191.31,-24.55"/>
<polygon fill="midnightblue" stroke="midnightblue" points="192.47,-21.24 181.89,-20.6 189.76,-27.69 192.47,-21.24"/>
</g>
</g>
</svg>
