<?xml version="1.0" encoding="UTF-8" standalone="no"?>
<!DOCTYPE svg PUBLIC "-//W3C//DTD SVG 1.1//EN"
 "http://www.w3.org/Graphics/SVG/1.1/DTD/svg11.dtd">
<!-- Generated by graphviz version 3.0.0 (20220226.1711)
 -->
<!-- Title: game_scene.cpp Pages: 1 -->
<svg width="762pt" height="428pt"
 viewBox="0.00 0.00 762.00 428.00" xmlns="http://www.w3.org/2000/svg" xmlns:xlink="http://www.w3.org/1999/xlink">
<g id="graph0" class="graph" transform="scale(1 1) rotate(0) translate(4 424)">
<title>game_scene.cpp</title>
<!-- Node1 -->
<g id="node1" class="node">
<title>Node1</title>
<g id="a_node1"><a xlink:title=" ">
<polygon fill="#bfbfbf" stroke="black" points="220.92,-399.5 220.92,-419.5 313.08,-419.5 313.08,-399.5 220.92,-399.5"/>
<text text-anchor="middle" x="267" y="-406.5" font-family="Helvetica,sans-Serif" font-size="10.00">game_scene.cpp</text>
</a>
</g>
</g>
<!-- Node2 -->
<g id="node2" class="node">
<title>Node2</title>
<g id="a_node2"><a xlink:title=" ">
<polygon fill="none" stroke="#bfbfbf" points="234.94,-57.5 234.94,-77.5 287.06,-77.5 287.06,-57.5 234.94,-57.5"/>
<text text-anchor="middle" x="261" y="-64.5" font-family="Helvetica,sans-Serif" font-size="10.00">memory</text>
</a>
</g>
</g>
<!-- Node1&#45;&gt;Node2 -->
<g id="edge1" class="edge">
<title>Node1&#45;&gt;Node2</title>
<path fill="none" stroke="midnightblue" d="M220.76,-401.98C164.24,-391.09 76,-363.39 76,-296.5 76,-296.5 76,-296.5 76,-180.5 76,-111.54 171.22,-83.88 225.03,-73.76"/>
<polygon fill="midnightblue" stroke="midnightblue" points="225.65,-77.2 234.89,-72.01 224.43,-70.31 225.65,-77.2"/>
</g>
<!-- Node3 -->
<g id="node3" class="node">
<title>Node3</title>
<g id="a_node3"><a xlink:title=" ">
<polygon fill="none" stroke="#bfbfbf" points="121.77,-171.5 121.77,-191.5 162.23,-191.5 162.23,-171.5 121.77,-171.5"/>
<text text-anchor="middle" x="142" y="-178.5" font-family="Helvetica,sans-Serif" font-size="10.00">string</text>
</a>
</g>
</g>
<!-- Node1&#45;&gt;Node3 -->
<g id="edge2" class="edge">
<title>Node1&#45;&gt;Node3</title>
<path fill="none" stroke="midnightblue" d="M220.84,-405.26C191.9,-400.56 156.66,-389.36 138,-363 103.21,-313.84 122.89,-236.81 134.88,-201.42"/>
<polygon fill="midnightblue" stroke="midnightblue" points="138.23,-202.45 138.28,-191.86 131.63,-200.1 138.23,-202.45"/>
</g>
<!-- Node4 -->
<g id="node4" class="node">
<title>Node4</title>
<g id="a_node4"><a xlink:title=" ">
<polygon fill="none" stroke="#bfbfbf" points="146.59,-342.5 146.59,-362.5 225.41,-362.5 225.41,-342.5 146.59,-342.5"/>
<text text-anchor="middle" x="186" y="-349.5" font-family="Helvetica,sans-Serif" font-size="10.00">raylib&#45;cpp.hpp</text>
</a>
</g>
</g>
<!-- Node1&#45;&gt;Node4 -->
<g id="edge3" class="edge">
<title>Node1&#45;&gt;Node4</title>
<path fill="none" stroke="midnightblue" d="M253.62,-399.42C241.2,-390.98 222.46,-378.26 207.86,-368.34"/>
<polygon fill="midnightblue" stroke="midnightblue" points="209.63,-365.32 199.4,-362.6 205.7,-371.11 209.63,-365.32"/>
</g>
<!-- Node5 -->
<g id="node5" class="node">
<title>Node5</title>
<g id="a_node5"><a xlink:title=" ">
<polygon fill="none" stroke="#bfbfbf" points="486.88,-0.5 486.88,-20.5 535.12,-20.5 535.12,-0.5 486.88,-0.5"/>
<text text-anchor="middle" x="511" y="-7.5" font-family="Helvetica,sans-Serif" font-size="10.00">raylib.h</text>
</a>
</g>
</g>
<!-- Node1&#45;&gt;Node5 -->
<g id="edge4" class="edge">
<title>Node1&#45;&gt;Node5</title>
<path fill="none" stroke="midnightblue" d="M313.25,-407.64C434.82,-404.14 754,-386.4 754,-296.5 754,-296.5 754,-296.5 754,-123.5 754,-32.67 612.23,-15.25 545.26,-12.09"/>
<polygon fill="midnightblue" stroke="midnightblue" points="545.32,-8.59 535.19,-11.7 545.04,-15.59 545.32,-8.59"/>
</g>
<!-- Node6 -->
<g id="node6" class="node">
<title>Node6</title>
<g id="a_node6"><a xlink:href="store_8h.html" target="_top" xlink:title=" ">
<polygon fill="none" stroke="black" points="243.71,-342.5 243.71,-362.5 290.29,-362.5 290.29,-342.5 243.71,-342.5"/>
<text text-anchor="middle" x="267" y="-349.5" font-family="Helvetica,sans-Serif" font-size="10.00">store.h</text>
</a>
</g>
</g>
<!-- Node1&#45;&gt;Node6 -->
<g id="edge5" class="edge">
<title>Node1&#45;&gt;Node6</title>
<path fill="none" stroke="midnightblue" d="M267,-399.42C267,-392.22 267,-381.9 267,-372.86"/>
<polygon fill="midnightblue" stroke="midnightblue" points="270.5,-372.78 267,-362.78 263.5,-372.78 270.5,-372.78"/>
</g>
<!-- Node13 -->
<g id="node13" class="node">
<title>Node13</title>
<g id="a_node13"><a xlink:href="scenes_8h.html" target="_top" xlink:title=" ">
<polygon fill="none" stroke="black" points="378.99,-342.5 378.99,-362.5 435.01,-362.5 435.01,-342.5 378.99,-342.5"/>
<text text-anchor="middle" x="407" y="-349.5" font-family="Helvetica,sans-Serif" font-size="10.00">scenes.h</text>
</a>
</g>
</g>
<!-- Node1&#45;&gt;Node13 -->
<g id="edge25" class="edge">
<title>Node1&#45;&gt;Node13</title>
<path fill="none" stroke="midnightblue" d="M290.12,-399.42C313.12,-390.38 348.62,-376.44 374.46,-366.28"/>
<polygon fill="midnightblue" stroke="midnightblue" points="375.82,-369.51 383.85,-362.6 373.26,-362.99 375.82,-369.51"/>
</g>
<!-- Node19 -->
<g id="node19" class="node">
<title>Node19</title>
<g id="a_node19"><a xlink:href="renderer_8h.html" target="_top" xlink:title=" ">
<polygon fill="none" stroke="black" points="634.93,-285.5 634.93,-305.5 697.07,-305.5 697.07,-285.5 634.93,-285.5"/>
<text text-anchor="middle" x="666" y="-292.5" font-family="Helvetica,sans-Serif" font-size="10.00">renderer.h</text>
</a>
</g>
</g>
<!-- Node1&#45;&gt;Node19 -->
<g id="edge40" class="edge">
<title>Node1&#45;&gt;Node19</title>
<path fill="none" stroke="midnightblue" d="M304.06,-399.42C339.96,-390.53 395.86,-376.39 444,-363 508.55,-345.04 583.06,-322.31 627.26,-308.61"/>
<polygon fill="midnightblue" stroke="midnightblue" points="628.5,-311.89 637.01,-305.58 626.43,-305.2 628.5,-311.89"/>
</g>
<!-- Node6&#45;&gt;Node5 -->
<g id="edge7" class="edge">
<title>Node6&#45;&gt;Node5</title>
<path fill="none" stroke="midnightblue" d="M243.77,-342.49C178.81,-316.56 0,-239.97 0,-182.5 0,-182.5 0,-182.5 0,-123.5 0,-79.28 33.59,-74.95 74,-57 146.01,-25.02 386.41,-15.02 476.51,-12.36"/>
<polygon fill="midnightblue" stroke="midnightblue" points="476.83,-15.85 486.73,-12.07 476.63,-8.85 476.83,-15.85"/>
</g>
<!-- Node7 -->
<g id="node7" class="node">
<title>Node7</title>
<g id="a_node7"><a xlink:title=" ">
<polygon fill="none" stroke="#bfbfbf" points="286.27,-171.5 286.27,-191.5 321.73,-191.5 321.73,-171.5 286.27,-171.5"/>
<text text-anchor="middle" x="304" y="-178.5" font-family="Helvetica,sans-Serif" font-size="10.00">map</text>
</a>
</g>
</g>
<!-- Node6&#45;&gt;Node7 -->
<g id="edge6" class="edge">
<title>Node6&#45;&gt;Node7</title>
<path fill="none" stroke="midnightblue" d="M268.99,-342.41C274.81,-315.82 291.91,-237.74 299.85,-201.45"/>
<polygon fill="midnightblue" stroke="midnightblue" points="303.28,-202.15 302,-191.63 296.44,-200.65 303.28,-202.15"/>
</g>
<!-- Node8 -->
<g id="node8" class="node">
<title>Node8</title>
<g id="a_node8"><a xlink:href="stage_8h.html" target="_top" xlink:title=" ">
<polygon fill="none" stroke="black" points="190.6,-285.5 190.6,-305.5 239.4,-305.5 239.4,-285.5 190.6,-285.5"/>
<text text-anchor="middle" x="215" y="-292.5" font-family="Helvetica,sans-Serif" font-size="10.00">stage.h</text>
</a>
</g>
</g>
<!-- Node6&#45;&gt;Node8 -->
<g id="edge8" class="edge">
<title>Node6&#45;&gt;Node8</title>
<path fill="none" stroke="midnightblue" d="M258.41,-342.42C250.93,-334.5 239.89,-322.82 230.81,-313.23"/>
<polygon fill="midnightblue" stroke="midnightblue" points="233.19,-310.64 223.77,-305.78 228.1,-315.45 233.19,-310.64"/>
</g>
<!-- Node10 -->
<g id="node10" class="node">
<title>Node10</title>
<g id="a_node10"><a xlink:href="actor_8h.html" target="_top" xlink:title=" ">
<polygon fill="none" stroke="black" points="413.71,-171.5 413.71,-191.5 460.29,-191.5 460.29,-171.5 413.71,-171.5"/>
<text text-anchor="middle" x="437" y="-178.5" font-family="Helvetica,sans-Serif" font-size="10.00">actor.h</text>
</a>
</g>
</g>
<!-- Node6&#45;&gt;Node10 -->
<g id="edge24" class="edge">
<title>Node6&#45;&gt;Node10</title>
<path fill="none" stroke="midnightblue" d="M290.53,-348.43C317.4,-343.76 361.1,-332.42 388,-306 417.38,-277.15 429.61,-228.49 434.32,-201.67"/>
<polygon fill="midnightblue" stroke="midnightblue" points="437.81,-202.06 435.91,-191.64 430.89,-200.97 437.81,-202.06"/>
</g>
<!-- Node8&#45;&gt;Node2 -->
<g id="edge9" class="edge">
<title>Node8&#45;&gt;Node2</title>
<path fill="none" stroke="midnightblue" d="M215.57,-285.41C216.46,-272.56 218.46,-248.36 222,-228 230.93,-176.7 246.97,-117.4 255.43,-87.64"/>
<polygon fill="midnightblue" stroke="midnightblue" points="258.87,-88.33 258.27,-77.76 252.14,-86.4 258.87,-88.33"/>
</g>
<!-- Node8&#45;&gt;Node3 -->
<g id="edge10" class="edge">
<title>Node8&#45;&gt;Node3</title>
<path fill="none" stroke="midnightblue" d="M205.93,-285.27C197.54,-276.43 185.04,-262.48 176,-249 165.76,-233.72 156.43,-214.96 150.14,-201.26"/>
<polygon fill="midnightblue" stroke="midnightblue" points="153.24,-199.62 145.97,-191.92 146.85,-202.48 153.24,-199.62"/>
</g>
<!-- Node8&#45;&gt;Node5 -->
<g id="edge11" class="edge">
<title>Node8&#45;&gt;Node5</title>
<path fill="none" stroke="midnightblue" d="M191.86,-285.4C143.88,-265.81 38,-218.5 38,-182.5 38,-182.5 38,-182.5 38,-123.5 38,-33.36 367.4,-15.67 476.43,-12.28"/>
<polygon fill="midnightblue" stroke="midnightblue" points="476.67,-15.78 486.57,-11.99 476.47,-8.78 476.67,-15.78"/>
</g>
<!-- Node8&#45;&gt;Node7 -->
<g id="edge12" class="edge">
<title>Node8&#45;&gt;Node7</title>
<path fill="none" stroke="midnightblue" d="M222.28,-285.33C237.15,-266.63 271.18,-223.8 290.31,-199.73"/>
<polygon fill="midnightblue" stroke="midnightblue" points="293.13,-201.8 296.62,-191.79 287.65,-197.44 293.13,-201.8"/>
</g>
<!-- Node9 -->
<g id="node9" class="node">
<title>Node9</title>
<g id="a_node9"><a xlink:href="scene_8h.html" target="_top" xlink:title=" ">
<polygon fill="none" stroke="black" points="332.49,-228.5 332.49,-248.5 383.51,-248.5 383.51,-228.5 332.49,-228.5"/>
<text text-anchor="middle" x="358" y="-235.5" font-family="Helvetica,sans-Serif" font-size="10.00">scene.h</text>
</a>
</g>
</g>
<!-- Node8&#45;&gt;Node9 -->
<g id="edge13" class="edge">
<title>Node8&#45;&gt;Node9</title>
<path fill="none" stroke="midnightblue" d="M238.61,-285.42C262.11,-276.38 298.37,-262.44 324.76,-252.28"/>
<polygon fill="midnightblue" stroke="midnightblue" points="326.27,-255.45 334.35,-248.6 323.76,-248.92 326.27,-255.45"/>
</g>
<!-- Node11 -->
<g id="node11" class="node">
<title>Node11</title>
<g id="a_node11"><a xlink:href="sprite_8h.html" target="_top" xlink:title=" ">
<polygon fill="none" stroke="black" points="467.6,-114.5 467.6,-134.5 516.4,-134.5 516.4,-114.5 467.6,-114.5"/>
<text text-anchor="middle" x="492" y="-121.5" font-family="Helvetica,sans-Serif" font-size="10.00">sprite.h</text>
</a>
</g>
</g>
<!-- Node8&#45;&gt;Node11 -->
<g id="edge23" class="edge">
<title>Node8&#45;&gt;Node11</title>
<path fill="none" stroke="midnightblue" d="M216.73,-285.28C221.61,-262.01 237.77,-200.66 277,-171 305.03,-149.8 404.05,-135.55 457.38,-129.23"/>
<polygon fill="midnightblue" stroke="midnightblue" points="457.87,-132.69 467.4,-128.07 457.07,-125.74 457.87,-132.69"/>
</g>
<!-- Node9&#45;&gt;Node3 -->
<g id="edge15" class="edge">
<title>Node9&#45;&gt;Node3</title>
<path fill="none" stroke="midnightblue" d="M332.37,-230.97C292.32,-220.78 215.04,-201.1 172.29,-190.21"/>
<polygon fill="midnightblue" stroke="midnightblue" points="173.02,-186.79 162.46,-187.71 171.29,-193.57 173.02,-186.79"/>
</g>
<!-- Node9&#45;&gt;Node5 -->
<g id="edge16" class="edge">
<title>Node9&#45;&gt;Node5</title>
<path fill="none" stroke="midnightblue" d="M364.19,-228.36C387.26,-194.28 468.5,-74.27 499.17,-28.98"/>
<polygon fill="midnightblue" stroke="midnightblue" points="502.2,-30.75 504.9,-20.51 496.4,-26.82 502.2,-30.75"/>
</g>
<!-- Node9&#45;&gt;Node7 -->
<g id="edge14" class="edge">
<title>Node9&#45;&gt;Node7</title>
<path fill="none" stroke="midnightblue" d="M349.08,-228.42C341.24,-220.42 329.62,-208.59 320.14,-198.94"/>
<polygon fill="midnightblue" stroke="midnightblue" points="322.61,-196.46 313.11,-191.78 317.62,-201.37 322.61,-196.46"/>
</g>
<!-- Node9&#45;&gt;Node10 -->
<g id="edge17" class="edge">
<title>Node9&#45;&gt;Node10</title>
<path fill="none" stroke="midnightblue" d="M371.05,-228.42C383.17,-219.98 401.44,-207.26 415.68,-197.34"/>
<polygon fill="midnightblue" stroke="midnightblue" points="417.73,-200.18 423.94,-191.6 413.73,-194.44 417.73,-200.18"/>
</g>
<!-- Node10&#45;&gt;Node11 -->
<g id="edge18" class="edge">
<title>Node10&#45;&gt;Node11</title>
<path fill="none" stroke="midnightblue" d="M446.08,-171.42C454.08,-163.42 465.91,-151.59 475.56,-141.94"/>
<polygon fill="midnightblue" stroke="midnightblue" points="478.12,-144.33 482.72,-134.78 473.17,-139.38 478.12,-144.33"/>
</g>
<!-- Node11&#45;&gt;Node2 -->
<g id="edge19" class="edge">
<title>Node11&#45;&gt;Node2</title>
<path fill="none" stroke="midnightblue" d="M467.28,-117.61C426.4,-107.88 344.53,-88.39 297.15,-77.11"/>
<polygon fill="midnightblue" stroke="midnightblue" points="297.85,-73.68 287.31,-74.76 296.23,-80.49 297.85,-73.68"/>
</g>
<!-- Node11&#45;&gt;Node5 -->
<g id="edge20" class="edge">
<title>Node11&#45;&gt;Node5</title>
<path fill="none" stroke="midnightblue" d="M492.75,-114.41C493.89,-101.56 496.33,-77.37 500,-57 501.57,-48.31 503.78,-38.81 505.82,-30.74"/>
<polygon fill="midnightblue" stroke="midnightblue" points="509.26,-31.4 508.4,-20.84 502.49,-29.64 509.26,-31.4"/>
</g>
<!-- Node12 -->
<g id="node12" class="node">
<title>Node12</title>
<g id="a_node12"><a xlink:href="texture2d_8h.html" target="_top" xlink:title=" ">
<polygon fill="none" stroke="black" points="508.98,-57.5 508.98,-77.5 575.02,-77.5 575.02,-57.5 508.98,-57.5"/>
<text text-anchor="middle" x="542" y="-64.5" font-family="Helvetica,sans-Serif" font-size="10.00">texture2d.h</text>
</a>
</g>
</g>
<!-- Node11&#45;&gt;Node12 -->
<g id="edge21" class="edge">
<title>Node11&#45;&gt;Node12</title>
<path fill="none" stroke="midnightblue" d="M500.26,-114.42C507.45,-106.5 518.07,-94.82 526.8,-85.23"/>
<polygon fill="midnightblue" stroke="midnightblue" points="529.43,-87.53 533.56,-77.78 524.25,-82.82 529.43,-87.53"/>
</g>
<!-- Node12&#45;&gt;Node5 -->
<g id="edge22" class="edge">
<title>Node12&#45;&gt;Node5</title>
<path fill="none" stroke="midnightblue" d="M536.88,-57.42C532.64,-49.9 526.49,-38.98 521.25,-29.68"/>
<polygon fill="midnightblue" stroke="midnightblue" points="524.19,-27.77 516.23,-20.78 518.09,-31.21 524.19,-27.77"/>
</g>
<!-- Node14 -->
<g id="node14" class="node">
<title>Node14</title>
<g id="a_node14"><a xlink:href="menu__scene_8h.html" target="_top" xlink:title=" ">
<polygon fill="none" stroke="black" points="435.2,-285.5 435.2,-305.5 516.8,-305.5 516.8,-285.5 435.2,-285.5"/>
<text text-anchor="middle" x="476" y="-292.5" font-family="Helvetica,sans-Serif" font-size="10.00">menu_scene.h</text>
</a>
</g>
</g>
<!-- Node13&#45;&gt;Node14 -->
<g id="edge26" class="edge">
<title>Node13&#45;&gt;Node14</title>
<path fill="none" stroke="midnightblue" d="M418.39,-342.42C428.72,-334.19 444.15,-321.88 456.45,-312.08"/>
<polygon fill="midnightblue" stroke="midnightblue" points="458.72,-314.75 464.36,-305.78 454.36,-309.28 458.72,-314.75"/>
</g>
<!-- Node15 -->
<g id="node15" class="node">
<title>Node15</title>
<g id="a_node15"><a xlink:href="game__scene_8h.html" target="_top" xlink:title=" ">
<polygon fill="none" stroke="black" points="535.2,-285.5 535.2,-305.5 616.8,-305.5 616.8,-285.5 535.2,-285.5"/>
<text text-anchor="middle" x="576" y="-292.5" font-family="Helvetica,sans-Serif" font-size="10.00">game_scene.h</text>
</a>
</g>
</g>
<!-- Node13&#45;&gt;Node15 -->
<g id="edge28" class="edge">
<title>Node13&#45;&gt;Node15</title>
<path fill="none" stroke="midnightblue" d="M434.91,-342.42C463.25,-333.19 507.3,-318.86 538.64,-308.66"/>
<polygon fill="midnightblue" stroke="midnightblue" points="539.91,-311.93 548.33,-305.5 537.74,-305.27 539.91,-311.93"/>
</g>
<!-- Node18 -->
<g id="node18" class="node">
<title>Node18</title>
<g id="a_node18"><a xlink:href="pause__scene_8h.html" target="_top" xlink:title=" ">
<polygon fill="none" stroke="black" points="295.08,-285.5 295.08,-305.5 378.92,-305.5 378.92,-285.5 295.08,-285.5"/>
<text text-anchor="middle" x="337" y="-292.5" font-family="Helvetica,sans-Serif" font-size="10.00">pause_scene.h</text>
</a>
</g>
</g>
<!-- Node13&#45;&gt;Node18 -->
<g id="edge38" class="edge">
<title>Node13&#45;&gt;Node18</title>
<path fill="none" stroke="midnightblue" d="M395.44,-342.42C384.97,-334.19 369.31,-321.88 356.83,-312.08"/>
<polygon fill="midnightblue" stroke="midnightblue" points="358.84,-309.21 348.81,-305.78 354.51,-314.71 358.84,-309.21"/>
</g>
<!-- Node14&#45;&gt;Node9 -->
<g id="edge27" class="edge">
<title>Node14&#45;&gt;Node9</title>
<path fill="none" stroke="midnightblue" d="M456.51,-285.42C437.47,-276.54 408.26,-262.93 386.58,-252.82"/>
<polygon fill="midnightblue" stroke="midnightblue" points="388.06,-249.65 377.51,-248.6 385.1,-255.99 388.06,-249.65"/>
</g>
<!-- Node15&#45;&gt;Node2 -->
<g id="edge29" class="edge">
<title>Node15&#45;&gt;Node2</title>
<path fill="none" stroke="midnightblue" d="M568.88,-285.37C548.93,-259.97 492.47,-189.11 469,-171 414.6,-129.01 340.26,-97.44 296.77,-81.07"/>
<polygon fill="midnightblue" stroke="midnightblue" points="297.78,-77.71 287.19,-77.52 295.35,-84.28 297.78,-77.71"/>
</g>
<!-- Node15&#45;&gt;Node9 -->
<g id="edge31" class="edge">
<title>Node15&#45;&gt;Node9</title>
<path fill="none" stroke="midnightblue" d="M540,-285.42C499.51,-275.2 434.13,-258.71 393.74,-248.52"/>
<polygon fill="midnightblue" stroke="midnightblue" points="394.35,-245.06 383.8,-246.01 392.64,-251.85 394.35,-245.06"/>
</g>
<!-- Node15&#45;&gt;Node10 -->
<g id="edge30" class="edge">
<title>Node15&#45;&gt;Node10</title>
<path fill="none" stroke="midnightblue" d="M542.12,-285.46C520.62,-278.36 493.31,-266.68 474,-249 459.73,-235.93 449.68,-216.05 443.69,-201.43"/>
<polygon fill="midnightblue" stroke="midnightblue" points="446.88,-199.98 440.04,-191.89 440.34,-202.48 446.88,-199.98"/>
</g>
<!-- Node15&#45;&gt;Node11 -->
<g id="edge32" class="edge">
<title>Node15&#45;&gt;Node11</title>
<path fill="none" stroke="midnightblue" d="M571.48,-285.41C558.21,-258.71 519.12,-180.07 501.19,-143.98"/>
<polygon fill="midnightblue" stroke="midnightblue" points="504.12,-142.03 496.54,-134.63 497.86,-145.14 504.12,-142.03"/>
</g>
<!-- Node16 -->
<g id="node16" class="node">
<title>Node16</title>
<g id="a_node16"><a xlink:href="sprite__animated_8h.html" target="_top" xlink:title=" ">
<polygon fill="none" stroke="black" points="592.25,-171.5 592.25,-191.5 687.75,-191.5 687.75,-171.5 592.25,-171.5"/>
<text text-anchor="middle" x="640" y="-178.5" font-family="Helvetica,sans-Serif" font-size="10.00">sprite_animated.h</text>
</a>
</g>
</g>
<!-- Node15&#45;&gt;Node16 -->
<g id="edge33" class="edge">
<title>Node15&#45;&gt;Node16</title>
<path fill="none" stroke="midnightblue" d="M581.24,-285.33C591.79,-266.88 615.76,-224.92 629.61,-200.69"/>
<polygon fill="midnightblue" stroke="midnightblue" points="632.77,-202.21 634.69,-191.79 626.69,-198.74 632.77,-202.21"/>
</g>
<!-- Node16&#45;&gt;Node5 -->
<g id="edge35" class="edge">
<title>Node16&#45;&gt;Node5</title>
<path fill="none" stroke="midnightblue" d="M636.18,-171.26C624.92,-144.18 592.18,-66.34 584,-57 572.29,-43.64 555.71,-32.87 541.3,-25.17"/>
<polygon fill="midnightblue" stroke="midnightblue" points="542.72,-21.97 532.22,-20.56 539.55,-28.21 542.72,-21.97"/>
</g>
<!-- Node16&#45;&gt;Node11 -->
<g id="edge37" class="edge">
<title>Node16&#45;&gt;Node11</title>
<path fill="none" stroke="midnightblue" d="M615.56,-171.42C591.14,-162.34 553.39,-148.31 526.04,-138.15"/>
<polygon fill="midnightblue" stroke="midnightblue" points="527.07,-134.8 516.48,-134.6 524.63,-141.36 527.07,-134.8"/>
</g>
<!-- Node16&#45;&gt;Node12 -->
<g id="edge36" class="edge">
<title>Node16&#45;&gt;Node12</title>
<path fill="none" stroke="midnightblue" d="M628.38,-171.42C617.57,-162.68 601.33,-148.81 589,-135 575.23,-119.58 561.85,-100.07 552.92,-86.18"/>
<polygon fill="midnightblue" stroke="midnightblue" points="555.78,-84.17 547.49,-77.58 549.87,-87.91 555.78,-84.17"/>
</g>
<!-- Node17 -->
<g id="node17" class="node">
<title>Node17</title>
<g id="a_node17"><a xlink:title=" ">
<polygon fill="none" stroke="#bfbfbf" points="631.38,-114.5 631.38,-134.5 674.62,-134.5 674.62,-114.5 631.38,-114.5"/>
<text text-anchor="middle" x="653" y="-121.5" font-family="Helvetica,sans-Serif" font-size="10.00">vector</text>
</a>
</g>
</g>
<!-- Node16&#45;&gt;Node17 -->
<g id="edge34" class="edge">
<title>Node16&#45;&gt;Node17</title>
<path fill="none" stroke="midnightblue" d="M642.15,-171.42C643.87,-164.14 646.34,-153.67 648.49,-144.57"/>
<polygon fill="midnightblue" stroke="midnightblue" points="651.91,-145.32 650.81,-134.78 645.1,-143.71 651.91,-145.32"/>
</g>
<!-- Node18&#45;&gt;Node9 -->
<g id="edge39" class="edge">
<title>Node18&#45;&gt;Node9</title>
<path fill="none" stroke="midnightblue" d="M340.47,-285.42C343.28,-278.06 347.33,-267.44 350.83,-258.27"/>
<polygon fill="midnightblue" stroke="midnightblue" points="354.16,-259.37 354.46,-248.78 347.62,-256.87 354.16,-259.37"/>
</g>
<!-- Node19&#45;&gt;Node5 -->
<g id="edge41" class="edge">
<title>Node19&#45;&gt;Node5</title>
<path fill="none" stroke="midnightblue" d="M673.38,-285.24C687.29,-266.83 716,-223.81 716,-182.5 716,-182.5 716,-182.5 716,-123.5 716,-46.76 604,-22.27 545.57,-14.72"/>
<polygon fill="midnightblue" stroke="midnightblue" points="545.67,-11.21 535.32,-13.5 544.84,-18.16 545.67,-11.21"/>
</g>
<!-- Node19&#45;&gt;Node9 -->
<g id="edge42" class="edge">
<title>Node19&#45;&gt;Node9</title>
<path fill="none" stroke="midnightblue" d="M634.6,-286.84C631.7,-286.19 628.8,-285.57 626,-285 543.15,-268.15 445,-252.6 393.55,-244.78"/>
<polygon fill="midnightblue" stroke="midnightblue" points="394.01,-241.31 383.6,-243.28 392.96,-248.23 394.01,-241.31"/>
</g>
<!-- Node19&#45;&gt;Node11 -->
<g id="edge43" class="edge">
<title>Node19&#45;&gt;Node11</title>
<path fill="none" stroke="midnightblue" d="M656.65,-285.41C628.56,-258.13 544.68,-176.67 508.7,-141.72"/>
<polygon fill="midnightblue" stroke="midnightblue" points="511.01,-139.09 501.4,-134.63 506.14,-144.11 511.01,-139.09"/>
</g>
</g>
</svg>
