<?xml version="1.0" encoding="UTF-8" standalone="no"?>
<!DOCTYPE svg PUBLIC "-//W3C//DTD SVG 1.1//EN"
 "http://www.w3.org/Graphics/SVG/1.1/DTD/svg11.dtd">
<!-- Generated by graphviz version 3.0.0 (20220226.1711)
 -->
<!-- Title: Graph Legend Pages: 1 -->
<svg width="511pt" height="164pt"
 viewBox="0.00 0.00 510.69 164.00" xmlns="http://www.w3.org/2000/svg" xmlns:xlink="http://www.w3.org/1999/xlink">
<g id="graph0" class="graph" transform="scale(1 1) rotate(0) translate(4 160)">
<title>Graph Legend</title>
<!-- Node9 -->
<g id="node1" class="node">
<title>Node9</title>
<polygon fill="#bfbfbf" stroke="black" points="293.43,-20 238.6,-20 238.6,0 293.43,0 293.43,-20"/>
<text text-anchor="middle" x="266.01" y="-7" font-family="Helvetica,sans-Serif" font-size="10.00">Inherited</text>
</g>
<!-- Node10 -->
<g id="node2" class="node">
<title>Node10</title>
<polygon fill="none" stroke="black" points="66.04,-88 -0.01,-88 -0.01,-68 66.04,-68 66.04,-88"/>
<text text-anchor="middle" x="33.01" y="-75" font-family="Helvetica,sans-Serif" font-size="10.00">PublicBase</text>
</g>
<!-- Node10&#45;&gt;Node9 -->
<g id="edge1" class="edge">
<title>Node10&#45;&gt;Node9</title>
<path fill="none" stroke="midnightblue" d="M74.57,-65.23C121.91,-51.82 197.95,-30.28 238.48,-18.8"/>
<polygon fill="midnightblue" stroke="midnightblue" points="73.59,-61.87 64.92,-67.96 75.5,-68.6 73.59,-61.87"/>
</g>
<!-- Node11 -->
<g id="node3" class="node">
<title>Node11</title>
<polygon fill="none" stroke="red" points="63.54,-156 2.49,-156 2.49,-136 63.54,-136 63.54,-156"/>
<text text-anchor="middle" x="33.01" y="-143" font-family="Helvetica,sans-Serif" font-size="10.00">Truncated</text>
</g>
<!-- Node11&#45;&gt;Node10 -->
<g id="edge2" class="edge">
<title>Node11&#45;&gt;Node10</title>
<path fill="none" stroke="midnightblue" d="M33.01,-125.58C33.01,-113.19 33.01,-97.72 33.01,-88.1"/>
<polygon fill="midnightblue" stroke="midnightblue" points="29.51,-125.82 33.01,-135.82 36.51,-125.82 29.51,-125.82"/>
</g>
<!-- Node13 -->
<g id="node4" class="node">
<title>Node13</title>
<polygon fill="none" stroke="black" points="165.61,-88 84.42,-88 84.42,-68 165.61,-68 165.61,-88"/>
<text text-anchor="middle" x="125.01" y="-75" font-family="Helvetica,sans-Serif" font-size="10.00">ProtectedBase</text>
</g>
<!-- Node13&#45;&gt;Node9 -->
<g id="edge3" class="edge">
<title>Node13&#45;&gt;Node9</title>
<path fill="none" stroke="darkgreen" d="M153.49,-63.67C181.13,-50.73 222.36,-31.43 246.49,-20.14"/>
<polygon fill="darkgreen" stroke="darkgreen" points="151.9,-60.55 144.32,-67.96 154.87,-66.89 151.9,-60.55"/>
</g>
<!-- Node14 -->
<g id="node5" class="node">
<title>Node14</title>
<polygon fill="none" stroke="black" points="253.93,-88 184.1,-88 184.1,-68 253.93,-68 253.93,-88"/>
<text text-anchor="middle" x="219.01" y="-75" font-family="Helvetica,sans-Serif" font-size="10.00">PrivateBase</text>
</g>
<!-- Node14&#45;&gt;Node9 -->
<g id="edge4" class="edge">
<title>Node14&#45;&gt;Node9</title>
<path fill="none" stroke="#8b1a1a" d="M231.52,-59.45C240.53,-46.79 252.33,-30.21 259.54,-20.1"/>
<polygon fill="#8b1a1a" stroke="#8b1a1a" points="228.5,-57.65 225.55,-67.82 234.2,-61.71 228.5,-57.65"/>
</g>
<!-- Node15 -->
<g id="node6" class="node">
<title>Node15</title>
<polygon fill="none" stroke="#bfbfbf" points="355.84,-88 272.19,-88 272.19,-68 355.84,-68 355.84,-88"/>
<text text-anchor="middle" x="314.01" y="-75" font-family="Helvetica,sans-Serif" font-size="10.00">Undocumented</text>
</g>
<!-- Node15&#45;&gt;Node9 -->
<g id="edge5" class="edge">
<title>Node15&#45;&gt;Node9</title>
<path fill="none" stroke="midnightblue" d="M301.25,-59.45C292.04,-46.79 279.99,-30.21 272.63,-20.1"/>
<polygon fill="midnightblue" stroke="midnightblue" points="298.63,-61.79 307.34,-67.82 304.29,-57.68 298.63,-61.79"/>
</g>
<!-- Node16 -->
<g id="node7" class="node">
<title>Node16</title>
<polygon fill="none" stroke="black" points="445.6,-88 374.43,-88 374.43,-68 445.6,-68 445.6,-88"/>
<text text-anchor="middle" x="410.01" y="-75" font-family="Helvetica,sans-Serif" font-size="10.00">Templ&lt; int &gt;</text>
</g>
<!-- Node16&#45;&gt;Node9 -->
<g id="edge6" class="edge">
<title>Node16&#45;&gt;Node9</title>
<path fill="none" stroke="midnightblue" d="M380.94,-63.67C352.7,-50.73 310.6,-31.43 285.96,-20.14"/>
<polygon fill="midnightblue" stroke="midnightblue" points="379.75,-66.98 390.29,-67.96 382.66,-60.61 379.75,-66.98"/>
</g>
<!-- Node17 -->
<g id="node8" class="node">
<title>Node17</title>
<polygon fill="none" stroke="black" points="443.64,-156 376.39,-156 376.39,-136 443.64,-136 443.64,-156"/>
<text text-anchor="middle" x="410.01" y="-143" font-family="Helvetica,sans-Serif" font-size="10.00">Templ&lt; T &gt;</text>
</g>
<!-- Node17&#45;&gt;Node16 -->
<g id="edge7" class="edge">
<title>Node17&#45;&gt;Node16</title>
<path fill="none" stroke="orange" stroke-dasharray="5,2" d="M410.01,-125.58C410.01,-113.19 410.01,-97.72 410.01,-88.1"/>
<polygon fill="orange" stroke="orange" points="406.51,-125.82 410.01,-135.82 413.51,-125.82 406.51,-125.82"/>
<text text-anchor="middle" x="423.91" y="-109" font-family="Helvetica,sans-Serif" font-size="10.00">&lt; int &gt;</text>
</g>
<!-- Node18 -->
<g id="node9" class="node">
<title>Node18</title>
<polygon fill="none" stroke="black" points="502.86,-88 463.17,-88 463.17,-68 502.86,-68 502.86,-88"/>
<text text-anchor="middle" x="483.01" y="-75" font-family="Helvetica,sans-Serif" font-size="10.00">Used</text>
</g>
<!-- Node18&#45;&gt;Node9 -->
<g id="edge8" class="edge">
<title>Node18&#45;&gt;Node9</title>
<path fill="none" stroke="#9a32cd" stroke-dasharray="5,2" d="M453.56,-67.58C391.25,-48.22 328.66,-29.54 293.61,-19.15"/>
<polygon fill="#9a32cd" stroke="#9a32cd" points="452.56,-70.93 463.14,-70.56 454.64,-64.25 452.56,-70.93"/>
<text text-anchor="middle" x="422.31" y="-41" font-family="Helvetica,sans-Serif" font-size="10.00">m_usedClass</text>
</g>
</g>
</svg>
