<?xml version="1.0" encoding="UTF-8" standalone="no"?>
<!DOCTYPE svg PUBLIC "-//W3C//DTD SVG 1.1//EN"
 "http://www.w3.org/Graphics/SVG/1.1/DTD/svg11.dtd">
<!-- Generated by graphviz version 3.0.0 (20220226.1711)
 -->
<!-- Title: Graphical Class Hierarchy Pages: 1 -->
<svg width="284pt" height="107pt"
 viewBox="0.00 0.00 284.46 107.00" xmlns="http://www.w3.org/2000/svg" xmlns:xlink="http://www.w3.org/1999/xlink">
<g id="graph0" class="graph" transform="scale(1 1) rotate(0) translate(4 103)">
<title>Graphical Class Hierarchy</title>
<!-- Node0 -->
<g id="node1" class="node">
<title>Node0</title>
<g id="a_node1"><a xlink:href="classgame_1_1core_1_1_scene.html" target="_top" xlink:title="Scene base class. Scenes are managed by the Stage object.">
<polygon fill="none" stroke="black" points="0,-39.5 0,-59.5 99.94,-59.5 99.94,-39.5 0,-39.5"/>
<text text-anchor="middle" x="49.97" y="-46.5" font-family="Helvetica,sans-Serif" font-size="10.00">game::core::Scene</text>
</a>
</g>
</g>
<!-- Node1 -->
<g id="node2" class="node">
<title>Node1</title>
<g id="a_node2"><a xlink:href="classgame_1_1scenes_1_1_game_scene.html" target="_top" xlink:title=" ">
<polygon fill="none" stroke="black" points="136.5,-78.5 136.5,-98.5 275.9,-98.5 275.9,-78.5 136.5,-78.5"/>
<text text-anchor="middle" x="206.2" y="-85.5" font-family="Helvetica,sans-Serif" font-size="10.00">game::scenes::GameScene</text>
</a>
</g>
</g>
<!-- Node0&#45;&gt;Node1 -->
<g id="edge1" class="edge">
<title>Node0&#45;&gt;Node1</title>
<path fill="none" stroke="midnightblue" d="M100.43,-62.01C121.5,-67.34 145.75,-73.47 165.61,-78.49"/>
<polygon fill="midnightblue" stroke="midnightblue" points="101.24,-58.6 90.69,-59.54 99.52,-65.39 101.24,-58.6"/>
</g>
<!-- Node2 -->
<g id="node3" class="node">
<title>Node2</title>
<g id="a_node3"><a xlink:href="classgame_1_1scenes_1_1_menu_scene.html" target="_top" xlink:title=" ">
<polygon fill="none" stroke="black" points="137.61,-39.5 137.61,-59.5 274.79,-59.5 274.79,-39.5 137.61,-39.5"/>
<text text-anchor="middle" x="206.2" y="-46.5" font-family="Helvetica,sans-Serif" font-size="10.00">game::scenes::MenuScene</text>
</a>
</g>
</g>
<!-- Node0&#45;&gt;Node2 -->
<g id="edge2" class="edge">
<title>Node0&#45;&gt;Node2</title>
<path fill="none" stroke="midnightblue" d="M110.44,-49.5C119.34,-49.5 128.56,-49.5 137.6,-49.5"/>
<polygon fill="midnightblue" stroke="midnightblue" points="110.19,-46 100.19,-49.5 110.19,-53 110.19,-46"/>
</g>
<!-- Node3 -->
<g id="node4" class="node">
<title>Node3</title>
<g id="a_node4"><a xlink:href="classgame_1_1scenes_1_1_pause_scene.html" target="_top" xlink:title=" ">
<polygon fill="none" stroke="black" points="135.94,-0.5 135.94,-20.5 276.46,-20.5 276.46,-0.5 135.94,-0.5"/>
<text text-anchor="middle" x="206.2" y="-7.5" font-family="Helvetica,sans-Serif" font-size="10.00">game::scenes::PauseScene</text>
</a>
</g>
</g>
<!-- Node0&#45;&gt;Node3 -->
<g id="edge3" class="edge">
<title>Node0&#45;&gt;Node3</title>
<path fill="none" stroke="midnightblue" d="M100.43,-36.99C121.5,-31.66 145.75,-25.53 165.61,-20.51"/>
<polygon fill="midnightblue" stroke="midnightblue" points="99.52,-33.61 90.69,-39.46 101.24,-40.4 99.52,-33.61"/>
</g>
</g>
</svg>
