<?xml version="1.0" encoding="UTF-8" standalone="no"?>
<!DOCTYPE svg PUBLIC "-//W3C//DTD SVG 1.1//EN"
 "http://www.w3.org/Graphics/SVG/1.1/DTD/svg11.dtd">
<!-- Generated by graphviz version 3.0.0 (20220226.1711)
 -->
<!-- Title: main.cpp Pages: 1 -->
<svg width="523pt" height="428pt"
 viewBox="0.00 0.00 522.57 428.00" xmlns="http://www.w3.org/2000/svg" xmlns:xlink="http://www.w3.org/1999/xlink">
<g id="graph0" class="graph" transform="scale(1 1) rotate(0) translate(4 424)">
<title>main.cpp</title>
<!-- Node1 -->
<g id="node1" class="node">
<title>Node1</title>
<g id="a_node1"><a xlink:title=" ">
<polygon fill="#bfbfbf" stroke="black" points="200.77,-399.5 200.77,-419.5 257.35,-419.5 257.35,-399.5 200.77,-399.5"/>
<text text-anchor="middle" x="229.06" y="-406.5" font-family="Helvetica,sans-Serif" font-size="10.00">main.cpp</text>
</a>
</g>
</g>
<!-- Node2 -->
<g id="node2" class="node">
<title>Node2</title>
<g id="a_node2"><a xlink:title=" ">
<polygon fill="none" stroke="#bfbfbf" points="12.83,-171.5 12.83,-191.5 53.29,-191.5 53.29,-171.5 12.83,-171.5"/>
<text text-anchor="middle" x="33.06" y="-178.5" font-family="Helvetica,sans-Serif" font-size="10.00">string</text>
</a>
</g>
</g>
<!-- Node1&#45;&gt;Node2 -->
<g id="edge1" class="edge">
<title>Node1&#45;&gt;Node2</title>
<path fill="none" stroke="midnightblue" d="M200.53,-405.22C150.89,-397.77 50.02,-374.54 9.06,-306 -10.92,-272.57 8.58,-225.78 22.25,-200.47"/>
<polygon fill="midnightblue" stroke="midnightblue" points="25.39,-202.04 27.29,-191.61 19.3,-198.58 25.39,-202.04"/>
</g>
<!-- Node3 -->
<g id="node3" class="node">
<title>Node3</title>
<g id="a_node3"><a xlink:title=" ">
<polygon fill="none" stroke="#bfbfbf" points="224.94,-0.5 224.94,-20.5 273.18,-20.5 273.18,-0.5 224.94,-0.5"/>
<text text-anchor="middle" x="249.06" y="-7.5" font-family="Helvetica,sans-Serif" font-size="10.00">raylib.h</text>
</a>
</g>
</g>
<!-- Node1&#45;&gt;Node3 -->
<g id="edge2" class="edge">
<title>Node1&#45;&gt;Node3</title>
<path fill="none" stroke="midnightblue" d="M257.7,-406.08C314.31,-399.55 435.06,-376.29 435.06,-296.5 435.06,-296.5 435.06,-296.5 435.06,-123.5 435.06,-92.76 437.93,-78.6 416.06,-57 380.74,-22.12 321.47,-13.31 283.86,-11.45"/>
<polygon fill="midnightblue" stroke="midnightblue" points="283.52,-7.93 273.4,-11.08 283.27,-14.93 283.52,-7.93"/>
</g>
<!-- Node4 -->
<g id="node4" class="node">
<title>Node4</title>
<g id="a_node4"><a xlink:href="game_8h.html" target="_top" xlink:title=" ">
<polygon fill="none" stroke="black" points="18.38,-285.5 18.38,-305.5 67.74,-305.5 67.74,-285.5 18.38,-285.5"/>
<text text-anchor="middle" x="43.06" y="-292.5" font-family="Helvetica,sans-Serif" font-size="10.00">game.h</text>
</a>
</g>
</g>
<!-- Node1&#45;&gt;Node4 -->
<g id="edge3" class="edge">
<title>Node1&#45;&gt;Node4</title>
<path fill="none" stroke="midnightblue" d="M213.84,-399.33C181.47,-379.84 105.59,-334.15 66.8,-310.8"/>
<polygon fill="midnightblue" stroke="midnightblue" points="68.6,-307.8 58.23,-305.63 64.99,-313.79 68.6,-307.8"/>
</g>
<!-- Node11 -->
<g id="node11" class="node">
<title>Node11</title>
<g id="a_node11"><a xlink:href="scenes_8h.html" target="_top" xlink:title=" ">
<polygon fill="none" stroke="black" points="201.05,-342.5 201.05,-362.5 257.07,-362.5 257.07,-342.5 201.05,-342.5"/>
<text text-anchor="middle" x="229.06" y="-349.5" font-family="Helvetica,sans-Serif" font-size="10.00">scenes.h</text>
</a>
</g>
</g>
<!-- Node1&#45;&gt;Node11 -->
<g id="edge15" class="edge">
<title>Node1&#45;&gt;Node11</title>
<path fill="none" stroke="midnightblue" d="M229.06,-399.42C229.06,-392.22 229.06,-381.9 229.06,-372.86"/>
<polygon fill="midnightblue" stroke="midnightblue" points="232.56,-372.78 229.06,-362.78 225.56,-372.78 232.56,-372.78"/>
</g>
<!-- Node17 -->
<g id="node17" class="node">
<title>Node17</title>
<g id="a_node17"><a xlink:title=" ">
<polygon fill="none" stroke="#bfbfbf" points="463.55,-342.5 463.55,-362.5 514.57,-362.5 514.57,-342.5 463.55,-342.5"/>
<text text-anchor="middle" x="489.06" y="-349.5" font-family="Helvetica,sans-Serif" font-size="10.00">config.h</text>
</a>
</g>
</g>
<!-- Node1&#45;&gt;Node17 -->
<g id="edge30" class="edge">
<title>Node1&#45;&gt;Node17</title>
<path fill="none" stroke="midnightblue" d="M257.6,-402.88C299.6,-394.53 380.52,-378.22 449.06,-363 450.5,-362.68 451.96,-362.35 453.44,-362.02"/>
<polygon fill="midnightblue" stroke="midnightblue" points="454.31,-365.41 463.26,-359.74 452.73,-358.59 454.31,-365.41"/>
</g>
<!-- Node4&#45;&gt;Node2 -->
<g id="edge4" class="edge">
<title>Node4&#45;&gt;Node2</title>
<path fill="none" stroke="midnightblue" d="M42.24,-285.33C40.62,-267.2 36.98,-226.41 34.8,-202"/>
<polygon fill="midnightblue" stroke="midnightblue" points="38.26,-201.44 33.89,-191.79 31.29,-202.06 38.26,-201.44"/>
</g>
<!-- Node5 -->
<g id="node5" class="node">
<title>Node5</title>
<g id="a_node5"><a xlink:href="scene_8h.html" target="_top" xlink:title=" ">
<polygon fill="none" stroke="black" points="104.55,-228.5 104.55,-248.5 155.57,-248.5 155.57,-228.5 104.55,-228.5"/>
<text text-anchor="middle" x="130.06" y="-235.5" font-family="Helvetica,sans-Serif" font-size="10.00">scene.h</text>
</a>
</g>
</g>
<!-- Node4&#45;&gt;Node5 -->
<g id="edge5" class="edge">
<title>Node4&#45;&gt;Node5</title>
<path fill="none" stroke="midnightblue" d="M57.43,-285.42C70.9,-276.9 91.28,-264.02 107.02,-254.06"/>
<polygon fill="midnightblue" stroke="midnightblue" points="109.09,-256.9 115.67,-248.6 105.35,-250.98 109.09,-256.9"/>
</g>
<!-- Node5&#45;&gt;Node2 -->
<g id="edge7" class="edge">
<title>Node5&#45;&gt;Node2</title>
<path fill="none" stroke="midnightblue" d="M114.04,-228.42C98.88,-219.82 75.87,-206.78 58.25,-196.78"/>
<polygon fill="midnightblue" stroke="midnightblue" points="59.53,-193.48 49.1,-191.6 56.07,-199.57 59.53,-193.48"/>
</g>
<!-- Node5&#45;&gt;Node3 -->
<g id="edge8" class="edge">
<title>Node5&#45;&gt;Node3</title>
<path fill="none" stroke="midnightblue" d="M131.3,-228.2C134.33,-207.2 143.1,-154.74 160.06,-114 171.49,-86.56 175.67,-79.53 195.06,-57 204.78,-45.71 217.44,-34.89 228.05,-26.63"/>
<polygon fill="midnightblue" stroke="midnightblue" points="230.17,-29.42 236.04,-20.6 225.95,-23.83 230.17,-29.42"/>
</g>
<!-- Node6 -->
<g id="node6" class="node">
<title>Node6</title>
<g id="a_node6"><a xlink:title=" ">
<polygon fill="none" stroke="#bfbfbf" points="71.33,-171.5 71.33,-191.5 106.79,-191.5 106.79,-171.5 71.33,-171.5"/>
<text text-anchor="middle" x="89.06" y="-178.5" font-family="Helvetica,sans-Serif" font-size="10.00">map</text>
</a>
</g>
</g>
<!-- Node5&#45;&gt;Node6 -->
<g id="edge6" class="edge">
<title>Node5&#45;&gt;Node6</title>
<path fill="none" stroke="midnightblue" d="M123.29,-228.42C117.51,-220.66 109.03,-209.29 101.96,-199.8"/>
<polygon fill="midnightblue" stroke="midnightblue" points="104.76,-197.71 95.98,-191.78 99.15,-201.89 104.76,-197.71"/>
</g>
<!-- Node7 -->
<g id="node7" class="node">
<title>Node7</title>
<g id="a_node7"><a xlink:href="actor_8h.html" target="_top" xlink:title=" ">
<polygon fill="none" stroke="black" points="162.77,-171.5 162.77,-191.5 209.35,-191.5 209.35,-171.5 162.77,-171.5"/>
<text text-anchor="middle" x="186.06" y="-178.5" font-family="Helvetica,sans-Serif" font-size="10.00">actor.h</text>
</a>
</g>
</g>
<!-- Node5&#45;&gt;Node7 -->
<g id="edge9" class="edge">
<title>Node5&#45;&gt;Node7</title>
<path fill="none" stroke="midnightblue" d="M139.31,-228.42C147.45,-220.42 159.49,-208.59 169.32,-198.94"/>
<polygon fill="midnightblue" stroke="midnightblue" points="171.93,-201.28 176.61,-191.78 167.02,-196.29 171.93,-201.28"/>
</g>
<!-- Node8 -->
<g id="node8" class="node">
<title>Node8</title>
<g id="a_node8"><a xlink:href="sprite_8h.html" target="_top" xlink:title=" ">
<polygon fill="none" stroke="black" points="168.66,-114.5 168.66,-134.5 217.46,-134.5 217.46,-114.5 168.66,-114.5"/>
<text text-anchor="middle" x="193.06" y="-121.5" font-family="Helvetica,sans-Serif" font-size="10.00">sprite.h</text>
</a>
</g>
</g>
<!-- Node7&#45;&gt;Node8 -->
<g id="edge10" class="edge">
<title>Node7&#45;&gt;Node8</title>
<path fill="none" stroke="midnightblue" d="M187.22,-171.42C188.13,-164.22 189.45,-153.9 190.6,-144.86"/>
<polygon fill="midnightblue" stroke="midnightblue" points="194.09,-145.14 191.88,-134.78 187.14,-144.26 194.09,-145.14"/>
</g>
<!-- Node8&#45;&gt;Node3 -->
<g id="edge12" class="edge">
<title>Node8&#45;&gt;Node3</title>
<path fill="none" stroke="midnightblue" d="M193.45,-114.39C194.36,-101.08 197.32,-75.87 207.06,-57 212.74,-46 221.81,-35.68 230.07,-27.67"/>
<polygon fill="midnightblue" stroke="midnightblue" points="232.62,-30.08 237.61,-20.74 227.88,-24.93 232.62,-30.08"/>
</g>
<!-- Node9 -->
<g id="node9" class="node">
<title>Node9</title>
<g id="a_node9"><a xlink:title=" ">
<polygon fill="none" stroke="#bfbfbf" points="355,-57.5 355,-77.5 407.12,-77.5 407.12,-57.5 355,-57.5"/>
<text text-anchor="middle" x="381.06" y="-64.5" font-family="Helvetica,sans-Serif" font-size="10.00">memory</text>
</a>
</g>
</g>
<!-- Node8&#45;&gt;Node9 -->
<g id="edge11" class="edge">
<title>Node8&#45;&gt;Node9</title>
<path fill="none" stroke="midnightblue" d="M217.64,-116.31C250.12,-106.81 307.58,-90 344.98,-79.05"/>
<polygon fill="midnightblue" stroke="midnightblue" points="346.35,-82.3 354.97,-76.13 344.38,-75.58 346.35,-82.3"/>
</g>
<!-- Node10 -->
<g id="node10" class="node">
<title>Node10</title>
<g id="a_node10"><a xlink:href="texture2d_8h.html" target="_top" xlink:title=" ">
<polygon fill="none" stroke="black" points="216.04,-57.5 216.04,-77.5 282.08,-77.5 282.08,-57.5 216.04,-57.5"/>
<text text-anchor="middle" x="249.06" y="-64.5" font-family="Helvetica,sans-Serif" font-size="10.00">texture2d.h</text>
</a>
</g>
</g>
<!-- Node8&#45;&gt;Node10 -->
<g id="edge13" class="edge">
<title>Node8&#45;&gt;Node10</title>
<path fill="none" stroke="midnightblue" d="M202.31,-114.42C210.45,-106.42 222.49,-94.59 232.32,-84.94"/>
<polygon fill="midnightblue" stroke="midnightblue" points="234.93,-87.28 239.61,-77.78 230.02,-82.29 234.93,-87.28"/>
</g>
<!-- Node10&#45;&gt;Node3 -->
<g id="edge14" class="edge">
<title>Node10&#45;&gt;Node3</title>
<path fill="none" stroke="midnightblue" d="M249.06,-57.42C249.06,-50.22 249.06,-39.9 249.06,-30.86"/>
<polygon fill="midnightblue" stroke="midnightblue" points="252.56,-30.78 249.06,-20.78 245.56,-30.78 252.56,-30.78"/>
</g>
<!-- Node12 -->
<g id="node12" class="node">
<title>Node12</title>
<g id="a_node12"><a xlink:href="menu__scene_8h.html" target="_top" xlink:title=" ">
<polygon fill="none" stroke="black" points="188.26,-285.5 188.26,-305.5 269.86,-305.5 269.86,-285.5 188.26,-285.5"/>
<text text-anchor="middle" x="229.06" y="-292.5" font-family="Helvetica,sans-Serif" font-size="10.00">menu_scene.h</text>
</a>
</g>
</g>
<!-- Node11&#45;&gt;Node12 -->
<g id="edge16" class="edge">
<title>Node11&#45;&gt;Node12</title>
<path fill="none" stroke="midnightblue" d="M229.06,-342.42C229.06,-335.22 229.06,-324.9 229.06,-315.86"/>
<polygon fill="midnightblue" stroke="midnightblue" points="232.56,-315.78 229.06,-305.78 225.56,-315.78 232.56,-315.78"/>
</g>
<!-- Node13 -->
<g id="node13" class="node">
<title>Node13</title>
<g id="a_node13"><a xlink:href="game__scene_8h.html" target="_top" xlink:title=" ">
<polygon fill="none" stroke="black" points="288.26,-285.5 288.26,-305.5 369.86,-305.5 369.86,-285.5 288.26,-285.5"/>
<text text-anchor="middle" x="329.06" y="-292.5" font-family="Helvetica,sans-Serif" font-size="10.00">game_scene.h</text>
</a>
</g>
</g>
<!-- Node11&#45;&gt;Node13 -->
<g id="edge18" class="edge">
<title>Node11&#45;&gt;Node13</title>
<path fill="none" stroke="midnightblue" d="M245.57,-342.42C261.35,-333.74 285.36,-320.53 303.59,-310.51"/>
<polygon fill="midnightblue" stroke="midnightblue" points="305.45,-313.48 312.52,-305.6 302.07,-307.35 305.45,-313.48"/>
</g>
<!-- Node16 -->
<g id="node16" class="node">
<title>Node16</title>
<g id="a_node16"><a xlink:href="pause__scene_8h.html" target="_top" xlink:title=" ">
<polygon fill="none" stroke="black" points="86.14,-285.5 86.14,-305.5 169.98,-305.5 169.98,-285.5 86.14,-285.5"/>
<text text-anchor="middle" x="128.06" y="-292.5" font-family="Helvetica,sans-Serif" font-size="10.00">pause_scene.h</text>
</a>
</g>
</g>
<!-- Node11&#45;&gt;Node16 -->
<g id="edge28" class="edge">
<title>Node11&#45;&gt;Node16</title>
<path fill="none" stroke="midnightblue" d="M212.38,-342.42C196.45,-333.74 172.19,-320.53 153.78,-310.51"/>
<polygon fill="midnightblue" stroke="midnightblue" points="155.22,-307.3 144.76,-305.6 151.87,-313.45 155.22,-307.3"/>
</g>
<!-- Node12&#45;&gt;Node5 -->
<g id="edge17" class="edge">
<title>Node12&#45;&gt;Node5</title>
<path fill="none" stroke="midnightblue" d="M212.71,-285.42C197.09,-276.74 173.32,-263.53 155.27,-253.51"/>
<polygon fill="midnightblue" stroke="midnightblue" points="156.87,-250.39 146.43,-248.6 153.47,-256.51 156.87,-250.39"/>
</g>
<!-- Node13&#45;&gt;Node5 -->
<g id="edge21" class="edge">
<title>Node13&#45;&gt;Node5</title>
<path fill="none" stroke="midnightblue" d="M296.2,-285.42C260.18,-275.46 202.58,-259.54 165.55,-249.31"/>
<polygon fill="midnightblue" stroke="midnightblue" points="166.25,-245.87 155.68,-246.58 164.39,-252.62 166.25,-245.87"/>
</g>
<!-- Node13&#45;&gt;Node7 -->
<g id="edge20" class="edge">
<title>Node13&#45;&gt;Node7</title>
<path fill="none" stroke="midnightblue" d="M292.86,-285.44C270.67,-278.43 242.83,-266.85 223.06,-249 208.7,-236.04 198.66,-216.14 192.7,-201.49"/>
<polygon fill="midnightblue" stroke="midnightblue" points="195.89,-200.03 189.07,-191.92 189.34,-202.51 195.89,-200.03"/>
</g>
<!-- Node13&#45;&gt;Node8 -->
<g id="edge22" class="edge">
<title>Node13&#45;&gt;Node8</title>
<path fill="none" stroke="midnightblue" d="M321.75,-285.41C299.98,-258.36 235.34,-178.04 206.83,-142.61"/>
<polygon fill="midnightblue" stroke="midnightblue" points="209.4,-140.23 200.41,-134.63 203.95,-144.62 209.4,-140.23"/>
</g>
<!-- Node13&#45;&gt;Node9 -->
<g id="edge19" class="edge">
<title>Node13&#45;&gt;Node9</title>
<path fill="none" stroke="midnightblue" d="M333.72,-285.47C342.52,-267.97 361.46,-227.98 370.06,-192 378.7,-155.85 380.69,-112.29 381.07,-87.75"/>
<polygon fill="midnightblue" stroke="midnightblue" points="384.57,-87.66 381.15,-77.63 377.57,-87.61 384.57,-87.66"/>
</g>
<!-- Node14 -->
<g id="node14" class="node">
<title>Node14</title>
<g id="a_node14"><a xlink:href="sprite__animated_8h.html" target="_top" xlink:title=" ">
<polygon fill="none" stroke="black" points="265.31,-171.5 265.31,-191.5 360.81,-191.5 360.81,-171.5 265.31,-171.5"/>
<text text-anchor="middle" x="313.06" y="-178.5" font-family="Helvetica,sans-Serif" font-size="10.00">sprite_animated.h</text>
</a>
</g>
</g>
<!-- Node13&#45;&gt;Node14 -->
<g id="edge23" class="edge">
<title>Node13&#45;&gt;Node14</title>
<path fill="none" stroke="midnightblue" d="M327.75,-285.33C325.16,-267.2 319.33,-226.41 315.85,-202"/>
<polygon fill="midnightblue" stroke="midnightblue" points="319.27,-201.2 314.39,-191.79 312.34,-202.19 319.27,-201.2"/>
</g>
<!-- Node14&#45;&gt;Node3 -->
<g id="edge25" class="edge">
<title>Node14&#45;&gt;Node3</title>
<path fill="none" stroke="midnightblue" d="M317.53,-171.35C323.24,-158.43 331.75,-134.15 326.06,-114 316.01,-78.42 286.58,-45.86 267.15,-27.38"/>
<polygon fill="midnightblue" stroke="midnightblue" points="269.5,-24.78 259.77,-20.57 264.75,-29.92 269.5,-24.78"/>
</g>
<!-- Node14&#45;&gt;Node8 -->
<g id="edge27" class="edge">
<title>Node14&#45;&gt;Node8</title>
<path fill="none" stroke="midnightblue" d="M293.24,-171.42C273.88,-162.54 244.17,-148.93 222.13,-138.82"/>
<polygon fill="midnightblue" stroke="midnightblue" points="223.45,-135.58 212.9,-134.6 220.54,-141.94 223.45,-135.58"/>
</g>
<!-- Node14&#45;&gt;Node10 -->
<g id="edge26" class="edge">
<title>Node14&#45;&gt;Node10</title>
<path fill="none" stroke="midnightblue" d="M299.28,-171.32C288.07,-163.12 272.74,-150.09 264.06,-135 255.76,-120.57 252.05,-101.93 250.4,-88.06"/>
<polygon fill="midnightblue" stroke="midnightblue" points="253.85,-87.35 249.43,-77.72 246.88,-88 253.85,-87.35"/>
</g>
<!-- Node15 -->
<g id="node15" class="node">
<title>Node15</title>
<g id="a_node15"><a xlink:title=" ">
<polygon fill="none" stroke="#bfbfbf" points="273.44,-114.5 273.44,-134.5 316.68,-134.5 316.68,-114.5 273.44,-114.5"/>
<text text-anchor="middle" x="295.06" y="-121.5" font-family="Helvetica,sans-Serif" font-size="10.00">vector</text>
</a>
</g>
</g>
<!-- Node14&#45;&gt;Node15 -->
<g id="edge24" class="edge">
<title>Node14&#45;&gt;Node15</title>
<path fill="none" stroke="midnightblue" d="M310.09,-171.42C307.7,-164.14 304.28,-153.67 301.3,-144.57"/>
<polygon fill="midnightblue" stroke="midnightblue" points="304.53,-143.19 298.1,-134.78 297.88,-145.37 304.53,-143.19"/>
</g>
<!-- Node16&#45;&gt;Node5 -->
<g id="edge29" class="edge">
<title>Node16&#45;&gt;Node5</title>
<path fill="none" stroke="midnightblue" d="M128.39,-285.42C128.65,-278.22 129.03,-267.9 129.36,-258.86"/>
<polygon fill="midnightblue" stroke="midnightblue" points="132.86,-258.9 129.72,-248.78 125.86,-258.65 132.86,-258.9"/>
</g>
</g>
</svg>
