<?xml version="1.0" encoding="UTF-8" standalone="no"?>
<!DOCTYPE svg PUBLIC "-//W3C//DTD SVG 1.1//EN"
 "http://www.w3.org/Graphics/SVG/1.1/DTD/svg11.dtd">
<!-- Generated by graphviz version 3.0.0 (20220226.1711)
 -->
<!-- Title: pause_scene.h Pages: 1 -->
<svg width="332pt" height="314pt"
 viewBox="0.00 0.00 331.74 314.00" xmlns="http://www.w3.org/2000/svg" xmlns:xlink="http://www.w3.org/1999/xlink">
<g id="graph0" class="graph" transform="scale(1 1) rotate(0) translate(4 310)">
<title>pause_scene.h</title>
<!-- Node1 -->
<g id="node1" class="node">
<title>Node1</title>
<g id="a_node1"><a xlink:title=" ">
<polygon fill="#bfbfbf" stroke="black" points="55.81,-285.5 55.81,-305.5 139.64,-305.5 139.64,-285.5 55.81,-285.5"/>
<text text-anchor="middle" x="97.73" y="-292.5" font-family="Helvetica,sans-Serif" font-size="10.00">pause_scene.h</text>
</a>
</g>
</g>
<!-- Node2 -->
<g id="node2" class="node">
<title>Node2</title>
<g id="a_node2"><a xlink:href="scene_8h.html" target="_top" xlink:title=" ">
<polygon fill="none" stroke="black" points="72.21,-228.5 72.21,-248.5 123.24,-248.5 123.24,-228.5 72.21,-228.5"/>
<text text-anchor="middle" x="97.73" y="-235.5" font-family="Helvetica,sans-Serif" font-size="10.00">scene.h</text>
</a>
</g>
</g>
<!-- Node1&#45;&gt;Node2 -->
<g id="edge1" class="edge">
<title>Node1&#45;&gt;Node2</title>
<path fill="none" stroke="midnightblue" d="M97.73,-285.42C97.73,-278.22 97.73,-267.9 97.73,-258.86"/>
<polygon fill="midnightblue" stroke="midnightblue" points="101.23,-258.78 97.73,-248.78 94.23,-258.78 101.23,-258.78"/>
</g>
<!-- Node3 -->
<g id="node3" class="node">
<title>Node3</title>
<g id="a_node3"><a xlink:title=" ">
<polygon fill="none" stroke="#bfbfbf" points="0,-171.5 0,-191.5 35.45,-191.5 35.45,-171.5 0,-171.5"/>
<text text-anchor="middle" x="17.73" y="-178.5" font-family="Helvetica,sans-Serif" font-size="10.00">map</text>
</a>
</g>
</g>
<!-- Node2&#45;&gt;Node3 -->
<g id="edge2" class="edge">
<title>Node2&#45;&gt;Node3</title>
<path fill="none" stroke="midnightblue" d="M84.52,-228.42C72.24,-219.98 53.74,-207.26 39.32,-197.34"/>
<polygon fill="midnightblue" stroke="midnightblue" points="41.18,-194.38 30.96,-191.6 37.21,-200.15 41.18,-194.38"/>
</g>
<!-- Node4 -->
<g id="node4" class="node">
<title>Node4</title>
<g id="a_node4"><a xlink:title=" ">
<polygon fill="none" stroke="#bfbfbf" points="53.5,-171.5 53.5,-191.5 93.95,-191.5 93.95,-171.5 53.5,-171.5"/>
<text text-anchor="middle" x="73.73" y="-178.5" font-family="Helvetica,sans-Serif" font-size="10.00">string</text>
</a>
</g>
</g>
<!-- Node2&#45;&gt;Node4 -->
<g id="edge3" class="edge">
<title>Node2&#45;&gt;Node4</title>
<path fill="none" stroke="midnightblue" d="M93.76,-228.42C90.52,-220.98 85.82,-210.21 81.79,-200.97"/>
<polygon fill="midnightblue" stroke="midnightblue" points="84.98,-199.55 77.78,-191.78 78.57,-202.34 84.98,-199.55"/>
</g>
<!-- Node5 -->
<g id="node5" class="node">
<title>Node5</title>
<g id="a_node5"><a xlink:title=" ">
<polygon fill="none" stroke="#bfbfbf" points="135.61,-0.5 135.61,-20.5 183.84,-20.5 183.84,-0.5 135.61,-0.5"/>
<text text-anchor="middle" x="159.73" y="-7.5" font-family="Helvetica,sans-Serif" font-size="10.00">raylib.h</text>
</a>
</g>
</g>
<!-- Node2&#45;&gt;Node5 -->
<g id="edge4" class="edge">
<title>Node2&#45;&gt;Node5</title>
<path fill="none" stroke="midnightblue" d="M100.23,-228.36C109.48,-194.64 141.82,-76.77 154.53,-30.42"/>
<polygon fill="midnightblue" stroke="midnightblue" points="157.99,-31.08 157.26,-20.51 151.24,-29.22 157.99,-31.08"/>
</g>
<!-- Node6 -->
<g id="node6" class="node">
<title>Node6</title>
<g id="a_node6"><a xlink:href="actor_8h.html" target="_top" xlink:title=" ">
<polygon fill="none" stroke="black" points="160.44,-171.5 160.44,-191.5 207.01,-191.5 207.01,-171.5 160.44,-171.5"/>
<text text-anchor="middle" x="183.73" y="-178.5" font-family="Helvetica,sans-Serif" font-size="10.00">actor.h</text>
</a>
</g>
</g>
<!-- Node2&#45;&gt;Node6 -->
<g id="edge5" class="edge">
<title>Node2&#45;&gt;Node6</title>
<path fill="none" stroke="midnightblue" d="M111.93,-228.42C125.25,-219.9 145.39,-207.02 160.96,-197.06"/>
<polygon fill="midnightblue" stroke="midnightblue" points="162.97,-199.93 169.5,-191.6 159.19,-194.03 162.97,-199.93"/>
</g>
<!-- Node7 -->
<g id="node7" class="node">
<title>Node7</title>
<g id="a_node7"><a xlink:href="sprite_8h.html" target="_top" xlink:title=" ">
<polygon fill="none" stroke="black" points="169.33,-114.5 169.33,-134.5 218.12,-134.5 218.12,-114.5 169.33,-114.5"/>
<text text-anchor="middle" x="193.73" y="-121.5" font-family="Helvetica,sans-Serif" font-size="10.00">sprite.h</text>
</a>
</g>
</g>
<!-- Node6&#45;&gt;Node7 -->
<g id="edge6" class="edge">
<title>Node6&#45;&gt;Node7</title>
<path fill="none" stroke="midnightblue" d="M185.38,-171.42C186.69,-164.22 188.56,-153.9 190.21,-144.86"/>
<polygon fill="midnightblue" stroke="midnightblue" points="193.69,-145.24 192.04,-134.78 186.81,-143.99 193.69,-145.24"/>
</g>
<!-- Node7&#45;&gt;Node5 -->
<g id="edge8" class="edge">
<title>Node7&#45;&gt;Node5</title>
<path fill="none" stroke="midnightblue" d="M190.63,-114.47C187.52,-105.31 182.64,-90.72 178.73,-78 173.82,-62.04 168.64,-43.8 164.93,-30.46"/>
<polygon fill="midnightblue" stroke="midnightblue" points="168.23,-29.28 162.19,-20.57 161.48,-31.14 168.23,-29.28"/>
</g>
<!-- Node8 -->
<g id="node8" class="node">
<title>Node8</title>
<g id="a_node8"><a xlink:title=" ">
<polygon fill="none" stroke="#bfbfbf" points="187.67,-57.5 187.67,-77.5 239.78,-77.5 239.78,-57.5 187.67,-57.5"/>
<text text-anchor="middle" x="213.73" y="-64.5" font-family="Helvetica,sans-Serif" font-size="10.00">memory</text>
</a>
</g>
</g>
<!-- Node7&#45;&gt;Node8 -->
<g id="edge7" class="edge">
<title>Node7&#45;&gt;Node8</title>
<path fill="none" stroke="midnightblue" d="M197.03,-114.42C199.71,-107.06 203.57,-96.44 206.9,-87.27"/>
<polygon fill="midnightblue" stroke="midnightblue" points="210.22,-88.37 210.35,-77.78 203.65,-85.98 210.22,-88.37"/>
</g>
<!-- Node9 -->
<g id="node9" class="node">
<title>Node9</title>
<g id="a_node9"><a xlink:href="texture2d_8h.html" target="_top" xlink:title=" ">
<polygon fill="none" stroke="black" points="257.71,-57.5 257.71,-77.5 323.74,-77.5 323.74,-57.5 257.71,-57.5"/>
<text text-anchor="middle" x="290.73" y="-64.5" font-family="Helvetica,sans-Serif" font-size="10.00">texture2d.h</text>
</a>
</g>
</g>
<!-- Node7&#45;&gt;Node9 -->
<g id="edge9" class="edge">
<title>Node7&#45;&gt;Node9</title>
<path fill="none" stroke="midnightblue" d="M209.74,-114.42C224.91,-105.82 247.91,-92.78 265.53,-82.78"/>
<polygon fill="midnightblue" stroke="midnightblue" points="267.71,-85.57 274.69,-77.6 264.26,-79.48 267.71,-85.57"/>
</g>
<!-- Node9&#45;&gt;Node5 -->
<g id="edge10" class="edge">
<title>Node9&#45;&gt;Node5</title>
<path fill="none" stroke="midnightblue" d="M269.09,-57.42C247.76,-48.46 214.94,-34.68 190.81,-24.55"/>
<polygon fill="midnightblue" stroke="midnightblue" points="191.97,-21.24 181.39,-20.6 189.26,-27.69 191.97,-21.24"/>
</g>
</g>
</svg>
