<?xml version="1.0" encoding="UTF-8" standalone="no"?>
<!DOCTYPE svg PUBLIC "-//W3C//DTD SVG 1.1//EN"
 "http://www.w3.org/Graphics/SVG/1.1/DTD/svg11.dtd">
<!-- Generated by graphviz version 3.0.0 (20220226.1711)
 -->
<!-- Title: pause_scene.cpp Pages: 1 -->
<svg width="788pt" height="428pt"
 viewBox="0.00 0.00 788.02 428.00" xmlns="http://www.w3.org/2000/svg" xmlns:xlink="http://www.w3.org/1999/xlink">
<g id="graph0" class="graph" transform="scale(1 1) rotate(0) translate(4 424)">
<title>pause_scene.cpp</title>
<!-- Node1 -->
<g id="node1" class="node">
<title>Node1</title>
<g id="a_node1"><a xlink:title=" ">
<polygon fill="#bfbfbf" stroke="black" points="474.42,-399.5 474.42,-419.5 568.81,-419.5 568.81,-399.5 474.42,-399.5"/>
<text text-anchor="middle" x="521.62" y="-406.5" font-family="Helvetica,sans-Serif" font-size="10.00">pause_scene.cpp</text>
</a>
</g>
</g>
<!-- Node2 -->
<g id="node2" class="node">
<title>Node2</title>
<g id="a_node2"><a xlink:title=" ">
<polygon fill="none" stroke="#bfbfbf" points="377.39,-171.5 377.39,-191.5 417.84,-191.5 417.84,-171.5 377.39,-171.5"/>
<text text-anchor="middle" x="397.62" y="-178.5" font-family="Helvetica,sans-Serif" font-size="10.00">string</text>
</a>
</g>
</g>
<!-- Node1&#45;&gt;Node2 -->
<g id="edge1" class="edge">
<title>Node1&#45;&gt;Node2</title>
<path fill="none" stroke="midnightblue" d="M513.39,-399.19C493.14,-375.75 440.55,-311.68 413.62,-249 407.1,-233.83 402.94,-215.52 400.5,-201.95"/>
<polygon fill="midnightblue" stroke="midnightblue" points="403.91,-201.15 398.84,-191.85 397.01,-202.28 403.91,-201.15"/>
</g>
<!-- Node3 -->
<g id="node3" class="node">
<title>Node3</title>
<g id="a_node3"><a xlink:title=" ">
<polygon fill="none" stroke="#bfbfbf" points="701.21,-342.5 701.21,-362.5 780.02,-362.5 780.02,-342.5 701.21,-342.5"/>
<text text-anchor="middle" x="740.62" y="-349.5" font-family="Helvetica,sans-Serif" font-size="10.00">raylib&#45;cpp.hpp</text>
</a>
</g>
</g>
<!-- Node1&#45;&gt;Node3 -->
<g id="edge2" class="edge">
<title>Node1&#45;&gt;Node3</title>
<path fill="none" stroke="midnightblue" d="M557.78,-399.42C595.3,-390 654.08,-375.23 694.82,-365"/>
<polygon fill="midnightblue" stroke="midnightblue" points="695.92,-368.33 704.76,-362.5 694.21,-361.55 695.92,-368.33"/>
</g>
<!-- Node4 -->
<g id="node4" class="node">
<title>Node4</title>
<g id="a_node4"><a xlink:title=" ">
<polygon fill="none" stroke="#bfbfbf" points="325.5,-0.5 325.5,-20.5 373.73,-20.5 373.73,-0.5 325.5,-0.5"/>
<text text-anchor="middle" x="349.62" y="-7.5" font-family="Helvetica,sans-Serif" font-size="10.00">raylib.h</text>
</a>
</g>
</g>
<!-- Node1&#45;&gt;Node4 -->
<g id="edge3" class="edge">
<title>Node1&#45;&gt;Node4</title>
<path fill="none" stroke="midnightblue" d="M556.87,-399.43C601.77,-385.49 673.62,-354.19 673.62,-296.5 673.62,-296.5 673.62,-296.5 673.62,-123.5 673.62,-84.28 649.81,-76.2 615.62,-57 576.42,-35 446.52,-20.41 383.92,-14.49"/>
<polygon fill="midnightblue" stroke="midnightblue" points="384.05,-10.99 373.77,-13.55 383.4,-17.96 384.05,-10.99"/>
</g>
<!-- Node5 -->
<g id="node5" class="node">
<title>Node5</title>
<g id="a_node5"><a xlink:href="store_8h.html" target="_top" xlink:title=" ">
<polygon fill="none" stroke="black" points="498.33,-342.5 498.33,-362.5 544.9,-362.5 544.9,-342.5 498.33,-342.5"/>
<text text-anchor="middle" x="521.62" y="-349.5" font-family="Helvetica,sans-Serif" font-size="10.00">store.h</text>
</a>
</g>
</g>
<!-- Node1&#45;&gt;Node5 -->
<g id="edge4" class="edge">
<title>Node1&#45;&gt;Node5</title>
<path fill="none" stroke="midnightblue" d="M521.62,-399.42C521.62,-392.22 521.62,-381.9 521.62,-372.86"/>
<polygon fill="midnightblue" stroke="midnightblue" points="525.12,-372.78 521.62,-362.78 518.12,-372.78 525.12,-372.78"/>
</g>
<!-- Node13 -->
<g id="node13" class="node">
<title>Node13</title>
<g id="a_node13"><a xlink:href="scenes_8h.html" target="_top" xlink:title=" ">
<polygon fill="none" stroke="black" points="234.6,-342.5 234.6,-362.5 290.63,-362.5 290.63,-342.5 234.6,-342.5"/>
<text text-anchor="middle" x="262.62" y="-349.5" font-family="Helvetica,sans-Serif" font-size="10.00">scenes.h</text>
</a>
</g>
</g>
<!-- Node1&#45;&gt;Node13 -->
<g id="edge24" class="edge">
<title>Node1&#45;&gt;Node13</title>
<path fill="none" stroke="midnightblue" d="M479.14,-399.48C429.53,-388.95 348.23,-371.68 300.63,-361.57"/>
<polygon fill="midnightblue" stroke="midnightblue" points="301.23,-358.12 290.72,-359.47 299.78,-364.97 301.23,-358.12"/>
</g>
<!-- Node5&#45;&gt;Node4 -->
<g id="edge6" class="edge">
<title>Node5&#45;&gt;Node4</title>
<path fill="none" stroke="midnightblue" d="M542.79,-342.41C575.76,-326.65 635.62,-290.97 635.62,-239.5 635.62,-239.5 635.62,-239.5 635.62,-123.5 635.62,-87.05 618.36,-76.59 587.62,-57 554.3,-35.77 441.77,-21.2 384.19,-14.95"/>
<polygon fill="midnightblue" stroke="midnightblue" points="384.42,-11.45 374.11,-13.88 383.68,-18.41 384.42,-11.45"/>
</g>
<!-- Node6 -->
<g id="node6" class="node">
<title>Node6</title>
<g id="a_node6"><a xlink:title=" ">
<polygon fill="none" stroke="#bfbfbf" points="511.89,-171.5 511.89,-191.5 547.34,-191.5 547.34,-171.5 511.89,-171.5"/>
<text text-anchor="middle" x="529.62" y="-178.5" font-family="Helvetica,sans-Serif" font-size="10.00">map</text>
</a>
</g>
</g>
<!-- Node5&#45;&gt;Node6 -->
<g id="edge5" class="edge">
<title>Node5&#45;&gt;Node6</title>
<path fill="none" stroke="midnightblue" d="M522.05,-342.41C523.3,-315.94 526.97,-238.42 528.7,-201.92"/>
<polygon fill="midnightblue" stroke="midnightblue" points="532.21,-201.79 529.18,-191.63 525.21,-201.45 532.21,-201.79"/>
</g>
<!-- Node7 -->
<g id="node7" class="node">
<title>Node7</title>
<g id="a_node7"><a xlink:href="stage_8h.html" target="_top" xlink:title=" ">
<polygon fill="none" stroke="black" points="459.21,-285.5 459.21,-305.5 508.02,-305.5 508.02,-285.5 459.21,-285.5"/>
<text text-anchor="middle" x="483.62" y="-292.5" font-family="Helvetica,sans-Serif" font-size="10.00">stage.h</text>
</a>
</g>
</g>
<!-- Node5&#45;&gt;Node7 -->
<g id="edge7" class="edge">
<title>Node5&#45;&gt;Node7</title>
<path fill="none" stroke="midnightblue" d="M515.34,-342.42C510.04,-334.74 502.29,-323.52 495.77,-314.09"/>
<polygon fill="midnightblue" stroke="midnightblue" points="498.59,-312.02 490.03,-305.78 492.83,-316 498.59,-312.02"/>
</g>
<!-- Node10 -->
<g id="node10" class="node">
<title>Node10</title>
<g id="a_node10"><a xlink:href="actor_8h.html" target="_top" xlink:title=" ">
<polygon fill="none" stroke="black" points="231.33,-171.5 231.33,-191.5 277.9,-191.5 277.9,-171.5 231.33,-171.5"/>
<text text-anchor="middle" x="254.62" y="-178.5" font-family="Helvetica,sans-Serif" font-size="10.00">actor.h</text>
</a>
</g>
</g>
<!-- Node5&#45;&gt;Node10 -->
<g id="edge23" class="edge">
<title>Node5&#45;&gt;Node10</title>
<path fill="none" stroke="midnightblue" d="M498.07,-350.3C443.63,-347.02 311.34,-336.09 280.62,-306 252.54,-278.5 251.04,-228.9 252.66,-201.68"/>
<polygon fill="midnightblue" stroke="midnightblue" points="256.17,-201.76 253.48,-191.51 249.19,-201.2 256.17,-201.76"/>
</g>
<!-- Node7&#45;&gt;Node2 -->
<g id="edge9" class="edge">
<title>Node7&#45;&gt;Node2</title>
<path fill="none" stroke="midnightblue" d="M470.39,-285.19C459.06,-276.72 442.83,-263.38 431.62,-249 420.18,-234.33 410.88,-215.23 404.92,-201.26"/>
<polygon fill="midnightblue" stroke="midnightblue" points="408.05,-199.67 401.03,-191.74 401.57,-202.32 408.05,-199.67"/>
</g>
<!-- Node7&#45;&gt;Node4 -->
<g id="edge10" class="edge">
<title>Node7&#45;&gt;Node4</title>
<path fill="none" stroke="midnightblue" d="M504.79,-285.41C537.76,-269.65 597.62,-233.97 597.62,-182.5 597.62,-182.5 597.62,-182.5 597.62,-123.5 597.62,-30.9 452.22,-14.44 384.08,-11.81"/>
<polygon fill="midnightblue" stroke="midnightblue" points="383.95,-8.31 373.85,-11.5 383.74,-15.3 383.95,-8.31"/>
</g>
<!-- Node7&#45;&gt;Node6 -->
<g id="edge11" class="edge">
<title>Node7&#45;&gt;Node6</title>
<path fill="none" stroke="midnightblue" d="M487.38,-285.33C494.89,-267.04 511.89,-225.67 521.88,-201.34"/>
<polygon fill="midnightblue" stroke="midnightblue" points="525.24,-202.37 525.8,-191.79 518.76,-199.71 525.24,-202.37"/>
</g>
<!-- Node8 -->
<g id="node8" class="node">
<title>Node8</title>
<g id="a_node8"><a xlink:title=" ">
<polygon fill="none" stroke="#bfbfbf" points="235.56,-57.5 235.56,-77.5 287.67,-77.5 287.67,-57.5 235.56,-57.5"/>
<text text-anchor="middle" x="261.62" y="-64.5" font-family="Helvetica,sans-Serif" font-size="10.00">memory</text>
</a>
</g>
</g>
<!-- Node7&#45;&gt;Node8 -->
<g id="edge8" class="edge">
<title>Node7&#45;&gt;Node8</title>
<path fill="none" stroke="midnightblue" d="M483.46,-285.2C482.6,-262.8 477.43,-205.15 447.62,-171 406.73,-124.17 339.02,-94.57 297.56,-79.81"/>
<polygon fill="midnightblue" stroke="midnightblue" points="298.46,-76.42 287.86,-76.46 296.17,-83.04 298.46,-76.42"/>
</g>
<!-- Node9 -->
<g id="node9" class="node">
<title>Node9</title>
<g id="a_node9"><a xlink:href="scene_8h.html" target="_top" xlink:title=" ">
<polygon fill="none" stroke="black" points="290.1,-228.5 290.1,-248.5 341.13,-248.5 341.13,-228.5 290.1,-228.5"/>
<text text-anchor="middle" x="315.62" y="-235.5" font-family="Helvetica,sans-Serif" font-size="10.00">scene.h</text>
</a>
</g>
</g>
<!-- Node7&#45;&gt;Node9 -->
<g id="edge12" class="edge">
<title>Node7&#45;&gt;Node9</title>
<path fill="none" stroke="midnightblue" d="M459.19,-286.5C430.65,-277.16 383.22,-261.63 350.74,-251"/>
<polygon fill="midnightblue" stroke="midnightblue" points="351.77,-247.65 341.18,-247.87 349.59,-254.31 351.77,-247.65"/>
</g>
<!-- Node11 -->
<g id="node11" class="node">
<title>Node11</title>
<g id="a_node11"><a xlink:href="sprite_8h.html" target="_top" xlink:title=" ">
<polygon fill="none" stroke="black" points="137.22,-114.5 137.22,-134.5 186.01,-134.5 186.01,-114.5 137.22,-114.5"/>
<text text-anchor="middle" x="161.62" y="-121.5" font-family="Helvetica,sans-Serif" font-size="10.00">sprite.h</text>
</a>
</g>
</g>
<!-- Node7&#45;&gt;Node11 -->
<g id="edge22" class="edge">
<title>Node7&#45;&gt;Node11</title>
<path fill="none" stroke="midnightblue" d="M480.66,-285.43C472.04,-259.53 446.29,-186.09 426.62,-171 391.07,-143.74 259.91,-131.78 196.46,-127.5"/>
<polygon fill="midnightblue" stroke="midnightblue" points="196.36,-123.99 186.15,-126.84 195.91,-130.97 196.36,-123.99"/>
</g>
<!-- Node9&#45;&gt;Node2 -->
<g id="edge14" class="edge">
<title>Node9&#45;&gt;Node2</title>
<path fill="none" stroke="midnightblue" d="M329.16,-228.42C341.74,-219.98 360.71,-207.26 375.49,-197.34"/>
<polygon fill="midnightblue" stroke="midnightblue" points="377.7,-200.07 384.05,-191.6 373.8,-194.26 377.7,-200.07"/>
</g>
<!-- Node9&#45;&gt;Node4 -->
<g id="edge15" class="edge">
<title>Node9&#45;&gt;Node4</title>
<path fill="none" stroke="midnightblue" d="M316.99,-228.36C322.06,-194.64 339.8,-76.77 346.77,-30.42"/>
<polygon fill="midnightblue" stroke="midnightblue" points="350.23,-30.91 348.26,-20.51 343.31,-29.87 350.23,-30.91"/>
</g>
<!-- Node9&#45;&gt;Node6 -->
<g id="edge13" class="edge">
<title>Node9&#45;&gt;Node6</title>
<path fill="none" stroke="midnightblue" d="M341.43,-230.87C382.01,-220.44 460.39,-200.29 502.04,-189.59"/>
<polygon fill="midnightblue" stroke="midnightblue" points="502.98,-192.96 511.79,-187.08 501.24,-186.18 502.98,-192.96"/>
</g>
<!-- Node9&#45;&gt;Node10 -->
<g id="edge16" class="edge">
<title>Node9&#45;&gt;Node10</title>
<path fill="none" stroke="midnightblue" d="M305.54,-228.42C296.59,-220.35 283.29,-208.36 272.53,-198.65"/>
<polygon fill="midnightblue" stroke="midnightblue" points="274.68,-195.88 264.91,-191.78 269.99,-201.08 274.68,-195.88"/>
</g>
<!-- Node10&#45;&gt;Node11 -->
<g id="edge17" class="edge">
<title>Node10&#45;&gt;Node11</title>
<path fill="none" stroke="midnightblue" d="M239.26,-171.42C224.72,-162.82 202.66,-149.78 185.77,-139.78"/>
<polygon fill="midnightblue" stroke="midnightblue" points="187.38,-136.67 177,-134.6 183.82,-142.7 187.38,-136.67"/>
</g>
<!-- Node11&#45;&gt;Node4 -->
<g id="edge19" class="edge">
<title>Node11&#45;&gt;Node4</title>
<path fill="none" stroke="midnightblue" d="M168.59,-114.05C179.51,-99.86 201.97,-72.99 226.62,-57 254.1,-39.17 289.55,-27.01 315.33,-19.77"/>
<polygon fill="midnightblue" stroke="midnightblue" points="316.3,-23.14 325.04,-17.15 314.47,-16.38 316.3,-23.14"/>
</g>
<!-- Node11&#45;&gt;Node8 -->
<g id="edge18" class="edge">
<title>Node11&#45;&gt;Node8</title>
<path fill="none" stroke="midnightblue" d="M178.13,-114.42C193.91,-105.74 217.92,-92.53 236.15,-82.51"/>
<polygon fill="midnightblue" stroke="midnightblue" points="238,-85.48 245.08,-77.6 234.63,-79.35 238,-85.48"/>
</g>
<!-- Node12 -->
<g id="node12" class="node">
<title>Node12</title>
<g id="a_node12"><a xlink:href="texture2d_8h.html" target="_top" xlink:title=" ">
<polygon fill="none" stroke="black" points="113.6,-57.5 113.6,-77.5 179.63,-77.5 179.63,-57.5 113.6,-57.5"/>
<text text-anchor="middle" x="146.62" y="-64.5" font-family="Helvetica,sans-Serif" font-size="10.00">texture2d.h</text>
</a>
</g>
</g>
<!-- Node11&#45;&gt;Node12 -->
<g id="edge20" class="edge">
<title>Node11&#45;&gt;Node12</title>
<path fill="none" stroke="midnightblue" d="M159.14,-114.42C157.15,-107.14 154.3,-96.67 151.82,-87.57"/>
<polygon fill="midnightblue" stroke="midnightblue" points="155.15,-86.51 149.15,-77.78 148.4,-88.35 155.15,-86.51"/>
</g>
<!-- Node12&#45;&gt;Node4 -->
<g id="edge21" class="edge">
<title>Node12&#45;&gt;Node4</title>
<path fill="none" stroke="midnightblue" d="M179.68,-57.54C217.06,-47.41 277.62,-31.01 315.45,-20.76"/>
<polygon fill="midnightblue" stroke="midnightblue" points="316.74,-24.03 325.48,-18.04 314.91,-17.28 316.74,-24.03"/>
</g>
<!-- Node14 -->
<g id="node14" class="node">
<title>Node14</title>
<g id="a_node14"><a xlink:href="menu__scene_8h.html" target="_top" xlink:title=" ">
<polygon fill="none" stroke="black" points="151.82,-285.5 151.82,-305.5 233.42,-305.5 233.42,-285.5 151.82,-285.5"/>
<text text-anchor="middle" x="192.62" y="-292.5" font-family="Helvetica,sans-Serif" font-size="10.00">menu_scene.h</text>
</a>
</g>
</g>
<!-- Node13&#45;&gt;Node14 -->
<g id="edge25" class="edge">
<title>Node13&#45;&gt;Node14</title>
<path fill="none" stroke="midnightblue" d="M251.06,-342.42C240.58,-334.19 224.92,-321.88 212.45,-312.08"/>
<polygon fill="midnightblue" stroke="midnightblue" points="214.45,-309.21 204.43,-305.78 210.13,-314.71 214.45,-309.21"/>
</g>
<!-- Node15 -->
<g id="node15" class="node">
<title>Node15</title>
<g id="a_node15"><a xlink:href="game__scene_8h.html" target="_top" xlink:title=" ">
<polygon fill="none" stroke="black" points="51.82,-285.5 51.82,-305.5 133.42,-305.5 133.42,-285.5 51.82,-285.5"/>
<text text-anchor="middle" x="92.62" y="-292.5" font-family="Helvetica,sans-Serif" font-size="10.00">game_scene.h</text>
</a>
</g>
</g>
<!-- Node13&#45;&gt;Node15 -->
<g id="edge27" class="edge">
<title>Node13&#45;&gt;Node15</title>
<path fill="none" stroke="midnightblue" d="M234.54,-342.42C206.04,-333.19 161.72,-318.86 130.2,-308.66"/>
<polygon fill="midnightblue" stroke="midnightblue" points="131.04,-305.25 120.45,-305.5 128.88,-311.91 131.04,-305.25"/>
</g>
<!-- Node18 -->
<g id="node18" class="node">
<title>Node18</title>
<g id="a_node18"><a xlink:href="pause__scene_8h.html" target="_top" xlink:title=" ">
<polygon fill="none" stroke="black" points="289.7,-285.5 289.7,-305.5 373.53,-305.5 373.53,-285.5 289.7,-285.5"/>
<text text-anchor="middle" x="331.62" y="-292.5" font-family="Helvetica,sans-Serif" font-size="10.00">pause_scene.h</text>
</a>
</g>
</g>
<!-- Node13&#45;&gt;Node18 -->
<g id="edge37" class="edge">
<title>Node13&#45;&gt;Node18</title>
<path fill="none" stroke="midnightblue" d="M274.01,-342.42C284.33,-334.19 299.77,-321.88 312.07,-312.08"/>
<polygon fill="midnightblue" stroke="midnightblue" points="314.34,-314.75 319.97,-305.78 309.97,-309.28 314.34,-314.75"/>
</g>
<!-- Node14&#45;&gt;Node9 -->
<g id="edge26" class="edge">
<title>Node14&#45;&gt;Node9</title>
<path fill="none" stroke="midnightblue" d="M212.93,-285.42C232.87,-276.5 263.5,-262.8 286.12,-252.69"/>
<polygon fill="midnightblue" stroke="midnightblue" points="287.57,-255.87 295.27,-248.6 284.72,-249.48 287.57,-255.87"/>
</g>
<!-- Node15&#45;&gt;Node8 -->
<g id="edge28" class="edge">
<title>Node15&#45;&gt;Node8</title>
<path fill="none" stroke="midnightblue" d="M100.41,-285.2C108,-276.08 119.79,-261.74 129.62,-249 174.94,-190.25 226.17,-118.61 249.22,-86.08"/>
<polygon fill="midnightblue" stroke="midnightblue" points="252.27,-87.82 255.18,-77.64 246.55,-83.78 252.27,-87.82"/>
</g>
<!-- Node15&#45;&gt;Node9 -->
<g id="edge30" class="edge">
<title>Node15&#45;&gt;Node9</title>
<path fill="none" stroke="midnightblue" d="M129.44,-285.42C171.18,-275.12 238.76,-258.46 279.99,-248.29"/>
<polygon fill="midnightblue" stroke="midnightblue" points="281.01,-251.64 289.88,-245.85 279.33,-244.84 281.01,-251.64"/>
</g>
<!-- Node15&#45;&gt;Node10 -->
<g id="edge29" class="edge">
<title>Node15&#45;&gt;Node10</title>
<path fill="none" stroke="midnightblue" d="M124.66,-285.35C147.09,-277.92 176.96,-265.9 199.62,-249 217.54,-235.63 233.27,-215.23 243.26,-200.56"/>
<polygon fill="midnightblue" stroke="midnightblue" points="246.4,-202.15 248.96,-191.87 240.55,-198.31 246.4,-202.15"/>
</g>
<!-- Node15&#45;&gt;Node11 -->
<g id="edge31" class="edge">
<title>Node15&#45;&gt;Node11</title>
<path fill="none" stroke="midnightblue" d="M96.33,-285.41C107.23,-258.71 139.34,-180.07 154.07,-143.98"/>
<polygon fill="midnightblue" stroke="midnightblue" points="157.35,-145.21 157.89,-134.63 150.87,-142.57 157.35,-145.21"/>
</g>
<!-- Node16 -->
<g id="node16" class="node">
<title>Node16</title>
<g id="a_node16"><a xlink:href="sprite__animated_8h.html" target="_top" xlink:title=" ">
<polygon fill="none" stroke="black" points="23.87,-171.5 23.87,-191.5 119.36,-191.5 119.36,-171.5 23.87,-171.5"/>
<text text-anchor="middle" x="71.62" y="-178.5" font-family="Helvetica,sans-Serif" font-size="10.00">sprite_animated.h</text>
</a>
</g>
</g>
<!-- Node15&#45;&gt;Node16 -->
<g id="edge32" class="edge">
<title>Node15&#45;&gt;Node16</title>
<path fill="none" stroke="midnightblue" d="M90.9,-285.33C87.48,-267.12 79.78,-226.04 75.21,-201.67"/>
<polygon fill="midnightblue" stroke="midnightblue" points="78.64,-200.98 73.36,-191.79 71.76,-202.27 78.64,-200.98"/>
</g>
<!-- Node16&#45;&gt;Node4 -->
<g id="edge34" class="edge">
<title>Node16&#45;&gt;Node4</title>
<path fill="none" stroke="midnightblue" d="M71.05,-171.43C70.15,-148.51 71.22,-87.9 104.62,-57 134.79,-29.07 255.24,-17.53 315.26,-13.44"/>
<polygon fill="midnightblue" stroke="midnightblue" points="315.63,-16.92 325.38,-12.78 315.18,-9.94 315.63,-16.92"/>
</g>
<!-- Node16&#45;&gt;Node11 -->
<g id="edge36" class="edge">
<title>Node16&#45;&gt;Node11</title>
<path fill="none" stroke="midnightblue" d="M86.48,-171.42C100.42,-162.9 121.5,-150.02 137.79,-140.06"/>
<polygon fill="midnightblue" stroke="midnightblue" points="140.02,-142.8 146.73,-134.6 136.37,-136.82 140.02,-142.8"/>
</g>
<!-- Node16&#45;&gt;Node12 -->
<g id="edge35" class="edge">
<title>Node16&#45;&gt;Node12</title>
<path fill="none" stroke="midnightblue" d="M77.75,-171.33C90.17,-152.79 118.46,-110.55 134.65,-86.37"/>
<polygon fill="midnightblue" stroke="midnightblue" points="137.74,-88.05 140.39,-77.79 131.92,-84.15 137.74,-88.05"/>
</g>
<!-- Node17 -->
<g id="node17" class="node">
<title>Node17</title>
<g id="a_node17"><a xlink:title=" ">
<polygon fill="none" stroke="#bfbfbf" points="0,-114.5 0,-134.5 43.23,-134.5 43.23,-114.5 0,-114.5"/>
<text text-anchor="middle" x="21.62" y="-121.5" font-family="Helvetica,sans-Serif" font-size="10.00">vector</text>
</a>
</g>
</g>
<!-- Node16&#45;&gt;Node17 -->
<g id="edge33" class="edge">
<title>Node16&#45;&gt;Node17</title>
<path fill="none" stroke="midnightblue" d="M63.36,-171.42C56.16,-163.5 45.55,-151.82 36.82,-142.23"/>
<polygon fill="midnightblue" stroke="midnightblue" points="39.37,-139.82 30.05,-134.78 34.19,-144.53 39.37,-139.82"/>
</g>
<!-- Node18&#45;&gt;Node9 -->
<g id="edge38" class="edge">
<title>Node18&#45;&gt;Node9</title>
<path fill="none" stroke="midnightblue" d="M328.97,-285.42C326.86,-278.14 323.81,-267.67 321.16,-258.57"/>
<polygon fill="midnightblue" stroke="midnightblue" points="324.47,-257.4 318.32,-248.78 317.75,-259.36 324.47,-257.4"/>
</g>
</g>
</svg>
