<?xml version="1.0" encoding="UTF-8" standalone="no"?>
<!DOCTYPE svg PUBLIC "-//W3C//DTD SVG 1.1//EN"
 "http://www.w3.org/Graphics/SVG/1.1/DTD/svg11.dtd">
<!-- Generated by graphviz version 3.0.0 (20220226.1711)
 -->
<!-- Title: renderer.cpp Pages: 1 -->
<svg width="374pt" height="371pt"
 viewBox="0.00 0.00 374.00 371.00" xmlns="http://www.w3.org/2000/svg" xmlns:xlink="http://www.w3.org/1999/xlink">
<g id="graph0" class="graph" transform="scale(1 1) rotate(0) translate(4 367)">
<title>renderer.cpp</title>
<!-- Node1 -->
<g id="node1" class="node">
<title>Node1</title>
<g id="a_node1"><a xlink:title=" ">
<polygon fill="#bfbfbf" stroke="black" points="133.65,-342.5 133.65,-362.5 206.35,-362.5 206.35,-342.5 133.65,-342.5"/>
<text text-anchor="middle" x="170" y="-349.5" font-family="Helvetica,sans-Serif" font-size="10.00">renderer.cpp</text>
</a>
</g>
</g>
<!-- Node2 -->
<g id="node2" class="node">
<title>Node2</title>
<g id="a_node2"><a xlink:href="renderer_8h.html" target="_top" xlink:title=" ">
<polygon fill="none" stroke="black" points="248.93,-285.5 248.93,-305.5 311.07,-305.5 311.07,-285.5 248.93,-285.5"/>
<text text-anchor="middle" x="280" y="-292.5" font-family="Helvetica,sans-Serif" font-size="10.00">renderer.h</text>
</a>
</g>
</g>
<!-- Node1&#45;&gt;Node2 -->
<g id="edge1" class="edge">
<title>Node1&#45;&gt;Node2</title>
<path fill="none" stroke="midnightblue" d="M188.16,-342.42C205.76,-333.62 232.66,-320.17 252.81,-310.1"/>
<polygon fill="midnightblue" stroke="midnightblue" points="254.43,-313.2 261.81,-305.6 251.3,-306.94 254.43,-313.2"/>
</g>
<!-- Node11 -->
<g id="node11" class="node">
<title>Node11</title>
<g id="a_node11"><a xlink:href="stage_8h.html" target="_top" xlink:title=" ">
<polygon fill="none" stroke="black" points="99.6,-285.5 99.6,-305.5 148.4,-305.5 148.4,-285.5 99.6,-285.5"/>
<text text-anchor="middle" x="124" y="-292.5" font-family="Helvetica,sans-Serif" font-size="10.00">stage.h</text>
</a>
</g>
</g>
<!-- Node1&#45;&gt;Node11 -->
<g id="edge14" class="edge">
<title>Node1&#45;&gt;Node11</title>
<path fill="none" stroke="midnightblue" d="M162.4,-342.42C155.85,-334.58 146.21,-323.06 138.23,-313.51"/>
<polygon fill="midnightblue" stroke="midnightblue" points="140.86,-311.2 131.76,-305.78 135.49,-315.7 140.86,-311.2"/>
</g>
<!-- Node3 -->
<g id="node3" class="node">
<title>Node3</title>
<g id="a_node3"><a xlink:title=" ">
<polygon fill="none" stroke="#bfbfbf" points="227.88,-0.5 227.88,-20.5 276.12,-20.5 276.12,-0.5 227.88,-0.5"/>
<text text-anchor="middle" x="252" y="-7.5" font-family="Helvetica,sans-Serif" font-size="10.00">raylib.h</text>
</a>
</g>
</g>
<!-- Node2&#45;&gt;Node3 -->
<g id="edge2" class="edge">
<title>Node2&#45;&gt;Node3</title>
<path fill="none" stroke="midnightblue" d="M294.2,-285.29C318.63,-268.21 366,-229.08 366,-182.5 366,-182.5 366,-182.5 366,-123.5 366,-76.46 315.99,-42.6 282.22,-25.09"/>
<polygon fill="midnightblue" stroke="midnightblue" points="283.69,-21.92 273.18,-20.59 280.57,-28.18 283.69,-21.92"/>
</g>
<!-- Node4 -->
<g id="node4" class="node">
<title>Node4</title>
<g id="a_node4"><a xlink:href="scene_8h.html" target="_top" xlink:title=" ">
<polygon fill="none" stroke="black" points="206.49,-228.5 206.49,-248.5 257.51,-248.5 257.51,-228.5 206.49,-228.5"/>
<text text-anchor="middle" x="232" y="-235.5" font-family="Helvetica,sans-Serif" font-size="10.00">scene.h</text>
</a>
</g>
</g>
<!-- Node2&#45;&gt;Node4 -->
<g id="edge3" class="edge">
<title>Node2&#45;&gt;Node4</title>
<path fill="none" stroke="midnightblue" d="M272.07,-285.42C265.24,-277.58 255.18,-266.06 246.85,-256.51"/>
<polygon fill="midnightblue" stroke="midnightblue" points="249.31,-254.01 240.1,-248.78 244.04,-258.62 249.31,-254.01"/>
</g>
<!-- Node8 -->
<g id="node8" class="node">
<title>Node8</title>
<g id="a_node8"><a xlink:href="sprite_8h.html" target="_top" xlink:title=" ">
<polygon fill="none" stroke="black" points="189.6,-114.5 189.6,-134.5 238.4,-134.5 238.4,-114.5 189.6,-114.5"/>
<text text-anchor="middle" x="214" y="-121.5" font-family="Helvetica,sans-Serif" font-size="10.00">sprite.h</text>
</a>
</g>
</g>
<!-- Node2&#45;&gt;Node8 -->
<g id="edge13" class="edge">
<title>Node2&#45;&gt;Node8</title>
<path fill="none" stroke="midnightblue" d="M281.67,-285.46C285.14,-264.1 291.24,-209.42 271,-171 264.25,-158.18 252.14,-147.73 240.82,-140.1"/>
<polygon fill="midnightblue" stroke="midnightblue" points="242.36,-136.93 232.03,-134.58 238.64,-142.86 242.36,-136.93"/>
</g>
<!-- Node4&#45;&gt;Node3 -->
<g id="edge6" class="edge">
<title>Node4&#45;&gt;Node3</title>
<path fill="none" stroke="midnightblue" d="M243.36,-228.42C252.79,-220.09 265.51,-206.83 271,-192 291.72,-136 271.35,-64.01 259.38,-30.38"/>
<polygon fill="midnightblue" stroke="midnightblue" points="262.61,-29.03 255.84,-20.88 256.05,-31.47 262.61,-29.03"/>
</g>
<!-- Node5 -->
<g id="node5" class="node">
<title>Node5</title>
<g id="a_node5"><a xlink:title=" ">
<polygon fill="none" stroke="#bfbfbf" points="162.27,-171.5 162.27,-191.5 197.73,-191.5 197.73,-171.5 162.27,-171.5"/>
<text text-anchor="middle" x="180" y="-178.5" font-family="Helvetica,sans-Serif" font-size="10.00">map</text>
</a>
</g>
</g>
<!-- Node4&#45;&gt;Node5 -->
<g id="edge4" class="edge">
<title>Node4&#45;&gt;Node5</title>
<path fill="none" stroke="midnightblue" d="M223.41,-228.42C215.93,-220.5 204.89,-208.82 195.81,-199.23"/>
<polygon fill="midnightblue" stroke="midnightblue" points="198.19,-196.64 188.77,-191.78 193.1,-201.45 198.19,-196.64"/>
</g>
<!-- Node6 -->
<g id="node6" class="node">
<title>Node6</title>
<g id="a_node6"><a xlink:title=" ">
<polygon fill="none" stroke="#bfbfbf" points="103.77,-171.5 103.77,-191.5 144.23,-191.5 144.23,-171.5 103.77,-171.5"/>
<text text-anchor="middle" x="124" y="-178.5" font-family="Helvetica,sans-Serif" font-size="10.00">string</text>
</a>
</g>
</g>
<!-- Node4&#45;&gt;Node6 -->
<g id="edge5" class="edge">
<title>Node4&#45;&gt;Node6</title>
<path fill="none" stroke="midnightblue" d="M214.17,-228.42C196.97,-219.66 170.72,-206.29 150.97,-196.23"/>
<polygon fill="midnightblue" stroke="midnightblue" points="152.36,-193.01 141.86,-191.6 149.18,-199.25 152.36,-193.01"/>
</g>
<!-- Node7 -->
<g id="node7" class="node">
<title>Node7</title>
<g id="a_node7"><a xlink:href="actor_8h.html" target="_top" xlink:title=" ">
<polygon fill="none" stroke="black" points="215.71,-171.5 215.71,-191.5 262.29,-191.5 262.29,-171.5 215.71,-171.5"/>
<text text-anchor="middle" x="239" y="-178.5" font-family="Helvetica,sans-Serif" font-size="10.00">actor.h</text>
</a>
</g>
</g>
<!-- Node4&#45;&gt;Node7 -->
<g id="edge7" class="edge">
<title>Node4&#45;&gt;Node7</title>
<path fill="none" stroke="midnightblue" d="M233.16,-228.42C234.07,-221.22 235.39,-210.9 236.54,-201.86"/>
<polygon fill="midnightblue" stroke="midnightblue" points="240.03,-202.14 237.82,-191.78 233.08,-201.26 240.03,-202.14"/>
</g>
<!-- Node7&#45;&gt;Node8 -->
<g id="edge8" class="edge">
<title>Node7&#45;&gt;Node8</title>
<path fill="none" stroke="midnightblue" d="M234.87,-171.42C231.49,-163.98 226.6,-153.21 222.4,-143.97"/>
<polygon fill="midnightblue" stroke="midnightblue" points="225.54,-142.43 218.22,-134.78 219.17,-145.33 225.54,-142.43"/>
</g>
<!-- Node8&#45;&gt;Node3 -->
<g id="edge10" class="edge">
<title>Node8&#45;&gt;Node3</title>
<path fill="none" stroke="midnightblue" d="M218.26,-114.21C222.34,-105.1 228.53,-90.76 233,-78 238.52,-62.24 243.65,-43.98 247.18,-30.59"/>
<polygon fill="midnightblue" stroke="midnightblue" points="250.64,-31.2 249.75,-20.64 243.86,-29.45 250.64,-31.2"/>
</g>
<!-- Node9 -->
<g id="node9" class="node">
<title>Node9</title>
<g id="a_node9"><a xlink:title=" ">
<polygon fill="none" stroke="#bfbfbf" points="57.94,-57.5 57.94,-77.5 110.06,-77.5 110.06,-57.5 57.94,-57.5"/>
<text text-anchor="middle" x="84" y="-64.5" font-family="Helvetica,sans-Serif" font-size="10.00">memory</text>
</a>
</g>
</g>
<!-- Node8&#45;&gt;Node9 -->
<g id="edge9" class="edge">
<title>Node8&#45;&gt;Node9</title>
<path fill="none" stroke="midnightblue" d="M192.53,-114.42C171.36,-105.46 138.79,-91.68 114.85,-81.55"/>
<polygon fill="midnightblue" stroke="midnightblue" points="116.07,-78.27 105.5,-77.6 113.34,-84.72 116.07,-78.27"/>
</g>
<!-- Node10 -->
<g id="node10" class="node">
<title>Node10</title>
<g id="a_node10"><a xlink:href="texture2d_8h.html" target="_top" xlink:title=" ">
<polygon fill="none" stroke="black" points="157.98,-57.5 157.98,-77.5 224.02,-77.5 224.02,-57.5 157.98,-57.5"/>
<text text-anchor="middle" x="191" y="-64.5" font-family="Helvetica,sans-Serif" font-size="10.00">texture2d.h</text>
</a>
</g>
</g>
<!-- Node8&#45;&gt;Node10 -->
<g id="edge11" class="edge">
<title>Node8&#45;&gt;Node10</title>
<path fill="none" stroke="midnightblue" d="M210.2,-114.42C207.12,-107.06 202.68,-96.44 198.85,-87.27"/>
<polygon fill="midnightblue" stroke="midnightblue" points="201.97,-85.65 194.88,-77.78 195.51,-88.36 201.97,-85.65"/>
</g>
<!-- Node10&#45;&gt;Node3 -->
<g id="edge12" class="edge">
<title>Node10&#45;&gt;Node3</title>
<path fill="none" stroke="midnightblue" d="M201.07,-57.42C210.03,-49.35 223.32,-37.36 234.09,-27.65"/>
<polygon fill="midnightblue" stroke="midnightblue" points="236.63,-30.08 241.71,-20.78 231.94,-24.88 236.63,-30.08"/>
</g>
<!-- Node11&#45;&gt;Node3 -->
<g id="edge17" class="edge">
<title>Node11&#45;&gt;Node3</title>
<path fill="none" stroke="midnightblue" d="M99.8,-285.45C63.71,-270.2 0,-235.73 0,-182.5 0,-182.5 0,-182.5 0,-123.5 0,-29.43 148.45,-13.78 217.48,-11.59"/>
<polygon fill="midnightblue" stroke="midnightblue" points="217.92,-15.08 227.84,-11.35 217.76,-8.09 217.92,-15.08"/>
</g>
<!-- Node11&#45;&gt;Node4 -->
<g id="edge19" class="edge">
<title>Node11&#45;&gt;Node4</title>
<path fill="none" stroke="midnightblue" d="M141.83,-285.42C159.03,-276.66 185.28,-263.29 205.03,-253.23"/>
<polygon fill="midnightblue" stroke="midnightblue" points="206.82,-256.25 214.14,-248.6 203.64,-250.01 206.82,-256.25"/>
</g>
<!-- Node11&#45;&gt;Node5 -->
<g id="edge18" class="edge">
<title>Node11&#45;&gt;Node5</title>
<path fill="none" stroke="midnightblue" d="M128.58,-285.33C137.77,-266.96 158.6,-225.29 170.74,-201.01"/>
<polygon fill="midnightblue" stroke="midnightblue" points="174.01,-202.3 175.35,-191.79 167.75,-199.17 174.01,-202.3"/>
</g>
<!-- Node11&#45;&gt;Node6 -->
<g id="edge16" class="edge">
<title>Node11&#45;&gt;Node6</title>
<path fill="none" stroke="midnightblue" d="M124,-285.33C124,-267.2 124,-226.41 124,-202"/>
<polygon fill="midnightblue" stroke="midnightblue" points="127.5,-201.79 124,-191.79 120.5,-201.79 127.5,-201.79"/>
</g>
<!-- Node11&#45;&gt;Node8 -->
<g id="edge20" class="edge">
<title>Node11&#45;&gt;Node8</title>
<path fill="none" stroke="midnightblue" d="M117.31,-285.22C102.42,-263.35 69.78,-207.65 95,-171 113.79,-143.7 151.36,-132.77 179.28,-128.4"/>
<polygon fill="midnightblue" stroke="midnightblue" points="180.01,-131.83 189.45,-127.02 179.07,-124.89 180.01,-131.83"/>
</g>
<!-- Node11&#45;&gt;Node9 -->
<g id="edge15" class="edge">
<title>Node11&#45;&gt;Node9</title>
<path fill="none" stroke="midnightblue" d="M113.11,-285.28C104.04,-276.87 91.72,-263.56 86,-249 64.28,-193.7 73.63,-121.32 79.95,-87.48"/>
<polygon fill="midnightblue" stroke="midnightblue" points="83.4,-88.06 81.92,-77.57 76.54,-86.69 83.4,-88.06"/>
</g>
</g>
</svg>
