<?xml version="1.0" encoding="UTF-8" standalone="no"?>
<!DOCTYPE svg PUBLIC "-//W3C//DTD SVG 1.1//EN"
 "http://www.w3.org/Graphics/SVG/1.1/DTD/svg11.dtd">
<!-- Generated by graphviz version 3.0.0 (20220226.1711)
 -->
<!-- Title: renderer.h Pages: 1 -->
<svg width="268pt" height="86pt"
 viewBox="0.00 0.00 267.76 86.00" xmlns="http://www.w3.org/2000/svg" xmlns:xlink="http://www.w3.org/1999/xlink">
<g id="graph0" class="graph" transform="scale(1 1) rotate(0) translate(4 82)">
<title>renderer.h</title>
<!-- Node1 -->
<g id="node1" class="node">
<title>Node1</title>
<g id="a_node1"><a xlink:title=" ">
<polygon fill="#bfbfbf" stroke="black" points="115.01,-57.5 115.01,-77.5 177.15,-77.5 177.15,-57.5 115.01,-57.5"/>
<text text-anchor="middle" x="146.08" y="-64.5" font-family="Helvetica,sans-Serif" font-size="10.00">renderer.h</text>
</a>
</g>
</g>
<!-- Node2 -->
<g id="node2" class="node">
<title>Node2</title>
<g id="a_node2"><a xlink:href="game__scene_8cpp.html" target="_top" xlink:title=" ">
<polygon fill="none" stroke="black" points="0,-0.5 0,-20.5 92.16,-20.5 92.16,-0.5 0,-0.5"/>
<text text-anchor="middle" x="46.08" y="-7.5" font-family="Helvetica,sans-Serif" font-size="10.00">game_scene.cpp</text>
</a>
</g>
</g>
<!-- Node1&#45;&gt;Node2 -->
<g id="edge1" class="edge">
<title>Node1&#45;&gt;Node2</title>
<path fill="none" stroke="midnightblue" d="M120.64,-52.51C102.42,-42.49 78.41,-29.28 62.62,-20.6"/>
<polygon fill="midnightblue" stroke="midnightblue" points="119.12,-55.67 129.57,-57.42 122.49,-49.53 119.12,-55.67"/>
</g>
<!-- Node3 -->
<g id="node3" class="node">
<title>Node3</title>
<g id="a_node3"><a xlink:href="renderer_8cpp.html" target="_top" xlink:title=" ">
<polygon fill="none" stroke="black" points="109.73,-0.5 109.73,-20.5 182.43,-20.5 182.43,-0.5 109.73,-0.5"/>
<text text-anchor="middle" x="146.08" y="-7.5" font-family="Helvetica,sans-Serif" font-size="10.00">renderer.cpp</text>
</a>
</g>
</g>
<!-- Node1&#45;&gt;Node3 -->
<g id="edge2" class="edge">
<title>Node1&#45;&gt;Node3</title>
<path fill="none" stroke="midnightblue" d="M146.08,-47.38C146.08,-38.37 146.08,-28.04 146.08,-20.78"/>
<polygon fill="midnightblue" stroke="midnightblue" points="142.58,-47.42 146.08,-57.42 149.58,-47.42 142.58,-47.42"/>
</g>
<!-- Node4 -->
<g id="node4" class="node">
<title>Node4</title>
<g id="a_node4"><a xlink:href="stage_8cpp.html" target="_top" xlink:title=" ">
<polygon fill="none" stroke="black" points="200.4,-0.5 200.4,-20.5 259.76,-20.5 259.76,-0.5 200.4,-0.5"/>
<text text-anchor="middle" x="230.08" y="-7.5" font-family="Helvetica,sans-Serif" font-size="10.00">stage.cpp</text>
</a>
</g>
</g>
<!-- Node1&#45;&gt;Node4 -->
<g id="edge3" class="edge">
<title>Node1&#45;&gt;Node4</title>
<path fill="none" stroke="midnightblue" d="M168.73,-51.67C183.86,-41.76 203.29,-29.04 216.19,-20.6"/>
<polygon fill="midnightblue" stroke="midnightblue" points="166.4,-49.01 159.95,-57.42 170.24,-54.87 166.4,-49.01"/>
</g>
</g>
</svg>
