<?xml version="1.0" encoding="UTF-8" standalone="no"?>
<!DOCTYPE svg PUBLIC "-//W3C//DTD SVG 1.1//EN"
 "http://www.w3.org/Graphics/SVG/1.1/DTD/svg11.dtd">
<!-- Generated by graphviz version 3.0.0 (20220226.1711)
 -->
<!-- Title: renderer.h Pages: 1 -->
<svg width="248pt" height="314pt"
 viewBox="0.00 0.00 248.02 314.00" xmlns="http://www.w3.org/2000/svg" xmlns:xlink="http://www.w3.org/1999/xlink">
<g id="graph0" class="graph" transform="scale(1 1) rotate(0) translate(4 310)">
<title>renderer.h</title>
<!-- Node1 -->
<g id="node1" class="node">
<title>Node1</title>
<g id="a_node1"><a xlink:title=" ">
<polygon fill="#bfbfbf" stroke="black" points="80.93,-285.5 80.93,-305.5 143.07,-305.5 143.07,-285.5 80.93,-285.5"/>
<text text-anchor="middle" x="112" y="-292.5" font-family="Helvetica,sans-Serif" font-size="10.00">renderer.h</text>
</a>
</g>
</g>
<!-- Node2 -->
<g id="node2" class="node">
<title>Node2</title>
<g id="a_node2"><a xlink:title=" ">
<polygon fill="none" stroke="#bfbfbf" points="32.88,-0.5 32.88,-20.5 81.12,-20.5 81.12,-0.5 32.88,-0.5"/>
<text text-anchor="middle" x="57" y="-7.5" font-family="Helvetica,sans-Serif" font-size="10.00">raylib.h</text>
</a>
</g>
</g>
<!-- Node1&#45;&gt;Node2 -->
<g id="edge1" class="edge">
<title>Node1&#45;&gt;Node2</title>
<path fill="none" stroke="midnightblue" d="M91.46,-285.43C59.12,-269.6 0,-233.65 0,-182.5 0,-182.5 0,-182.5 0,-123.5 0,-86.46 25.06,-49.3 41.95,-28.46"/>
<polygon fill="midnightblue" stroke="midnightblue" points="44.82,-30.48 48.59,-20.58 39.47,-25.97 44.82,-30.48"/>
</g>
<!-- Node3 -->
<g id="node3" class="node">
<title>Node3</title>
<g id="a_node3"><a xlink:href="scene_8h.html" target="_top" xlink:title=" ">
<polygon fill="none" stroke="black" points="86.49,-228.5 86.49,-248.5 137.51,-248.5 137.51,-228.5 86.49,-228.5"/>
<text text-anchor="middle" x="112" y="-235.5" font-family="Helvetica,sans-Serif" font-size="10.00">scene.h</text>
</a>
</g>
</g>
<!-- Node1&#45;&gt;Node3 -->
<g id="edge2" class="edge">
<title>Node1&#45;&gt;Node3</title>
<path fill="none" stroke="midnightblue" d="M112,-285.42C112,-278.22 112,-267.9 112,-258.86"/>
<polygon fill="midnightblue" stroke="midnightblue" points="115.5,-258.78 112,-248.78 108.5,-258.78 115.5,-258.78"/>
</g>
<!-- Node7 -->
<g id="node7" class="node">
<title>Node7</title>
<g id="a_node7"><a xlink:href="sprite_8h.html" target="_top" xlink:title=" ">
<polygon fill="none" stroke="black" points="177.6,-114.5 177.6,-134.5 226.4,-134.5 226.4,-114.5 177.6,-114.5"/>
<text text-anchor="middle" x="202" y="-121.5" font-family="Helvetica,sans-Serif" font-size="10.00">sprite.h</text>
</a>
</g>
</g>
<!-- Node1&#45;&gt;Node7 -->
<g id="edge12" class="edge">
<title>Node1&#45;&gt;Node7</title>
<path fill="none" stroke="midnightblue" d="M130.89,-285.44C159.46,-270.55 212.62,-237.89 234,-192 241.98,-174.88 230.16,-155.43 218.69,-142.01"/>
<polygon fill="midnightblue" stroke="midnightblue" points="221.13,-139.49 211.78,-134.5 215.98,-144.23 221.13,-139.49"/>
</g>
<!-- Node3&#45;&gt;Node2 -->
<g id="edge5" class="edge">
<title>Node3&#45;&gt;Node2</title>
<path fill="none" stroke="midnightblue" d="M94.26,-228.43C81.28,-220.7 64.65,-208.26 57,-192 31.71,-138.25 43.87,-65.13 51.89,-30.8"/>
<polygon fill="midnightblue" stroke="midnightblue" points="55.38,-31.27 54.39,-20.73 48.58,-29.59 55.38,-31.27"/>
</g>
<!-- Node4 -->
<g id="node4" class="node">
<title>Node4</title>
<g id="a_node4"><a xlink:title=" ">
<polygon fill="none" stroke="#bfbfbf" points="66.27,-171.5 66.27,-191.5 101.73,-191.5 101.73,-171.5 66.27,-171.5"/>
<text text-anchor="middle" x="84" y="-178.5" font-family="Helvetica,sans-Serif" font-size="10.00">map</text>
</a>
</g>
</g>
<!-- Node3&#45;&gt;Node4 -->
<g id="edge3" class="edge">
<title>Node3&#45;&gt;Node4</title>
<path fill="none" stroke="midnightblue" d="M107.38,-228.42C103.59,-220.98 98.11,-210.21 93.41,-200.97"/>
<polygon fill="midnightblue" stroke="midnightblue" points="96.38,-199.1 88.72,-191.78 90.14,-202.28 96.38,-199.1"/>
</g>
<!-- Node5 -->
<g id="node5" class="node">
<title>Node5</title>
<g id="a_node5"><a xlink:title=" ">
<polygon fill="none" stroke="#bfbfbf" points="119.77,-171.5 119.77,-191.5 160.23,-191.5 160.23,-171.5 119.77,-171.5"/>
<text text-anchor="middle" x="140" y="-178.5" font-family="Helvetica,sans-Serif" font-size="10.00">string</text>
</a>
</g>
</g>
<!-- Node3&#45;&gt;Node5 -->
<g id="edge4" class="edge">
<title>Node3&#45;&gt;Node5</title>
<path fill="none" stroke="midnightblue" d="M116.62,-228.42C120.41,-220.98 125.89,-210.21 130.59,-200.97"/>
<polygon fill="midnightblue" stroke="midnightblue" points="133.86,-202.28 135.28,-191.78 127.62,-199.1 133.86,-202.28"/>
</g>
<!-- Node6 -->
<g id="node6" class="node">
<title>Node6</title>
<g id="a_node6"><a xlink:href="actor_8h.html" target="_top" xlink:title=" ">
<polygon fill="none" stroke="black" points="178.71,-171.5 178.71,-191.5 225.29,-191.5 225.29,-171.5 178.71,-171.5"/>
<text text-anchor="middle" x="202" y="-178.5" font-family="Helvetica,sans-Serif" font-size="10.00">actor.h</text>
</a>
</g>
</g>
<!-- Node3&#45;&gt;Node6 -->
<g id="edge6" class="edge">
<title>Node3&#45;&gt;Node6</title>
<path fill="none" stroke="midnightblue" d="M126.86,-228.42C140.8,-219.9 161.88,-207.02 178.17,-197.06"/>
<polygon fill="midnightblue" stroke="midnightblue" points="180.41,-199.8 187.12,-191.6 176.76,-193.82 180.41,-199.8"/>
</g>
<!-- Node6&#45;&gt;Node7 -->
<g id="edge7" class="edge">
<title>Node6&#45;&gt;Node7</title>
<path fill="none" stroke="midnightblue" d="M202,-171.42C202,-164.22 202,-153.9 202,-144.86"/>
<polygon fill="midnightblue" stroke="midnightblue" points="205.5,-144.78 202,-134.78 198.5,-144.78 205.5,-144.78"/>
</g>
<!-- Node7&#45;&gt;Node2 -->
<g id="edge9" class="edge">
<title>Node7&#45;&gt;Node2</title>
<path fill="none" stroke="midnightblue" d="M177.44,-117.92C154.01,-111.56 118.83,-99.19 95,-78 80.45,-65.06 70.11,-45.16 63.93,-30.5"/>
<polygon fill="midnightblue" stroke="midnightblue" points="67.08,-28.95 60.16,-20.93 60.56,-31.51 67.08,-28.95"/>
</g>
<!-- Node8 -->
<g id="node8" class="node">
<title>Node8</title>
<g id="a_node8"><a xlink:title=" ">
<polygon fill="none" stroke="#bfbfbf" points="103.94,-57.5 103.94,-77.5 156.06,-77.5 156.06,-57.5 103.94,-57.5"/>
<text text-anchor="middle" x="130" y="-64.5" font-family="Helvetica,sans-Serif" font-size="10.00">memory</text>
</a>
</g>
</g>
<!-- Node7&#45;&gt;Node8 -->
<g id="edge8" class="edge">
<title>Node7&#45;&gt;Node8</title>
<path fill="none" stroke="midnightblue" d="M190.11,-114.42C179.34,-106.19 163.23,-93.88 150.4,-84.08"/>
<polygon fill="midnightblue" stroke="midnightblue" points="152.22,-81.07 142.15,-77.78 147.97,-86.63 152.22,-81.07"/>
</g>
<!-- Node9 -->
<g id="node9" class="node">
<title>Node9</title>
<g id="a_node9"><a xlink:href="texture2d_8h.html" target="_top" xlink:title=" ">
<polygon fill="none" stroke="black" points="173.98,-57.5 173.98,-77.5 240.02,-77.5 240.02,-57.5 173.98,-57.5"/>
<text text-anchor="middle" x="207" y="-64.5" font-family="Helvetica,sans-Serif" font-size="10.00">texture2d.h</text>
</a>
</g>
</g>
<!-- Node7&#45;&gt;Node9 -->
<g id="edge10" class="edge">
<title>Node7&#45;&gt;Node9</title>
<path fill="none" stroke="midnightblue" d="M202.83,-114.42C203.48,-107.22 204.42,-96.9 205.24,-87.86"/>
<polygon fill="midnightblue" stroke="midnightblue" points="208.74,-88.06 206.16,-77.78 201.77,-87.42 208.74,-88.06"/>
</g>
<!-- Node9&#45;&gt;Node2 -->
<g id="edge11" class="edge">
<title>Node9&#45;&gt;Node2</title>
<path fill="none" stroke="midnightblue" d="M182.23,-57.42C157.33,-48.29 118.76,-34.14 91,-23.97"/>
<polygon fill="midnightblue" stroke="midnightblue" points="91.9,-20.57 81.31,-20.41 89.49,-27.14 91.9,-20.57"/>
</g>
</g>
</svg>
