<?xml version="1.0" encoding="UTF-8" standalone="no"?>
<!DOCTYPE svg PUBLIC "-//W3C//DTD SVG 1.1//EN"
 "http://www.w3.org/Graphics/SVG/1.1/DTD/svg11.dtd">
<!-- Generated by graphviz version 3.0.0 (20220226.1711)
 -->
<!-- Title: scenes.h Pages: 1 -->
<svg width="397pt" height="371pt"
 viewBox="0.00 0.00 397.28 371.00" xmlns="http://www.w3.org/2000/svg" xmlns:xlink="http://www.w3.org/1999/xlink">
<g id="graph0" class="graph" transform="scale(1 1) rotate(0) translate(4 367)">
<title>scenes.h</title>
<!-- Node1 -->
<g id="node1" class="node">
<title>Node1</title>
<g id="a_node1"><a xlink:title=" ">
<polygon fill="#bfbfbf" stroke="black" points="159.21,-342.5 159.21,-362.5 215.24,-362.5 215.24,-342.5 159.21,-342.5"/>
<text text-anchor="middle" x="187.23" y="-349.5" font-family="Helvetica,sans-Serif" font-size="10.00">scenes.h</text>
</a>
</g>
</g>
<!-- Node2 -->
<g id="node2" class="node">
<title>Node2</title>
<g id="a_node2"><a xlink:href="menu__scene_8h.html" target="_top" xlink:title=" ">
<polygon fill="none" stroke="black" points="146.43,-285.5 146.43,-305.5 228.03,-305.5 228.03,-285.5 146.43,-285.5"/>
<text text-anchor="middle" x="187.23" y="-292.5" font-family="Helvetica,sans-Serif" font-size="10.00">menu_scene.h</text>
</a>
</g>
</g>
<!-- Node1&#45;&gt;Node2 -->
<g id="edge1" class="edge">
<title>Node1&#45;&gt;Node2</title>
<path fill="none" stroke="midnightblue" d="M187.23,-342.42C187.23,-335.22 187.23,-324.9 187.23,-315.86"/>
<polygon fill="midnightblue" stroke="midnightblue" points="190.73,-315.78 187.23,-305.78 183.73,-315.78 190.73,-315.78"/>
</g>
<!-- Node11 -->
<g id="node11" class="node">
<title>Node11</title>
<g id="a_node11"><a xlink:href="game__scene_8h.html" target="_top" xlink:title=" ">
<polygon fill="none" stroke="black" points="246.43,-285.5 246.43,-305.5 328.03,-305.5 328.03,-285.5 246.43,-285.5"/>
<text text-anchor="middle" x="287.23" y="-292.5" font-family="Helvetica,sans-Serif" font-size="10.00">game_scene.h</text>
</a>
</g>
</g>
<!-- Node1&#45;&gt;Node11 -->
<g id="edge12" class="edge">
<title>Node1&#45;&gt;Node11</title>
<path fill="none" stroke="midnightblue" d="M203.74,-342.42C219.52,-333.74 243.53,-320.53 261.76,-310.51"/>
<polygon fill="midnightblue" stroke="midnightblue" points="263.61,-313.48 270.69,-305.6 260.24,-307.35 263.61,-313.48"/>
</g>
<!-- Node14 -->
<g id="node14" class="node">
<title>Node14</title>
<g id="a_node14"><a xlink:href="pause__scene_8h.html" target="_top" xlink:title=" ">
<polygon fill="none" stroke="black" points="44.31,-285.5 44.31,-305.5 128.14,-305.5 128.14,-285.5 44.31,-285.5"/>
<text text-anchor="middle" x="86.23" y="-292.5" font-family="Helvetica,sans-Serif" font-size="10.00">pause_scene.h</text>
</a>
</g>
</g>
<!-- Node1&#45;&gt;Node14 -->
<g id="edge22" class="edge">
<title>Node1&#45;&gt;Node14</title>
<path fill="none" stroke="midnightblue" d="M170.55,-342.42C154.61,-333.74 130.36,-320.53 111.95,-310.51"/>
<polygon fill="midnightblue" stroke="midnightblue" points="113.39,-307.3 102.93,-305.6 110.04,-313.45 113.39,-307.3"/>
</g>
<!-- Node3 -->
<g id="node3" class="node">
<title>Node3</title>
<g id="a_node3"><a xlink:href="scene_8h.html" target="_top" xlink:title=" ">
<polygon fill="none" stroke="black" points="96.71,-228.5 96.71,-248.5 147.74,-248.5 147.74,-228.5 96.71,-228.5"/>
<text text-anchor="middle" x="122.23" y="-235.5" font-family="Helvetica,sans-Serif" font-size="10.00">scene.h</text>
</a>
</g>
</g>
<!-- Node2&#45;&gt;Node3 -->
<g id="edge2" class="edge">
<title>Node2&#45;&gt;Node3</title>
<path fill="none" stroke="midnightblue" d="M176.49,-285.42C166.86,-277.27 152.5,-265.12 140.98,-255.37"/>
<polygon fill="midnightblue" stroke="midnightblue" points="143.09,-252.57 133.19,-248.78 138.57,-257.91 143.09,-252.57"/>
</g>
<!-- Node4 -->
<g id="node4" class="node">
<title>Node4</title>
<g id="a_node4"><a xlink:title=" ">
<polygon fill="none" stroke="#bfbfbf" points="58.5,-171.5 58.5,-191.5 93.95,-191.5 93.95,-171.5 58.5,-171.5"/>
<text text-anchor="middle" x="76.23" y="-178.5" font-family="Helvetica,sans-Serif" font-size="10.00">map</text>
</a>
</g>
</g>
<!-- Node3&#45;&gt;Node4 -->
<g id="edge3" class="edge">
<title>Node3&#45;&gt;Node4</title>
<path fill="none" stroke="midnightblue" d="M114.63,-228.42C108.08,-220.58 98.44,-209.06 90.46,-199.51"/>
<polygon fill="midnightblue" stroke="midnightblue" points="93.09,-197.2 83.99,-191.78 87.72,-201.7 93.09,-197.2"/>
</g>
<!-- Node5 -->
<g id="node5" class="node">
<title>Node5</title>
<g id="a_node5"><a xlink:title=" ">
<polygon fill="none" stroke="#bfbfbf" points="0,-171.5 0,-191.5 40.45,-191.5 40.45,-171.5 0,-171.5"/>
<text text-anchor="middle" x="20.23" y="-178.5" font-family="Helvetica,sans-Serif" font-size="10.00">string</text>
</a>
</g>
</g>
<!-- Node3&#45;&gt;Node5 -->
<g id="edge4" class="edge">
<title>Node3&#45;&gt;Node5</title>
<path fill="none" stroke="midnightblue" d="M105.38,-228.42C89.22,-219.7 64.57,-206.41 45.95,-196.37"/>
<polygon fill="midnightblue" stroke="midnightblue" points="47.56,-193.26 37.09,-191.6 44.24,-199.42 47.56,-193.26"/>
</g>
<!-- Node6 -->
<g id="node6" class="node">
<title>Node6</title>
<g id="a_node6"><a xlink:title=" ">
<polygon fill="none" stroke="#bfbfbf" points="166.11,-0.5 166.11,-20.5 214.34,-20.5 214.34,-0.5 166.11,-0.5"/>
<text text-anchor="middle" x="190.23" y="-7.5" font-family="Helvetica,sans-Serif" font-size="10.00">raylib.h</text>
</a>
</g>
</g>
<!-- Node3&#45;&gt;Node6 -->
<g id="edge5" class="edge">
<title>Node3&#45;&gt;Node6</title>
<path fill="none" stroke="midnightblue" d="M124.51,-228.41C131.26,-201.82 151.94,-121.99 173.23,-57 176.14,-48.1 179.73,-38.35 182.85,-30.17"/>
<polygon fill="midnightblue" stroke="midnightblue" points="186.13,-31.42 186.48,-20.83 179.6,-28.89 186.13,-31.42"/>
</g>
<!-- Node7 -->
<g id="node7" class="node">
<title>Node7</title>
<g id="a_node7"><a xlink:href="actor_8h.html" target="_top" xlink:title=" ">
<polygon fill="none" stroke="black" points="263.94,-171.5 263.94,-191.5 310.51,-191.5 310.51,-171.5 263.94,-171.5"/>
<text text-anchor="middle" x="287.23" y="-178.5" font-family="Helvetica,sans-Serif" font-size="10.00">actor.h</text>
</a>
</g>
</g>
<!-- Node3&#45;&gt;Node7 -->
<g id="edge6" class="edge">
<title>Node3&#45;&gt;Node7</title>
<path fill="none" stroke="midnightblue" d="M148.01,-228.91C176.63,-219.36 222.91,-203.94 254.18,-193.52"/>
<polygon fill="midnightblue" stroke="midnightblue" points="255.38,-196.8 263.76,-190.32 253.17,-190.16 255.38,-196.8"/>
</g>
<!-- Node8 -->
<g id="node8" class="node">
<title>Node8</title>
<g id="a_node8"><a xlink:href="sprite_8h.html" target="_top" xlink:title=" ">
<polygon fill="none" stroke="black" points="287.83,-114.5 287.83,-134.5 336.62,-134.5 336.62,-114.5 287.83,-114.5"/>
<text text-anchor="middle" x="312.23" y="-121.5" font-family="Helvetica,sans-Serif" font-size="10.00">sprite.h</text>
</a>
</g>
</g>
<!-- Node7&#45;&gt;Node8 -->
<g id="edge7" class="edge">
<title>Node7&#45;&gt;Node8</title>
<path fill="none" stroke="midnightblue" d="M291.35,-171.42C294.74,-163.98 299.63,-153.21 303.83,-143.97"/>
<polygon fill="midnightblue" stroke="midnightblue" points="307.06,-145.33 308.01,-134.78 300.68,-142.43 307.06,-145.33"/>
</g>
<!-- Node8&#45;&gt;Node6 -->
<g id="edge9" class="edge">
<title>Node8&#45;&gt;Node6</title>
<path fill="none" stroke="midnightblue" d="M307.11,-114.49C299.07,-100.86 282.38,-74.73 263.23,-57 249.74,-44.52 232.35,-33.53 217.93,-25.47"/>
<polygon fill="midnightblue" stroke="midnightblue" points="219.41,-22.3 208.95,-20.62 216.08,-28.45 219.41,-22.3"/>
</g>
<!-- Node9 -->
<g id="node9" class="node">
<title>Node9</title>
<g id="a_node9"><a xlink:title=" ">
<polygon fill="none" stroke="#bfbfbf" points="337.17,-57.5 337.17,-77.5 389.28,-77.5 389.28,-57.5 337.17,-57.5"/>
<text text-anchor="middle" x="363.23" y="-64.5" font-family="Helvetica,sans-Serif" font-size="10.00">memory</text>
</a>
</g>
</g>
<!-- Node8&#45;&gt;Node9 -->
<g id="edge8" class="edge">
<title>Node8&#45;&gt;Node9</title>
<path fill="none" stroke="midnightblue" d="M320.65,-114.42C327.99,-106.5 338.82,-94.82 347.72,-85.23"/>
<polygon fill="midnightblue" stroke="midnightblue" points="350.39,-87.49 354.62,-77.78 345.26,-82.73 350.39,-87.49"/>
</g>
<!-- Node10 -->
<g id="node10" class="node">
<title>Node10</title>
<g id="a_node10"><a xlink:href="texture2d_8h.html" target="_top" xlink:title=" ">
<polygon fill="none" stroke="black" points="188.21,-57.5 188.21,-77.5 254.24,-77.5 254.24,-57.5 188.21,-57.5"/>
<text text-anchor="middle" x="221.23" y="-64.5" font-family="Helvetica,sans-Serif" font-size="10.00">texture2d.h</text>
</a>
</g>
</g>
<!-- Node8&#45;&gt;Node10 -->
<g id="edge10" class="edge">
<title>Node8&#45;&gt;Node10</title>
<path fill="none" stroke="midnightblue" d="M297.2,-114.42C282.97,-105.82 261.39,-92.78 244.86,-82.78"/>
<polygon fill="midnightblue" stroke="midnightblue" points="246.64,-79.77 236.28,-77.6 243.02,-85.76 246.64,-79.77"/>
</g>
<!-- Node10&#45;&gt;Node6 -->
<g id="edge11" class="edge">
<title>Node10&#45;&gt;Node6</title>
<path fill="none" stroke="midnightblue" d="M216.11,-57.42C211.87,-49.9 205.72,-38.98 200.47,-29.68"/>
<polygon fill="midnightblue" stroke="midnightblue" points="203.42,-27.77 195.46,-20.78 197.32,-31.21 203.42,-27.77"/>
</g>
<!-- Node11&#45;&gt;Node3 -->
<g id="edge15" class="edge">
<title>Node11&#45;&gt;Node3</title>
<path fill="none" stroke="midnightblue" d="M259.98,-285.42C232.02,-276.1 188.39,-261.55 157.74,-251.34"/>
<polygon fill="midnightblue" stroke="midnightblue" points="158.48,-247.89 147.88,-248.05 156.26,-254.53 158.48,-247.89"/>
</g>
<!-- Node11&#45;&gt;Node7 -->
<g id="edge14" class="edge">
<title>Node11&#45;&gt;Node7</title>
<path fill="none" stroke="midnightblue" d="M287.23,-285.33C287.23,-267.2 287.23,-226.41 287.23,-202"/>
<polygon fill="midnightblue" stroke="midnightblue" points="290.73,-201.79 287.23,-191.79 283.73,-201.79 290.73,-201.79"/>
</g>
<!-- Node11&#45;&gt;Node8 -->
<g id="edge16" class="edge">
<title>Node11&#45;&gt;Node8</title>
<path fill="none" stroke="midnightblue" d="M291.1,-285.39C298.37,-267.76 313.8,-227.57 319.23,-192 320.63,-182.77 319.94,-180.31 319.23,-171 318.56,-162.23 317.17,-152.6 315.81,-144.46"/>
<polygon fill="midnightblue" stroke="midnightblue" points="319.23,-143.75 314.03,-134.52 312.34,-144.98 319.23,-143.75"/>
</g>
<!-- Node11&#45;&gt;Node9 -->
<g id="edge13" class="edge">
<title>Node11&#45;&gt;Node9</title>
<path fill="none" stroke="midnightblue" d="M295.77,-285.48C303.53,-276.79 314.74,-262.95 321.23,-249 346.83,-193.93 357.51,-121.95 361.35,-87.93"/>
<polygon fill="midnightblue" stroke="midnightblue" points="364.88,-87.88 362.44,-77.56 357.92,-87.14 364.88,-87.88"/>
</g>
<!-- Node12 -->
<g id="node12" class="node">
<title>Node12</title>
<g id="a_node12"><a xlink:href="sprite__animated_8h.html" target="_top" xlink:title=" ">
<polygon fill="none" stroke="black" points="150.48,-171.5 150.48,-191.5 245.97,-191.5 245.97,-171.5 150.48,-171.5"/>
<text text-anchor="middle" x="198.23" y="-178.5" font-family="Helvetica,sans-Serif" font-size="10.00">sprite_animated.h</text>
</a>
</g>
</g>
<!-- Node11&#45;&gt;Node12 -->
<g id="edge17" class="edge">
<title>Node11&#45;&gt;Node12</title>
<path fill="none" stroke="midnightblue" d="M279.94,-285.33C265.08,-266.63 231.04,-223.8 211.92,-199.73"/>
<polygon fill="midnightblue" stroke="midnightblue" points="214.57,-197.44 205.61,-191.79 209.09,-201.8 214.57,-197.44"/>
</g>
<!-- Node12&#45;&gt;Node6 -->
<g id="edge19" class="edge">
<title>Node12&#45;&gt;Node6</title>
<path fill="none" stroke="midnightblue" d="M195.06,-171.23C188.43,-150.72 174.12,-99.87 179.23,-57 180.27,-48.23 182.41,-38.72 184.53,-30.66"/>
<polygon fill="midnightblue" stroke="midnightblue" points="187.96,-31.37 187.29,-20.79 181.22,-29.48 187.96,-31.37"/>
</g>
<!-- Node12&#45;&gt;Node8 -->
<g id="edge21" class="edge">
<title>Node12&#45;&gt;Node8</title>
<path fill="none" stroke="midnightblue" d="M217.05,-171.42C235.37,-162.58 263.42,-149.05 284.33,-138.96"/>
<polygon fill="midnightblue" stroke="midnightblue" points="285.89,-142.09 293.37,-134.6 282.85,-135.79 285.89,-142.09"/>
</g>
<!-- Node12&#45;&gt;Node10 -->
<g id="edge20" class="edge">
<title>Node12&#45;&gt;Node10</title>
<path fill="none" stroke="midnightblue" d="M200.11,-171.33C203.85,-153.12 212.29,-112.04 217.29,-87.67"/>
<polygon fill="midnightblue" stroke="midnightblue" points="220.74,-88.29 219.32,-77.79 213.88,-86.88 220.74,-88.29"/>
</g>
<!-- Node13 -->
<g id="node13" class="node">
<title>Node13</title>
<g id="a_node13"><a xlink:title=" ">
<polygon fill="none" stroke="#bfbfbf" points="226.61,-114.5 226.61,-134.5 269.84,-134.5 269.84,-114.5 226.61,-114.5"/>
<text text-anchor="middle" x="248.23" y="-121.5" font-family="Helvetica,sans-Serif" font-size="10.00">vector</text>
</a>
</g>
</g>
<!-- Node12&#45;&gt;Node13 -->
<g id="edge18" class="edge">
<title>Node12&#45;&gt;Node13</title>
<path fill="none" stroke="midnightblue" d="M206.48,-171.42C213.68,-163.5 224.3,-151.82 233.02,-142.23"/>
<polygon fill="midnightblue" stroke="midnightblue" points="235.65,-144.53 239.79,-134.78 230.47,-139.82 235.65,-144.53"/>
</g>
<!-- Node14&#45;&gt;Node3 -->
<g id="edge23" class="edge">
<title>Node14&#45;&gt;Node3</title>
<path fill="none" stroke="midnightblue" d="M92.17,-285.42C97.14,-277.82 104.39,-266.75 110.52,-257.39"/>
<polygon fill="midnightblue" stroke="midnightblue" points="113.6,-259.06 116.15,-248.78 107.75,-255.23 113.6,-259.06"/>
</g>
</g>
</svg>
