<?xml version="1.0" encoding="UTF-8" standalone="no"?>
<!DOCTYPE svg PUBLIC "-//W3C//DTD SVG 1.1//EN"
 "http://www.w3.org/Graphics/SVG/1.1/DTD/svg11.dtd">
<!-- Generated by graphviz version 3.0.0 (20220226.1711)
 -->
<!-- Title: scene.h Pages: 1 -->
<svg width="598pt" height="200pt"
 viewBox="0.00 0.00 598.31 200.00" xmlns="http://www.w3.org/2000/svg" xmlns:xlink="http://www.w3.org/1999/xlink">
<g id="graph0" class="graph" transform="scale(1 1) rotate(0) translate(4 196)">
<title>scene.h</title>
<!-- Node1 -->
<g id="node1" class="node">
<title>Node1</title>
<g id="a_node1"><a xlink:title=" ">
<polygon fill="#bfbfbf" stroke="black" points="224.78,-171.5 224.78,-191.5 275.8,-191.5 275.8,-171.5 224.78,-171.5"/>
<text text-anchor="middle" x="250.29" y="-178.5" font-family="Helvetica,sans-Serif" font-size="10.00">scene.h</text>
</a>
</g>
</g>
<!-- Node2 -->
<g id="node2" class="node">
<title>Node2</title>
<g id="a_node2"><a xlink:href="game_8h.html" target="_top" xlink:title=" ">
<polygon fill="none" stroke="black" points="4.61,-57.5 4.61,-77.5 53.97,-77.5 53.97,-57.5 4.61,-57.5"/>
<text text-anchor="middle" x="29.29" y="-64.5" font-family="Helvetica,sans-Serif" font-size="10.00">game.h</text>
</a>
</g>
</g>
<!-- Node1&#45;&gt;Node2 -->
<g id="edge1" class="edge">
<title>Node1&#45;&gt;Node2</title>
<path fill="none" stroke="midnightblue" d="M214.55,-176.83C163.15,-170.84 71.94,-157.35 48.29,-135 32.23,-119.83 29.44,-92.11 29.14,-77.72"/>
<polygon fill="midnightblue" stroke="midnightblue" points="214.24,-180.32 224.57,-177.96 215.02,-173.36 214.24,-180.32"/>
</g>
<!-- Node5 -->
<g id="node5" class="node">
<title>Node5</title>
<g id="a_node5"><a xlink:href="game__scene_8h.html" target="_top" xlink:title=" ">
<polygon fill="none" stroke="black" points="159.49,-114.5 159.49,-134.5 241.09,-134.5 241.09,-114.5 159.49,-114.5"/>
<text text-anchor="middle" x="200.29" y="-121.5" font-family="Helvetica,sans-Serif" font-size="10.00">game_scene.h</text>
</a>
</g>
</g>
<!-- Node1&#45;&gt;Node5 -->
<g id="edge4" class="edge">
<title>Node1&#45;&gt;Node5</title>
<path fill="none" stroke="midnightblue" d="M235.3,-164.01C226.6,-154.45 215.97,-142.76 208.72,-134.78"/>
<polygon fill="midnightblue" stroke="midnightblue" points="232.72,-166.37 242.03,-171.42 237.89,-161.66 232.72,-166.37"/>
</g>
<!-- Node10 -->
<g id="node10" class="node">
<title>Node10</title>
<g id="a_node10"><a xlink:href="menu__scene_8h.html" target="_top" xlink:title=" ">
<polygon fill="none" stroke="black" points="259.49,-114.5 259.49,-134.5 341.09,-134.5 341.09,-114.5 259.49,-114.5"/>
<text text-anchor="middle" x="300.29" y="-121.5" font-family="Helvetica,sans-Serif" font-size="10.00">menu_scene.h</text>
</a>
</g>
</g>
<!-- Node1&#45;&gt;Node10 -->
<g id="edge10" class="edge">
<title>Node1&#45;&gt;Node10</title>
<path fill="none" stroke="midnightblue" d="M265.28,-164.01C273.97,-154.45 284.6,-142.76 291.85,-134.78"/>
<polygon fill="midnightblue" stroke="midnightblue" points="262.68,-161.66 258.54,-171.42 267.86,-166.37 262.68,-161.66"/>
</g>
<!-- Node11 -->
<g id="node11" class="node">
<title>Node11</title>
<g id="a_node11"><a xlink:href="pause__scene_8h.html" target="_top" xlink:title=" ">
<polygon fill="none" stroke="black" points="57.37,-114.5 57.37,-134.5 141.2,-134.5 141.2,-114.5 57.37,-114.5"/>
<text text-anchor="middle" x="99.29" y="-121.5" font-family="Helvetica,sans-Serif" font-size="10.00">pause_scene.h</text>
</a>
</g>
</g>
<!-- Node1&#45;&gt;Node11 -->
<g id="edge12" class="edge">
<title>Node1&#45;&gt;Node11</title>
<path fill="none" stroke="midnightblue" d="M215.94,-167.99C187.93,-157.79 149.03,-143.62 124.01,-134.5"/>
<polygon fill="midnightblue" stroke="midnightblue" points="214.76,-171.28 225.35,-171.42 217.16,-164.71 214.76,-171.28"/>
</g>
<!-- Node12 -->
<g id="node12" class="node">
<title>Node12</title>
<g id="a_node12"><a xlink:href="renderer_8h.html" target="_top" xlink:title=" ">
<polygon fill="none" stroke="black" points="431.22,-114.5 431.22,-134.5 493.36,-134.5 493.36,-114.5 431.22,-114.5"/>
<text text-anchor="middle" x="462.29" y="-121.5" font-family="Helvetica,sans-Serif" font-size="10.00">renderer.h</text>
</a>
</g>
</g>
<!-- Node1&#45;&gt;Node12 -->
<g id="edge14" class="edge">
<title>Node1&#45;&gt;Node12</title>
<path fill="none" stroke="midnightblue" d="M285.61,-171.34C326.24,-160.79 392.33,-143.65 431.12,-133.59"/>
<polygon fill="midnightblue" stroke="midnightblue" points="284.66,-167.97 275.86,-173.87 286.42,-174.74 284.66,-167.97"/>
</g>
<!-- Node15 -->
<g id="node15" class="node">
<title>Node15</title>
<g id="a_node15"><a xlink:href="stage_8h.html" target="_top" xlink:title=" ">
<polygon fill="none" stroke="black" points="358.89,-114.5 358.89,-134.5 407.69,-134.5 407.69,-114.5 358.89,-114.5"/>
<text text-anchor="middle" x="383.29" y="-121.5" font-family="Helvetica,sans-Serif" font-size="10.00">stage.h</text>
</a>
</g>
</g>
<!-- Node1&#45;&gt;Node15 -->
<g id="edge18" class="edge">
<title>Node1&#45;&gt;Node15</title>
<path fill="none" stroke="midnightblue" d="M281.81,-167.46C306.3,-157.34 339.62,-143.56 361.29,-134.6"/>
<polygon fill="midnightblue" stroke="midnightblue" points="280.15,-164.36 272.25,-171.42 282.83,-170.83 280.15,-164.36"/>
</g>
<!-- Node3 -->
<g id="node3" class="node">
<title>Node3</title>
<g id="a_node3"><a xlink:href="game_8cpp.html" target="_top" xlink:title=" ">
<polygon fill="none" stroke="black" points="74.33,-0.5 74.33,-20.5 134.25,-20.5 134.25,-0.5 74.33,-0.5"/>
<text text-anchor="middle" x="104.29" y="-7.5" font-family="Helvetica,sans-Serif" font-size="10.00">game.cpp</text>
</a>
</g>
</g>
<!-- Node2&#45;&gt;Node3 -->
<g id="edge2" class="edge">
<title>Node2&#45;&gt;Node3</title>
<path fill="none" stroke="midnightblue" d="M49.89,-51.39C63.35,-41.52 80.48,-28.96 91.88,-20.6"/>
<polygon fill="midnightblue" stroke="midnightblue" points="47.67,-48.68 41.67,-57.42 51.81,-54.33 47.67,-48.68"/>
</g>
<!-- Node4 -->
<g id="node4" class="node">
<title>Node4</title>
<g id="a_node4"><a xlink:href="main_8cpp.html" target="_top" xlink:title=" ">
<polygon fill="none" stroke="black" points="0,-0.5 0,-20.5 56.58,-20.5 56.58,-0.5 0,-0.5"/>
<text text-anchor="middle" x="28.29" y="-7.5" font-family="Helvetica,sans-Serif" font-size="10.00">main.cpp</text>
</a>
</g>
</g>
<!-- Node2&#45;&gt;Node4 -->
<g id="edge3" class="edge">
<title>Node2&#45;&gt;Node4</title>
<path fill="none" stroke="midnightblue" d="M28.94,-47.38C28.78,-38.37 28.59,-28.04 28.46,-20.78"/>
<polygon fill="midnightblue" stroke="midnightblue" points="25.44,-47.48 29.12,-57.42 32.44,-47.36 25.44,-47.48"/>
</g>
<!-- Node6 -->
<g id="node6" class="node">
<title>Node6</title>
<g id="a_node6"><a xlink:href="scenes_8h.html" target="_top" xlink:title=" ">
<polygon fill="none" stroke="black" points="171.28,-57.5 171.28,-77.5 227.3,-77.5 227.3,-57.5 171.28,-57.5"/>
<text text-anchor="middle" x="199.29" y="-64.5" font-family="Helvetica,sans-Serif" font-size="10.00">scenes.h</text>
</a>
</g>
</g>
<!-- Node5&#45;&gt;Node6 -->
<g id="edge5" class="edge">
<title>Node5&#45;&gt;Node6</title>
<path fill="none" stroke="midnightblue" d="M199.94,-104.38C199.78,-95.37 199.59,-85.04 199.46,-77.78"/>
<polygon fill="midnightblue" stroke="midnightblue" points="196.44,-104.48 200.12,-114.42 203.44,-104.36 196.44,-104.48"/>
</g>
<!-- Node6&#45;&gt;Node4 -->
<g id="edge7" class="edge">
<title>Node6&#45;&gt;Node4</title>
<path fill="none" stroke="midnightblue" d="M161.22,-54.26C129.44,-44.03 84.87,-29.7 56.28,-20.5"/>
<polygon fill="midnightblue" stroke="midnightblue" points="160.46,-57.69 171.05,-57.42 162.6,-51.02 160.46,-57.69"/>
</g>
<!-- Node7 -->
<g id="node7" class="node">
<title>Node7</title>
<g id="a_node7"><a xlink:href="game__scene_8cpp.html" target="_top" xlink:title=" ">
<polygon fill="none" stroke="black" points="374.21,-0.5 374.21,-20.5 466.37,-20.5 466.37,-0.5 374.21,-0.5"/>
<text text-anchor="middle" x="420.29" y="-7.5" font-family="Helvetica,sans-Serif" font-size="10.00">game_scene.cpp</text>
</a>
</g>
</g>
<!-- Node6&#45;&gt;Node7 -->
<g id="edge6" class="edge">
<title>Node6&#45;&gt;Node7</title>
<path fill="none" stroke="midnightblue" d="M237.64,-56.96C278.75,-46.72 343.54,-30.6 383.89,-20.56"/>
<polygon fill="midnightblue" stroke="midnightblue" points="236.59,-53.61 227.73,-59.42 238.28,-60.4 236.59,-53.61"/>
</g>
<!-- Node8 -->
<g id="node8" class="node">
<title>Node8</title>
<g id="a_node8"><a xlink:href="menu__scene_8cpp.html" target="_top" xlink:title=" ">
<polygon fill="none" stroke="black" points="264.21,-0.5 264.21,-20.5 356.37,-20.5 356.37,-0.5 264.21,-0.5"/>
<text text-anchor="middle" x="310.29" y="-7.5" font-family="Helvetica,sans-Serif" font-size="10.00">menu_scene.cpp</text>
</a>
</g>
</g>
<!-- Node6&#45;&gt;Node8 -->
<g id="edge8" class="edge">
<title>Node6&#45;&gt;Node8</title>
<path fill="none" stroke="midnightblue" d="M226.7,-52.92C247.02,-42.85 274.17,-29.4 291.93,-20.6"/>
<polygon fill="midnightblue" stroke="midnightblue" points="225.02,-49.84 217.62,-57.42 228.13,-56.11 225.02,-49.84"/>
</g>
<!-- Node9 -->
<g id="node9" class="node">
<title>Node9</title>
<g id="a_node9"><a xlink:href="pause__scene_8cpp.html" target="_top" xlink:title=" ">
<polygon fill="none" stroke="black" points="152.09,-0.5 152.09,-20.5 246.48,-20.5 246.48,-0.5 152.09,-0.5"/>
<text text-anchor="middle" x="199.29" y="-7.5" font-family="Helvetica,sans-Serif" font-size="10.00">pause_scene.cpp</text>
</a>
</g>
</g>
<!-- Node6&#45;&gt;Node9 -->
<g id="edge9" class="edge">
<title>Node6&#45;&gt;Node9</title>
<path fill="none" stroke="midnightblue" d="M199.29,-47.38C199.29,-38.37 199.29,-28.04 199.29,-20.78"/>
<polygon fill="midnightblue" stroke="midnightblue" points="195.79,-47.42 199.29,-57.42 202.79,-47.42 195.79,-47.42"/>
</g>
<!-- Node10&#45;&gt;Node6 -->
<g id="edge11" class="edge">
<title>Node10&#45;&gt;Node6</title>
<path fill="none" stroke="midnightblue" d="M274.59,-109.51C256.19,-99.49 231.94,-86.28 215.99,-77.6"/>
<polygon fill="midnightblue" stroke="midnightblue" points="273.15,-112.71 283.61,-114.42 276.5,-106.56 273.15,-112.71"/>
</g>
<!-- Node11&#45;&gt;Node6 -->
<g id="edge13" class="edge">
<title>Node11&#45;&gt;Node6</title>
<path fill="none" stroke="midnightblue" d="M124.73,-109.51C142.95,-99.49 166.96,-86.28 182.75,-77.6"/>
<polygon fill="midnightblue" stroke="midnightblue" points="122.88,-106.53 115.8,-114.42 126.25,-112.67 122.88,-106.53"/>
</g>
<!-- Node12&#45;&gt;Node7 -->
<g id="edge15" class="edge">
<title>Node12&#45;&gt;Node7</title>
<path fill="none" stroke="midnightblue" d="M484.38,-108.13C500.64,-94.83 518.17,-74.97 507.29,-57 496.16,-38.63 474.91,-27.32 456.2,-20.57"/>
<polygon fill="midnightblue" stroke="midnightblue" points="481.96,-105.58 476.15,-114.44 486.22,-111.13 481.96,-105.58"/>
</g>
<!-- Node13 -->
<g id="node13" class="node">
<title>Node13</title>
<g id="a_node13"><a xlink:href="renderer_8cpp.html" target="_top" xlink:title=" ">
<polygon fill="none" stroke="black" points="347.94,-57.5 347.94,-77.5 420.64,-77.5 420.64,-57.5 347.94,-57.5"/>
<text text-anchor="middle" x="384.29" y="-64.5" font-family="Helvetica,sans-Serif" font-size="10.00">renderer.cpp</text>
</a>
</g>
</g>
<!-- Node12&#45;&gt;Node13 -->
<g id="edge16" class="edge">
<title>Node12&#45;&gt;Node13</title>
<path fill="none" stroke="midnightblue" d="M440.86,-108.39C426.87,-98.52 409.05,-85.96 397.19,-77.6"/>
<polygon fill="midnightblue" stroke="midnightblue" points="439.22,-111.52 449.41,-114.42 443.25,-105.79 439.22,-111.52"/>
</g>
<!-- Node14 -->
<g id="node14" class="node">
<title>Node14</title>
<g id="a_node14"><a xlink:href="stage_8cpp.html" target="_top" xlink:title=" ">
<polygon fill="none" stroke="black" points="438.61,-57.5 438.61,-77.5 497.97,-77.5 497.97,-57.5 438.61,-57.5"/>
<text text-anchor="middle" x="468.29" y="-64.5" font-family="Helvetica,sans-Serif" font-size="10.00">stage.cpp</text>
</a>
</g>
</g>
<!-- Node12&#45;&gt;Node14 -->
<g id="edge17" class="edge">
<title>Node12&#45;&gt;Node14</title>
<path fill="none" stroke="midnightblue" d="M464.37,-104.38C465.36,-95.37 466.48,-85.04 467.28,-77.78"/>
<polygon fill="midnightblue" stroke="midnightblue" points="460.88,-104.1 463.28,-114.42 467.84,-104.86 460.88,-104.1"/>
</g>
<!-- Node15&#45;&gt;Node3 -->
<g id="edge19" class="edge">
<title>Node15&#45;&gt;Node3</title>
<path fill="none" stroke="midnightblue" d="M350.1,-110.74C328.28,-102.09 299.27,-90.07 274.29,-78 256.91,-69.6 253.92,-64.84 236.29,-57 202.29,-41.88 161.6,-28.54 134.48,-20.27"/>
<polygon fill="midnightblue" stroke="midnightblue" points="348.98,-114.06 359.57,-114.47 351.55,-107.55 348.98,-114.06"/>
</g>
<!-- Node15&#45;&gt;Node13 -->
<g id="edge20" class="edge">
<title>Node15&#45;&gt;Node13</title>
<path fill="none" stroke="midnightblue" d="M383.64,-104.38C383.8,-95.37 383.99,-85.04 384.12,-77.78"/>
<polygon fill="midnightblue" stroke="midnightblue" points="380.14,-104.36 383.45,-114.42 387.13,-104.48 380.14,-104.36"/>
</g>
<!-- Node15&#45;&gt;Node14 -->
<g id="edge21" class="edge">
<title>Node15&#45;&gt;Node14</title>
<path fill="none" stroke="midnightblue" d="M405.77,-108.95C421.15,-99 441.06,-86.12 454.23,-77.6"/>
<polygon fill="midnightblue" stroke="midnightblue" points="403.82,-106.05 397.32,-114.42 407.62,-111.92 403.82,-106.05"/>
</g>
<!-- Node16 -->
<g id="node16" class="node">
<title>Node16</title>
<g id="a_node16"><a xlink:href="store_8h.html" target="_top" xlink:title=" ">
<polygon fill="none" stroke="black" points="283,-57.5 283,-77.5 329.57,-77.5 329.57,-57.5 283,-57.5"/>
<text text-anchor="middle" x="306.29" y="-64.5" font-family="Helvetica,sans-Serif" font-size="10.00">store.h</text>
</a>
</g>
</g>
<!-- Node15&#45;&gt;Node16 -->
<g id="edge22" class="edge">
<title>Node15&#45;&gt;Node16</title>
<path fill="none" stroke="midnightblue" d="M362.14,-108.39C348.32,-98.52 330.73,-85.96 319.02,-77.6"/>
<polygon fill="midnightblue" stroke="midnightblue" points="360.4,-111.45 370.57,-114.42 364.47,-105.76 360.4,-111.45"/>
</g>
<!-- Node16&#45;&gt;Node3 -->
<g id="edge23" class="edge">
<title>Node16&#45;&gt;Node3</title>
<path fill="none" stroke="midnightblue" d="M273,-57.44C234.41,-46.93 171.37,-29.76 134.25,-19.66"/>
<polygon fill="midnightblue" stroke="midnightblue" points="272.15,-60.83 282.72,-60.08 273.99,-54.08 272.15,-60.83"/>
</g>
<!-- Node16&#45;&gt;Node7 -->
<g id="edge24" class="edge">
<title>Node16&#45;&gt;Node7</title>
<path fill="none" stroke="midnightblue" d="M334.15,-53.06C355.06,-42.97 383.11,-29.44 401.44,-20.6"/>
<polygon fill="midnightblue" stroke="midnightblue" points="332.6,-49.92 325.11,-57.42 335.64,-56.22 332.6,-49.92"/>
</g>
<!-- Node16&#45;&gt;Node8 -->
<g id="edge25" class="edge">
<title>Node16&#45;&gt;Node8</title>
<path fill="none" stroke="midnightblue" d="M307.68,-47.38C308.33,-38.37 309.09,-28.04 309.61,-20.78"/>
<polygon fill="midnightblue" stroke="midnightblue" points="304.18,-47.19 306.95,-57.42 311.16,-47.7 304.18,-47.19"/>
</g>
<!-- Node16&#45;&gt;Node9 -->
<g id="edge26" class="edge">
<title>Node16&#45;&gt;Node9</title>
<path fill="none" stroke="midnightblue" d="M279.6,-52.78C260.04,-42.73 234.03,-29.36 216.98,-20.6"/>
<polygon fill="midnightblue" stroke="midnightblue" points="278.13,-55.96 288.62,-57.42 281.33,-49.73 278.13,-55.96"/>
</g>
<!-- Node17 -->
<g id="node17" class="node">
<title>Node17</title>
<g id="a_node17"><a xlink:href="sprite__animated_8cpp.html" target="_top" xlink:title=" ">
<polygon fill="none" stroke="black" points="484.26,-0.5 484.26,-20.5 590.31,-20.5 590.31,-0.5 484.26,-0.5"/>
<text text-anchor="middle" x="537.29" y="-7.5" font-family="Helvetica,sans-Serif" font-size="10.00">sprite_animated.cpp</text>
</a>
</g>
</g>
<!-- Node16&#45;&gt;Node17 -->
<g id="edge27" class="edge">
<title>Node16&#45;&gt;Node17</title>
<path fill="none" stroke="midnightblue" d="M339.64,-57.02C399.22,-41.72 456.95,-28.79 495.03,-20.51"/>
<polygon fill="midnightblue" stroke="midnightblue" points="338.49,-53.7 329.68,-59.6 340.24,-60.48 338.49,-53.7"/>
</g>
</g>
</svg>
