<?xml version="1.0" encoding="UTF-8" standalone="no"?>
<!DOCTYPE svg PUBLIC "-//W3C//DTD SVG 1.1//EN"
 "http://www.w3.org/Graphics/SVG/1.1/DTD/svg11.dtd">
<!-- Generated by graphviz version 3.0.0 (20220226.1711)
 -->
<!-- Title: sprite.cpp Pages: 1 -->
<svg width="203pt" height="200pt"
 viewBox="0.00 0.00 202.56 200.00" xmlns="http://www.w3.org/2000/svg" xmlns:xlink="http://www.w3.org/1999/xlink">
<g id="graph0" class="graph" transform="scale(1 1) rotate(0) translate(4 196)">
<title>sprite.cpp</title>
<!-- Node1 -->
<g id="node1" class="node">
<title>Node1</title>
<g id="a_node1"><a xlink:title=" ">
<polygon fill="#bfbfbf" stroke="black" points="1.87,-171.5 1.87,-191.5 61.22,-191.5 61.22,-171.5 1.87,-171.5"/>
<text text-anchor="middle" x="31.55" y="-178.5" font-family="Helvetica,sans-Serif" font-size="10.00">sprite.cpp</text>
</a>
</g>
</g>
<!-- Node2 -->
<g id="node2" class="node">
<title>Node2</title>
<g id="a_node2"><a xlink:title=" ">
<polygon fill="none" stroke="#bfbfbf" points="6.43,-0.5 6.43,-20.5 54.67,-20.5 54.67,-0.5 6.43,-0.5"/>
<text text-anchor="middle" x="30.55" y="-7.5" font-family="Helvetica,sans-Serif" font-size="10.00">raylib.h</text>
</a>
</g>
</g>
<!-- Node1&#45;&gt;Node2 -->
<g id="edge1" class="edge">
<title>Node1&#45;&gt;Node2</title>
<path fill="none" stroke="midnightblue" d="M23.87,-171.47C17.02,-162.77 7.49,-148.92 3.55,-135 -6.91,-98.04 9.55,-53.9 21.01,-29.67"/>
<polygon fill="midnightblue" stroke="midnightblue" points="24.21,-31.09 25.52,-20.58 17.94,-27.98 24.21,-31.09"/>
</g>
<!-- Node3 -->
<g id="node3" class="node">
<title>Node3</title>
<g id="a_node3"><a xlink:title=" ">
<polygon fill="none" stroke="#bfbfbf" points="12.16,-114.5 12.16,-134.5 50.94,-134.5 50.94,-114.5 12.16,-114.5"/>
<text text-anchor="middle" x="31.55" y="-121.5" font-family="Helvetica,sans-Serif" font-size="10.00">utility</text>
</a>
</g>
</g>
<!-- Node1&#45;&gt;Node3 -->
<g id="edge2" class="edge">
<title>Node1&#45;&gt;Node3</title>
<path fill="none" stroke="midnightblue" d="M31.55,-171.42C31.55,-164.22 31.55,-153.9 31.55,-144.86"/>
<polygon fill="midnightblue" stroke="midnightblue" points="35.05,-144.78 31.55,-134.78 28.05,-144.78 35.05,-144.78"/>
</g>
<!-- Node4 -->
<g id="node4" class="node">
<title>Node4</title>
<g id="a_node4"><a xlink:href="sprite_8h.html" target="_top" xlink:title=" ">
<polygon fill="none" stroke="black" points="69.15,-114.5 69.15,-134.5 117.94,-134.5 117.94,-114.5 69.15,-114.5"/>
<text text-anchor="middle" x="93.55" y="-121.5" font-family="Helvetica,sans-Serif" font-size="10.00">sprite.h</text>
</a>
</g>
</g>
<!-- Node1&#45;&gt;Node4 -->
<g id="edge3" class="edge">
<title>Node1&#45;&gt;Node4</title>
<path fill="none" stroke="midnightblue" d="M41.79,-171.42C50.89,-163.35 64.4,-151.36 75.34,-141.65"/>
<polygon fill="midnightblue" stroke="midnightblue" points="77.93,-144.03 83.09,-134.78 73.28,-138.8 77.93,-144.03"/>
</g>
<!-- Node4&#45;&gt;Node2 -->
<g id="edge5" class="edge">
<title>Node4&#45;&gt;Node2</title>
<path fill="none" stroke="midnightblue" d="M81.8,-114.24C71.84,-105.79 57.9,-92.47 49.55,-78 41.02,-63.23 36.11,-44.38 33.42,-30.52"/>
<polygon fill="midnightblue" stroke="midnightblue" points="36.87,-29.91 31.72,-20.65 29.97,-31.1 36.87,-29.91"/>
</g>
<!-- Node5 -->
<g id="node5" class="node">
<title>Node5</title>
<g id="a_node5"><a xlink:title=" ">
<polygon fill="none" stroke="#bfbfbf" points="58.49,-57.5 58.49,-77.5 110.6,-77.5 110.6,-57.5 58.49,-57.5"/>
<text text-anchor="middle" x="84.55" y="-64.5" font-family="Helvetica,sans-Serif" font-size="10.00">memory</text>
</a>
</g>
</g>
<!-- Node4&#45;&gt;Node5 -->
<g id="edge4" class="edge">
<title>Node4&#45;&gt;Node5</title>
<path fill="none" stroke="midnightblue" d="M92.06,-114.42C90.88,-107.22 89.19,-96.9 87.72,-87.86"/>
<polygon fill="midnightblue" stroke="midnightblue" points="91.14,-87.08 86.07,-77.78 84.23,-88.21 91.14,-87.08"/>
</g>
<!-- Node6 -->
<g id="node6" class="node">
<title>Node6</title>
<g id="a_node6"><a xlink:href="texture2d_8h.html" target="_top" xlink:title=" ">
<polygon fill="none" stroke="black" points="128.53,-57.5 128.53,-77.5 194.56,-77.5 194.56,-57.5 128.53,-57.5"/>
<text text-anchor="middle" x="161.55" y="-64.5" font-family="Helvetica,sans-Serif" font-size="10.00">texture2d.h</text>
</a>
</g>
</g>
<!-- Node4&#45;&gt;Node6 -->
<g id="edge6" class="edge">
<title>Node4&#45;&gt;Node6</title>
<path fill="none" stroke="midnightblue" d="M104.78,-114.42C114.95,-106.19 130.16,-93.88 142.28,-84.08"/>
<polygon fill="midnightblue" stroke="midnightblue" points="144.5,-86.79 150.07,-77.78 140.1,-81.35 144.5,-86.79"/>
</g>
<!-- Node6&#45;&gt;Node2 -->
<g id="edge7" class="edge">
<title>Node6&#45;&gt;Node2</title>
<path fill="none" stroke="midnightblue" d="M139.92,-57.42C118.58,-48.46 85.76,-34.68 61.64,-24.55"/>
<polygon fill="midnightblue" stroke="midnightblue" points="62.79,-21.24 52.21,-20.6 60.08,-27.69 62.79,-21.24"/>
</g>
</g>
</svg>
