<?xml version="1.0" encoding="UTF-8" standalone="no"?>
<!DOCTYPE svg PUBLIC "-//W3C//DTD SVG 1.1//EN"
 "http://www.w3.org/Graphics/SVG/1.1/DTD/svg11.dtd">
<!-- Generated by graphviz version 3.0.0 (20220226.1711)
 -->
<!-- Title: sprite_animated.h Pages: 1 -->
<svg width="282pt" height="200pt"
 viewBox="0.00 0.00 281.67 200.00" xmlns="http://www.w3.org/2000/svg" xmlns:xlink="http://www.w3.org/1999/xlink">
<g id="graph0" class="graph" transform="scale(1 1) rotate(0) translate(4 196)">
<title>sprite_animated.h</title>
<!-- Node1 -->
<g id="node1" class="node">
<title>Node1</title>
<g id="a_node1"><a xlink:title=" ">
<polygon fill="#bfbfbf" stroke="black" points="47.87,-171.5 47.87,-191.5 143.36,-191.5 143.36,-171.5 47.87,-171.5"/>
<text text-anchor="middle" x="95.62" y="-178.5" font-family="Helvetica,sans-Serif" font-size="10.00">sprite_animated.h</text>
</a>
</g>
</g>
<!-- Node2 -->
<g id="node2" class="node">
<title>Node2</title>
<g id="a_node2"><a xlink:title=" ">
<polygon fill="none" stroke="#bfbfbf" points="0,-114.5 0,-134.5 43.23,-134.5 43.23,-114.5 0,-114.5"/>
<text text-anchor="middle" x="21.62" y="-121.5" font-family="Helvetica,sans-Serif" font-size="10.00">vector</text>
</a>
</g>
</g>
<!-- Node1&#45;&gt;Node2 -->
<g id="edge1" class="edge">
<title>Node1&#45;&gt;Node2</title>
<path fill="none" stroke="midnightblue" d="M83.4,-171.42C72.15,-163.06 55.25,-150.5 41.96,-140.62"/>
<polygon fill="midnightblue" stroke="midnightblue" points="43.97,-137.75 33.85,-134.6 39.79,-143.37 43.97,-137.75"/>
</g>
<!-- Node3 -->
<g id="node3" class="node">
<title>Node3</title>
<g id="a_node3"><a xlink:title=" ">
<polygon fill="none" stroke="#bfbfbf" points="108.5,-0.5 108.5,-20.5 156.73,-20.5 156.73,-0.5 108.5,-0.5"/>
<text text-anchor="middle" x="132.62" y="-7.5" font-family="Helvetica,sans-Serif" font-size="10.00">raylib.h</text>
</a>
</g>
</g>
<!-- Node1&#45;&gt;Node3 -->
<g id="edge2" class="edge">
<title>Node1&#45;&gt;Node3</title>
<path fill="none" stroke="midnightblue" d="M92.85,-171.41C86.95,-150.39 74.91,-97.17 90.62,-57 95.07,-45.62 103.84,-35.37 112.23,-27.5"/>
<polygon fill="midnightblue" stroke="midnightblue" points="114.77,-29.93 120,-20.72 110.16,-24.66 114.77,-29.93"/>
</g>
<!-- Node4 -->
<g id="node4" class="node">
<title>Node4</title>
<g id="a_node4"><a xlink:href="texture2d_8h.html" target="_top" xlink:title=" ">
<polygon fill="none" stroke="black" points="99.6,-57.5 99.6,-77.5 165.63,-77.5 165.63,-57.5 99.6,-57.5"/>
<text text-anchor="middle" x="132.62" y="-64.5" font-family="Helvetica,sans-Serif" font-size="10.00">texture2d.h</text>
</a>
</g>
</g>
<!-- Node1&#45;&gt;Node4 -->
<g id="edge3" class="edge">
<title>Node1&#45;&gt;Node4</title>
<path fill="none" stroke="midnightblue" d="M98.64,-171.33C104.69,-153.04 118.36,-111.67 126.39,-87.34"/>
<polygon fill="midnightblue" stroke="midnightblue" points="129.73,-88.39 129.55,-77.79 123.09,-86.19 129.73,-88.39"/>
</g>
<!-- Node5 -->
<g id="node5" class="node">
<title>Node5</title>
<g id="a_node5"><a xlink:href="sprite_8h.html" target="_top" xlink:title=" ">
<polygon fill="none" stroke="black" points="158.22,-114.5 158.22,-134.5 207.01,-134.5 207.01,-114.5 158.22,-114.5"/>
<text text-anchor="middle" x="182.62" y="-121.5" font-family="Helvetica,sans-Serif" font-size="10.00">sprite.h</text>
</a>
</g>
</g>
<!-- Node1&#45;&gt;Node5 -->
<g id="edge5" class="edge">
<title>Node1&#45;&gt;Node5</title>
<path fill="none" stroke="midnightblue" d="M109.98,-171.42C123.46,-162.9 143.83,-150.02 159.58,-140.06"/>
<polygon fill="midnightblue" stroke="midnightblue" points="161.65,-142.9 168.23,-134.6 157.91,-136.98 161.65,-142.9"/>
</g>
<!-- Node4&#45;&gt;Node3 -->
<g id="edge4" class="edge">
<title>Node4&#45;&gt;Node3</title>
<path fill="none" stroke="midnightblue" d="M132.62,-57.42C132.62,-50.22 132.62,-39.9 132.62,-30.86"/>
<polygon fill="midnightblue" stroke="midnightblue" points="136.12,-30.78 132.62,-20.78 129.12,-30.78 136.12,-30.78"/>
</g>
<!-- Node5&#45;&gt;Node3 -->
<g id="edge7" class="edge">
<title>Node5&#45;&gt;Node3</title>
<path fill="none" stroke="midnightblue" d="M183.24,-114.42C183.78,-101.16 183.39,-76 174.62,-57 169.42,-45.76 160.4,-35.42 152.05,-27.45"/>
<polygon fill="midnightblue" stroke="midnightblue" points="154.17,-24.65 144.39,-20.58 149.5,-29.86 154.17,-24.65"/>
</g>
<!-- Node5&#45;&gt;Node4 -->
<g id="edge8" class="edge">
<title>Node5&#45;&gt;Node4</title>
<path fill="none" stroke="midnightblue" d="M174.36,-114.42C167.16,-106.5 156.55,-94.82 147.82,-85.23"/>
<polygon fill="midnightblue" stroke="midnightblue" points="150.37,-82.82 141.05,-77.78 145.19,-87.53 150.37,-82.82"/>
</g>
<!-- Node6 -->
<g id="node6" class="node">
<title>Node6</title>
<g id="a_node6"><a xlink:title=" ">
<polygon fill="none" stroke="#bfbfbf" points="221.56,-57.5 221.56,-77.5 273.67,-77.5 273.67,-57.5 221.56,-57.5"/>
<text text-anchor="middle" x="247.62" y="-64.5" font-family="Helvetica,sans-Serif" font-size="10.00">memory</text>
</a>
</g>
</g>
<!-- Node5&#45;&gt;Node6 -->
<g id="edge6" class="edge">
<title>Node5&#45;&gt;Node6</title>
<path fill="none" stroke="midnightblue" d="M193.35,-114.42C202.98,-106.27 217.34,-94.12 228.86,-84.37"/>
<polygon fill="midnightblue" stroke="midnightblue" points="231.28,-86.91 236.65,-77.78 226.75,-81.57 231.28,-86.91"/>
</g>
</g>
</svg>
