<?xml version="1.0" encoding="UTF-8" standalone="no"?>
<!DOCTYPE svg PUBLIC "-//W3C//DTD SVG 1.1//EN"
 "http://www.w3.org/Graphics/SVG/1.1/DTD/svg11.dtd">
<!-- Generated by graphviz version 3.0.0 (20220226.1711)
 -->
<!-- Title: sprite.h Pages: 1 -->
<svg width="182pt" height="143pt"
 viewBox="0.00 0.00 182.07 143.00" xmlns="http://www.w3.org/2000/svg" xmlns:xlink="http://www.w3.org/1999/xlink">
<g id="graph0" class="graph" transform="scale(1 1) rotate(0) translate(4 139)">
<title>sprite.h</title>
<!-- Node1 -->
<g id="node1" class="node">
<title>Node1</title>
<g id="a_node1"><a xlink:title=" ">
<polygon fill="#bfbfbf" stroke="black" points="55.66,-114.5 55.66,-134.5 104.45,-134.5 104.45,-114.5 55.66,-114.5"/>
<text text-anchor="middle" x="80.06" y="-121.5" font-family="Helvetica,sans-Serif" font-size="10.00">sprite.h</text>
</a>
</g>
</g>
<!-- Node2 -->
<g id="node2" class="node">
<title>Node2</title>
<g id="a_node2"><a xlink:title=" ">
<polygon fill="none" stroke="#bfbfbf" points="0,-57.5 0,-77.5 52.11,-77.5 52.11,-57.5 0,-57.5"/>
<text text-anchor="middle" x="26.06" y="-64.5" font-family="Helvetica,sans-Serif" font-size="10.00">memory</text>
</a>
</g>
</g>
<!-- Node1&#45;&gt;Node2 -->
<g id="edge1" class="edge">
<title>Node1&#45;&gt;Node2</title>
<path fill="none" stroke="midnightblue" d="M71.14,-114.42C63.29,-106.42 51.67,-94.59 42.2,-84.94"/>
<polygon fill="midnightblue" stroke="midnightblue" points="44.67,-82.46 35.17,-77.78 39.68,-87.37 44.67,-82.46"/>
</g>
<!-- Node3 -->
<g id="node3" class="node">
<title>Node3</title>
<g id="a_node3"><a xlink:title=" ">
<polygon fill="none" stroke="#bfbfbf" points="85.94,-0.5 85.94,-20.5 134.17,-20.5 134.17,-0.5 85.94,-0.5"/>
<text text-anchor="middle" x="110.06" y="-7.5" font-family="Helvetica,sans-Serif" font-size="10.00">raylib.h</text>
</a>
</g>
</g>
<!-- Node1&#45;&gt;Node3 -->
<g id="edge2" class="edge">
<title>Node1&#45;&gt;Node3</title>
<path fill="none" stroke="midnightblue" d="M82.51,-114.33C87.39,-96.12 98.39,-55.04 104.92,-30.67"/>
<polygon fill="midnightblue" stroke="midnightblue" points="108.36,-31.36 107.57,-20.79 101.6,-29.55 108.36,-31.36"/>
</g>
<!-- Node4 -->
<g id="node4" class="node">
<title>Node4</title>
<g id="a_node4"><a xlink:href="texture2d_8h.html" target="_top" xlink:title=" ">
<polygon fill="none" stroke="black" points="108.04,-57.5 108.04,-77.5 174.07,-77.5 174.07,-57.5 108.04,-57.5"/>
<text text-anchor="middle" x="141.06" y="-64.5" font-family="Helvetica,sans-Serif" font-size="10.00">texture2d.h</text>
</a>
</g>
</g>
<!-- Node1&#45;&gt;Node4 -->
<g id="edge3" class="edge">
<title>Node1&#45;&gt;Node4</title>
<path fill="none" stroke="midnightblue" d="M90.13,-114.42C99.08,-106.35 112.38,-94.36 123.14,-84.65"/>
<polygon fill="midnightblue" stroke="midnightblue" points="125.68,-87.08 130.76,-77.78 120.99,-81.88 125.68,-87.08"/>
</g>
<!-- Node4&#45;&gt;Node3 -->
<g id="edge4" class="edge">
<title>Node4&#45;&gt;Node3</title>
<path fill="none" stroke="midnightblue" d="M135.94,-57.42C131.7,-49.9 125.55,-38.98 120.3,-29.68"/>
<polygon fill="midnightblue" stroke="midnightblue" points="123.25,-27.77 115.29,-20.78 117.15,-31.21 123.25,-27.77"/>
</g>
</g>
</svg>
