<?xml version="1.0" encoding="UTF-8" standalone="no"?>
<!DOCTYPE svg PUBLIC "-//W3C//DTD SVG 1.1//EN"
 "http://www.w3.org/Graphics/SVG/1.1/DTD/svg11.dtd">
<!-- Generated by graphviz version 3.0.0 (20220226.1711)
 -->
<!-- Title: sprite.h Pages: 1 -->
<svg width="697pt" height="314pt"
 viewBox="0.00 0.00 697.48 314.00" xmlns="http://www.w3.org/2000/svg" xmlns:xlink="http://www.w3.org/1999/xlink">
<g id="graph0" class="graph" transform="scale(1 1) rotate(0) translate(4 310)">
<title>sprite.h</title>
<!-- Node1 -->
<g id="node1" class="node">
<title>Node1</title>
<g id="a_node1"><a xlink:title=" ">
<polygon fill="#bfbfbf" stroke="black" points="477.4,-285.5 477.4,-305.5 526.2,-305.5 526.2,-285.5 477.4,-285.5"/>
<text text-anchor="middle" x="501.8" y="-292.5" font-family="Helvetica,sans-Serif" font-size="10.00">sprite.h</text>
</a>
</g>
</g>
<!-- Node2 -->
<g id="node2" class="node">
<title>Node2</title>
<g id="a_node2"><a xlink:href="actor_8h.html" target="_top" xlink:title=" ">
<polygon fill="none" stroke="black" points="272.51,-228.5 272.51,-248.5 319.09,-248.5 319.09,-228.5 272.51,-228.5"/>
<text text-anchor="middle" x="295.8" y="-235.5" font-family="Helvetica,sans-Serif" font-size="10.00">actor.h</text>
</a>
</g>
</g>
<!-- Node1&#45;&gt;Node2 -->
<g id="edge1" class="edge">
<title>Node1&#45;&gt;Node2</title>
<path fill="none" stroke="midnightblue" d="M467.59,-285.37C425.62,-274.16 355.58,-255.46 319.26,-245.76"/>
<polygon fill="midnightblue" stroke="midnightblue" points="466.8,-288.78 477.36,-287.97 468.6,-282.01 466.8,-288.78"/>
</g>
<!-- Node4 -->
<g id="node4" class="node">
<title>Node4</title>
<g id="a_node4"><a xlink:href="game__scene_8h.html" target="_top" xlink:title=" ">
<polygon fill="none" stroke="black" points="0,-114.5 0,-134.5 81.6,-134.5 81.6,-114.5 0,-114.5"/>
<text text-anchor="middle" x="40.8" y="-121.5" font-family="Helvetica,sans-Serif" font-size="10.00">game_scene.h</text>
</a>
</g>
</g>
<!-- Node1&#45;&gt;Node4 -->
<g id="edge33" class="edge">
<title>Node1&#45;&gt;Node4</title>
<path fill="none" stroke="midnightblue" d="M467.32,-290.81C420.37,-285.14 334.13,-272.39 263.8,-249 208.91,-230.74 197.37,-220.08 146.8,-192 112.61,-173.02 74.1,-147.85 54.24,-134.58"/>
<polygon fill="midnightblue" stroke="midnightblue" points="466.94,-294.29 477.28,-291.98 467.75,-287.34 466.94,-294.29"/>
</g>
<!-- Node15 -->
<g id="node15" class="node">
<title>Node15</title>
<g id="a_node15"><a xlink:href="renderer_8h.html" target="_top" xlink:title=" ">
<polygon fill="none" stroke="black" points="377.73,-114.5 377.73,-134.5 439.87,-134.5 439.87,-114.5 377.73,-114.5"/>
<text text-anchor="middle" x="408.8" y="-121.5" font-family="Helvetica,sans-Serif" font-size="10.00">renderer.h</text>
</a>
</g>
</g>
<!-- Node1&#45;&gt;Node15 -->
<g id="edge34" class="edge">
<title>Node1&#45;&gt;Node15</title>
<path fill="none" stroke="midnightblue" d="M503.58,-275.16C504.98,-249.23 503.91,-202.8 482.8,-171 471.29,-153.66 450.68,-141.79 434.14,-134.54"/>
<polygon fill="midnightblue" stroke="midnightblue" points="500.09,-274.98 502.86,-285.21 507.07,-275.48 500.09,-274.98"/>
</g>
<!-- Node17 -->
<g id="node17" class="node">
<title>Node17</title>
<g id="a_node17"><a xlink:href="stage_8cpp.html" target="_top" xlink:title=" ">
<polygon fill="none" stroke="black" points="501.12,-57.5 501.12,-77.5 560.48,-77.5 560.48,-57.5 501.12,-57.5"/>
<text text-anchor="middle" x="530.8" y="-64.5" font-family="Helvetica,sans-Serif" font-size="10.00">stage.cpp</text>
</a>
</g>
</g>
<!-- Node1&#45;&gt;Node17 -->
<g id="edge39" class="edge">
<title>Node1&#45;&gt;Node17</title>
<path fill="none" stroke="midnightblue" d="M516.53,-277.38C522.51,-269.32 528.73,-259.25 531.8,-249 550.71,-185.97 537.92,-104.89 532.72,-77.78"/>
<polygon fill="midnightblue" stroke="midnightblue" points="513.77,-275.22 510.3,-285.23 519.26,-279.58 513.77,-275.22"/>
</g>
<!-- Node18 -->
<g id="node18" class="node">
<title>Node18</title>
<g id="a_node18"><a xlink:href="stage_8h.html" target="_top" xlink:title=" ">
<polygon fill="none" stroke="black" points="457.4,-114.5 457.4,-134.5 506.2,-134.5 506.2,-114.5 457.4,-114.5"/>
<text text-anchor="middle" x="481.8" y="-121.5" font-family="Helvetica,sans-Serif" font-size="10.00">stage.h</text>
</a>
</g>
</g>
<!-- Node1&#45;&gt;Node18 -->
<g id="edge40" class="edge">
<title>Node1&#45;&gt;Node18</title>
<path fill="none" stroke="midnightblue" d="M508.8,-275.66C516.89,-250.99 527.66,-206.67 515.8,-171 511.01,-156.59 499.68,-143.05 491.41,-134.55"/>
<polygon fill="midnightblue" stroke="midnightblue" points="505.45,-274.64 505.47,-285.24 512.06,-276.94 505.45,-274.64"/>
</g>
<!-- Node21 -->
<g id="node21" class="node">
<title>Node21</title>
<g id="a_node21"><a xlink:href="sprite_8cpp.html" target="_top" xlink:title=" ">
<polygon fill="none" stroke="black" points="630.12,-228.5 630.12,-248.5 689.48,-248.5 689.48,-228.5 630.12,-228.5"/>
<text text-anchor="middle" x="659.8" y="-235.5" font-family="Helvetica,sans-Serif" font-size="10.00">sprite.cpp</text>
</a>
</g>
</g>
<!-- Node1&#45;&gt;Node21 -->
<g id="edge35" class="edge">
<title>Node1&#45;&gt;Node21</title>
<path fill="none" stroke="midnightblue" d="M536.31,-282.49C565.63,-272.28 607.09,-257.85 633.71,-248.58"/>
<polygon fill="midnightblue" stroke="midnightblue" points="534.78,-279.31 526.49,-285.91 537.08,-285.92 534.78,-279.31"/>
</g>
<!-- Node22 -->
<g id="node22" class="node">
<title>Node22</title>
<g id="a_node22"><a xlink:href="sprite__animated_8h.html" target="_top" xlink:title=" ">
<polygon fill="none" stroke="black" points="378.05,-171.5 378.05,-191.5 473.55,-191.5 473.55,-171.5 378.05,-171.5"/>
<text text-anchor="middle" x="425.8" y="-178.5" font-family="Helvetica,sans-Serif" font-size="10.00">sprite_animated.h</text>
</a>
</g>
</g>
<!-- Node1&#45;&gt;Node22 -->
<g id="edge36" class="edge">
<title>Node1&#45;&gt;Node22</title>
<path fill="none" stroke="midnightblue" d="M489.79,-276.8C473.43,-252.7 444.76,-210.44 432.11,-191.79"/>
<polygon fill="midnightblue" stroke="midnightblue" points="487.07,-279.03 495.58,-285.33 492.86,-275.09 487.07,-279.03"/>
</g>
<!-- Node3 -->
<g id="node3" class="node">
<title>Node3</title>
<g id="a_node3"><a xlink:href="actor_8cpp.html" target="_top" xlink:title=" ">
<polygon fill="none" stroke="black" points="156.23,-171.5 156.23,-191.5 213.37,-191.5 213.37,-171.5 156.23,-171.5"/>
<text text-anchor="middle" x="184.8" y="-178.5" font-family="Helvetica,sans-Serif" font-size="10.00">actor.cpp</text>
</a>
</g>
</g>
<!-- Node2&#45;&gt;Node3 -->
<g id="edge2" class="edge">
<title>Node2&#45;&gt;Node3</title>
<path fill="none" stroke="midnightblue" d="M268.39,-223.92C248.07,-213.85 220.92,-200.4 203.16,-191.6"/>
<polygon fill="midnightblue" stroke="midnightblue" points="266.96,-227.11 277.47,-228.42 270.06,-220.84 266.96,-227.11"/>
</g>
<!-- Node2&#45;&gt;Node4 -->
<g id="edge3" class="edge">
<title>Node2&#45;&gt;Node4</title>
<path fill="none" stroke="midnightblue" d="M281.68,-220.55C268.11,-205.35 246.26,-183.57 222.8,-171 198.69,-158.08 127.84,-142.52 81.98,-133.35"/>
<polygon fill="midnightblue" stroke="midnightblue" points="279.13,-222.95 288.32,-228.21 284.42,-218.36 279.13,-222.95"/>
</g>
<!-- Node10 -->
<g id="node10" class="node">
<title>Node10</title>
<g id="a_node10"><a xlink:href="scene_8h.html" target="_top" xlink:title=" ">
<polygon fill="none" stroke="black" points="270.29,-171.5 270.29,-191.5 321.31,-191.5 321.31,-171.5 270.29,-171.5"/>
<text text-anchor="middle" x="295.8" y="-178.5" font-family="Helvetica,sans-Serif" font-size="10.00">scene.h</text>
</a>
</g>
</g>
<!-- Node2&#45;&gt;Node10 -->
<g id="edge9" class="edge">
<title>Node2&#45;&gt;Node10</title>
<path fill="none" stroke="midnightblue" d="M295.8,-218.38C295.8,-209.37 295.8,-199.04 295.8,-191.78"/>
<polygon fill="midnightblue" stroke="midnightblue" points="292.3,-218.42 295.8,-228.42 299.3,-218.42 292.3,-218.42"/>
</g>
<!-- Node19 -->
<g id="node19" class="node">
<title>Node19</title>
<g id="a_node19"><a xlink:href="store_8h.html" target="_top" xlink:title=" ">
<polygon fill="none" stroke="black" points="307.51,-57.5 307.51,-77.5 354.09,-77.5 354.09,-57.5 307.51,-57.5"/>
<text text-anchor="middle" x="330.8" y="-64.5" font-family="Helvetica,sans-Serif" font-size="10.00">store.h</text>
</a>
</g>
</g>
<!-- Node2&#45;&gt;Node19 -->
<g id="edge32" class="edge">
<title>Node2&#45;&gt;Node19</title>
<path fill="none" stroke="midnightblue" d="M313,-220.71C319.95,-212.74 327.18,-202.64 330.8,-192 344.68,-151.2 336.76,-98.33 332.72,-77.5"/>
<polygon fill="midnightblue" stroke="midnightblue" points="310.3,-218.48 306.02,-228.17 315.41,-223.26 310.3,-218.48"/>
</g>
<!-- Node5 -->
<g id="node5" class="node">
<title>Node5</title>
<g id="a_node5"><a xlink:href="scenes_8h.html" target="_top" xlink:title=" ">
<polygon fill="none" stroke="black" points="127.79,-57.5 127.79,-77.5 183.81,-77.5 183.81,-57.5 127.79,-57.5"/>
<text text-anchor="middle" x="155.8" y="-64.5" font-family="Helvetica,sans-Serif" font-size="10.00">scenes.h</text>
</a>
</g>
</g>
<!-- Node4&#45;&gt;Node5 -->
<g id="edge4" class="edge">
<title>Node4&#45;&gt;Node5</title>
<path fill="none" stroke="midnightblue" d="M68.91,-110.06C90,-99.97 118.29,-86.44 136.78,-77.6"/>
<polygon fill="midnightblue" stroke="midnightblue" points="67.3,-106.95 59.79,-114.42 70.32,-113.26 67.3,-106.95"/>
</g>
<!-- Node6 -->
<g id="node6" class="node">
<title>Node6</title>
<g id="a_node6"><a xlink:href="game__scene_8cpp.html" target="_top" xlink:title=" ">
<polygon fill="none" stroke="black" points="110.72,-0.5 110.72,-20.5 202.88,-20.5 202.88,-0.5 110.72,-0.5"/>
<text text-anchor="middle" x="156.8" y="-7.5" font-family="Helvetica,sans-Serif" font-size="10.00">game_scene.cpp</text>
</a>
</g>
</g>
<!-- Node5&#45;&gt;Node6 -->
<g id="edge5" class="edge">
<title>Node5&#45;&gt;Node6</title>
<path fill="none" stroke="midnightblue" d="M156.15,-47.38C156.31,-38.37 156.5,-28.04 156.63,-20.78"/>
<polygon fill="midnightblue" stroke="midnightblue" points="152.65,-47.36 155.97,-57.42 159.65,-47.48 152.65,-47.36"/>
</g>
<!-- Node7 -->
<g id="node7" class="node">
<title>Node7</title>
<g id="a_node7"><a xlink:href="main_8cpp.html" target="_top" xlink:title=" ">
<polygon fill="none" stroke="black" points="36.51,-0.5 36.51,-20.5 93.09,-20.5 93.09,-0.5 36.51,-0.5"/>
<text text-anchor="middle" x="64.8" y="-7.5" font-family="Helvetica,sans-Serif" font-size="10.00">main.cpp</text>
</a>
</g>
</g>
<!-- Node5&#45;&gt;Node7 -->
<g id="edge6" class="edge">
<title>Node5&#45;&gt;Node7</title>
<path fill="none" stroke="midnightblue" d="M132.19,-52.23C115.67,-42.24 94.08,-29.2 79.85,-20.6"/>
<polygon fill="midnightblue" stroke="midnightblue" points="130.4,-55.24 140.77,-57.42 134.03,-49.25 130.4,-55.24"/>
</g>
<!-- Node8 -->
<g id="node8" class="node">
<title>Node8</title>
<g id="a_node8"><a xlink:href="menu__scene_8cpp.html" target="_top" xlink:title=" ">
<polygon fill="none" stroke="black" points="220.72,-0.5 220.72,-20.5 312.88,-20.5 312.88,-0.5 220.72,-0.5"/>
<text text-anchor="middle" x="266.8" y="-7.5" font-family="Helvetica,sans-Serif" font-size="10.00">menu_scene.cpp</text>
</a>
</g>
</g>
<!-- Node5&#45;&gt;Node8 -->
<g id="edge7" class="edge">
<title>Node5&#45;&gt;Node8</title>
<path fill="none" stroke="midnightblue" d="M183.21,-52.92C203.53,-42.85 230.68,-29.4 248.44,-20.6"/>
<polygon fill="midnightblue" stroke="midnightblue" points="181.54,-49.84 174.13,-57.42 184.64,-56.11 181.54,-49.84"/>
</g>
<!-- Node9 -->
<g id="node9" class="node">
<title>Node9</title>
<g id="a_node9"><a xlink:href="pause__scene_8cpp.html" target="_top" xlink:title=" ">
<polygon fill="none" stroke="black" points="330.6,-0.5 330.6,-20.5 425,-20.5 425,-0.5 330.6,-0.5"/>
<text text-anchor="middle" x="377.8" y="-7.5" font-family="Helvetica,sans-Serif" font-size="10.00">pause_scene.cpp</text>
</a>
</g>
</g>
<!-- Node5&#45;&gt;Node9 -->
<g id="edge8" class="edge">
<title>Node5&#45;&gt;Node9</title>
<path fill="none" stroke="midnightblue" d="M193.89,-56.74C250.38,-42.57 305.23,-29.14 340.57,-20.54"/>
<polygon fill="midnightblue" stroke="midnightblue" points="192.92,-53.38 184.07,-59.21 194.63,-60.17 192.92,-53.38"/>
</g>
<!-- Node10&#45;&gt;Node4 -->
<g id="edge13" class="edge">
<title>Node10&#45;&gt;Node4</title>
<path fill="none" stroke="midnightblue" d="M260.18,-171.99C258.7,-171.65 257.24,-171.32 255.8,-171 195.31,-157.42 124.98,-142.75 81.68,-133.84"/>
<polygon fill="midnightblue" stroke="midnightblue" points="259.47,-175.42 270,-174.27 261.05,-168.6 259.47,-175.42"/>
</g>
<!-- Node11 -->
<g id="node11" class="node">
<title>Node11</title>
<g id="a_node11"><a xlink:href="game_8h.html" target="_top" xlink:title=" ">
<polygon fill="none" stroke="black" points="202.12,-57.5 202.12,-77.5 251.48,-77.5 251.48,-57.5 202.12,-57.5"/>
<text text-anchor="middle" x="226.8" y="-64.5" font-family="Helvetica,sans-Serif" font-size="10.00">game.h</text>
</a>
</g>
</g>
<!-- Node10&#45;&gt;Node11 -->
<g id="edge10" class="edge">
<title>Node10&#45;&gt;Node11</title>
<path fill="none" stroke="midnightblue" d="M299.28,-161.23C300.81,-147.25 300.76,-128.36 292.8,-114 283.35,-96.96 264.5,-84.95 249.35,-77.56"/>
<polygon fill="midnightblue" stroke="midnightblue" points="295.8,-160.81 297.83,-171.21 302.73,-161.81 295.8,-160.81"/>
</g>
<!-- Node13 -->
<g id="node13" class="node">
<title>Node13</title>
<g id="a_node13"><a xlink:href="menu__scene_8h.html" target="_top" xlink:title=" ">
<polygon fill="none" stroke="black" points="202,-114.5 202,-134.5 283.6,-134.5 283.6,-114.5 202,-114.5"/>
<text text-anchor="middle" x="242.8" y="-121.5" font-family="Helvetica,sans-Serif" font-size="10.00">menu_scene.h</text>
</a>
</g>
</g>
<!-- Node10&#45;&gt;Node13 -->
<g id="edge14" class="edge">
<title>Node10&#45;&gt;Node13</title>
<path fill="none" stroke="midnightblue" d="M279.91,-164.01C270.7,-154.45 259.43,-142.76 251.74,-134.78"/>
<polygon fill="midnightblue" stroke="midnightblue" points="277.59,-166.65 287.05,-171.42 282.63,-161.79 277.59,-166.65"/>
</g>
<!-- Node14 -->
<g id="node14" class="node">
<title>Node14</title>
<g id="a_node14"><a xlink:href="pause__scene_8h.html" target="_top" xlink:title=" ">
<polygon fill="none" stroke="black" points="99.88,-114.5 99.88,-134.5 183.72,-134.5 183.72,-114.5 99.88,-114.5"/>
<text text-anchor="middle" x="141.8" y="-121.5" font-family="Helvetica,sans-Serif" font-size="10.00">pause_scene.h</text>
</a>
</g>
</g>
<!-- Node10&#45;&gt;Node14 -->
<g id="edge16" class="edge">
<title>Node10&#45;&gt;Node14</title>
<path fill="none" stroke="midnightblue" d="M260.77,-167.99C232.2,-157.79 192.53,-143.62 167.01,-134.5"/>
<polygon fill="midnightblue" stroke="midnightblue" points="259.78,-171.35 270.37,-171.42 262.13,-164.76 259.78,-171.35"/>
</g>
<!-- Node10&#45;&gt;Node15 -->
<g id="edge18" class="edge">
<title>Node10&#45;&gt;Node15</title>
<path fill="none" stroke="midnightblue" d="M323.7,-166.92C344.39,-156.85 372.03,-143.4 390.11,-134.6"/>
<polygon fill="midnightblue" stroke="midnightblue" points="321.92,-163.89 314.46,-171.42 324.98,-170.19 321.92,-163.89"/>
</g>
<!-- Node10&#45;&gt;Node18 -->
<g id="edge22" class="edge">
<title>Node10&#45;&gt;Node18</title>
<path fill="none" stroke="midnightblue" d="M331.52,-169.94C368.48,-159.01 425.19,-142.24 457.34,-132.73"/>
<polygon fill="midnightblue" stroke="midnightblue" points="330.26,-166.66 321.66,-172.85 332.24,-173.37 330.26,-166.66"/>
</g>
<!-- Node11&#45;&gt;Node7 -->
<g id="edge12" class="edge">
<title>Node11&#45;&gt;Node7</title>
<path fill="none" stroke="midnightblue" d="M192.15,-54.74C161.99,-44.5 118.92,-29.87 91.4,-20.53"/>
<polygon fill="midnightblue" stroke="midnightblue" points="191.25,-58.13 201.84,-58.03 193.5,-51.5 191.25,-58.13"/>
</g>
<!-- Node12 -->
<g id="node12" class="node">
<title>Node12</title>
<g id="a_node12"><a xlink:href="game_8cpp.html" target="_top" xlink:title=" ">
<polygon fill="none" stroke="black" points="442.84,-0.5 442.84,-20.5 502.76,-20.5 502.76,-0.5 442.84,-0.5"/>
<text text-anchor="middle" x="472.8" y="-7.5" font-family="Helvetica,sans-Serif" font-size="10.00">game.cpp</text>
</a>
</g>
</g>
<!-- Node11&#45;&gt;Node12 -->
<g id="edge11" class="edge">
<title>Node11&#45;&gt;Node12</title>
<path fill="none" stroke="midnightblue" d="M261.5,-59.12C302.66,-50.31 373.33,-35.01 433.8,-21 436.65,-20.34 439.62,-19.64 442.58,-18.93"/>
<polygon fill="midnightblue" stroke="midnightblue" points="260.74,-55.71 251.69,-61.22 262.21,-62.55 260.74,-55.71"/>
</g>
<!-- Node13&#45;&gt;Node5 -->
<g id="edge15" class="edge">
<title>Node13&#45;&gt;Node5</title>
<path fill="none" stroke="midnightblue" d="M219.79,-108.95C204.05,-99 183.67,-86.12 170.19,-77.6"/>
<polygon fill="midnightblue" stroke="midnightblue" points="218.11,-112.03 228.43,-114.42 221.85,-106.12 218.11,-112.03"/>
</g>
<!-- Node14&#45;&gt;Node5 -->
<g id="edge17" class="edge">
<title>Node14&#45;&gt;Node5</title>
<path fill="none" stroke="midnightblue" d="M146.59,-104.68C148.9,-95.6 151.57,-85.12 153.44,-77.78"/>
<polygon fill="midnightblue" stroke="midnightblue" points="143.19,-103.86 144.11,-114.42 149.97,-105.59 143.19,-103.86"/>
</g>
<!-- Node15&#45;&gt;Node6 -->
<g id="edge19" class="edge">
<title>Node15&#45;&gt;Node6</title>
<path fill="none" stroke="midnightblue" d="M375.29,-110.78C353.28,-102.14 323.99,-90.12 298.8,-78 281.41,-69.63 278.1,-65.54 260.8,-57 233.06,-43.3 200.23,-29.29 178.98,-20.5"/>
<polygon fill="midnightblue" stroke="midnightblue" points="374.27,-114.13 384.86,-114.5 376.81,-107.61 374.27,-114.13"/>
</g>
<!-- Node16 -->
<g id="node16" class="node">
<title>Node16</title>
<g id="a_node16"><a xlink:href="renderer_8cpp.html" target="_top" xlink:title=" ">
<polygon fill="none" stroke="black" points="372.45,-57.5 372.45,-77.5 445.15,-77.5 445.15,-57.5 372.45,-57.5"/>
<text text-anchor="middle" x="408.8" y="-64.5" font-family="Helvetica,sans-Serif" font-size="10.00">renderer.cpp</text>
</a>
</g>
</g>
<!-- Node15&#45;&gt;Node16 -->
<g id="edge20" class="edge">
<title>Node15&#45;&gt;Node16</title>
<path fill="none" stroke="midnightblue" d="M408.8,-104.38C408.8,-95.37 408.8,-85.04 408.8,-77.78"/>
<polygon fill="midnightblue" stroke="midnightblue" points="405.3,-104.42 408.8,-114.42 412.3,-104.42 405.3,-104.42"/>
</g>
<!-- Node15&#45;&gt;Node17 -->
<g id="edge21" class="edge">
<title>Node15&#45;&gt;Node17</title>
<path fill="none" stroke="midnightblue" d="M438.32,-110.19C460.72,-100.09 490.92,-86.48 510.62,-77.6"/>
<polygon fill="midnightblue" stroke="midnightblue" points="436.62,-107.12 428.95,-114.42 439.5,-113.5 436.62,-107.12"/>
</g>
<!-- Node18&#45;&gt;Node12 -->
<g id="edge23" class="edge">
<title>Node18&#45;&gt;Node12</title>
<path fill="none" stroke="midnightblue" d="M480.25,-104.17C478.29,-79.84 475.01,-39.03 473.55,-20.79"/>
<polygon fill="midnightblue" stroke="midnightblue" points="476.77,-104.65 481.06,-114.33 483.75,-104.09 476.77,-104.65"/>
</g>
<!-- Node18&#45;&gt;Node16 -->
<g id="edge24" class="edge">
<title>Node18&#45;&gt;Node16</title>
<path fill="none" stroke="midnightblue" d="M461.43,-108.15C448.47,-98.39 432.13,-86.07 421.12,-77.78"/>
<polygon fill="midnightblue" stroke="midnightblue" points="459.65,-111.2 469.75,-114.42 463.87,-105.6 459.65,-111.2"/>
</g>
<!-- Node18&#45;&gt;Node17 -->
<g id="edge25" class="edge">
<title>Node18&#45;&gt;Node17</title>
<path fill="none" stroke="midnightblue" d="M496.75,-106.73C505.22,-97.22 515.5,-85.68 522.53,-77.78"/>
<polygon fill="midnightblue" stroke="midnightblue" points="493.93,-104.62 489.89,-114.42 499.16,-109.28 493.93,-104.62"/>
</g>
<!-- Node18&#45;&gt;Node19 -->
<g id="edge26" class="edge">
<title>Node18&#45;&gt;Node19</title>
<path fill="none" stroke="midnightblue" d="M447.66,-111.06C419.2,-100.7 379.42,-86.21 354.39,-77.09"/>
<polygon fill="midnightblue" stroke="midnightblue" points="446.61,-114.41 457.2,-114.54 449.01,-107.83 446.61,-114.41"/>
</g>
<!-- Node19&#45;&gt;Node6 -->
<g id="edge28" class="edge">
<title>Node19&#45;&gt;Node6</title>
<path fill="none" stroke="midnightblue" d="M297.41,-55.94C264.92,-45.68 216.11,-30.25 185.37,-20.53"/>
<polygon fill="midnightblue" stroke="midnightblue" points="296.74,-59.41 307.33,-59.08 298.85,-52.73 296.74,-59.41"/>
</g>
<!-- Node19&#45;&gt;Node8 -->
<g id="edge29" class="edge">
<title>Node19&#45;&gt;Node8</title>
<path fill="none" stroke="midnightblue" d="M312.61,-50.87C301.31,-41.15 287.16,-28.99 277.6,-20.78"/>
<polygon fill="midnightblue" stroke="midnightblue" points="310.37,-53.55 320.23,-57.42 314.93,-48.25 310.37,-53.55"/>
</g>
<!-- Node19&#45;&gt;Node9 -->
<g id="edge30" class="edge">
<title>Node19&#45;&gt;Node9</title>
<path fill="none" stroke="midnightblue" d="M345.14,-49.73C353.26,-40.22 363.12,-28.68 369.87,-20.78"/>
<polygon fill="midnightblue" stroke="midnightblue" points="342.4,-47.54 338.56,-57.42 347.72,-52.09 342.4,-47.54"/>
</g>
<!-- Node19&#45;&gt;Node12 -->
<g id="edge27" class="edge">
<title>Node19&#45;&gt;Node12</title>
<path fill="none" stroke="midnightblue" d="M363.76,-53.73C389.97,-43.58 425.97,-29.64 449.32,-20.6"/>
<polygon fill="midnightblue" stroke="midnightblue" points="362.31,-50.54 354.25,-57.42 364.84,-57.07 362.31,-50.54"/>
</g>
<!-- Node20 -->
<g id="node20" class="node">
<title>Node20</title>
<g id="a_node20"><a xlink:href="sprite__animated_8cpp.html" target="_top" xlink:title=" ">
<polygon fill="none" stroke="black" points="528.77,-0.5 528.77,-20.5 634.83,-20.5 634.83,-0.5 528.77,-0.5"/>
<text text-anchor="middle" x="581.8" y="-7.5" font-family="Helvetica,sans-Serif" font-size="10.00">sprite_animated.cpp</text>
</a>
</g>
</g>
<!-- Node19&#45;&gt;Node20 -->
<g id="edge31" class="edge">
<title>Node19&#45;&gt;Node20</title>
<path fill="none" stroke="midnightblue" d="M364.08,-57.08C428.31,-41.31 491.34,-28.61 533.51,-20.51"/>
<polygon fill="midnightblue" stroke="midnightblue" points="363.04,-53.73 354.18,-59.54 364.73,-60.53 363.04,-53.73"/>
</g>
<!-- Node22&#45;&gt;Node4 -->
<g id="edge37" class="edge">
<title>Node22&#45;&gt;Node4</title>
<path fill="none" stroke="midnightblue" d="M367.64,-173.55C300.71,-165.32 187.58,-150.76 90.8,-135 87.84,-134.52 84.78,-134 81.7,-133.45"/>
<polygon fill="midnightblue" stroke="midnightblue" points="367.62,-177.07 377.97,-174.81 368.47,-170.12 367.62,-177.07"/>
</g>
<!-- Node22&#45;&gt;Node20 -->
<g id="edge38" class="edge">
<title>Node22&#45;&gt;Node20</title>
<path fill="none" stroke="midnightblue" d="M459.88,-167.42C494.76,-151.96 546.99,-122.57 569.8,-78 579.42,-59.2 581.45,-33.96 581.8,-20.63"/>
<polygon fill="midnightblue" stroke="midnightblue" points="458.36,-164.26 450.54,-171.41 461.11,-170.7 458.36,-164.26"/>
</g>
</g>
</svg>
