<?xml version="1.0" encoding="UTF-8" standalone="no"?>
<!DOCTYPE svg PUBLIC "-//W3C//DTD SVG 1.1//EN"
 "http://www.w3.org/Graphics/SVG/1.1/DTD/svg11.dtd">
<!-- Generated by graphviz version 3.0.0 (20220226.1711)
 -->
<!-- Title: sprite_animated.h Pages: 1 -->
<svg width="396pt" height="200pt"
 viewBox="0.00 0.00 396.28 200.00" xmlns="http://www.w3.org/2000/svg" xmlns:xlink="http://www.w3.org/1999/xlink">
<g id="graph0" class="graph" transform="scale(1 1) rotate(0) translate(4 196)">
<title>sprite_animated.h</title>
<!-- Node1 -->
<g id="node1" class="node">
<title>Node1</title>
<g id="a_node1"><a xlink:title=" ">
<polygon fill="#bfbfbf" stroke="black" points="192.33,-171.5 192.33,-191.5 287.83,-191.5 287.83,-171.5 192.33,-171.5"/>
<text text-anchor="middle" x="240.08" y="-178.5" font-family="Helvetica,sans-Serif" font-size="10.00">sprite_animated.h</text>
</a>
</g>
</g>
<!-- Node2 -->
<g id="node2" class="node">
<title>Node2</title>
<g id="a_node2"><a xlink:href="game__scene_8h.html" target="_top" xlink:title=" ">
<polygon fill="none" stroke="black" points="143.28,-114.5 143.28,-134.5 224.88,-134.5 224.88,-114.5 143.28,-114.5"/>
<text text-anchor="middle" x="184.08" y="-121.5" font-family="Helvetica,sans-Serif" font-size="10.00">game_scene.h</text>
</a>
</g>
</g>
<!-- Node1&#45;&gt;Node2 -->
<g id="edge1" class="edge">
<title>Node1&#45;&gt;Node2</title>
<path fill="none" stroke="midnightblue" d="M223.59,-164.3C213.79,-154.68 201.73,-142.83 193.53,-134.78"/>
<polygon fill="midnightblue" stroke="midnightblue" points="221.25,-166.91 230.83,-171.42 226.15,-161.91 221.25,-166.91"/>
</g>
<!-- Node8 -->
<g id="node8" class="node">
<title>Node8</title>
<g id="a_node8"><a xlink:href="sprite__animated_8cpp.html" target="_top" xlink:title=" ">
<polygon fill="none" stroke="black" points="243.05,-114.5 243.05,-134.5 349.11,-134.5 349.11,-114.5 243.05,-114.5"/>
<text text-anchor="middle" x="296.08" y="-121.5" font-family="Helvetica,sans-Serif" font-size="10.00">sprite_animated.cpp</text>
</a>
</g>
</g>
<!-- Node1&#45;&gt;Node8 -->
<g id="edge7" class="edge">
<title>Node1&#45;&gt;Node8</title>
<path fill="none" stroke="midnightblue" d="M256.58,-164.3C266.37,-154.68 278.43,-142.83 286.63,-134.78"/>
<polygon fill="midnightblue" stroke="midnightblue" points="254.01,-161.91 249.33,-171.42 258.92,-166.91 254.01,-161.91"/>
</g>
<!-- Node3 -->
<g id="node3" class="node">
<title>Node3</title>
<g id="a_node3"><a xlink:href="scenes_8h.html" target="_top" xlink:title=" ">
<polygon fill="none" stroke="black" points="156.07,-57.5 156.07,-77.5 212.09,-77.5 212.09,-57.5 156.07,-57.5"/>
<text text-anchor="middle" x="184.08" y="-64.5" font-family="Helvetica,sans-Serif" font-size="10.00">scenes.h</text>
</a>
</g>
</g>
<!-- Node2&#45;&gt;Node3 -->
<g id="edge2" class="edge">
<title>Node2&#45;&gt;Node3</title>
<path fill="none" stroke="midnightblue" d="M184.08,-104.38C184.08,-95.37 184.08,-85.04 184.08,-77.78"/>
<polygon fill="midnightblue" stroke="midnightblue" points="180.58,-104.42 184.08,-114.42 187.58,-104.42 180.58,-104.42"/>
</g>
<!-- Node4 -->
<g id="node4" class="node">
<title>Node4</title>
<g id="a_node4"><a xlink:href="game__scene_8cpp.html" target="_top" xlink:title=" ">
<polygon fill="none" stroke="black" points="0,-0.5 0,-20.5 92.16,-20.5 92.16,-0.5 0,-0.5"/>
<text text-anchor="middle" x="46.08" y="-7.5" font-family="Helvetica,sans-Serif" font-size="10.00">game_scene.cpp</text>
</a>
</g>
</g>
<!-- Node3&#45;&gt;Node4 -->
<g id="edge3" class="edge">
<title>Node3&#45;&gt;Node4</title>
<path fill="none" stroke="midnightblue" d="M151.71,-53.6C126.27,-43.46 91.49,-29.6 68.9,-20.6"/>
<polygon fill="midnightblue" stroke="midnightblue" points="150.71,-56.97 161.29,-57.42 153.3,-50.46 150.71,-56.97"/>
</g>
<!-- Node5 -->
<g id="node5" class="node">
<title>Node5</title>
<g id="a_node5"><a xlink:href="main_8cpp.html" target="_top" xlink:title=" ">
<polygon fill="none" stroke="black" points="109.79,-0.5 109.79,-20.5 166.37,-20.5 166.37,-0.5 109.79,-0.5"/>
<text text-anchor="middle" x="138.08" y="-7.5" font-family="Helvetica,sans-Serif" font-size="10.00">main.cpp</text>
</a>
</g>
</g>
<!-- Node3&#45;&gt;Node5 -->
<g id="edge4" class="edge">
<title>Node3&#45;&gt;Node5</title>
<path fill="none" stroke="midnightblue" d="M170.05,-49.73C162.1,-40.22 152.45,-28.68 145.84,-20.78"/>
<polygon fill="midnightblue" stroke="midnightblue" points="167.38,-51.99 176.49,-57.42 172.75,-47.5 167.38,-51.99"/>
</g>
<!-- Node6 -->
<g id="node6" class="node">
<title>Node6</title>
<g id="a_node6"><a xlink:href="menu__scene_8cpp.html" target="_top" xlink:title=" ">
<polygon fill="none" stroke="black" points="184,-0.5 184,-20.5 276.16,-20.5 276.16,-0.5 184,-0.5"/>
<text text-anchor="middle" x="230.08" y="-7.5" font-family="Helvetica,sans-Serif" font-size="10.00">menu_scene.cpp</text>
</a>
</g>
</g>
<!-- Node3&#45;&gt;Node6 -->
<g id="edge5" class="edge">
<title>Node3&#45;&gt;Node6</title>
<path fill="none" stroke="midnightblue" d="M198.11,-49.73C206.06,-40.22 215.72,-28.68 222.32,-20.78"/>
<polygon fill="midnightblue" stroke="midnightblue" points="195.41,-47.5 191.68,-57.42 200.78,-51.99 195.41,-47.5"/>
</g>
<!-- Node7 -->
<g id="node7" class="node">
<title>Node7</title>
<g id="a_node7"><a xlink:href="pause__scene_8cpp.html" target="_top" xlink:title=" ">
<polygon fill="none" stroke="black" points="293.88,-0.5 293.88,-20.5 388.28,-20.5 388.28,-0.5 293.88,-0.5"/>
<text text-anchor="middle" x="341.08" y="-7.5" font-family="Helvetica,sans-Serif" font-size="10.00">pause_scene.cpp</text>
</a>
</g>
</g>
<!-- Node3&#45;&gt;Node7 -->
<g id="edge6" class="edge">
<title>Node3&#45;&gt;Node7</title>
<path fill="none" stroke="midnightblue" d="M219.79,-53.99C248.92,-43.79 289.36,-29.62 315.38,-20.5"/>
<polygon fill="midnightblue" stroke="midnightblue" points="218.29,-50.81 210.01,-57.42 220.6,-57.41 218.29,-50.81"/>
</g>
</g>
</svg>
