<?xml version="1.0" encoding="UTF-8" standalone="no"?>
<!DOCTYPE svg PUBLIC "-//W3C//DTD SVG 1.1//EN"
 "http://www.w3.org/Graphics/SVG/1.1/DTD/svg11.dtd">
<!-- Generated by graphviz version 3.0.0 (20220226.1711)
 -->
<!-- Title: sprite_animated.cpp Pages: 1 -->
<svg width="526pt" height="428pt"
 viewBox="0.00 0.00 525.62 428.00" xmlns="http://www.w3.org/2000/svg" xmlns:xlink="http://www.w3.org/1999/xlink">
<g id="graph0" class="graph" transform="scale(1 1) rotate(0) translate(4 424)">
<title>sprite_animated.cpp</title>
<!-- Node1 -->
<g id="node1" class="node">
<title>Node1</title>
<g id="a_node1"><a xlink:title=" ">
<polygon fill="#bfbfbf" stroke="black" points="95.97,-399.5 95.97,-419.5 202.03,-419.5 202.03,-399.5 95.97,-399.5"/>
<text text-anchor="middle" x="149" y="-406.5" font-family="Helvetica,sans-Serif" font-size="10.00">sprite_animated.cpp</text>
</a>
</g>
</g>
<!-- Node2 -->
<g id="node2" class="node">
<title>Node2</title>
<g id="a_node2"><a xlink:title=" ">
<polygon fill="none" stroke="#bfbfbf" points="261.88,-0.5 261.88,-20.5 310.12,-20.5 310.12,-0.5 261.88,-0.5"/>
<text text-anchor="middle" x="286" y="-7.5" font-family="Helvetica,sans-Serif" font-size="10.00">raylib.h</text>
</a>
</g>
</g>
<!-- Node1&#45;&gt;Node2 -->
<g id="edge1" class="edge">
<title>Node1&#45;&gt;Node2</title>
<path fill="none" stroke="midnightblue" d="M115.19,-399.45C71.23,-385.39 0,-353.78 0,-296.5 0,-296.5 0,-296.5 0,-123.5 0,-86.25 19.32,-76.59 51,-57 113.92,-18.08 202.98,-11.29 251.4,-10.76"/>
<polygon fill="midnightblue" stroke="midnightblue" points="251.66,-14.26 261.65,-10.74 251.64,-7.26 251.66,-14.26"/>
</g>
<!-- Node3 -->
<g id="node3" class="node">
<title>Node3</title>
<g id="a_node3"><a xlink:title=" ">
<polygon fill="none" stroke="#bfbfbf" points="68.61,-342.5 68.61,-362.5 107.39,-362.5 107.39,-342.5 68.61,-342.5"/>
<text text-anchor="middle" x="88" y="-349.5" font-family="Helvetica,sans-Serif" font-size="10.00">utility</text>
</a>
</g>
</g>
<!-- Node1&#45;&gt;Node3 -->
<g id="edge2" class="edge">
<title>Node1&#45;&gt;Node3</title>
<path fill="none" stroke="midnightblue" d="M138.93,-399.42C129.97,-391.35 116.68,-379.36 105.91,-369.65"/>
<polygon fill="midnightblue" stroke="midnightblue" points="108.06,-366.88 98.29,-362.78 103.37,-372.08 108.06,-366.88"/>
</g>
<!-- Node4 -->
<g id="node4" class="node">
<title>Node4</title>
<g id="a_node4"><a xlink:href="store_8h.html" target="_top" xlink:title=" ">
<polygon fill="none" stroke="black" points="125.71,-342.5 125.71,-362.5 172.29,-362.5 172.29,-342.5 125.71,-342.5"/>
<text text-anchor="middle" x="149" y="-349.5" font-family="Helvetica,sans-Serif" font-size="10.00">store.h</text>
</a>
</g>
</g>
<!-- Node1&#45;&gt;Node4 -->
<g id="edge3" class="edge">
<title>Node1&#45;&gt;Node4</title>
<path fill="none" stroke="midnightblue" d="M149,-399.42C149,-392.22 149,-381.9 149,-372.86"/>
<polygon fill="midnightblue" stroke="midnightblue" points="152.5,-372.78 149,-362.78 145.5,-372.78 152.5,-372.78"/>
</g>
<!-- Node13 -->
<g id="node13" class="node">
<title>Node13</title>
<g id="a_node13"><a xlink:title=" ">
<polygon fill="none" stroke="#bfbfbf" points="190.49,-342.5 190.49,-362.5 241.51,-362.5 241.51,-342.5 190.49,-342.5"/>
<text text-anchor="middle" x="216" y="-349.5" font-family="Helvetica,sans-Serif" font-size="10.00">config.h</text>
</a>
</g>
</g>
<!-- Node1&#45;&gt;Node13 -->
<g id="edge23" class="edge">
<title>Node1&#45;&gt;Node13</title>
<path fill="none" stroke="midnightblue" d="M160.06,-399.42C169.99,-391.27 184.79,-379.12 196.67,-369.37"/>
<polygon fill="midnightblue" stroke="midnightblue" points="199.19,-371.83 204.7,-362.78 194.75,-366.42 199.19,-371.83"/>
</g>
<!-- Node14 -->
<g id="node14" class="node">
<title>Node14</title>
<g id="a_node14"><a xlink:href="sprite__animated_8h.html" target="_top" xlink:title=" ">
<polygon fill="none" stroke="black" points="416.25,-171.5 416.25,-191.5 511.75,-191.5 511.75,-171.5 416.25,-171.5"/>
<text text-anchor="middle" x="464" y="-178.5" font-family="Helvetica,sans-Serif" font-size="10.00">sprite_animated.h</text>
</a>
</g>
</g>
<!-- Node1&#45;&gt;Node14 -->
<g id="edge24" class="edge">
<title>Node1&#45;&gt;Node14</title>
<path fill="none" stroke="midnightblue" d="M174.74,-399.36C196,-391.27 226.54,-378.38 251,-363 331.54,-312.36 413.78,-233.28 447.78,-199.13"/>
<polygon fill="midnightblue" stroke="midnightblue" points="450.46,-201.39 455,-191.82 445.48,-196.47 450.46,-201.39"/>
</g>
<!-- Node4&#45;&gt;Node2 -->
<g id="edge5" class="edge">
<title>Node4&#45;&gt;Node2</title>
<path fill="none" stroke="midnightblue" d="M128.64,-342.38C96.6,-326.47 38,-290.42 38,-239.5 38,-239.5 38,-239.5 38,-123.5 38,-30.9 183.39,-14.44 251.53,-11.81"/>
<polygon fill="midnightblue" stroke="midnightblue" points="251.88,-15.3 261.77,-11.5 251.67,-8.31 251.88,-15.3"/>
</g>
<!-- Node5 -->
<g id="node5" class="node">
<title>Node5</title>
<g id="a_node5"><a xlink:title=" ">
<polygon fill="none" stroke="#bfbfbf" points="88.27,-171.5 88.27,-191.5 123.73,-191.5 123.73,-171.5 88.27,-171.5"/>
<text text-anchor="middle" x="106" y="-178.5" font-family="Helvetica,sans-Serif" font-size="10.00">map</text>
</a>
</g>
</g>
<!-- Node4&#45;&gt;Node5 -->
<g id="edge4" class="edge">
<title>Node4&#45;&gt;Node5</title>
<path fill="none" stroke="midnightblue" d="M146.39,-342.49C141.27,-324.68 129.65,-283.73 121,-249 117.02,-233.03 112.94,-214.79 110.04,-201.45"/>
<polygon fill="midnightblue" stroke="midnightblue" points="113.44,-200.61 107.91,-191.57 106.59,-202.08 113.44,-200.61"/>
</g>
<!-- Node6 -->
<g id="node6" class="node">
<title>Node6</title>
<g id="a_node6"><a xlink:href="stage_8h.html" target="_top" xlink:title=" ">
<polygon fill="none" stroke="black" points="165.6,-285.5 165.6,-305.5 214.4,-305.5 214.4,-285.5 165.6,-285.5"/>
<text text-anchor="middle" x="190" y="-292.5" font-family="Helvetica,sans-Serif" font-size="10.00">stage.h</text>
</a>
</g>
</g>
<!-- Node4&#45;&gt;Node6 -->
<g id="edge6" class="edge">
<title>Node4&#45;&gt;Node6</title>
<path fill="none" stroke="midnightblue" d="M155.77,-342.42C161.55,-334.66 170.03,-323.29 177.1,-313.8"/>
<polygon fill="midnightblue" stroke="midnightblue" points="179.91,-315.89 183.08,-305.78 174.3,-311.71 179.91,-315.89"/>
</g>
<!-- Node10 -->
<g id="node10" class="node">
<title>Node10</title>
<g id="a_node10"><a xlink:href="actor_8h.html" target="_top" xlink:title=" ">
<polygon fill="none" stroke="black" points="313.71,-171.5 313.71,-191.5 360.29,-191.5 360.29,-171.5 313.71,-171.5"/>
<text text-anchor="middle" x="337" y="-178.5" font-family="Helvetica,sans-Serif" font-size="10.00">actor.h</text>
</a>
</g>
</g>
<!-- Node4&#45;&gt;Node10 -->
<g id="edge22" class="edge">
<title>Node4&#45;&gt;Node10</title>
<path fill="none" stroke="midnightblue" d="M172.57,-343.43C208.98,-329.77 278.68,-298.62 317,-249 327.58,-235.3 332.59,-216.04 334.94,-201.77"/>
<polygon fill="midnightblue" stroke="midnightblue" points="338.44,-201.98 336.31,-191.6 331.51,-201.04 338.44,-201.98"/>
</g>
<!-- Node6&#45;&gt;Node2 -->
<g id="edge9" class="edge">
<title>Node6&#45;&gt;Node2</title>
<path fill="none" stroke="midnightblue" d="M184.56,-285.27C174.05,-266.57 152,-222.54 152,-182.5 152,-182.5 152,-182.5 152,-123.5 152,-90.7 160.47,-79.86 184,-57 202.85,-38.69 230.33,-27.01 252.02,-20.08"/>
<polygon fill="midnightblue" stroke="midnightblue" points="253.26,-23.36 261.83,-17.13 251.25,-16.66 253.26,-23.36"/>
</g>
<!-- Node6&#45;&gt;Node5 -->
<g id="edge10" class="edge">
<title>Node6&#45;&gt;Node5</title>
<path fill="none" stroke="midnightblue" d="M176.69,-285.26C165.3,-276.83 149.04,-263.51 138,-249 126.87,-234.37 118.17,-215.26 112.67,-201.28"/>
<polygon fill="midnightblue" stroke="midnightblue" points="115.88,-199.89 109.09,-191.75 109.33,-202.34 115.88,-199.89"/>
</g>
<!-- Node7 -->
<g id="node7" class="node">
<title>Node7</title>
<g id="a_node7"><a xlink:title=" ">
<polygon fill="none" stroke="#bfbfbf" points="192.94,-57.5 192.94,-77.5 245.06,-77.5 245.06,-57.5 192.94,-57.5"/>
<text text-anchor="middle" x="219" y="-64.5" font-family="Helvetica,sans-Serif" font-size="10.00">memory</text>
</a>
</g>
</g>
<!-- Node6&#45;&gt;Node7 -->
<g id="edge7" class="edge">
<title>Node6&#45;&gt;Node7</title>
<path fill="none" stroke="midnightblue" d="M191.17,-285.36C195.5,-251.64 210.62,-133.77 216.57,-87.42"/>
<polygon fill="midnightblue" stroke="midnightblue" points="220.04,-87.87 217.84,-77.51 213.1,-86.98 220.04,-87.87"/>
</g>
<!-- Node8 -->
<g id="node8" class="node">
<title>Node8</title>
<g id="a_node8"><a xlink:title=" ">
<polygon fill="none" stroke="#bfbfbf" points="217.77,-171.5 217.77,-191.5 258.23,-191.5 258.23,-171.5 217.77,-171.5"/>
<text text-anchor="middle" x="238" y="-178.5" font-family="Helvetica,sans-Serif" font-size="10.00">string</text>
</a>
</g>
</g>
<!-- Node6&#45;&gt;Node8 -->
<g id="edge8" class="edge">
<title>Node6&#45;&gt;Node8</title>
<path fill="none" stroke="midnightblue" d="M193.93,-285.33C201.8,-266.96 219.66,-225.29 230.07,-201.01"/>
<polygon fill="midnightblue" stroke="midnightblue" points="233.3,-202.36 234.02,-191.79 226.86,-199.6 233.3,-202.36"/>
</g>
<!-- Node9 -->
<g id="node9" class="node">
<title>Node9</title>
<g id="a_node9"><a xlink:href="scene_8h.html" target="_top" xlink:title=" ">
<polygon fill="none" stroke="black" points="256.49,-228.5 256.49,-248.5 307.51,-248.5 307.51,-228.5 256.49,-228.5"/>
<text text-anchor="middle" x="282" y="-235.5" font-family="Helvetica,sans-Serif" font-size="10.00">scene.h</text>
</a>
</g>
</g>
<!-- Node6&#45;&gt;Node9 -->
<g id="edge11" class="edge">
<title>Node6&#45;&gt;Node9</title>
<path fill="none" stroke="midnightblue" d="M205.19,-285.42C219.57,-276.82 241.39,-263.78 258.11,-253.78"/>
<polygon fill="midnightblue" stroke="midnightblue" points="260,-256.73 266.79,-248.6 256.41,-250.72 260,-256.73"/>
</g>
<!-- Node11 -->
<g id="node11" class="node">
<title>Node11</title>
<g id="a_node11"><a xlink:href="sprite_8h.html" target="_top" xlink:title=" ">
<polygon fill="none" stroke="black" points="322.6,-114.5 322.6,-134.5 371.4,-134.5 371.4,-114.5 322.6,-114.5"/>
<text text-anchor="middle" x="347" y="-121.5" font-family="Helvetica,sans-Serif" font-size="10.00">sprite.h</text>
</a>
</g>
</g>
<!-- Node6&#45;&gt;Node11 -->
<g id="edge21" class="edge">
<title>Node6&#45;&gt;Node11</title>
<path fill="none" stroke="midnightblue" d="M214.54,-289.46C241.38,-283.13 284.84,-270.42 317,-249 345.54,-229.99 356.61,-223.97 369,-192 375.3,-175.76 367.66,-156.87 359.71,-143.39"/>
<polygon fill="midnightblue" stroke="midnightblue" points="362.43,-141.14 354.06,-134.64 356.54,-144.94 362.43,-141.14"/>
</g>
<!-- Node9&#45;&gt;Node2 -->
<g id="edge14" class="edge">
<title>Node9&#45;&gt;Node2</title>
<path fill="none" stroke="midnightblue" d="M282.16,-228.36C282.76,-194.71 284.84,-77.27 285.66,-30.72"/>
<polygon fill="midnightblue" stroke="midnightblue" points="289.16,-30.57 285.84,-20.51 282.16,-30.44 289.16,-30.57"/>
</g>
<!-- Node9&#45;&gt;Node5 -->
<g id="edge12" class="edge">
<title>Node9&#45;&gt;Node5</title>
<path fill="none" stroke="midnightblue" d="M256.41,-229.5C223.75,-219.3 167.46,-201.71 133.78,-191.18"/>
<polygon fill="midnightblue" stroke="midnightblue" points="134.7,-187.8 124.11,-188.16 132.61,-194.48 134.7,-187.8"/>
</g>
<!-- Node9&#45;&gt;Node8 -->
<g id="edge13" class="edge">
<title>Node9&#45;&gt;Node8</title>
<path fill="none" stroke="midnightblue" d="M274.73,-228.42C268.53,-220.66 259.43,-209.29 251.84,-199.8"/>
<polygon fill="midnightblue" stroke="midnightblue" points="254.4,-197.4 245.42,-191.78 248.94,-201.77 254.4,-197.4"/>
</g>
<!-- Node9&#45;&gt;Node10 -->
<g id="edge15" class="edge">
<title>Node9&#45;&gt;Node10</title>
<path fill="none" stroke="midnightblue" d="M291.08,-228.42C299.08,-220.42 310.91,-208.59 320.56,-198.94"/>
<polygon fill="midnightblue" stroke="midnightblue" points="323.12,-201.33 327.72,-191.78 318.17,-196.38 323.12,-201.33"/>
</g>
<!-- Node10&#45;&gt;Node11 -->
<g id="edge16" class="edge">
<title>Node10&#45;&gt;Node11</title>
<path fill="none" stroke="midnightblue" d="M338.65,-171.42C339.96,-164.22 341.84,-153.9 343.48,-144.86"/>
<polygon fill="midnightblue" stroke="midnightblue" points="346.97,-145.24 345.31,-134.78 340.08,-143.99 346.97,-145.24"/>
</g>
<!-- Node11&#45;&gt;Node2 -->
<g id="edge18" class="edge">
<title>Node11&#45;&gt;Node2</title>
<path fill="none" stroke="midnightblue" d="M342.01,-114.33C331.95,-95.88 309.1,-53.92 295.91,-29.69"/>
<polygon fill="midnightblue" stroke="midnightblue" points="298.92,-27.9 291.06,-20.79 292.77,-31.25 298.92,-27.9"/>
</g>
<!-- Node11&#45;&gt;Node7 -->
<g id="edge17" class="edge">
<title>Node11&#45;&gt;Node7</title>
<path fill="none" stroke="midnightblue" d="M325.86,-114.42C305.02,-105.46 272.95,-91.68 249.38,-81.55"/>
<polygon fill="midnightblue" stroke="midnightblue" points="250.74,-78.33 240.17,-77.6 247.97,-84.76 250.74,-78.33"/>
</g>
<!-- Node12 -->
<g id="node12" class="node">
<title>Node12</title>
<g id="a_node12"><a xlink:href="texture2d_8h.html" target="_top" xlink:title=" ">
<polygon fill="none" stroke="black" points="351.98,-57.5 351.98,-77.5 418.02,-77.5 418.02,-57.5 351.98,-57.5"/>
<text text-anchor="middle" x="385" y="-64.5" font-family="Helvetica,sans-Serif" font-size="10.00">texture2d.h</text>
</a>
</g>
</g>
<!-- Node11&#45;&gt;Node12 -->
<g id="edge19" class="edge">
<title>Node11&#45;&gt;Node12</title>
<path fill="none" stroke="midnightblue" d="M353.27,-114.42C358.58,-106.74 366.33,-95.52 372.84,-86.09"/>
<polygon fill="midnightblue" stroke="midnightblue" points="375.78,-88 378.59,-77.78 370.02,-84.02 375.78,-88"/>
</g>
<!-- Node12&#45;&gt;Node2 -->
<g id="edge20" class="edge">
<title>Node12&#45;&gt;Node2</title>
<path fill="none" stroke="midnightblue" d="M368.65,-57.42C353.03,-48.74 329.26,-35.53 311.21,-25.51"/>
<polygon fill="midnightblue" stroke="midnightblue" points="312.81,-22.39 302.37,-20.6 309.41,-28.51 312.81,-22.39"/>
</g>
<!-- Node14&#45;&gt;Node2 -->
<g id="edge26" class="edge">
<title>Node14&#45;&gt;Node2</title>
<path fill="none" stroke="midnightblue" d="M463.99,-171.32C463.47,-148.68 458.94,-89.62 427,-57 398.79,-28.19 352.25,-17.6 320.41,-13.72"/>
<polygon fill="midnightblue" stroke="midnightblue" points="320.54,-10.22 310.22,-12.65 319.8,-17.18 320.54,-10.22"/>
</g>
<!-- Node14&#45;&gt;Node11 -->
<g id="edge28" class="edge">
<title>Node14&#45;&gt;Node11</title>
<path fill="none" stroke="midnightblue" d="M444.68,-171.42C425.88,-162.58 397.09,-149.05 375.63,-138.96"/>
<polygon fill="midnightblue" stroke="midnightblue" points="376.89,-135.68 366.35,-134.6 373.91,-142.02 376.89,-135.68"/>
</g>
<!-- Node14&#45;&gt;Node12 -->
<g id="edge27" class="edge">
<title>Node14&#45;&gt;Node12</title>
<path fill="none" stroke="midnightblue" d="M457.54,-171.33C444.4,-152.71 414.4,-110.17 397.38,-86.05"/>
<polygon fill="midnightblue" stroke="midnightblue" points="400.18,-83.95 391.55,-77.79 394.46,-87.98 400.18,-83.95"/>
</g>
<!-- Node15 -->
<g id="node15" class="node">
<title>Node15</title>
<g id="a_node15"><a xlink:title=" ">
<polygon fill="none" stroke="#bfbfbf" points="474.38,-114.5 474.38,-134.5 517.62,-134.5 517.62,-114.5 474.38,-114.5"/>
<text text-anchor="middle" x="496" y="-121.5" font-family="Helvetica,sans-Serif" font-size="10.00">vector</text>
</a>
</g>
</g>
<!-- Node14&#45;&gt;Node15 -->
<g id="edge25" class="edge">
<title>Node14&#45;&gt;Node15</title>
<path fill="none" stroke="midnightblue" d="M469.28,-171.42C473.66,-163.9 480.01,-152.98 485.42,-143.68"/>
<polygon fill="midnightblue" stroke="midnightblue" points="488.6,-145.18 490.6,-134.78 482.55,-141.66 488.6,-145.18"/>
</g>
</g>
</svg>
