<?xml version="1.0" encoding="UTF-8" standalone="no"?>
<!DOCTYPE svg PUBLIC "-//W3C//DTD SVG 1.1//EN"
 "http://www.w3.org/Graphics/SVG/1.1/DTD/svg11.dtd">
<!-- Generated by graphviz version 3.0.0 (20220226.1711)
 -->
<!-- Title: stage.cpp Pages: 1 -->
<svg width="404pt" height="371pt"
 viewBox="0.00 0.00 404.40 371.00" xmlns="http://www.w3.org/2000/svg" xmlns:xlink="http://www.w3.org/1999/xlink">
<g id="graph0" class="graph" transform="scale(1 1) rotate(0) translate(4 367)">
<title>stage.cpp</title>
<!-- Node1 -->
<g id="node1" class="node">
<title>Node1</title>
<g id="a_node1"><a xlink:title=" ">
<polygon fill="#bfbfbf" stroke="black" points="133.32,-342.5 133.32,-362.5 192.68,-362.5 192.68,-342.5 133.32,-342.5"/>
<text text-anchor="middle" x="163" y="-349.5" font-family="Helvetica,sans-Serif" font-size="10.00">stage.cpp</text>
</a>
</g>
</g>
<!-- Node2 -->
<g id="node2" class="node">
<title>Node2</title>
<g id="a_node2"><a xlink:title=" ">
<polygon fill="none" stroke="#bfbfbf" points="71.94,-57.5 71.94,-77.5 124.06,-77.5 124.06,-57.5 71.94,-57.5"/>
<text text-anchor="middle" x="98" y="-64.5" font-family="Helvetica,sans-Serif" font-size="10.00">memory</text>
</a>
</g>
</g>
<!-- Node1&#45;&gt;Node2 -->
<g id="edge1" class="edge">
<title>Node1&#45;&gt;Node2</title>
<path fill="none" stroke="midnightblue" d="M133.1,-345.28C86.05,-333.55 0,-303.36 0,-239.5 0,-239.5 0,-239.5 0,-180.5 0,-136.67 43.03,-101.75 72.07,-83.17"/>
<polygon fill="midnightblue" stroke="midnightblue" points="74.24,-85.95 80.93,-77.73 70.58,-79.98 74.24,-85.95"/>
</g>
<!-- Node3 -->
<g id="node3" class="node">
<title>Node3</title>
<g id="a_node3"><a xlink:title=" ">
<polygon fill="none" stroke="#bfbfbf" points="50.27,-171.5 50.27,-191.5 85.73,-191.5 85.73,-171.5 50.27,-171.5"/>
<text text-anchor="middle" x="68" y="-178.5" font-family="Helvetica,sans-Serif" font-size="10.00">map</text>
</a>
</g>
</g>
<!-- Node1&#45;&gt;Node3 -->
<g id="edge2" class="edge">
<title>Node1&#45;&gt;Node3</title>
<path fill="none" stroke="midnightblue" d="M153.45,-342.3C136.53,-325.45 101.36,-287.76 83,-249 75.88,-233.96 72.05,-215.38 70.05,-201.68"/>
<polygon fill="midnightblue" stroke="midnightblue" points="73.49,-201 68.77,-191.51 66.55,-201.87 73.49,-201"/>
</g>
<!-- Node4 -->
<g id="node4" class="node">
<title>Node4</title>
<g id="a_node4"><a xlink:href="stage_8h.html" target="_top" xlink:title=" ">
<polygon fill="none" stroke="black" points="138.6,-285.5 138.6,-305.5 187.4,-305.5 187.4,-285.5 138.6,-285.5"/>
<text text-anchor="middle" x="163" y="-292.5" font-family="Helvetica,sans-Serif" font-size="10.00">stage.h</text>
</a>
</g>
</g>
<!-- Node1&#45;&gt;Node4 -->
<g id="edge3" class="edge">
<title>Node1&#45;&gt;Node4</title>
<path fill="none" stroke="midnightblue" d="M163,-342.42C163,-335.22 163,-324.9 163,-315.86"/>
<polygon fill="midnightblue" stroke="midnightblue" points="166.5,-315.78 163,-305.78 159.5,-315.78 166.5,-315.78"/>
</g>
<!-- Node9 -->
<g id="node9" class="node">
<title>Node9</title>
<g id="a_node9"><a xlink:href="sprite_8h.html" target="_top" xlink:title=" ">
<polygon fill="none" stroke="black" points="325.6,-114.5 325.6,-134.5 374.4,-134.5 374.4,-114.5 325.6,-114.5"/>
<text text-anchor="middle" x="350" y="-121.5" font-family="Helvetica,sans-Serif" font-size="10.00">sprite.h</text>
</a>
</g>
</g>
<!-- Node1&#45;&gt;Node9 -->
<g id="edge23" class="edge">
<title>Node1&#45;&gt;Node9</title>
<path fill="none" stroke="midnightblue" d="M192.95,-352.47C234.54,-352.21 309.95,-345.73 357,-306 403.62,-266.63 400.41,-229.18 382,-171 378.7,-160.59 372.08,-150.49 365.7,-142.47"/>
<polygon fill="midnightblue" stroke="midnightblue" points="368.2,-140.01 359.06,-134.66 362.87,-144.54 368.2,-140.01"/>
</g>
<!-- Node11 -->
<g id="node11" class="node">
<title>Node11</title>
<g id="a_node11"><a xlink:href="renderer_8h.html" target="_top" xlink:title=" ">
<polygon fill="none" stroke="black" points="285.93,-285.5 285.93,-305.5 348.07,-305.5 348.07,-285.5 285.93,-285.5"/>
<text text-anchor="middle" x="317" y="-292.5" font-family="Helvetica,sans-Serif" font-size="10.00">renderer.h</text>
</a>
</g>
</g>
<!-- Node1&#45;&gt;Node11 -->
<g id="edge19" class="edge">
<title>Node1&#45;&gt;Node11</title>
<path fill="none" stroke="midnightblue" d="M188.43,-342.42C214.03,-333.27 253.71,-319.1 282.21,-308.92"/>
<polygon fill="midnightblue" stroke="midnightblue" points="283.55,-312.16 291.79,-305.5 281.19,-305.57 283.55,-312.16"/>
</g>
<!-- Node4&#45;&gt;Node2 -->
<g id="edge4" class="edge">
<title>Node4&#45;&gt;Node2</title>
<path fill="none" stroke="midnightblue" d="M157.02,-285.46C151.37,-276.54 143.02,-262.33 138,-249 116.75,-192.58 105.15,-121.77 100.48,-88.07"/>
<polygon fill="midnightblue" stroke="midnightblue" points="103.9,-87.23 99.11,-77.78 96.96,-88.15 103.9,-87.23"/>
</g>
<!-- Node4&#45;&gt;Node3 -->
<g id="edge7" class="edge">
<title>Node4&#45;&gt;Node3</title>
<path fill="none" stroke="midnightblue" d="M145.94,-285.38C132.13,-277.3 112.9,-264.42 100,-249 88.2,-234.91 79.58,-215.73 74.28,-201.59"/>
<polygon fill="midnightblue" stroke="midnightblue" points="77.5,-200.2 70.87,-191.93 70.9,-202.52 77.5,-200.2"/>
</g>
<!-- Node5 -->
<g id="node5" class="node">
<title>Node5</title>
<g id="a_node5"><a xlink:title=" ">
<polygon fill="none" stroke="#bfbfbf" points="179.77,-171.5 179.77,-191.5 220.23,-191.5 220.23,-171.5 179.77,-171.5"/>
<text text-anchor="middle" x="200" y="-178.5" font-family="Helvetica,sans-Serif" font-size="10.00">string</text>
</a>
</g>
</g>
<!-- Node4&#45;&gt;Node5 -->
<g id="edge5" class="edge">
<title>Node4&#45;&gt;Node5</title>
<path fill="none" stroke="midnightblue" d="M166.03,-285.33C172.07,-267.04 185.74,-225.67 193.78,-201.34"/>
<polygon fill="midnightblue" stroke="midnightblue" points="197.12,-202.39 196.93,-191.79 190.47,-200.19 197.12,-202.39"/>
</g>
<!-- Node6 -->
<g id="node6" class="node">
<title>Node6</title>
<g id="a_node6"><a xlink:title=" ">
<polygon fill="none" stroke="#bfbfbf" points="284.88,-0.5 284.88,-20.5 333.12,-20.5 333.12,-0.5 284.88,-0.5"/>
<text text-anchor="middle" x="309" y="-7.5" font-family="Helvetica,sans-Serif" font-size="10.00">raylib.h</text>
</a>
</g>
</g>
<!-- Node4&#45;&gt;Node6 -->
<g id="edge6" class="edge">
<title>Node4&#45;&gt;Node6</title>
<path fill="none" stroke="midnightblue" d="M161.47,-285.24C158.45,-266.1 152,-220.79 152,-182.5 152,-182.5 152,-182.5 152,-123.5 152,-63.58 228.73,-32.7 274.91,-19.54"/>
<polygon fill="midnightblue" stroke="midnightblue" points="276.08,-22.85 284.81,-16.86 274.25,-16.1 276.08,-22.85"/>
</g>
<!-- Node7 -->
<g id="node7" class="node">
<title>Node7</title>
<g id="a_node7"><a xlink:href="scene_8h.html" target="_top" xlink:title=" ">
<polygon fill="none" stroke="black" points="221.49,-228.5 221.49,-248.5 272.51,-248.5 272.51,-228.5 221.49,-228.5"/>
<text text-anchor="middle" x="247" y="-235.5" font-family="Helvetica,sans-Serif" font-size="10.00">scene.h</text>
</a>
</g>
</g>
<!-- Node4&#45;&gt;Node7 -->
<g id="edge8" class="edge">
<title>Node4&#45;&gt;Node7</title>
<path fill="none" stroke="midnightblue" d="M176.87,-285.42C189.76,-276.98 209.19,-264.26 224.33,-254.34"/>
<polygon fill="midnightblue" stroke="midnightblue" points="226.66,-257 233.11,-248.6 222.83,-251.15 226.66,-257"/>
</g>
<!-- Node4&#45;&gt;Node9 -->
<g id="edge18" class="edge">
<title>Node4&#45;&gt;Node9</title>
<path fill="none" stroke="midnightblue" d="M187.5,-288.94C212.82,-282.36 252.69,-269.61 282,-249 309.33,-229.78 315.15,-221.41 331,-192 339.01,-177.14 343.95,-158.54 346.78,-144.79"/>
<polygon fill="midnightblue" stroke="midnightblue" points="350.29,-145.04 348.68,-134.57 343.41,-143.76 350.29,-145.04"/>
</g>
<!-- Node7&#45;&gt;Node3 -->
<g id="edge9" class="edge">
<title>Node7&#45;&gt;Node3</title>
<path fill="none" stroke="midnightblue" d="M221.35,-229.62C187.98,-219.36 129.87,-201.51 95.57,-190.97"/>
<polygon fill="midnightblue" stroke="midnightblue" points="96.33,-187.54 85.75,-187.95 94.28,-194.24 96.33,-187.54"/>
</g>
<!-- Node7&#45;&gt;Node5 -->
<g id="edge10" class="edge">
<title>Node7&#45;&gt;Node5</title>
<path fill="none" stroke="midnightblue" d="M239.24,-228.42C232.54,-220.58 222.69,-209.06 214.54,-199.51"/>
<polygon fill="midnightblue" stroke="midnightblue" points="217.09,-197.11 207.93,-191.78 211.77,-201.66 217.09,-197.11"/>
</g>
<!-- Node7&#45;&gt;Node6 -->
<g id="edge11" class="edge">
<title>Node7&#45;&gt;Node6</title>
<path fill="none" stroke="midnightblue" d="M246.08,-228.34C243.71,-200.9 239.4,-117.53 267,-57 272.14,-45.73 281.16,-35.39 289.52,-27.43"/>
<polygon fill="midnightblue" stroke="midnightblue" points="292.07,-29.84 297.19,-20.57 287.41,-24.62 292.07,-29.84"/>
</g>
<!-- Node8 -->
<g id="node8" class="node">
<title>Node8</title>
<g id="a_node8"><a xlink:href="actor_8h.html" target="_top" xlink:title=" ">
<polygon fill="none" stroke="black" points="275.71,-171.5 275.71,-191.5 322.29,-191.5 322.29,-171.5 275.71,-171.5"/>
<text text-anchor="middle" x="299" y="-178.5" font-family="Helvetica,sans-Serif" font-size="10.00">actor.h</text>
</a>
</g>
</g>
<!-- Node7&#45;&gt;Node8 -->
<g id="edge12" class="edge">
<title>Node7&#45;&gt;Node8</title>
<path fill="none" stroke="midnightblue" d="M255.59,-228.42C263.07,-220.5 274.11,-208.82 283.19,-199.23"/>
<polygon fill="midnightblue" stroke="midnightblue" points="285.9,-201.45 290.23,-191.78 280.81,-196.64 285.9,-201.45"/>
</g>
<!-- Node8&#45;&gt;Node9 -->
<g id="edge13" class="edge">
<title>Node8&#45;&gt;Node9</title>
<path fill="none" stroke="midnightblue" d="M307.42,-171.42C314.76,-163.5 325.59,-151.82 334.49,-142.23"/>
<polygon fill="midnightblue" stroke="midnightblue" points="337.16,-144.49 341.4,-134.78 332.03,-139.73 337.16,-144.49"/>
</g>
<!-- Node9&#45;&gt;Node2 -->
<g id="edge14" class="edge">
<title>Node9&#45;&gt;Node2</title>
<path fill="none" stroke="midnightblue" d="M325.38,-118.13C280.68,-108.37 186,-87.71 134.03,-76.36"/>
<polygon fill="midnightblue" stroke="midnightblue" points="134.74,-72.94 124.23,-74.22 133.25,-79.78 134.74,-72.94"/>
</g>
<!-- Node9&#45;&gt;Node6 -->
<g id="edge15" class="edge">
<title>Node9&#45;&gt;Node6</title>
<path fill="none" stroke="midnightblue" d="M352.31,-114.07C355.08,-100.81 358.48,-76.14 351,-57 346.55,-45.62 337.77,-35.37 329.39,-27.5"/>
<polygon fill="midnightblue" stroke="midnightblue" points="331.45,-24.66 321.62,-20.72 326.85,-29.93 331.45,-24.66"/>
</g>
<!-- Node10 -->
<g id="node10" class="node">
<title>Node10</title>
<g id="a_node10"><a xlink:href="texture2d_8h.html" target="_top" xlink:title=" ">
<polygon fill="none" stroke="black" points="275.98,-57.5 275.98,-77.5 342.02,-77.5 342.02,-57.5 275.98,-57.5"/>
<text text-anchor="middle" x="309" y="-64.5" font-family="Helvetica,sans-Serif" font-size="10.00">texture2d.h</text>
</a>
</g>
</g>
<!-- Node9&#45;&gt;Node10 -->
<g id="edge16" class="edge">
<title>Node9&#45;&gt;Node10</title>
<path fill="none" stroke="midnightblue" d="M343.23,-114.42C337.45,-106.66 328.97,-95.29 321.9,-85.8"/>
<polygon fill="midnightblue" stroke="midnightblue" points="324.7,-83.71 315.92,-77.78 319.09,-87.89 324.7,-83.71"/>
</g>
<!-- Node10&#45;&gt;Node6 -->
<g id="edge17" class="edge">
<title>Node10&#45;&gt;Node6</title>
<path fill="none" stroke="midnightblue" d="M309,-57.42C309,-50.22 309,-39.9 309,-30.86"/>
<polygon fill="midnightblue" stroke="midnightblue" points="312.5,-30.78 309,-20.78 305.5,-30.78 312.5,-30.78"/>
</g>
<!-- Node11&#45;&gt;Node6 -->
<g id="edge20" class="edge">
<title>Node11&#45;&gt;Node6</title>
<path fill="none" stroke="midnightblue" d="M338.71,-285.5C353.53,-278.08 372.04,-266 381,-249 408.98,-195.92 390.7,-173.51 383,-114 379.64,-88.02 382.48,-78.83 368,-57 359.63,-44.37 346.56,-33.77 334.85,-25.99"/>
<polygon fill="midnightblue" stroke="midnightblue" points="336.6,-22.95 326.26,-20.6 332.87,-28.88 336.6,-22.95"/>
</g>
<!-- Node11&#45;&gt;Node7 -->
<g id="edge21" class="edge">
<title>Node11&#45;&gt;Node7</title>
<path fill="none" stroke="midnightblue" d="M305.44,-285.42C294.97,-277.19 279.31,-264.88 266.83,-255.08"/>
<polygon fill="midnightblue" stroke="midnightblue" points="268.84,-252.21 258.81,-248.78 264.51,-257.71 268.84,-252.21"/>
</g>
<!-- Node11&#45;&gt;Node9 -->
<g id="edge22" class="edge">
<title>Node11&#45;&gt;Node9</title>
<path fill="none" stroke="midnightblue" d="M331.54,-285.3C342.76,-277.27 357.44,-264.48 364,-249 378.81,-214.06 366.66,-168.84 357.61,-143.95"/>
<polygon fill="midnightblue" stroke="midnightblue" points="360.87,-142.69 354,-134.62 354.34,-145.21 360.87,-142.69"/>
</g>
</g>
</svg>
