<?xml version="1.0" encoding="UTF-8" standalone="no"?>
<!DOCTYPE svg PUBLIC "-//W3C//DTD SVG 1.1//EN"
 "http://www.w3.org/Graphics/SVG/1.1/DTD/svg11.dtd">
<!-- Generated by graphviz version 3.0.0 (20220226.1711)
 -->
<!-- Title: stage.h Pages: 1 -->
<svg width="309pt" height="314pt"
 viewBox="0.00 0.00 308.68 314.00" xmlns="http://www.w3.org/2000/svg" xmlns:xlink="http://www.w3.org/1999/xlink">
<g id="graph0" class="graph" transform="scale(1 1) rotate(0) translate(4 310)">
<title>stage.h</title>
<!-- Node1 -->
<g id="node1" class="node">
<title>Node1</title>
<g id="a_node1"><a xlink:title=" ">
<polygon fill="#bfbfbf" stroke="black" points="180.83,-285.5 180.83,-305.5 229.63,-305.5 229.63,-285.5 180.83,-285.5"/>
<text text-anchor="middle" x="205.23" y="-292.5" font-family="Helvetica,sans-Serif" font-size="10.00">stage.h</text>
</a>
</g>
</g>
<!-- Node2 -->
<g id="node2" class="node">
<title>Node2</title>
<g id="a_node2"><a xlink:title=" ">
<polygon fill="none" stroke="#bfbfbf" points="220.17,-57.5 220.17,-77.5 272.28,-77.5 272.28,-57.5 220.17,-57.5"/>
<text text-anchor="middle" x="246.23" y="-64.5" font-family="Helvetica,sans-Serif" font-size="10.00">memory</text>
</a>
</g>
</g>
<!-- Node1&#45;&gt;Node2 -->
<g id="edge1" class="edge">
<title>Node1&#45;&gt;Node2</title>
<path fill="none" stroke="midnightblue" d="M209.37,-285.28C213.28,-276.23 219,-261.93 222.23,-249 236.62,-191.39 242.81,-121.14 245.09,-87.82"/>
<polygon fill="midnightblue" stroke="midnightblue" points="248.6,-87.85 245.74,-77.65 241.61,-87.41 248.6,-87.85"/>
</g>
<!-- Node3 -->
<g id="node3" class="node">
<title>Node3</title>
<g id="a_node3"><a xlink:title=" ">
<polygon fill="none" stroke="#bfbfbf" points="0,-171.5 0,-191.5 40.45,-191.5 40.45,-171.5 0,-171.5"/>
<text text-anchor="middle" x="20.23" y="-178.5" font-family="Helvetica,sans-Serif" font-size="10.00">string</text>
</a>
</g>
</g>
<!-- Node1&#45;&gt;Node3 -->
<g id="edge2" class="edge">
<title>Node1&#45;&gt;Node3</title>
<path fill="none" stroke="midnightblue" d="M180.55,-288.69C154.98,-281.9 114.6,-268.99 84.23,-249 63.86,-235.6 45.1,-214.64 33.23,-199.84"/>
<polygon fill="midnightblue" stroke="midnightblue" points="35.98,-197.68 27.07,-191.94 30.46,-201.98 35.98,-197.68"/>
</g>
<!-- Node4 -->
<g id="node4" class="node">
<title>Node4</title>
<g id="a_node4"><a xlink:title=" ">
<polygon fill="none" stroke="#bfbfbf" points="137.11,-0.5 137.11,-20.5 185.34,-20.5 185.34,-0.5 137.11,-0.5"/>
<text text-anchor="middle" x="161.23" y="-7.5" font-family="Helvetica,sans-Serif" font-size="10.00">raylib.h</text>
</a>
</g>
</g>
<!-- Node1&#45;&gt;Node4 -->
<g id="edge3" class="edge">
<title>Node1&#45;&gt;Node4</title>
<path fill="none" stroke="midnightblue" d="M221.34,-285.4C248.45,-268.77 300.23,-230.69 300.23,-182.5 300.23,-182.5 300.23,-182.5 300.23,-123.5 300.23,-92.76 302.03,-79.63 281.23,-57 259,-32.82 222.57,-21.4 195.67,-16.06"/>
<polygon fill="midnightblue" stroke="midnightblue" points="195.98,-12.56 185.52,-14.24 194.75,-19.45 195.98,-12.56"/>
</g>
<!-- Node5 -->
<g id="node5" class="node">
<title>Node5</title>
<g id="a_node5"><a xlink:title=" ">
<polygon fill="none" stroke="#bfbfbf" points="160.5,-171.5 160.5,-191.5 195.95,-191.5 195.95,-171.5 160.5,-171.5"/>
<text text-anchor="middle" x="178.23" y="-178.5" font-family="Helvetica,sans-Serif" font-size="10.00">map</text>
</a>
</g>
</g>
<!-- Node1&#45;&gt;Node5 -->
<g id="edge4" class="edge">
<title>Node1&#45;&gt;Node5</title>
<path fill="none" stroke="midnightblue" d="M203.02,-285.33C198.63,-267.12 188.72,-226.04 182.85,-201.67"/>
<polygon fill="midnightblue" stroke="midnightblue" points="186.21,-200.69 180.47,-191.79 179.41,-202.33 186.21,-200.69"/>
</g>
<!-- Node6 -->
<g id="node6" class="node">
<title>Node6</title>
<g id="a_node6"><a xlink:href="scene_8h.html" target="_top" xlink:title=" ">
<polygon fill="none" stroke="black" points="93.71,-228.5 93.71,-248.5 144.74,-248.5 144.74,-228.5 93.71,-228.5"/>
<text text-anchor="middle" x="119.23" y="-235.5" font-family="Helvetica,sans-Serif" font-size="10.00">scene.h</text>
</a>
</g>
</g>
<!-- Node1&#45;&gt;Node6 -->
<g id="edge5" class="edge">
<title>Node1&#45;&gt;Node6</title>
<path fill="none" stroke="midnightblue" d="M191.03,-285.42C177.71,-276.9 157.56,-264.02 142,-254.06"/>
<polygon fill="midnightblue" stroke="midnightblue" points="143.76,-251.03 133.45,-248.6 139.99,-256.93 143.76,-251.03"/>
</g>
<!-- Node8 -->
<g id="node8" class="node">
<title>Node8</title>
<g id="a_node8"><a xlink:href="sprite_8h.html" target="_top" xlink:title=" ">
<polygon fill="none" stroke="black" points="167.83,-114.5 167.83,-134.5 216.62,-134.5 216.62,-114.5 167.83,-114.5"/>
<text text-anchor="middle" x="192.23" y="-121.5" font-family="Helvetica,sans-Serif" font-size="10.00">sprite.h</text>
</a>
</g>
</g>
<!-- Node1&#45;&gt;Node8 -->
<g id="edge15" class="edge">
<title>Node1&#45;&gt;Node8</title>
<path fill="none" stroke="midnightblue" d="M206.08,-285.45C207.83,-264.96 211.17,-213.47 205.23,-171 203.97,-162.06 201.4,-152.42 198.88,-144.32"/>
<polygon fill="midnightblue" stroke="midnightblue" points="202.17,-143.13 195.69,-134.75 195.53,-145.34 202.17,-143.13"/>
</g>
<!-- Node6&#45;&gt;Node3 -->
<g id="edge7" class="edge">
<title>Node6&#45;&gt;Node3</title>
<path fill="none" stroke="midnightblue" d="M102.88,-228.42C87.26,-219.74 63.49,-206.53 45.44,-196.51"/>
<polygon fill="midnightblue" stroke="midnightblue" points="47.04,-193.39 36.6,-191.6 43.64,-199.51 47.04,-193.39"/>
</g>
<!-- Node6&#45;&gt;Node4 -->
<g id="edge8" class="edge">
<title>Node6&#45;&gt;Node4</title>
<path fill="none" stroke="midnightblue" d="M110.17,-228.34C102.38,-219.76 91.71,-206.18 87.23,-192 77.12,-160.07 37.21,-149.48 89.23,-57 97.61,-42.09 113.12,-31.37 127.6,-24.09"/>
<polygon fill="midnightblue" stroke="midnightblue" points="129.27,-27.17 136.88,-19.79 126.33,-20.82 129.27,-27.17"/>
</g>
<!-- Node6&#45;&gt;Node5 -->
<g id="edge6" class="edge">
<title>Node6&#45;&gt;Node5</title>
<path fill="none" stroke="midnightblue" d="M128.97,-228.42C137.63,-220.35 150.49,-208.36 160.9,-198.65"/>
<polygon fill="midnightblue" stroke="midnightblue" points="163.34,-201.16 168.27,-191.78 158.57,-196.04 163.34,-201.16"/>
</g>
<!-- Node7 -->
<g id="node7" class="node">
<title>Node7</title>
<g id="a_node7"><a xlink:href="actor_8h.html" target="_top" xlink:title=" ">
<polygon fill="none" stroke="black" points="95.94,-171.5 95.94,-191.5 142.51,-191.5 142.51,-171.5 95.94,-171.5"/>
<text text-anchor="middle" x="119.23" y="-178.5" font-family="Helvetica,sans-Serif" font-size="10.00">actor.h</text>
</a>
</g>
</g>
<!-- Node6&#45;&gt;Node7 -->
<g id="edge9" class="edge">
<title>Node6&#45;&gt;Node7</title>
<path fill="none" stroke="midnightblue" d="M119.23,-228.42C119.23,-221.22 119.23,-210.9 119.23,-201.86"/>
<polygon fill="midnightblue" stroke="midnightblue" points="122.73,-201.78 119.23,-191.78 115.73,-201.78 122.73,-201.78"/>
</g>
<!-- Node7&#45;&gt;Node8 -->
<g id="edge10" class="edge">
<title>Node7&#45;&gt;Node8</title>
<path fill="none" stroke="midnightblue" d="M131.28,-171.42C142.31,-163.11 158.85,-150.65 171.92,-140.8"/>
<polygon fill="midnightblue" stroke="midnightblue" points="174.03,-143.59 179.91,-134.78 169.82,-138 174.03,-143.59"/>
</g>
<!-- Node8&#45;&gt;Node2 -->
<g id="edge11" class="edge">
<title>Node8&#45;&gt;Node2</title>
<path fill="none" stroke="midnightblue" d="M201.14,-114.42C208.99,-106.42 220.61,-94.59 230.09,-84.94"/>
<polygon fill="midnightblue" stroke="midnightblue" points="232.61,-87.37 237.12,-77.78 227.61,-82.46 232.61,-87.37"/>
</g>
<!-- Node8&#45;&gt;Node4 -->
<g id="edge12" class="edge">
<title>Node8&#45;&gt;Node4</title>
<path fill="none" stroke="midnightblue" d="M189.69,-114.33C184.65,-96.12 173.28,-55.04 166.53,-30.67"/>
<polygon fill="midnightblue" stroke="midnightblue" points="169.84,-29.5 163.8,-20.79 163.09,-31.36 169.84,-29.5"/>
</g>
<!-- Node9 -->
<g id="node9" class="node">
<title>Node9</title>
<g id="a_node9"><a xlink:href="texture2d_8h.html" target="_top" xlink:title=" ">
<polygon fill="none" stroke="black" points="98.21,-57.5 98.21,-77.5 164.24,-77.5 164.24,-57.5 98.21,-57.5"/>
<text text-anchor="middle" x="131.23" y="-64.5" font-family="Helvetica,sans-Serif" font-size="10.00">texture2d.h</text>
</a>
</g>
</g>
<!-- Node8&#45;&gt;Node9 -->
<g id="edge13" class="edge">
<title>Node8&#45;&gt;Node9</title>
<path fill="none" stroke="midnightblue" d="M182.15,-114.42C173.2,-106.35 159.9,-94.36 149.14,-84.65"/>
<polygon fill="midnightblue" stroke="midnightblue" points="151.29,-81.88 141.52,-77.78 146.6,-87.08 151.29,-81.88"/>
</g>
<!-- Node9&#45;&gt;Node4 -->
<g id="edge14" class="edge">
<title>Node9&#45;&gt;Node4</title>
<path fill="none" stroke="midnightblue" d="M136.18,-57.42C140.28,-49.9 146.24,-38.98 151.31,-29.68"/>
<polygon fill="midnightblue" stroke="midnightblue" points="154.45,-31.23 156.17,-20.78 148.3,-27.88 154.45,-31.23"/>
</g>
</g>
</svg>
