<?xml version="1.0" encoding="UTF-8" standalone="no"?>
<!DOCTYPE svg PUBLIC "-//W3C//DTD SVG 1.1//EN"
 "http://www.w3.org/Graphics/SVG/1.1/DTD/svg11.dtd">
<!-- Generated by graphviz version 3.0.0 (20220226.1711)
 -->
<!-- Title: stage.h Pages: 1 -->
<svg width="528pt" height="143pt"
 viewBox="0.00 0.00 527.98 143.00" xmlns="http://www.w3.org/2000/svg" xmlns:xlink="http://www.w3.org/1999/xlink">
<g id="graph0" class="graph" transform="scale(1 1) rotate(0) translate(4 139)">
<title>stage.h</title>
<!-- Node1 -->
<g id="node1" class="node">
<title>Node1</title>
<g id="a_node1"><a xlink:title=" ">
<polygon fill="#bfbfbf" stroke="black" points="104.56,-114.5 104.56,-134.5 153.36,-134.5 153.36,-114.5 104.56,-114.5"/>
<text text-anchor="middle" x="128.96" y="-121.5" font-family="Helvetica,sans-Serif" font-size="10.00">stage.h</text>
</a>
</g>
</g>
<!-- Node2 -->
<g id="node2" class="node">
<title>Node2</title>
<g id="a_node2"><a xlink:href="game_8cpp.html" target="_top" xlink:title=" ">
<polygon fill="none" stroke="black" points="0,-0.5 0,-20.5 59.92,-20.5 59.92,-0.5 0,-0.5"/>
<text text-anchor="middle" x="29.96" y="-7.5" font-family="Helvetica,sans-Serif" font-size="10.00">game.cpp</text>
</a>
</g>
</g>
<!-- Node1&#45;&gt;Node2 -->
<g id="edge1" class="edge">
<title>Node1&#45;&gt;Node2</title>
<path fill="none" stroke="midnightblue" d="M94.78,-113.8C76.34,-106.8 54.79,-95.46 41.96,-78 29.31,-60.79 28.58,-34.44 29.22,-20.64"/>
<polygon fill="midnightblue" stroke="midnightblue" points="93.75,-117.15 104.35,-117.15 96.07,-110.54 93.75,-117.15"/>
</g>
<!-- Node3 -->
<g id="node3" class="node">
<title>Node3</title>
<g id="a_node3"><a xlink:href="renderer_8cpp.html" target="_top" xlink:title=" ">
<polygon fill="none" stroke="black" points="50.61,-57.5 50.61,-77.5 123.31,-77.5 123.31,-57.5 50.61,-57.5"/>
<text text-anchor="middle" x="86.96" y="-64.5" font-family="Helvetica,sans-Serif" font-size="10.00">renderer.cpp</text>
</a>
</g>
</g>
<!-- Node1&#45;&gt;Node3 -->
<g id="edge2" class="edge">
<title>Node1&#45;&gt;Node3</title>
<path fill="none" stroke="midnightblue" d="M115.93,-106.44C108.71,-96.98 100.01,-85.6 94.04,-77.78"/>
<polygon fill="midnightblue" stroke="midnightblue" points="113.17,-108.59 122.02,-114.42 118.74,-104.35 113.17,-108.59"/>
</g>
<!-- Node4 -->
<g id="node4" class="node">
<title>Node4</title>
<g id="a_node4"><a xlink:href="stage_8cpp.html" target="_top" xlink:title=" ">
<polygon fill="none" stroke="black" points="141.28,-57.5 141.28,-77.5 200.64,-77.5 200.64,-57.5 141.28,-57.5"/>
<text text-anchor="middle" x="170.96" y="-64.5" font-family="Helvetica,sans-Serif" font-size="10.00">stage.cpp</text>
</a>
</g>
</g>
<!-- Node1&#45;&gt;Node4 -->
<g id="edge3" class="edge">
<title>Node1&#45;&gt;Node4</title>
<path fill="none" stroke="midnightblue" d="M141.99,-106.44C149.21,-96.98 157.9,-85.6 163.87,-77.78"/>
<polygon fill="midnightblue" stroke="midnightblue" points="139.18,-104.35 135.89,-114.42 144.74,-108.59 139.18,-104.35"/>
</g>
<!-- Node5 -->
<g id="node5" class="node">
<title>Node5</title>
<g id="a_node5"><a xlink:href="store_8h.html" target="_top" xlink:title=" ">
<polygon fill="none" stroke="black" points="218.67,-57.5 218.67,-77.5 265.24,-77.5 265.24,-57.5 218.67,-57.5"/>
<text text-anchor="middle" x="241.96" y="-64.5" font-family="Helvetica,sans-Serif" font-size="10.00">store.h</text>
</a>
</g>
</g>
<!-- Node1&#45;&gt;Node5 -->
<g id="edge4" class="edge">
<title>Node1&#45;&gt;Node5</title>
<path fill="none" stroke="midnightblue" d="M156.86,-109.92C177.55,-99.85 205.19,-86.4 223.27,-77.6"/>
<polygon fill="midnightblue" stroke="midnightblue" points="155.08,-106.89 147.62,-114.42 158.14,-113.19 155.08,-106.89"/>
</g>
<!-- Node5&#45;&gt;Node2 -->
<g id="edge5" class="edge">
<title>Node5&#45;&gt;Node2</title>
<path fill="none" stroke="midnightblue" d="M208.9,-56.78C151,-40.98 93.92,-26.91 59.99,-18.69"/>
<polygon fill="midnightblue" stroke="midnightblue" points="208,-60.17 218.57,-59.44 209.85,-53.42 208,-60.17"/>
</g>
<!-- Node6 -->
<g id="node6" class="node">
<title>Node6</title>
<g id="a_node6"><a xlink:href="game__scene_8cpp.html" target="_top" xlink:title=" ">
<polygon fill="none" stroke="black" points="81.88,-0.5 81.88,-20.5 174.04,-20.5 174.04,-0.5 81.88,-0.5"/>
<text text-anchor="middle" x="127.96" y="-7.5" font-family="Helvetica,sans-Serif" font-size="10.00">game_scene.cpp</text>
</a>
</g>
</g>
<!-- Node5&#45;&gt;Node6 -->
<g id="edge6" class="edge">
<title>Node5&#45;&gt;Node6</title>
<path fill="none" stroke="midnightblue" d="M214.09,-53.06C193.19,-42.97 165.14,-29.44 146.81,-20.6"/>
<polygon fill="midnightblue" stroke="midnightblue" points="212.61,-56.22 223.13,-57.42 215.65,-49.92 212.61,-56.22"/>
</g>
<!-- Node7 -->
<g id="node7" class="node">
<title>Node7</title>
<g id="a_node7"><a xlink:href="menu__scene_8cpp.html" target="_top" xlink:title=" ">
<polygon fill="none" stroke="black" points="191.88,-0.5 191.88,-20.5 284.04,-20.5 284.04,-0.5 191.88,-0.5"/>
<text text-anchor="middle" x="237.96" y="-7.5" font-family="Helvetica,sans-Serif" font-size="10.00">menu_scene.cpp</text>
</a>
</g>
</g>
<!-- Node5&#45;&gt;Node7 -->
<g id="edge7" class="edge">
<title>Node5&#45;&gt;Node7</title>
<path fill="none" stroke="midnightblue" d="M240.57,-47.38C239.91,-38.37 239.16,-28.04 238.63,-20.78"/>
<polygon fill="midnightblue" stroke="midnightblue" points="237.08,-47.7 241.3,-57.42 244.06,-47.19 237.08,-47.7"/>
</g>
<!-- Node8 -->
<g id="node8" class="node">
<title>Node8</title>
<g id="a_node8"><a xlink:href="pause__scene_8cpp.html" target="_top" xlink:title=" ">
<polygon fill="none" stroke="black" points="301.76,-0.5 301.76,-20.5 396.15,-20.5 396.15,-0.5 301.76,-0.5"/>
<text text-anchor="middle" x="348.96" y="-7.5" font-family="Helvetica,sans-Serif" font-size="10.00">pause_scene.cpp</text>
</a>
</g>
</g>
<!-- Node5&#45;&gt;Node8 -->
<g id="edge8" class="edge">
<title>Node5&#45;&gt;Node8</title>
<path fill="none" stroke="midnightblue" d="M268.64,-52.78C288.21,-42.73 314.22,-29.36 331.26,-20.6"/>
<polygon fill="midnightblue" stroke="midnightblue" points="266.92,-49.73 259.63,-57.42 270.12,-55.96 266.92,-49.73"/>
</g>
<!-- Node9 -->
<g id="node9" class="node">
<title>Node9</title>
<g id="a_node9"><a xlink:href="sprite__animated_8cpp.html" target="_top" xlink:title=" ">
<polygon fill="none" stroke="black" points="413.93,-0.5 413.93,-20.5 519.98,-20.5 519.98,-0.5 413.93,-0.5"/>
<text text-anchor="middle" x="466.96" y="-7.5" font-family="Helvetica,sans-Serif" font-size="10.00">sprite_animated.cpp</text>
</a>
</g>
</g>
<!-- Node5&#45;&gt;Node9 -->
<g id="edge9" class="edge">
<title>Node5&#45;&gt;Node9</title>
<path fill="none" stroke="midnightblue" d="M275.48,-58.31C316.84,-48.19 386.97,-31.05 429.9,-20.56"/>
<polygon fill="midnightblue" stroke="midnightblue" points="274.49,-54.94 265.61,-60.72 276.16,-61.74 274.49,-54.94"/>
</g>
</g>
</svg>
