<?xml version="1.0" encoding="UTF-8" standalone="no"?>
<!DOCTYPE svg PUBLIC "-//W3C//DTD SVG 1.1//EN"
 "http://www.w3.org/Graphics/SVG/1.1/DTD/svg11.dtd">
<!-- Generated by graphviz version 3.0.0 (20220226.1711)
 -->
<!-- Title: store.h Pages: 1 -->
<svg width="402pt" height="371pt"
 viewBox="0.00 0.00 401.73 371.00" xmlns="http://www.w3.org/2000/svg" xmlns:xlink="http://www.w3.org/1999/xlink">
<g id="graph0" class="graph" transform="scale(1 1) rotate(0) translate(4 367)">
<title>store.h</title>
<!-- Node1 -->
<g id="node1" class="node">
<title>Node1</title>
<g id="a_node1"><a xlink:title=" ">
<polygon fill="#bfbfbf" stroke="black" points="108.44,-342.5 108.44,-362.5 155.01,-362.5 155.01,-342.5 108.44,-342.5"/>
<text text-anchor="middle" x="131.73" y="-349.5" font-family="Helvetica,sans-Serif" font-size="10.00">store.h</text>
</a>
</g>
</g>
<!-- Node2 -->
<g id="node2" class="node">
<title>Node2</title>
<g id="a_node2"><a xlink:title=" ">
<polygon fill="none" stroke="#bfbfbf" points="0,-171.5 0,-191.5 35.45,-191.5 35.45,-171.5 0,-171.5"/>
<text text-anchor="middle" x="17.73" y="-178.5" font-family="Helvetica,sans-Serif" font-size="10.00">map</text>
</a>
</g>
</g>
<!-- Node1&#45;&gt;Node2 -->
<g id="edge1" class="edge">
<title>Node1&#45;&gt;Node2</title>
<path fill="none" stroke="midnightblue" d="M125.6,-342.41C107.43,-315.48 53.62,-235.72 29.57,-200.06"/>
<polygon fill="midnightblue" stroke="midnightblue" points="32.38,-197.96 23.89,-191.63 26.58,-201.88 32.38,-197.96"/>
</g>
<!-- Node3 -->
<g id="node3" class="node">
<title>Node3</title>
<g id="a_node3"><a xlink:title=" ">
<polygon fill="none" stroke="#bfbfbf" points="200.61,-0.5 200.61,-20.5 248.84,-20.5 248.84,-0.5 200.61,-0.5"/>
<text text-anchor="middle" x="224.73" y="-7.5" font-family="Helvetica,sans-Serif" font-size="10.00">raylib.h</text>
</a>
</g>
</g>
<!-- Node1&#45;&gt;Node3 -->
<g id="edge2" class="edge">
<title>Node1&#45;&gt;Node3</title>
<path fill="none" stroke="midnightblue" d="M155.44,-352.02C219.93,-352.07 393.73,-342.64 393.73,-239.5 393.73,-239.5 393.73,-239.5 393.73,-123.5 393.73,-89.89 383.39,-78.71 357.73,-57 329.52,-33.14 288.15,-21.58 259.06,-16.13"/>
<polygon fill="midnightblue" stroke="midnightblue" points="259.4,-12.64 248.95,-14.38 258.21,-19.53 259.4,-12.64"/>
</g>
<!-- Node4 -->
<g id="node4" class="node">
<title>Node4</title>
<g id="a_node4"><a xlink:href="stage_8h.html" target="_top" xlink:title=" ">
<polygon fill="none" stroke="black" points="161.33,-285.5 161.33,-305.5 210.13,-305.5 210.13,-285.5 161.33,-285.5"/>
<text text-anchor="middle" x="185.73" y="-292.5" font-family="Helvetica,sans-Serif" font-size="10.00">stage.h</text>
</a>
</g>
</g>
<!-- Node1&#45;&gt;Node4 -->
<g id="edge3" class="edge">
<title>Node1&#45;&gt;Node4</title>
<path fill="none" stroke="midnightblue" d="M140.64,-342.42C148.49,-334.42 160.11,-322.59 169.59,-312.94"/>
<polygon fill="midnightblue" stroke="midnightblue" points="172.11,-315.37 176.62,-305.78 167.11,-310.46 172.11,-315.37"/>
</g>
<!-- Node8 -->
<g id="node8" class="node">
<title>Node8</title>
<g id="a_node8"><a xlink:href="actor_8h.html" target="_top" xlink:title=" ">
<polygon fill="none" stroke="black" points="53.44,-171.5 53.44,-191.5 100.01,-191.5 100.01,-171.5 53.44,-171.5"/>
<text text-anchor="middle" x="76.73" y="-178.5" font-family="Helvetica,sans-Serif" font-size="10.00">actor.h</text>
</a>
</g>
</g>
<!-- Node1&#45;&gt;Node8 -->
<g id="edge19" class="edge">
<title>Node1&#45;&gt;Node8</title>
<path fill="none" stroke="midnightblue" d="M128.52,-342.49C122.23,-324.69 107.88,-283.73 96.73,-249 91.6,-233.04 86.14,-214.79 82.23,-201.46"/>
<polygon fill="midnightblue" stroke="midnightblue" points="85.5,-200.19 79.34,-191.57 78.78,-202.15 85.5,-200.19"/>
</g>
<!-- Node4&#45;&gt;Node2 -->
<g id="edge7" class="edge">
<title>Node4&#45;&gt;Node2</title>
<path fill="none" stroke="midnightblue" d="M164.84,-285.46C146.32,-277.07 118.85,-263.69 96.73,-249 74.04,-233.94 50.47,-213.34 35.05,-199.08"/>
<polygon fill="midnightblue" stroke="midnightblue" points="37.06,-196.17 27.37,-191.88 32.27,-201.28 37.06,-196.17"/>
</g>
<!-- Node4&#45;&gt;Node3 -->
<g id="edge6" class="edge">
<title>Node4&#45;&gt;Node3</title>
<path fill="none" stroke="midnightblue" d="M210.45,-290.12C257.6,-280.18 355.73,-251.24 355.73,-182.5 355.73,-182.5 355.73,-182.5 355.73,-123.5 355.73,-92.76 357.26,-79.87 336.73,-57 316.64,-34.63 283.96,-23.05 259.07,-17.18"/>
<polygon fill="midnightblue" stroke="midnightblue" points="259.79,-13.76 249.28,-15.07 258.32,-20.6 259.79,-13.76"/>
</g>
<!-- Node5 -->
<g id="node5" class="node">
<title>Node5</title>
<g id="a_node5"><a xlink:title=" ">
<polygon fill="none" stroke="#bfbfbf" points="275.67,-57.5 275.67,-77.5 327.78,-77.5 327.78,-57.5 275.67,-57.5"/>
<text text-anchor="middle" x="301.73" y="-64.5" font-family="Helvetica,sans-Serif" font-size="10.00">memory</text>
</a>
</g>
</g>
<!-- Node4&#45;&gt;Node5 -->
<g id="edge4" class="edge">
<title>Node4&#45;&gt;Node5</title>
<path fill="none" stroke="midnightblue" d="M191.26,-285.18C196.63,-276.04 204.95,-261.68 211.73,-249 243,-190.48 277.29,-119.7 292.99,-86.87"/>
<polygon fill="midnightblue" stroke="midnightblue" points="296.26,-88.14 297.41,-77.61 289.95,-85.13 296.26,-88.14"/>
</g>
<!-- Node6 -->
<g id="node6" class="node">
<title>Node6</title>
<g id="a_node6"><a xlink:title=" ">
<polygon fill="none" stroke="#bfbfbf" points="155.5,-171.5 155.5,-191.5 195.95,-191.5 195.95,-171.5 155.5,-171.5"/>
<text text-anchor="middle" x="175.73" y="-178.5" font-family="Helvetica,sans-Serif" font-size="10.00">string</text>
</a>
</g>
</g>
<!-- Node4&#45;&gt;Node6 -->
<g id="edge5" class="edge">
<title>Node4&#45;&gt;Node6</title>
<path fill="none" stroke="midnightblue" d="M184.91,-285.33C183.29,-267.2 179.65,-226.41 177.47,-202"/>
<polygon fill="midnightblue" stroke="midnightblue" points="180.93,-201.44 176.56,-191.79 173.96,-202.06 180.93,-201.44"/>
</g>
<!-- Node7 -->
<g id="node7" class="node">
<title>Node7</title>
<g id="a_node7"><a xlink:href="scene_8h.html" target="_top" xlink:title=" ">
<polygon fill="none" stroke="black" points="106.21,-228.5 106.21,-248.5 157.24,-248.5 157.24,-228.5 106.21,-228.5"/>
<text text-anchor="middle" x="131.73" y="-235.5" font-family="Helvetica,sans-Serif" font-size="10.00">scene.h</text>
</a>
</g>
</g>
<!-- Node4&#45;&gt;Node7 -->
<g id="edge8" class="edge">
<title>Node4&#45;&gt;Node7</title>
<path fill="none" stroke="midnightblue" d="M176.81,-285.42C168.96,-277.42 157.34,-265.59 147.87,-255.94"/>
<polygon fill="midnightblue" stroke="midnightblue" points="150.34,-253.46 140.84,-248.78 145.35,-258.37 150.34,-253.46"/>
</g>
<!-- Node9 -->
<g id="node9" class="node">
<title>Node9</title>
<g id="a_node9"><a xlink:href="sprite_8h.html" target="_top" xlink:title=" ">
<polygon fill="none" stroke="black" points="199.33,-114.5 199.33,-134.5 248.12,-134.5 248.12,-114.5 199.33,-114.5"/>
<text text-anchor="middle" x="223.73" y="-121.5" font-family="Helvetica,sans-Serif" font-size="10.00">sprite.h</text>
</a>
</g>
</g>
<!-- Node4&#45;&gt;Node9 -->
<g id="edge18" class="edge">
<title>Node4&#45;&gt;Node9</title>
<path fill="none" stroke="midnightblue" d="M187.77,-285.41C193.75,-258.82 211.3,-180.74 219.47,-144.45"/>
<polygon fill="midnightblue" stroke="midnightblue" points="222.89,-145.16 221.67,-134.63 216.06,-143.62 222.89,-145.16"/>
</g>
<!-- Node7&#45;&gt;Node2 -->
<g id="edge9" class="edge">
<title>Node7&#45;&gt;Node2</title>
<path fill="none" stroke="midnightblue" d="M112.9,-228.42C94.37,-219.47 65.86,-205.72 44.88,-195.6"/>
<polygon fill="midnightblue" stroke="midnightblue" points="46.35,-192.43 35.83,-191.23 43.31,-198.73 46.35,-192.43"/>
</g>
<!-- Node7&#45;&gt;Node3 -->
<g id="edge11" class="edge">
<title>Node7&#45;&gt;Node3</title>
<path fill="none" stroke="midnightblue" d="M132.19,-228.16C133.95,-200.23 142,-115.63 176.73,-57 183.52,-45.54 194.01,-35.12 203.46,-27.15"/>
<polygon fill="midnightblue" stroke="midnightblue" points="205.75,-29.8 211.37,-20.82 201.37,-24.34 205.75,-29.8"/>
</g>
<!-- Node7&#45;&gt;Node6 -->
<g id="edge10" class="edge">
<title>Node7&#45;&gt;Node6</title>
<path fill="none" stroke="midnightblue" d="M138.99,-228.42C145.2,-220.66 154.29,-209.29 161.88,-199.8"/>
<polygon fill="midnightblue" stroke="midnightblue" points="164.79,-201.77 168.3,-191.78 159.32,-197.4 164.79,-201.77"/>
</g>
<!-- Node7&#45;&gt;Node8 -->
<g id="edge12" class="edge">
<title>Node7&#45;&gt;Node8</title>
<path fill="none" stroke="midnightblue" d="M122.64,-228.42C114.65,-220.42 102.82,-208.59 93.16,-198.94"/>
<polygon fill="midnightblue" stroke="midnightblue" points="95.55,-196.38 86.01,-191.78 90.6,-201.33 95.55,-196.38"/>
</g>
<!-- Node8&#45;&gt;Node9 -->
<g id="edge13" class="edge">
<title>Node8&#45;&gt;Node9</title>
<path fill="none" stroke="midnightblue" d="M100.02,-171.79C124.25,-162.72 162.41,-148.44 189.95,-138.14"/>
<polygon fill="midnightblue" stroke="midnightblue" points="191.43,-141.32 199.57,-134.54 188.97,-134.77 191.43,-141.32"/>
</g>
<!-- Node9&#45;&gt;Node3 -->
<g id="edge15" class="edge">
<title>Node9&#45;&gt;Node3</title>
<path fill="none" stroke="midnightblue" d="M211.41,-114.38C196.42,-102.06 174.08,-79.11 182.73,-57 187.18,-45.62 195.96,-35.37 204.34,-27.5"/>
<polygon fill="midnightblue" stroke="midnightblue" points="206.88,-29.93 212.11,-20.72 202.27,-24.66 206.88,-29.93"/>
</g>
<!-- Node9&#45;&gt;Node5 -->
<g id="edge14" class="edge">
<title>Node9&#45;&gt;Node5</title>
<path fill="none" stroke="midnightblue" d="M236.61,-114.42C248.46,-106.06 266.28,-93.5 280.28,-83.62"/>
<polygon fill="midnightblue" stroke="midnightblue" points="282.67,-86.22 288.83,-77.6 278.64,-80.5 282.67,-86.22"/>
</g>
<!-- Node10 -->
<g id="node10" class="node">
<title>Node10</title>
<g id="a_node10"><a xlink:href="texture2d_8h.html" target="_top" xlink:title=" ">
<polygon fill="none" stroke="black" points="191.71,-57.5 191.71,-77.5 257.74,-77.5 257.74,-57.5 191.71,-57.5"/>
<text text-anchor="middle" x="224.73" y="-64.5" font-family="Helvetica,sans-Serif" font-size="10.00">texture2d.h</text>
</a>
</g>
</g>
<!-- Node9&#45;&gt;Node10 -->
<g id="edge16" class="edge">
<title>Node9&#45;&gt;Node10</title>
<path fill="none" stroke="midnightblue" d="M223.89,-114.42C224.02,-107.22 224.21,-96.9 224.37,-87.86"/>
<polygon fill="midnightblue" stroke="midnightblue" points="227.88,-87.84 224.56,-77.78 220.88,-87.71 227.88,-87.84"/>
</g>
<!-- Node10&#45;&gt;Node3 -->
<g id="edge17" class="edge">
<title>Node10&#45;&gt;Node3</title>
<path fill="none" stroke="midnightblue" d="M224.73,-57.42C224.73,-50.22 224.73,-39.9 224.73,-30.86"/>
<polygon fill="midnightblue" stroke="midnightblue" points="228.23,-30.78 224.73,-20.78 221.23,-30.78 228.23,-30.78"/>
</g>
</g>
</svg>
