<?xml version="1.0" encoding="UTF-8" standalone="no"?>
<!DOCTYPE svg PUBLIC "-//W3C//DTD SVG 1.1//EN"
 "http://www.w3.org/Graphics/SVG/1.1/DTD/svg11.dtd">
<!-- Generated by graphviz version 3.0.0 (20220226.1711)
 -->
<!-- Title: store.h Pages: 1 -->
<svg width="524pt" height="86pt"
 viewBox="0.00 0.00 523.98 86.00" xmlns="http://www.w3.org/2000/svg" xmlns:xlink="http://www.w3.org/1999/xlink">
<g id="graph0" class="graph" transform="scale(1 1) rotate(0) translate(4 82)">
<title>store.h</title>
<!-- Node1 -->
<g id="node1" class="node">
<title>Node1</title>
<g id="a_node1"><a xlink:title=" ">
<polygon fill="#bfbfbf" stroke="black" points="210.67,-57.5 210.67,-77.5 257.24,-77.5 257.24,-57.5 210.67,-57.5"/>
<text text-anchor="middle" x="233.96" y="-64.5" font-family="Helvetica,sans-Serif" font-size="10.00">store.h</text>
</a>
</g>
</g>
<!-- Node2 -->
<g id="node2" class="node">
<title>Node2</title>
<g id="a_node2"><a xlink:href="game_8cpp.html" target="_top" xlink:title=" ">
<polygon fill="none" stroke="black" points="0,-0.5 0,-20.5 59.92,-20.5 59.92,-0.5 0,-0.5"/>
<text text-anchor="middle" x="29.96" y="-7.5" font-family="Helvetica,sans-Serif" font-size="10.00">game.cpp</text>
</a>
</g>
</g>
<!-- Node1&#45;&gt;Node2 -->
<g id="edge1" class="edge">
<title>Node1&#45;&gt;Node2</title>
<path fill="none" stroke="midnightblue" d="M200.74,-57.54C161.73,-47.03 97.59,-29.73 60.01,-19.6"/>
<polygon fill="midnightblue" stroke="midnightblue" points="199.99,-60.97 210.56,-60.19 201.81,-54.21 199.99,-60.97"/>
</g>
<!-- Node3 -->
<g id="node3" class="node">
<title>Node3</title>
<g id="a_node3"><a xlink:href="game__scene_8cpp.html" target="_top" xlink:title=" ">
<polygon fill="none" stroke="black" points="77.88,-0.5 77.88,-20.5 170.04,-20.5 170.04,-0.5 77.88,-0.5"/>
<text text-anchor="middle" x="123.96" y="-7.5" font-family="Helvetica,sans-Serif" font-size="10.00">game_scene.cpp</text>
</a>
</g>
</g>
<!-- Node1&#45;&gt;Node3 -->
<g id="edge2" class="edge">
<title>Node1&#45;&gt;Node3</title>
<path fill="none" stroke="midnightblue" d="M206.8,-52.92C186.66,-42.85 159.75,-29.4 142.15,-20.6"/>
<polygon fill="midnightblue" stroke="midnightblue" points="205.28,-56.08 215.79,-57.42 208.41,-49.82 205.28,-56.08"/>
</g>
<!-- Node4 -->
<g id="node4" class="node">
<title>Node4</title>
<g id="a_node4"><a xlink:href="menu__scene_8cpp.html" target="_top" xlink:title=" ">
<polygon fill="none" stroke="black" points="187.88,-0.5 187.88,-20.5 280.04,-20.5 280.04,-0.5 187.88,-0.5"/>
<text text-anchor="middle" x="233.96" y="-7.5" font-family="Helvetica,sans-Serif" font-size="10.00">menu_scene.cpp</text>
</a>
</g>
</g>
<!-- Node1&#45;&gt;Node4 -->
<g id="edge3" class="edge">
<title>Node1&#45;&gt;Node4</title>
<path fill="none" stroke="midnightblue" d="M233.96,-47.38C233.96,-38.37 233.96,-28.04 233.96,-20.78"/>
<polygon fill="midnightblue" stroke="midnightblue" points="230.46,-47.42 233.96,-57.42 237.46,-47.42 230.46,-47.42"/>
</g>
<!-- Node5 -->
<g id="node5" class="node">
<title>Node5</title>
<g id="a_node5"><a xlink:href="pause__scene_8cpp.html" target="_top" xlink:title=" ">
<polygon fill="none" stroke="black" points="297.76,-0.5 297.76,-20.5 392.15,-20.5 392.15,-0.5 297.76,-0.5"/>
<text text-anchor="middle" x="344.96" y="-7.5" font-family="Helvetica,sans-Serif" font-size="10.00">pause_scene.cpp</text>
</a>
</g>
</g>
<!-- Node1&#45;&gt;Node5 -->
<g id="edge4" class="edge">
<title>Node1&#45;&gt;Node5</title>
<path fill="none" stroke="midnightblue" d="M261.37,-52.92C281.69,-42.85 308.84,-29.4 326.6,-20.6"/>
<polygon fill="midnightblue" stroke="midnightblue" points="259.69,-49.84 252.29,-57.42 262.8,-56.11 259.69,-49.84"/>
</g>
<!-- Node6 -->
<g id="node6" class="node">
<title>Node6</title>
<g id="a_node6"><a xlink:href="sprite__animated_8cpp.html" target="_top" xlink:title=" ">
<polygon fill="none" stroke="black" points="409.93,-0.5 409.93,-20.5 515.98,-20.5 515.98,-0.5 409.93,-0.5"/>
<text text-anchor="middle" x="462.96" y="-7.5" font-family="Helvetica,sans-Serif" font-size="10.00">sprite_animated.cpp</text>
</a>
</g>
</g>
<!-- Node1&#45;&gt;Node6 -->
<g id="edge5" class="edge">
<title>Node1&#45;&gt;Node6</title>
<path fill="none" stroke="midnightblue" d="M267.34,-58.48C309.29,-48.41 381.11,-31.16 425.08,-20.6"/>
<polygon fill="midnightblue" stroke="midnightblue" points="266.51,-55.08 257.6,-60.82 268.14,-61.89 266.51,-55.08"/>
</g>
</g>
</svg>
