<?xml version="1.0" encoding="UTF-8" standalone="no"?>
<!DOCTYPE svg PUBLIC "-//W3C//DTD SVG 1.1//EN"
 "http://www.w3.org/Graphics/SVG/1.1/DTD/svg11.dtd">
<!-- Generated by graphviz version 3.0.0 (20220226.1711)
 -->
<!-- Title: game::core::SpriteAnimated::anim_state Pages: 1 -->
<svg width="163pt" height="214pt"
 viewBox="0.00 0.00 162.96 214.00" xmlns="http://www.w3.org/2000/svg" xmlns:xlink="http://www.w3.org/1999/xlink">
<g id="graph0" class="graph" transform="scale(1 1) rotate(0) translate(4 210)">
<title>game::core::SpriteAnimated::anim_state</title>
<!-- Node1 -->
<g id="node1" class="node">
<title>Node1</title>
<g id="a_node1"><a xlink:title="This structure contains all data necessary for the description of the frame&#45;by&#45;frame animation.">
<polygon fill="#bfbfbf" stroke="black" points="0,-0.5 0,-72.5 139.95,-72.5 139.95,-0.5 0,-0.5"/>
<text text-anchor="start" x="8" y="-59.5" font-family="Helvetica,sans-Serif" font-size="10.00">game::core::SpriteAnimated</text>
<text text-anchor="middle" x="69.98" y="-47.5" font-family="Helvetica,sans-Serif" font-size="10.00">::anim_state</text>
<polyline fill="none" stroke="black" points="0,-40.5 139.95,-40.5 "/>
<text text-anchor="middle" x="69.98" y="-27.5" font-family="Helvetica,sans-Serif" font-size="10.00"> </text>
<polyline fill="none" stroke="black" points="0,-20.5 139.95,-20.5 "/>
<text text-anchor="middle" x="69.98" y="-7.5" font-family="Helvetica,sans-Serif" font-size="10.00"> </text>
</a>
</g>
</g>
<!-- Node2 -->
<g id="node2" class="node">
<title>Node2</title>
<g id="a_node2"><a xlink:title=" ">
<polygon fill="none" stroke="black" points="27.48,-145.5 27.48,-205.5 56.48,-205.5 56.48,-145.5 27.48,-145.5"/>
<text text-anchor="middle" x="41.76" y="-192.5" font-family="Helvetica,sans-Serif" font-size="10.00">int</text>
<polyline fill="none" stroke="black" points="27.48,-185.5 56.04,-185.5 "/>
<text text-anchor="middle" x="41.76" y="-172.5" font-family="Helvetica,sans-Serif" font-size="10.00"> </text>
<polyline fill="none" stroke="black" points="27.48,-165.5 56.04,-165.5 "/>
<text text-anchor="middle" x="41.76" y="-152.5" font-family="Helvetica,sans-Serif" font-size="10.00"> </text>
</a>
</g>
</g>
<!-- Node2&#45;&gt;Node1 -->
<g id="edge1" class="edge">
<title>Node2&#45;&gt;Node1</title>
<path fill="none" stroke="#404040" d="M39.09,-145.5C38.26,-129.25 38.55,-108.74 42.89,-91 43.45,-88.69 44.14,-86.36 44.91,-84.04"/>
<polygon fill="none" stroke="#404040" points="45.01,-83.77 43.48,-76.72 49.4,-72.6 50.93,-79.64 45.01,-83.77"/>
<text text-anchor="middle" x="59.52" y="-118" font-family="Helvetica,sans-Serif" font-size="10.00"> +row</text>
<text text-anchor="middle" x="59.52" y="-106" font-family="Helvetica,sans-Serif" font-size="10.00">+speed</text>
<text text-anchor="middle" x="59.52" y="-94" font-family="Helvetica,sans-Serif" font-size="10.00">+steps</text>
</g>
<!-- Node3 -->
<g id="node3" class="node">
<title>Node3</title>
<g id="a_node3"><a xlink:title=" ">
<polygon fill="none" stroke="black" points="80.52,-145.5 80.52,-205.5 115.43,-205.5 115.43,-145.5 80.52,-145.5"/>
<text text-anchor="middle" x="97.98" y="-192.5" font-family="Helvetica,sans-Serif" font-size="10.00">float</text>
<polyline fill="none" stroke="black" points="80.52,-185.5 115.43,-185.5 "/>
<text text-anchor="middle" x="97.98" y="-172.5" font-family="Helvetica,sans-Serif" font-size="10.00"> </text>
<polyline fill="none" stroke="black" points="80.52,-165.5 115.43,-165.5 "/>
<text text-anchor="middle" x="97.98" y="-152.5" font-family="Helvetica,sans-Serif" font-size="10.00"> </text>
</a>
</g>
</g>
<!-- Node3&#45;&gt;Node1 -->
<g id="edge2" class="edge">
<title>Node3&#45;&gt;Node1</title>
<path fill="none" stroke="#404040" d="M92.04,-145.45C88.42,-127.74 83.71,-104.69 79.57,-84.44"/>
<polygon fill="none" stroke="#404040" points="79.55,-84.34 74.43,-79.27 77.15,-72.59 82.27,-77.66 79.55,-84.34"/>
<text text-anchor="middle" x="121.47" y="-112" font-family="Helvetica,sans-Serif" font-size="10.00"> +frame_height</text>
<text text-anchor="middle" x="121.47" y="-100" font-family="Helvetica,sans-Serif" font-size="10.00">+frame_width</text>
</g>
</g>
</svg>
