<?xml version="1.0" encoding="UTF-8" standalone="no"?>
<!DOCTYPE svg PUBLIC "-//W3C//DTD SVG 1.1//EN"
 "http://www.w3.org/Graphics/SVG/1.1/DTD/svg11.dtd">
<!-- Generated by graphviz version 3.0.0 (20220226.1711)
 -->
<!-- Title: game::core::Store Pages: 1 -->
<svg width="436pt" height="202pt"
 viewBox="0.00 0.00 435.96 202.00" xmlns="http://www.w3.org/2000/svg" xmlns:xlink="http://www.w3.org/1999/xlink">
<g id="graph0" class="graph" transform="scale(1 1) rotate(0) translate(4 198)">
<title>game::core::Store</title>
<!-- Node1 -->
<g id="node1" class="node">
<title>Node1</title>
<g id="a_node1"><a xlink:title="A central place to share globally accessible objects that should be accessible from anywhere.">
<polygon fill="#bfbfbf" stroke="black" points="168.21,-0.5 168.21,-60.5 263.69,-60.5 263.69,-0.5 168.21,-0.5"/>
<text text-anchor="middle" x="215.95" y="-47.5" font-family="Helvetica,sans-Serif" font-size="10.00">game::core::Store</text>
<polyline fill="none" stroke="black" points="168.21,-40.5 263.69,-40.5 "/>
<text text-anchor="middle" x="215.95" y="-27.5" font-family="Helvetica,sans-Serif" font-size="10.00"> </text>
<polyline fill="none" stroke="black" points="168.21,-20.5 263.69,-20.5 "/>
<text text-anchor="middle" x="215.95" y="-7.5" font-family="Helvetica,sans-Serif" font-size="10.00"> </text>
</a>
</g>
</g>
<!-- Node2 -->
<g id="node2" class="node">
<title>Node2</title>
<g id="a_node2"><a xlink:title=" ">
<polygon fill="none" stroke="black" points="0,-115.5 0,-187.5 121.9,-187.5 121.9,-115.5 0,-115.5"/>
<text text-anchor="start" x="8" y="-174.5" font-family="Helvetica,sans-Serif" font-size="10.00">unique_ptr&lt; game::core</text>
<text text-anchor="middle" x="60.95" y="-162.5" font-family="Helvetica,sans-Serif" font-size="10.00">::Stage &gt;</text>
<polyline fill="none" stroke="black" points="0,-155.5 121.9,-155.5 "/>
<text text-anchor="middle" x="60.95" y="-142.5" font-family="Helvetica,sans-Serif" font-size="10.00"> </text>
<polyline fill="none" stroke="black" points="0,-135.5 121.9,-135.5 "/>
<text text-anchor="middle" x="60.95" y="-122.5" font-family="Helvetica,sans-Serif" font-size="10.00"> </text>
</a>
</g>
</g>
<!-- Node2&#45;&gt;Node1 -->
<g id="edge1" class="edge">
<title>Node2&#45;&gt;Node1</title>
<path fill="none" stroke="#404040" d="M87.96,-115.33C98.59,-102.9 111.46,-89.43 124.87,-79 134.79,-71.28 146.15,-64.22 157.41,-58.02"/>
<polygon fill="none" stroke="#404040" points="157.51,-57.97 160.95,-51.63 168.12,-52.36 164.69,-58.7 157.51,-57.97"/>
<text text-anchor="middle" x="141.49" y="-82" font-family="Helvetica,sans-Serif" font-size="10.00"> +stage</text>
</g>
<!-- Node3 -->
<g id="node3" class="node">
<title>Node3</title>
<g id="a_node3"><a xlink:title=" ">
<polygon fill="none" stroke="black" points="139.72,-121.5 139.72,-181.5 190.18,-181.5 190.18,-121.5 139.72,-121.5"/>
<text text-anchor="middle" x="164.95" y="-168.5" font-family="Helvetica,sans-Serif" font-size="10.00">Vector2</text>
<polyline fill="none" stroke="black" points="139.72,-161.5 190.18,-161.5 "/>
<text text-anchor="middle" x="164.95" y="-148.5" font-family="Helvetica,sans-Serif" font-size="10.00"> </text>
<polyline fill="none" stroke="black" points="139.72,-141.5 190.18,-141.5 "/>
<text text-anchor="middle" x="164.95" y="-128.5" font-family="Helvetica,sans-Serif" font-size="10.00"> </text>
</a>
</g>
</g>
<!-- Node3&#45;&gt;Node1 -->
<g id="edge2" class="edge">
<title>Node3&#45;&gt;Node1</title>
<path fill="none" stroke="#404040" d="M160.5,-121.22C159.7,-107.83 160.56,-92.08 166.29,-79 167.61,-75.98 169.23,-73.06 171.06,-70.25"/>
<polygon fill="none" stroke="#404040" points="171.17,-70.1 171.66,-62.91 178.49,-60.59 178,-67.79 171.17,-70.1"/>
<text text-anchor="middle" x="205.28" y="-82" font-family="Helvetica,sans-Serif" font-size="10.00"> +mouse_position</text>
</g>
<!-- Node4 -->
<g id="node4" class="node">
<title>Node4</title>
<g id="a_node4"><a xlink:title=" ">
<polygon fill="none" stroke="black" points="252.45,-121.5 252.45,-181.5 281.45,-181.5 281.45,-121.5 252.45,-121.5"/>
<text text-anchor="middle" x="266.73" y="-168.5" font-family="Helvetica,sans-Serif" font-size="10.00">int</text>
<polyline fill="none" stroke="black" points="252.45,-161.5 281.01,-161.5 "/>
<text text-anchor="middle" x="266.73" y="-148.5" font-family="Helvetica,sans-Serif" font-size="10.00"> </text>
<polyline fill="none" stroke="black" points="252.45,-141.5 281.01,-141.5 "/>
<text text-anchor="middle" x="266.73" y="-128.5" font-family="Helvetica,sans-Serif" font-size="10.00"> </text>
</a>
</g>
</g>
<!-- Node4&#45;&gt;Node1 -->
<g id="edge3" class="edge">
<title>Node4&#45;&gt;Node1</title>
<path fill="none" stroke="#404040" d="M259.77,-121.37C256.06,-108.15 251.03,-92.5 244.95,-79 243.78,-76.4 242.49,-73.77 241.13,-71.14"/>
<polygon fill="none" stroke="#404040" points="241.06,-71.01 234.65,-67.71 235.23,-60.52 241.64,-63.83 241.06,-71.01"/>
<text text-anchor="middle" x="263.26" y="-82" font-family="Helvetica,sans-Serif" font-size="10.00"> +ticks</text>
</g>
<!-- Node5 -->
<g id="node5" class="node">
<title>Node5</title>
<g id="a_node5"><a xlink:title=" ">
<polygon fill="none" stroke="black" points="299.95,-109.5 299.95,-193.5 427.96,-193.5 427.96,-109.5 299.95,-109.5"/>
<text text-anchor="start" x="307.95" y="-180.5" font-family="Helvetica,sans-Serif" font-size="10.00">map&lt; std::string, std</text>
<text text-anchor="start" x="307.95" y="-168.5" font-family="Helvetica,sans-Serif" font-size="10.00">::shared_ptr&lt; game::core</text>
<text text-anchor="middle" x="363.95" y="-156.5" font-family="Helvetica,sans-Serif" font-size="10.00">::Actor &gt; &gt;</text>
<polyline fill="none" stroke="black" points="299.95,-149.5 427.96,-149.5 "/>
<text text-anchor="middle" x="363.95" y="-136.5" font-family="Helvetica,sans-Serif" font-size="10.00"> </text>
<polyline fill="none" stroke="black" points="299.95,-129.5 427.96,-129.5 "/>
<text text-anchor="middle" x="363.95" y="-116.5" font-family="Helvetica,sans-Serif" font-size="10.00"> </text>
</a>
</g>
</g>
<!-- Node5&#45;&gt;Node1 -->
<g id="edge4" class="edge">
<title>Node5&#45;&gt;Node1</title>
<path fill="none" stroke="#404040" d="M318.19,-109.27C306.55,-99.15 293.94,-88.51 281.95,-79 277.35,-75.35 272.51,-71.64 267.62,-67.98"/>
<polygon fill="none" stroke="#404040" points="267.24,-67.69 260.03,-67.35 257.58,-60.56 264.79,-60.91 267.24,-67.69"/>
<text text-anchor="middle" x="312.88" y="-82" font-family="Helvetica,sans-Serif" font-size="10.00"> +actors</text>
</g>
</g>
</svg>
