<?xml version="1.0" encoding="UTF-8" standalone="no"?>
<!DOCTYPE svg PUBLIC "-//W3C//DTD SVG 1.1//EN"
 "http://www.w3.org/Graphics/SVG/1.1/DTD/svg11.dtd">
<!-- Generated by graphviz version 3.0.0 (20220226.1711)
 -->
<!-- Title: texture2d.h Pages: 1 -->
<svg width="713pt" height="371pt"
 viewBox="0.00 0.00 712.71 371.00" xmlns="http://www.w3.org/2000/svg" xmlns:xlink="http://www.w3.org/1999/xlink">
<g id="graph0" class="graph" transform="scale(1 1) rotate(0) translate(4 367)">
<title>texture2d.h</title>
<!-- Node1 -->
<g id="node1" class="node">
<title>Node1</title>
<g id="a_node1"><a xlink:title=" ">
<polygon fill="#bfbfbf" stroke="black" points="314.01,-342.5 314.01,-362.5 380.04,-362.5 380.04,-342.5 314.01,-342.5"/>
<text text-anchor="middle" x="347.03" y="-349.5" font-family="Helvetica,sans-Serif" font-size="10.00">texture2d.h</text>
</a>
</g>
</g>
<!-- Node2 -->
<g id="node2" class="node">
<title>Node2</title>
<g id="a_node2"><a xlink:href="sprite_8h.html" target="_top" xlink:title=" ">
<polygon fill="none" stroke="black" points="322.63,-285.5 322.63,-305.5 371.42,-305.5 371.42,-285.5 322.63,-285.5"/>
<text text-anchor="middle" x="347.03" y="-292.5" font-family="Helvetica,sans-Serif" font-size="10.00">sprite.h</text>
</a>
</g>
</g>
<!-- Node1&#45;&gt;Node2 -->
<g id="edge1" class="edge">
<title>Node1&#45;&gt;Node2</title>
<path fill="none" stroke="midnightblue" d="M347.03,-332.38C347.03,-323.37 347.03,-313.04 347.03,-305.78"/>
<polygon fill="midnightblue" stroke="midnightblue" points="343.53,-332.42 347.03,-342.42 350.53,-332.42 343.53,-332.42"/>
</g>
<!-- Node23 -->
<g id="node23" class="node">
<title>Node23</title>
<g id="a_node23"><a xlink:href="sprite__animated_8h.html" target="_top" xlink:title=" ">
<polygon fill="none" stroke="black" points="65.28,-171.5 65.28,-191.5 160.77,-191.5 160.77,-171.5 65.28,-171.5"/>
<text text-anchor="middle" x="113.03" y="-178.5" font-family="Helvetica,sans-Serif" font-size="10.00">sprite_animated.h</text>
</a>
</g>
</g>
<!-- Node1&#45;&gt;Node23 -->
<g id="edge42" class="edge">
<title>Node1&#45;&gt;Node23</title>
<path fill="none" stroke="midnightblue" d="M306.13,-339.28C261.86,-324.26 191.48,-294.96 146.03,-249 129.53,-232.32 119.81,-205.75 115.57,-191.78"/>
<polygon fill="midnightblue" stroke="midnightblue" points="305.12,-342.63 315.71,-342.44 307.31,-335.98 305.12,-342.63"/>
</g>
<!-- Node24 -->
<g id="node24" class="node">
<title>Node24</title>
<g id="a_node24"><a xlink:href="texture2d_8cpp.html" target="_top" xlink:title=" ">
<polygon fill="none" stroke="black" points="389.73,-285.5 389.73,-305.5 466.32,-305.5 466.32,-285.5 389.73,-285.5"/>
<text text-anchor="middle" x="428.03" y="-292.5" font-family="Helvetica,sans-Serif" font-size="10.00">texture2d.cpp</text>
</a>
</g>
</g>
<!-- Node1&#45;&gt;Node24 -->
<g id="edge43" class="edge">
<title>Node1&#45;&gt;Node24</title>
<path fill="none" stroke="midnightblue" d="M368.86,-336.67C383.46,-326.76 402.2,-314.04 414.63,-305.6"/>
<polygon fill="midnightblue" stroke="midnightblue" points="366.71,-333.9 360.4,-342.42 370.64,-339.7 366.71,-333.9"/>
</g>
<!-- Node3 -->
<g id="node3" class="node">
<title>Node3</title>
<g id="a_node3"><a xlink:href="actor_8h.html" target="_top" xlink:title=" ">
<polygon fill="none" stroke="black" points="288.74,-228.5 288.74,-248.5 335.31,-248.5 335.31,-228.5 288.74,-228.5"/>
<text text-anchor="middle" x="312.03" y="-235.5" font-family="Helvetica,sans-Serif" font-size="10.00">actor.h</text>
</a>
</g>
</g>
<!-- Node2&#45;&gt;Node3 -->
<g id="edge2" class="edge">
<title>Node2&#45;&gt;Node3</title>
<path fill="none" stroke="midnightblue" d="M335.8,-276.86C329.86,-267.52 322.8,-256.44 317.93,-248.78"/>
<polygon fill="midnightblue" stroke="midnightblue" points="332.93,-278.86 341.25,-285.42 338.83,-275.1 332.93,-278.86"/>
</g>
<!-- Node5 -->
<g id="node5" class="node">
<title>Node5</title>
<g id="a_node5"><a xlink:href="game__scene_8h.html" target="_top" xlink:title=" ">
<polygon fill="none" stroke="black" points="176.23,-114.5 176.23,-134.5 257.83,-134.5 257.83,-114.5 176.23,-114.5"/>
<text text-anchor="middle" x="217.03" y="-121.5" font-family="Helvetica,sans-Serif" font-size="10.00">game_scene.h</text>
</a>
</g>
</g>
<!-- Node2&#45;&gt;Node5 -->
<g id="edge34" class="edge">
<title>Node2&#45;&gt;Node5</title>
<path fill="none" stroke="midnightblue" d="M320.81,-280.39C307.53,-272.38 291.78,-261.47 280.03,-249 246.51,-213.45 226.53,-156.62 219.7,-134.62"/>
<polygon fill="midnightblue" stroke="midnightblue" points="319.12,-283.45 329.52,-285.45 322.63,-277.4 319.12,-283.45"/>
</g>
<!-- Node16 -->
<g id="node16" class="node">
<title>Node16</title>
<g id="a_node16"><a xlink:href="renderer_8h.html" target="_top" xlink:title=" ">
<polygon fill="none" stroke="black" points="515.96,-114.5 515.96,-134.5 578.1,-134.5 578.1,-114.5 515.96,-114.5"/>
<text text-anchor="middle" x="547.03" y="-121.5" font-family="Helvetica,sans-Serif" font-size="10.00">renderer.h</text>
</a>
</g>
</g>
<!-- Node2&#45;&gt;Node16 -->
<g id="edge35" class="edge">
<title>Node2&#45;&gt;Node16</title>
<path fill="none" stroke="midnightblue" d="M373.58,-280.41C388.39,-272.07 406.86,-260.83 422.03,-249 470.62,-211.1 520.35,-156.12 539.17,-134.61"/>
<polygon fill="midnightblue" stroke="midnightblue" points="371.51,-277.56 364.45,-285.46 374.9,-283.68 371.51,-277.56"/>
</g>
<!-- Node18 -->
<g id="node18" class="node">
<title>Node18</title>
<g id="a_node18"><a xlink:href="stage_8cpp.html" target="_top" xlink:title=" ">
<polygon fill="none" stroke="black" points="645.34,-57.5 645.34,-77.5 704.71,-77.5 704.71,-57.5 645.34,-57.5"/>
<text text-anchor="middle" x="675.03" y="-64.5" font-family="Helvetica,sans-Serif" font-size="10.00">stage.cpp</text>
</a>
</g>
</g>
<!-- Node2&#45;&gt;Node18 -->
<g id="edge40" class="edge">
<title>Node2&#45;&gt;Node18</title>
<path fill="none" stroke="midnightblue" d="M381.08,-284.87C407.61,-276.81 445.02,-264.2 476.03,-249 560.05,-207.83 595.73,-208.98 653.03,-135 666.58,-117.5 671.98,-91.27 673.97,-77.57"/>
<polygon fill="midnightblue" stroke="midnightblue" points="380.07,-281.52 371.48,-287.73 382.07,-288.23 380.07,-281.52"/>
</g>
<!-- Node19 -->
<g id="node19" class="node">
<title>Node19</title>
<g id="a_node19"><a xlink:href="stage_8h.html" target="_top" xlink:title=" ">
<polygon fill="none" stroke="black" points="595.63,-114.5 595.63,-134.5 644.43,-134.5 644.43,-114.5 595.63,-114.5"/>
<text text-anchor="middle" x="620.03" y="-121.5" font-family="Helvetica,sans-Serif" font-size="10.00">stage.h</text>
</a>
</g>
</g>
<!-- Node2&#45;&gt;Node19 -->
<g id="edge41" class="edge">
<title>Node2&#45;&gt;Node19</title>
<path fill="none" stroke="midnightblue" d="M379.57,-281.58C399.52,-273.2 425.31,-261.54 447.03,-249 511.59,-211.74 581.98,-156.39 608.8,-134.69"/>
<polygon fill="midnightblue" stroke="midnightblue" points="378.19,-278.36 370.29,-285.42 380.87,-284.83 378.19,-278.36"/>
</g>
<!-- Node22 -->
<g id="node22" class="node">
<title>Node22</title>
<g id="a_node22"><a xlink:href="sprite_8cpp.html" target="_top" xlink:title=" ">
<polygon fill="none" stroke="black" points="353.35,-228.5 353.35,-248.5 412.7,-248.5 412.7,-228.5 353.35,-228.5"/>
<text text-anchor="middle" x="383.03" y="-235.5" font-family="Helvetica,sans-Serif" font-size="10.00">sprite.cpp</text>
</a>
</g>
</g>
<!-- Node2&#45;&gt;Node22 -->
<g id="edge36" class="edge">
<title>Node2&#45;&gt;Node22</title>
<path fill="none" stroke="midnightblue" d="M358.58,-276.86C364.69,-267.52 371.94,-256.44 376.95,-248.78"/>
<polygon fill="midnightblue" stroke="midnightblue" points="355.52,-275.13 352.97,-285.42 361.38,-278.97 355.52,-275.13"/>
</g>
<!-- Node2&#45;&gt;Node23 -->
<g id="edge37" class="edge">
<title>Node2&#45;&gt;Node23</title>
<path fill="none" stroke="midnightblue" d="M312.47,-291.08C276.08,-286.23 218.2,-274.85 175.03,-249 150.11,-234.08 128.98,-206.25 119.07,-191.78"/>
<polygon fill="midnightblue" stroke="midnightblue" points="312.23,-294.58 322.58,-292.34 313.09,-287.63 312.23,-294.58"/>
</g>
<!-- Node4 -->
<g id="node4" class="node">
<title>Node4</title>
<g id="a_node4"><a xlink:href="actor_8cpp.html" target="_top" xlink:title=" ">
<polygon fill="none" stroke="black" points="255.46,-171.5 255.46,-191.5 312.59,-191.5 312.59,-171.5 255.46,-171.5"/>
<text text-anchor="middle" x="284.03" y="-178.5" font-family="Helvetica,sans-Serif" font-size="10.00">actor.cpp</text>
</a>
</g>
</g>
<!-- Node3&#45;&gt;Node4 -->
<g id="edge3" class="edge">
<title>Node3&#45;&gt;Node4</title>
<path fill="none" stroke="midnightblue" d="M302.75,-219.27C298.06,-210.06 292.57,-199.28 288.75,-191.78"/>
<polygon fill="midnightblue" stroke="midnightblue" points="299.75,-221.09 307.4,-228.42 305.99,-217.92 299.75,-221.09"/>
</g>
<!-- Node3&#45;&gt;Node5 -->
<g id="edge4" class="edge">
<title>Node3&#45;&gt;Node5</title>
<path fill="none" stroke="midnightblue" d="M321.11,-219.24C326.79,-205 331.41,-185.29 322.03,-171 313.39,-157.84 275.19,-143.53 247.36,-134.55"/>
<polygon fill="midnightblue" stroke="midnightblue" points="317.86,-217.94 316.97,-228.5 324.25,-220.79 317.86,-217.94"/>
</g>
<!-- Node11 -->
<g id="node11" class="node">
<title>Node11</title>
<g id="a_node11"><a xlink:href="scene_8h.html" target="_top" xlink:title=" ">
<polygon fill="none" stroke="black" points="393.51,-171.5 393.51,-191.5 444.54,-191.5 444.54,-171.5 393.51,-171.5"/>
<text text-anchor="middle" x="419.03" y="-178.5" font-family="Helvetica,sans-Serif" font-size="10.00">scene.h</text>
</a>
</g>
</g>
<!-- Node3&#45;&gt;Node11 -->
<g id="edge10" class="edge">
<title>Node3&#45;&gt;Node11</title>
<path fill="none" stroke="midnightblue" d="M338.71,-223.78C358.27,-213.73 384.29,-200.36 401.33,-191.6"/>
<polygon fill="midnightblue" stroke="midnightblue" points="336.99,-220.73 329.7,-228.42 340.19,-226.96 336.99,-220.73"/>
</g>
<!-- Node20 -->
<g id="node20" class="node">
<title>Node20</title>
<g id="a_node20"><a xlink:href="store_8h.html" target="_top" xlink:title=" ">
<polygon fill="none" stroke="black" points="239.74,-57.5 239.74,-77.5 286.31,-77.5 286.31,-57.5 239.74,-57.5"/>
<text text-anchor="middle" x="263.03" y="-64.5" font-family="Helvetica,sans-Serif" font-size="10.00">store.h</text>
</a>
</g>
</g>
<!-- Node3&#45;&gt;Node20 -->
<g id="edge33" class="edge">
<title>Node3&#45;&gt;Node20</title>
<path fill="none" stroke="midnightblue" d="M279.15,-225.14C244.02,-209.93 190.26,-180.41 167.03,-135 150.17,-102.06 206.14,-82.29 239.66,-73.65"/>
<polygon fill="midnightblue" stroke="midnightblue" points="277.95,-228.43 288.53,-229.05 280.65,-221.97 277.95,-228.43"/>
</g>
<!-- Node6 -->
<g id="node6" class="node">
<title>Node6</title>
<g id="a_node6"><a xlink:href="scenes_8h.html" target="_top" xlink:title=" ">
<polygon fill="none" stroke="black" points="304.01,-57.5 304.01,-77.5 360.04,-77.5 360.04,-57.5 304.01,-57.5"/>
<text text-anchor="middle" x="332.03" y="-64.5" font-family="Helvetica,sans-Serif" font-size="10.00">scenes.h</text>
</a>
</g>
</g>
<!-- Node5&#45;&gt;Node6 -->
<g id="edge5" class="edge">
<title>Node5&#45;&gt;Node6</title>
<path fill="none" stroke="midnightblue" d="M245.14,-110.06C266.22,-99.97 294.52,-86.44 313.01,-77.6"/>
<polygon fill="midnightblue" stroke="midnightblue" points="243.53,-106.95 236.02,-114.42 246.55,-113.26 243.53,-106.95"/>
</g>
<!-- Node7 -->
<g id="node7" class="node">
<title>Node7</title>
<g id="a_node7"><a xlink:href="game__scene_8cpp.html" target="_top" xlink:title=" ">
<polygon fill="none" stroke="black" points="345.95,-0.5 345.95,-20.5 438.11,-20.5 438.11,-0.5 345.95,-0.5"/>
<text text-anchor="middle" x="392.03" y="-7.5" font-family="Helvetica,sans-Serif" font-size="10.00">game_scene.cpp</text>
</a>
</g>
</g>
<!-- Node6&#45;&gt;Node7 -->
<g id="edge6" class="edge">
<title>Node6&#45;&gt;Node7</title>
<path fill="none" stroke="midnightblue" d="M349.39,-50.58C359.93,-40.92 373.03,-28.91 381.9,-20.78"/>
<polygon fill="midnightblue" stroke="midnightblue" points="346.94,-48.08 341.93,-57.42 351.67,-53.24 346.94,-48.08"/>
</g>
<!-- Node8 -->
<g id="node8" class="node">
<title>Node8</title>
<g id="a_node8"><a xlink:href="main_8cpp.html" target="_top" xlink:title=" ">
<polygon fill="none" stroke="black" points="455.74,-0.5 455.74,-20.5 512.31,-20.5 512.31,-0.5 455.74,-0.5"/>
<text text-anchor="middle" x="484.03" y="-7.5" font-family="Helvetica,sans-Serif" font-size="10.00">main.cpp</text>
</a>
</g>
</g>
<!-- Node6&#45;&gt;Node8 -->
<g id="edge7" class="edge">
<title>Node6&#45;&gt;Node8</title>
<path fill="none" stroke="midnightblue" d="M366.6,-53.99C394.8,-43.79 433.95,-29.62 459.14,-20.5"/>
<polygon fill="midnightblue" stroke="midnightblue" points="365.34,-50.72 357.13,-57.42 367.72,-57.31 365.34,-50.72"/>
</g>
<!-- Node9 -->
<g id="node9" class="node">
<title>Node9</title>
<g id="a_node9"><a xlink:href="menu__scene_8cpp.html" target="_top" xlink:title=" ">
<polygon fill="none" stroke="black" points="235.95,-0.5 235.95,-20.5 328.11,-20.5 328.11,-0.5 235.95,-0.5"/>
<text text-anchor="middle" x="282.03" y="-7.5" font-family="Helvetica,sans-Serif" font-size="10.00">menu_scene.cpp</text>
</a>
</g>
</g>
<!-- Node6&#45;&gt;Node9 -->
<g id="edge8" class="edge">
<title>Node6&#45;&gt;Node9</title>
<path fill="none" stroke="midnightblue" d="M317.04,-50.01C308.34,-40.45 297.71,-28.76 290.46,-20.78"/>
<polygon fill="midnightblue" stroke="midnightblue" points="314.45,-52.37 323.77,-57.42 319.63,-47.66 314.45,-52.37"/>
</g>
<!-- Node10 -->
<g id="node10" class="node">
<title>Node10</title>
<g id="a_node10"><a xlink:href="pause__scene_8cpp.html" target="_top" xlink:title=" ">
<polygon fill="none" stroke="black" points="123.83,-0.5 123.83,-20.5 218.22,-20.5 218.22,-0.5 123.83,-0.5"/>
<text text-anchor="middle" x="171.03" y="-7.5" font-family="Helvetica,sans-Serif" font-size="10.00">pause_scene.cpp</text>
</a>
</g>
</g>
<!-- Node6&#45;&gt;Node10 -->
<g id="edge9" class="edge">
<title>Node6&#45;&gt;Node10</title>
<path fill="none" stroke="midnightblue" d="M295.79,-54.12C265.9,-43.91 224.18,-29.66 197.38,-20.5"/>
<polygon fill="midnightblue" stroke="midnightblue" points="294.85,-57.5 305.44,-57.42 297.11,-50.87 294.85,-57.5"/>
</g>
<!-- Node11&#45;&gt;Node5 -->
<g id="edge14" class="edge">
<title>Node11&#45;&gt;Node5</title>
<path fill="none" stroke="midnightblue" d="M383.42,-170.8C345.75,-160.55 286.78,-144.49 250.1,-134.5"/>
<polygon fill="midnightblue" stroke="midnightblue" points="382.88,-174.28 393.44,-173.53 384.71,-167.53 382.88,-174.28"/>
</g>
<!-- Node12 -->
<g id="node12" class="node">
<title>Node12</title>
<g id="a_node12"><a xlink:href="game_8h.html" target="_top" xlink:title=" ">
<polygon fill="none" stroke="black" points="449.35,-57.5 449.35,-77.5 498.7,-77.5 498.7,-57.5 449.35,-57.5"/>
<text text-anchor="middle" x="474.03" y="-64.5" font-family="Helvetica,sans-Serif" font-size="10.00">game.h</text>
</a>
</g>
</g>
<!-- Node11&#45;&gt;Node12 -->
<g id="edge11" class="edge">
<title>Node11&#45;&gt;Node12</title>
<path fill="none" stroke="midnightblue" d="M442.28,-165.46C452.3,-157.66 463.08,-147.2 469.03,-135 478.16,-116.27 476.92,-91 475.38,-77.65"/>
<polygon fill="midnightblue" stroke="midnightblue" points="440.18,-162.66 434.15,-171.37 444.3,-168.32 440.18,-162.66"/>
</g>
<!-- Node14 -->
<g id="node14" class="node">
<title>Node14</title>
<g id="a_node14"><a xlink:href="menu__scene_8h.html" target="_top" xlink:title=" ">
<polygon fill="none" stroke="black" points="378.23,-114.5 378.23,-134.5 459.83,-134.5 459.83,-114.5 378.23,-114.5"/>
<text text-anchor="middle" x="419.03" y="-121.5" font-family="Helvetica,sans-Serif" font-size="10.00">menu_scene.h</text>
</a>
</g>
</g>
<!-- Node11&#45;&gt;Node14 -->
<g id="edge15" class="edge">
<title>Node11&#45;&gt;Node14</title>
<path fill="none" stroke="midnightblue" d="M419.03,-161.38C419.03,-152.37 419.03,-142.04 419.03,-134.78"/>
<polygon fill="midnightblue" stroke="midnightblue" points="415.53,-161.42 419.03,-171.42 422.53,-161.42 415.53,-161.42"/>
</g>
<!-- Node15 -->
<g id="node15" class="node">
<title>Node15</title>
<g id="a_node15"><a xlink:href="pause__scene_8h.html" target="_top" xlink:title=" ">
<polygon fill="none" stroke="black" points="276.11,-114.5 276.11,-134.5 359.94,-134.5 359.94,-114.5 276.11,-114.5"/>
<text text-anchor="middle" x="318.03" y="-121.5" font-family="Helvetica,sans-Serif" font-size="10.00">pause_scene.h</text>
</a>
</g>
</g>
<!-- Node11&#45;&gt;Node15 -->
<g id="edge17" class="edge">
<title>Node11&#45;&gt;Node15</title>
<path fill="none" stroke="midnightblue" d="M393.33,-166.51C374.93,-156.49 350.67,-143.28 334.73,-134.6"/>
<polygon fill="midnightblue" stroke="midnightblue" points="391.89,-169.71 402.35,-171.42 395.24,-163.56 391.89,-169.71"/>
</g>
<!-- Node11&#45;&gt;Node16 -->
<g id="edge19" class="edge">
<title>Node11&#45;&gt;Node16</title>
<path fill="none" stroke="midnightblue" d="M449.37,-167.46C472.93,-157.34 505,-143.56 525.86,-134.6"/>
<polygon fill="midnightblue" stroke="midnightblue" points="447.97,-164.25 440.16,-171.42 450.73,-170.69 447.97,-164.25"/>
</g>
<!-- Node11&#45;&gt;Node19 -->
<g id="edge23" class="edge">
<title>Node11&#45;&gt;Node19</title>
<path fill="none" stroke="midnightblue" d="M454.61,-171.04C488.65,-161.95 541.4,-147.75 587.03,-135 589.78,-134.23 592.67,-133.41 595.53,-132.6"/>
<polygon fill="midnightblue" stroke="midnightblue" points="453.44,-167.73 444.68,-173.69 455.24,-174.49 453.44,-167.73"/>
</g>
<!-- Node12&#45;&gt;Node8 -->
<g id="edge13" class="edge">
<title>Node12&#45;&gt;Node8</title>
<path fill="none" stroke="midnightblue" d="M477.5,-47.38C479.14,-38.37 481.02,-28.04 482.34,-20.78"/>
<polygon fill="midnightblue" stroke="midnightblue" points="474.02,-46.95 475.68,-57.42 480.91,-48.21 474.02,-46.95"/>
</g>
<!-- Node13 -->
<g id="node13" class="node">
<title>Node13</title>
<g id="a_node13"><a xlink:href="game_8cpp.html" target="_top" xlink:title=" ">
<polygon fill="none" stroke="black" points="530.07,-0.5 530.07,-20.5 589.98,-20.5 589.98,-0.5 530.07,-0.5"/>
<text text-anchor="middle" x="560.03" y="-7.5" font-family="Helvetica,sans-Serif" font-size="10.00">game.cpp</text>
</a>
</g>
</g>
<!-- Node12&#45;&gt;Node13 -->
<g id="edge12" class="edge">
<title>Node12&#45;&gt;Node13</title>
<path fill="none" stroke="midnightblue" d="M496.77,-51.95C512.33,-42 532.48,-29.12 545.8,-20.6"/>
<polygon fill="midnightblue" stroke="midnightblue" points="494.77,-49.08 488.23,-57.42 498.54,-54.98 494.77,-49.08"/>
</g>
<!-- Node14&#45;&gt;Node6 -->
<g id="edge16" class="edge">
<title>Node14&#45;&gt;Node6</title>
<path fill="none" stroke="midnightblue" d="M396.02,-108.95C380.28,-99 359.9,-86.12 346.41,-77.6"/>
<polygon fill="midnightblue" stroke="midnightblue" points="394.34,-112.03 404.66,-114.42 398.08,-106.12 394.34,-112.03"/>
</g>
<!-- Node15&#45;&gt;Node6 -->
<g id="edge18" class="edge">
<title>Node15&#45;&gt;Node6</title>
<path fill="none" stroke="midnightblue" d="M322.82,-104.68C325.13,-95.6 327.8,-85.12 329.66,-77.78"/>
<polygon fill="midnightblue" stroke="midnightblue" points="319.41,-103.86 320.34,-114.42 326.2,-105.59 319.41,-103.86"/>
</g>
<!-- Node16&#45;&gt;Node7 -->
<g id="edge20" class="edge">
<title>Node16&#45;&gt;Node7</title>
<path fill="none" stroke="midnightblue" d="M505.89,-111.89C484.72,-104.53 459.36,-93.44 440.03,-78 419.78,-61.83 404.06,-35.04 396.66,-20.9"/>
<polygon fill="midnightblue" stroke="midnightblue" points="505,-115.28 515.59,-115.11 507.21,-108.64 505,-115.28"/>
</g>
<!-- Node17 -->
<g id="node17" class="node">
<title>Node17</title>
<g id="a_node17"><a xlink:href="renderer_8cpp.html" target="_top" xlink:title=" ">
<polygon fill="none" stroke="black" points="516.68,-57.5 516.68,-77.5 589.38,-77.5 589.38,-57.5 516.68,-57.5"/>
<text text-anchor="middle" x="553.03" y="-64.5" font-family="Helvetica,sans-Serif" font-size="10.00">renderer.cpp</text>
</a>
</g>
</g>
<!-- Node16&#45;&gt;Node17 -->
<g id="edge21" class="edge">
<title>Node16&#45;&gt;Node17</title>
<path fill="none" stroke="midnightblue" d="M549.11,-104.38C550.1,-95.37 551.22,-85.04 552.01,-77.78"/>
<polygon fill="midnightblue" stroke="midnightblue" points="545.62,-104.1 548.02,-114.42 552.58,-104.86 545.62,-104.1"/>
</g>
<!-- Node16&#45;&gt;Node18 -->
<g id="edge22" class="edge">
<title>Node16&#45;&gt;Node18</title>
<path fill="none" stroke="midnightblue" d="M577.37,-110.46C600.93,-100.34 633,-86.56 653.86,-77.6"/>
<polygon fill="midnightblue" stroke="midnightblue" points="575.97,-107.25 568.16,-114.42 578.73,-113.69 575.97,-107.25"/>
</g>
<!-- Node19&#45;&gt;Node13 -->
<g id="edge24" class="edge">
<title>Node19&#45;&gt;Node13</title>
<path fill="none" stroke="midnightblue" d="M615.82,-104.67C612.27,-90.91 606.42,-72.09 598.03,-57 590.32,-43.15 578.14,-29.5 569.65,-20.82"/>
<polygon fill="midnightblue" stroke="midnightblue" points="612.43,-105.55 618.17,-114.45 619.24,-103.91 612.43,-105.55"/>
</g>
<!-- Node19&#45;&gt;Node17 -->
<g id="edge25" class="edge">
<title>Node19&#45;&gt;Node17</title>
<path fill="none" stroke="midnightblue" d="M600.98,-107.87C589.15,-98.15 574.34,-85.99 564.33,-77.78"/>
<polygon fill="midnightblue" stroke="midnightblue" points="599.01,-110.78 608.96,-114.42 603.45,-105.37 599.01,-110.78"/>
</g>
<!-- Node19&#45;&gt;Node18 -->
<g id="edge26" class="edge">
<title>Node19&#45;&gt;Node18</title>
<path fill="none" stroke="midnightblue" d="M636.23,-107.3C645.84,-97.68 657.69,-85.83 665.75,-77.78"/>
<polygon fill="midnightblue" stroke="midnightblue" points="633.71,-104.87 629.11,-114.42 638.65,-109.82 633.71,-104.87"/>
</g>
<!-- Node19&#45;&gt;Node20 -->
<g id="edge27" class="edge">
<title>Node19&#45;&gt;Node20</title>
<path fill="none" stroke="midnightblue" d="M585.79,-114.03C457.1,-88.63 419.91,-104.05 295.03,-78 292.19,-77.41 289.24,-76.69 286.33,-75.91"/>
<polygon fill="midnightblue" stroke="midnightblue" points="585.13,-117.46 595.63,-116.01 586.51,-110.6 585.13,-117.46"/>
</g>
<!-- Node20&#45;&gt;Node7 -->
<g id="edge29" class="edge">
<title>Node20&#45;&gt;Node7</title>
<path fill="none" stroke="midnightblue" d="M293.6,-53.46C317.35,-43.34 349.67,-29.56 370.69,-20.6"/>
<polygon fill="midnightblue" stroke="midnightblue" points="292.15,-50.28 284.33,-57.42 294.9,-56.72 292.15,-50.28"/>
</g>
<!-- Node20&#45;&gt;Node9 -->
<g id="edge30" class="edge">
<title>Node20&#45;&gt;Node9</title>
<path fill="none" stroke="midnightblue" d="M269.53,-47.68C272.66,-38.6 276.29,-28.12 278.82,-20.78"/>
<polygon fill="midnightblue" stroke="midnightblue" points="266.12,-46.82 266.16,-57.42 272.74,-49.11 266.12,-46.82"/>
</g>
<!-- Node20&#45;&gt;Node10 -->
<g id="edge31" class="edge">
<title>Node20&#45;&gt;Node10</title>
<path fill="none" stroke="midnightblue" d="M239.16,-52.23C222.45,-42.24 200.63,-29.2 186.24,-20.6"/>
<polygon fill="midnightblue" stroke="midnightblue" points="237.46,-55.29 247.83,-57.42 241.05,-49.28 237.46,-55.29"/>
</g>
<!-- Node20&#45;&gt;Node13 -->
<g id="edge28" class="edge">
<title>Node20&#45;&gt;Node13</title>
<path fill="none" stroke="midnightblue" d="M296.23,-56.97C395.98,-34.86 424.43,-40.43 521.03,-21 523.9,-20.42 526.87,-19.78 529.85,-19.11"/>
<polygon fill="midnightblue" stroke="midnightblue" points="295.34,-53.58 286.35,-59.19 296.88,-60.41 295.34,-53.58"/>
</g>
<!-- Node21 -->
<g id="node21" class="node">
<title>Node21</title>
<g id="a_node21"><a xlink:href="sprite__animated_8cpp.html" target="_top" xlink:title=" ">
<polygon fill="none" stroke="black" points="0,-0.5 0,-20.5 106.05,-20.5 106.05,-0.5 0,-0.5"/>
<text text-anchor="middle" x="53.03" y="-7.5" font-family="Helvetica,sans-Serif" font-size="10.00">sprite_animated.cpp</text>
</a>
</g>
</g>
<!-- Node20&#45;&gt;Node21 -->
<g id="edge32" class="edge">
<title>Node20&#45;&gt;Node21</title>
<path fill="none" stroke="midnightblue" d="M229.57,-57.74C190.76,-47.57 127.09,-30.9 87.75,-20.59"/>
<polygon fill="midnightblue" stroke="midnightblue" points="228.78,-61.15 239.35,-60.3 230.56,-54.38 228.78,-61.15"/>
</g>
<!-- Node23&#45;&gt;Node5 -->
<g id="edge38" class="edge">
<title>Node23&#45;&gt;Node5</title>
<path fill="none" stroke="midnightblue" d="M139.22,-166.65C158.21,-156.61 183.33,-143.32 199.83,-134.6"/>
<polygon fill="midnightblue" stroke="midnightblue" points="137.4,-163.65 130.2,-171.42 140.68,-169.84 137.4,-163.65"/>
</g>
<!-- Node23&#45;&gt;Node21 -->
<g id="edge39" class="edge">
<title>Node23&#45;&gt;Node21</title>
<path fill="none" stroke="midnightblue" d="M106.32,-161.61C93.45,-125.36 65.73,-47.28 56.27,-20.63"/>
<polygon fill="midnightblue" stroke="midnightblue" points="103.16,-163.16 109.8,-171.41 109.75,-160.82 103.16,-163.16"/>
</g>
</g>
</svg>
