<?xml version="1.0" encoding="UTF-8" standalone="no"?>
<!DOCTYPE svg PUBLIC "-//W3C//DTD SVG 1.1//EN"
 "http://www.w3.org/Graphics/SVG/1.1/DTD/svg11.dtd">
<!-- Generated by graphviz version 3.0.0 (20220226.1711)
 -->
<!-- Title: texture2d.cpp Pages: 1 -->
<svg width="110pt" height="143pt"
 viewBox="0.00 0.00 110.31 143.00" xmlns="http://www.w3.org/2000/svg" xmlns:xlink="http://www.w3.org/1999/xlink">
<g id="graph0" class="graph" transform="scale(1 1) rotate(0) translate(4 139)">
<title>texture2d.cpp</title>
<!-- Node1 -->
<g id="node1" class="node">
<title>Node1</title>
<g id="a_node1"><a xlink:title=" ">
<polygon fill="#bfbfbf" stroke="black" points="0,-114.5 0,-134.5 76.6,-134.5 76.6,-114.5 0,-114.5"/>
<text text-anchor="middle" x="38.3" y="-121.5" font-family="Helvetica,sans-Serif" font-size="10.00">texture2d.cpp</text>
</a>
</g>
</g>
<!-- Node2 -->
<g id="node2" class="node">
<title>Node2</title>
<g id="a_node2"><a xlink:title=" ">
<polygon fill="none" stroke="#bfbfbf" points="14.18,-0.5 14.18,-20.5 62.42,-20.5 62.42,-0.5 14.18,-0.5"/>
<text text-anchor="middle" x="38.3" y="-7.5" font-family="Helvetica,sans-Serif" font-size="10.00">raylib.h</text>
</a>
</g>
</g>
<!-- Node1&#45;&gt;Node2 -->
<g id="edge1" class="edge">
<title>Node1&#45;&gt;Node2</title>
<path fill="none" stroke="midnightblue" d="M35.36,-114.21C32.65,-105.09 28.82,-90.75 27.3,-78 26.19,-68.73 26.19,-66.27 27.3,-57 28.34,-48.23 30.48,-38.72 32.6,-30.66"/>
<polygon fill="midnightblue" stroke="midnightblue" points="36.03,-31.37 35.36,-20.79 29.29,-29.48 36.03,-31.37"/>
</g>
<!-- Node3 -->
<g id="node3" class="node">
<title>Node3</title>
<g id="a_node3"><a xlink:href="texture2d_8h.html" target="_top" xlink:title=" ">
<polygon fill="none" stroke="black" points="36.28,-57.5 36.28,-77.5 102.31,-77.5 102.31,-57.5 36.28,-57.5"/>
<text text-anchor="middle" x="69.3" y="-64.5" font-family="Helvetica,sans-Serif" font-size="10.00">texture2d.h</text>
</a>
</g>
</g>
<!-- Node1&#45;&gt;Node3 -->
<g id="edge2" class="edge">
<title>Node1&#45;&gt;Node3</title>
<path fill="none" stroke="midnightblue" d="M43.42,-114.42C47.65,-106.9 53.81,-95.98 59.05,-86.68"/>
<polygon fill="midnightblue" stroke="midnightblue" points="62.21,-88.21 64.07,-77.78 56.11,-84.77 62.21,-88.21"/>
</g>
<!-- Node3&#45;&gt;Node2 -->
<g id="edge3" class="edge">
<title>Node3&#45;&gt;Node2</title>
<path fill="none" stroke="midnightblue" d="M64.18,-57.42C59.94,-49.9 53.79,-38.98 48.54,-29.68"/>
<polygon fill="midnightblue" stroke="midnightblue" points="51.49,-27.77 43.53,-20.78 45.39,-31.21 51.49,-27.77"/>
</g>
</g>
</svg>
